<svg width="32" height="32" viewBox="0 0 32 32" fill="none" xmlns="http://www.w3.org/2000/svg">
<rect width="32" height="32" fill="white"/>
<path d="M19.0517 4.39149C18.0773 4.13603 17.0545 4 16 4C9.37258 4 4 9.37258 4 16C4 17.3 4.20673 18.5518 4.5891 19.7241M19.0517 4.39149C24.2011 5.74152 28 10.4271 28 16C28 19.0204 26.8841 21.7802 25.042 23.8896C24.5262 24.4803 23.9535 25.0199 23.3324 25.5M19.0517 4.39149L4.5891 19.7241M4.5891 19.7241C5.04142 21.111 5.73951 22.3867 6.63194 23.5C6.73791 23.6322 6.84662 23.7621 6.95798 23.8896C8.84793 26.0538 11.5023 27.5333 14.5 27.9072C14.9914 27.9684 15.492 28 16 28C18.7612 28 21.3046 27.0674 23.3324 25.5M4.5891 19.7241L23.3324 25.5" stroke="#1F2332" stroke-width="2"/>
</svg>
