<svg width="24" height="24" viewBox="0 0 24 24" fill="none" xmlns="http://www.w3.org/2000/svg">
<path d="M5.34364 14.1724C5.12059 13.4885 5 12.7583 5 12C5 8.13401 8.13401 5 12 5C12.6151 5 13.2118 5.07935 13.7802 5.22837C16.784 6.01589 19 8.74916 19 12C19 13.7619 18.349 15.3718 17.2745 16.6023C16.9736 16.9468 16.6395 17.2616 16.2772 17.5417C15.0944 18.456 13.6107 19 12 19C11.7037 19 11.4116 18.9816 11.125 18.9458C9.37633 18.7278 7.82796 17.8647 6.72549 16.6023C6.66053 16.5279 6.59711 16.4521 6.5353 16.375C6.01471 15.7256 5.60749 14.9814 5.34364 14.1724ZM5.34364 14.1724L18.6976 9.95833M5.34364 14.1724L9.56191 9.70039M5.34364 14.1724L10.8104 15.857" stroke="#1F2332" stroke-width="1.6"/>
</svg>
