<svg width="32" height="32" viewBox="0 0 32 32" fill="none" xmlns="http://www.w3.org/2000/svg">
<path d="M26.46 12.5862C26.8105 13.6609 27 14.8083 27 16C27 22.0751 22.0751 27 16 27C15.0333 27 14.0958 26.8753 13.2026 26.6411C8.48229 25.4036 5 21.1085 5 16C5 13.2313 6.02293 10.7014 7.71148 8.76786C8.18429 8.22643 8.7093 7.73175 9.27864 7.29167C11.1374 5.85489 13.4689 5 16 5C16.4657 5 16.9246 5.02894 17.375 5.08511C20.1229 5.42777 22.5561 6.78399 24.2885 8.76786C24.3906 8.88476 24.4903 9.00383 24.5874 9.125C25.4054 10.1455 26.0454 11.315 26.46 12.5862ZM26.46 12.5862L5.47523 19.2083M26.46 12.5862L19.8313 19.6137M26.46 12.5862L17.8693 9.93894" stroke="#1F2332" stroke-width="2"/>
</svg>
