<svg width="1664" height="181" viewBox="0 0 1664 181" fill="none" xmlns="http://www.w3.org/2000/svg">
<path d="M1308.16 136.768C1305.08 136.768 1302.44 135.701 1300.22 133.568C1298.09 131.349 1297.02 128.704 1297.02 125.632C1297.02 122.56 1298.09 119.957 1300.22 117.824C1302.44 115.691 1305.08 114.624 1308.16 114.624C1311.23 114.624 1313.83 115.691 1315.96 117.824C1318.1 119.957 1319.16 122.56 1319.16 125.632C1319.16 128.704 1318.1 131.349 1315.96 133.568C1313.83 135.701 1311.23 136.768 1308.16 136.768Z" fill="#1D2645"/>
<path d="M1240.29 81.4724H1241.31C1243.27 78.3151 1245.92 75.8404 1249.25 74.0484C1252.57 72.1711 1256.37 71.2324 1260.64 71.2324C1264.56 71.2324 1268.02 71.8724 1271.01 73.1524C1273.99 74.4324 1276.43 76.2671 1278.3 78.6564C1280.27 80.9604 1281.72 83.7764 1282.66 87.1044C1283.68 90.3471 1284.19 93.9738 1284.19 97.9844V136H1267.42V100.032C1267.42 95.5098 1266.4 92.1818 1264.35 90.0484C1262.39 87.8298 1259.49 86.7204 1255.65 86.7204C1253.34 86.7204 1251.3 87.2324 1249.5 88.2564C1247.8 89.1951 1246.3 90.5178 1245.02 92.2244C1243.83 93.8458 1242.89 95.8084 1242.21 98.1124C1241.61 100.331 1241.31 102.72 1241.31 105.28V136H1224.54V73.2804H1240.29V81.4724Z" fill="#1D2645"/>
<path d="M1177.1 165.696C1172.66 165.696 1168.69 165.099 1165.19 163.904C1161.78 162.795 1158.79 161.302 1156.23 159.424C1153.67 157.632 1151.54 155.627 1149.83 153.408C1148.13 151.19 1146.89 148.971 1146.12 146.752L1162.12 140.352C1163.31 143.68 1165.28 146.24 1168.01 148.032C1170.74 149.91 1173.77 150.848 1177.1 150.848C1182.39 150.848 1186.57 149.184 1189.64 145.856C1192.71 142.614 1194.25 138.048 1194.25 132.16V127.808H1193.22C1191.26 130.539 1188.66 132.715 1185.42 134.336C1182.26 135.872 1178.5 136.64 1174.15 136.64C1170.4 136.64 1166.73 135.872 1163.14 134.336C1159.65 132.8 1156.53 130.624 1153.8 127.808C1151.07 124.907 1148.85 121.451 1147.14 117.44C1145.44 113.43 1144.58 108.95 1144.58 104C1144.58 99.0511 1145.44 94.5711 1147.14 90.5604C1148.85 86.4644 1151.07 83.0084 1153.8 80.1924C1156.53 77.2911 1159.65 75.0724 1163.14 73.5364C1166.73 72.0004 1170.4 71.2324 1174.15 71.2324C1178.5 71.2324 1182.26 72.0431 1185.42 73.6644C1188.66 75.2004 1191.26 77.3338 1193.22 80.0644H1194.25V73.2804H1210.25V131.52C1210.25 136.811 1209.44 141.547 1207.82 145.728C1206.19 149.995 1203.93 153.579 1201.03 156.48C1198.13 159.467 1194.63 161.728 1190.54 163.264C1186.53 164.886 1182.05 165.696 1177.1 165.696ZM1177.74 121.536C1179.78 121.536 1181.79 121.152 1183.75 120.384C1185.8 119.616 1187.59 118.507 1189.13 117.056C1190.66 115.52 1191.9 113.686 1192.84 111.552C1193.78 109.334 1194.25 106.816 1194.25 104C1194.25 101.184 1193.78 98.6671 1192.84 96.4484C1191.9 94.2298 1190.66 92.3951 1189.13 90.9444C1187.59 89.4084 1185.8 88.2564 1183.75 87.4884C1181.79 86.7204 1179.78 86.3364 1177.74 86.3364C1175.69 86.3364 1173.68 86.7204 1171.72 87.4884C1169.76 88.2564 1168.01 89.4084 1166.47 90.9444C1164.94 92.4804 1163.7 94.3578 1162.76 96.5764C1161.82 98.7098 1161.35 101.184 1161.35 104C1161.35 106.816 1161.82 109.334 1162.76 111.552C1163.7 113.686 1164.94 115.52 1166.47 117.056C1168.01 118.507 1169.76 119.616 1171.72 120.384C1173.68 121.152 1175.69 121.536 1177.74 121.536Z" fill="#1D2645"/>
<path d="M1125.01 64.1925C1123.56 64.1925 1122.15 63.9365 1120.79 63.4245C1119.51 62.8271 1118.36 62.0591 1117.33 61.1205C1116.39 60.0965 1115.63 58.9445 1115.03 57.6645C1114.52 56.3845 1114.26 54.9765 1114.26 53.4405C1114.26 51.9045 1114.52 50.4965 1115.03 49.2165C1115.63 47.9365 1116.39 46.8271 1117.33 45.8885C1118.36 44.8645 1119.51 44.0965 1120.79 43.5845C1122.15 42.9871 1123.56 42.6885 1125.01 42.6885C1128 42.6885 1130.56 43.7551 1132.69 45.8885C1134.83 47.9365 1135.89 50.4538 1135.89 53.4405C1135.89 56.4271 1134.83 58.9871 1132.69 61.1205C1130.56 63.1685 1128 64.1925 1125.01 64.1925ZM1116.69 136V73.2805H1133.46V136H1116.69Z" fill="#1D2645"/>
<path d="M1085.82 129.344H1084.8C1082.84 131.734 1080.45 133.782 1077.63 135.488C1074.9 137.195 1071.36 138.048 1067.01 138.048C1063.77 138.048 1060.69 137.494 1057.79 136.384C1054.98 135.36 1052.5 133.91 1050.37 132.032C1048.23 130.155 1046.57 127.894 1045.38 125.248C1044.18 122.603 1043.58 119.702 1043.58 116.544C1043.58 113.302 1044.22 110.4 1045.5 107.84C1046.78 105.195 1048.58 102.934 1050.88 101.056C1053.18 99.1791 1055.87 97.7711 1058.94 96.8324C1062.1 95.8084 1065.51 95.2964 1069.18 95.2964C1073.28 95.2964 1076.65 95.6378 1079.3 96.3204C1081.94 96.9178 1084.12 97.5578 1085.82 98.2404V96.3204C1085.82 92.9924 1084.5 90.2618 1081.86 88.1284C1079.21 85.9098 1075.93 84.8004 1072 84.8004C1066.2 84.8004 1061.29 87.2324 1057.28 92.0964L1045.12 83.7764C1051.78 75.4138 1060.86 71.2324 1072.38 71.2324C1082.11 71.2324 1089.54 73.5364 1094.66 78.1444C1099.78 82.6671 1102.34 89.4084 1102.34 98.3684V136H1085.82V129.344ZM1085.82 110.528C1083.86 109.59 1081.81 108.864 1079.68 108.352C1077.63 107.755 1075.37 107.456 1072.9 107.456C1068.89 107.456 1065.77 108.352 1063.55 110.144C1061.42 111.851 1060.35 113.984 1060.35 116.544C1060.35 119.104 1061.38 121.152 1063.42 122.688C1065.56 124.224 1067.99 124.992 1070.72 124.992C1072.94 124.992 1074.99 124.608 1076.86 123.84C1078.74 122.987 1080.32 121.92 1081.6 120.64C1082.97 119.275 1083.99 117.739 1084.67 116.032C1085.44 114.24 1085.82 112.406 1085.82 110.528Z" fill="#1D2645"/>
<path d="M970.406 73.2804H986.15V80.8324H987.174C988.71 78.1871 991.1 75.9258 994.342 74.0484C997.585 72.1711 1001.6 71.2324 1006.37 71.2324C1010.38 71.2324 1014.18 72.0858 1017.77 73.7924C1021.44 75.4138 1024.64 77.7178 1027.37 80.7044C1030.18 83.6058 1032.4 87.1044 1034.02 91.2004C1035.64 95.2964 1036.45 99.7764 1036.45 104.64C1036.45 109.504 1035.64 113.984 1034.02 118.08C1032.4 122.176 1030.18 125.718 1027.37 128.704C1024.64 131.606 1021.44 133.91 1017.77 135.616C1014.18 137.238 1010.38 138.048 1006.37 138.048C1001.6 138.048 997.585 137.11 994.342 135.232C991.1 133.355 988.71 131.094 987.174 128.448H986.15L987.174 137.408V163.648H970.406V73.2804ZM1002.92 122.56C1005.14 122.56 1007.23 122.134 1009.19 121.28C1011.24 120.427 1013.03 119.232 1014.57 117.696C1016.1 116.16 1017.34 114.283 1018.28 112.064C1019.22 109.846 1019.69 107.371 1019.69 104.64C1019.69 101.91 1019.22 99.4351 1018.28 97.2164C1017.34 94.9978 1016.1 93.1204 1014.57 91.5844C1013.03 90.0484 1011.24 88.8538 1009.19 88.0004C1007.23 87.1471 1005.14 86.7204 1002.92 86.7204C1000.7 86.7204 998.566 87.1471 996.518 88.0004C994.556 88.7684 992.806 89.9204 991.27 91.4564C989.734 92.9924 988.497 94.8698 987.558 97.0884C986.62 99.3071 986.15 101.824 986.15 104.64C986.15 107.456 986.62 109.974 987.558 112.192C988.497 114.411 989.734 116.288 991.27 117.824C992.806 119.36 994.556 120.555 996.518 121.408C998.566 122.176 1000.7 122.56 1002.92 122.56Z" fill="#1D2645"/>
<path d="M858.293 73.2804H874.037V81.4724H875.061C877.024 78.4004 879.669 75.9258 882.997 74.0484C886.41 72.1711 890.165 71.2324 894.261 71.2324C899.04 71.2324 903.05 72.3418 906.293 74.5604C909.536 76.7791 911.84 79.5098 913.205 82.7524C915.168 79.5951 917.941 76.9071 921.525 74.6884C925.109 72.3844 929.461 71.2324 934.581 71.2324C938.421 71.2324 941.749 71.8724 944.565 73.1524C947.381 74.3471 949.685 76.0538 951.477 78.2724C953.354 80.4911 954.762 83.1791 955.701 86.3364C956.64 89.4084 957.109 92.7791 957.109 96.4484V136H940.341V99.5204C940.341 90.9871 936.842 86.7204 929.845 86.7204C927.626 86.7204 925.664 87.2324 923.957 88.2564C922.25 89.1951 920.8 90.5178 919.605 92.2244C918.496 93.8458 917.6 95.8084 916.917 98.1124C916.32 100.416 916.021 102.891 916.021 105.536V136H899.253V99.5204C899.253 90.9871 895.584 86.7204 888.245 86.7204C886.112 86.7204 884.234 87.2324 882.613 88.2564C880.992 89.1951 879.626 90.5178 878.517 92.2244C877.408 93.8458 876.554 95.8084 875.957 98.1124C875.36 100.416 875.061 102.891 875.061 105.536V136H858.293V73.2804Z" fill="#1D2645"/>
<path d="M828.449 129.344H827.425C825.462 131.734 823.073 133.782 820.257 135.488C817.526 137.195 813.985 138.048 809.633 138.048C806.39 138.048 803.318 137.494 800.417 136.384C797.601 135.36 795.126 133.91 792.993 132.032C790.86 130.155 789.196 127.894 788.001 125.248C786.806 122.603 786.209 119.702 786.209 116.544C786.209 113.302 786.849 110.4 788.129 107.84C789.409 105.195 791.201 102.934 793.505 101.056C795.809 99.1791 798.497 97.7711 801.569 96.8324C804.726 95.8084 808.14 95.2964 811.809 95.2964C815.905 95.2964 819.276 95.6378 821.921 96.3204C824.566 96.9178 826.742 97.5578 828.449 98.2404V96.3204C828.449 92.9924 827.126 90.2618 824.481 88.1284C821.836 85.9098 818.55 84.8004 814.625 84.8004C808.822 84.8004 803.916 87.2324 799.905 92.0964L787.745 83.7764C794.401 75.4138 803.489 71.2324 815.009 71.2324C824.737 71.2324 832.161 73.5364 837.281 78.1444C842.401 82.6671 844.961 89.4084 844.961 98.3684V136H828.449V129.344ZM828.449 110.528C826.486 109.59 824.438 108.864 822.305 108.352C820.257 107.755 817.996 107.456 815.521 107.456C811.51 107.456 808.396 108.352 806.177 110.144C804.044 111.851 802.977 113.984 802.977 116.544C802.977 119.104 804.001 121.152 806.049 122.688C808.182 124.224 810.614 124.992 813.345 124.992C815.564 124.992 817.612 124.608 819.489 123.84C821.366 122.987 822.945 121.92 824.225 120.64C825.59 119.275 826.614 117.739 827.297 116.032C828.065 114.24 828.449 112.406 828.449 110.528Z" fill="#1D2645"/>
<path d="M780.188 120C777.457 125.291 773.617 129.643 768.668 133.056C763.804 136.384 757.703 138.048 750.364 138.048C745.5 138.048 741.02 137.238 736.924 135.616C732.913 133.91 729.415 131.563 726.428 128.576C723.527 125.59 721.223 122.091 719.516 118.08C717.895 113.984 717.084 109.504 717.084 104.64C717.084 99.7764 717.895 95.2964 719.516 91.2004C721.223 87.1044 723.527 83.6058 726.428 80.7044C729.415 77.7178 732.913 75.4138 736.924 73.7924C741.02 72.0858 745.5 71.2324 750.364 71.2324C757.617 71.2324 763.719 72.8964 768.668 76.2244C773.617 79.5524 777.244 83.8618 779.548 89.1524L764.188 95.5524C762.737 92.6511 760.86 90.4751 758.556 89.0244C756.337 87.4884 753.521 86.7204 750.108 86.7204C747.889 86.7204 745.799 87.1471 743.836 88.0004C741.873 88.8538 740.124 90.0484 738.588 91.5844C737.137 93.1204 735.985 94.9978 735.132 97.2164C734.279 99.4351 733.852 101.91 733.852 104.64C733.852 107.371 734.279 109.846 735.132 112.064C735.985 114.283 737.137 116.16 738.588 117.696C740.124 119.232 741.873 120.427 743.836 121.28C745.799 122.134 747.889 122.56 750.108 122.56C753.607 122.56 756.551 121.792 758.94 120.256C761.415 118.635 763.377 116.331 764.828 113.344L780.188 120Z" fill="#1D2645"/>
<path d="M648.08 87.6161H637.072V73.2801H648.08V54.0801H664.848V73.2801H680.208V87.6161H664.848V111.936C664.848 113.387 664.976 114.752 665.232 116.032C665.574 117.227 666.171 118.251 667.024 119.104C668.219 120.469 669.926 121.152 672.144 121.152C673.595 121.152 674.747 121.024 675.6 120.768C676.454 120.427 677.264 120 678.032 119.488L682.768 134.208C680.806 135.147 678.672 135.829 676.368 136.256C674.15 136.768 671.675 137.024 668.944 137.024C665.787 137.024 662.928 136.555 660.368 135.616C657.894 134.592 655.803 133.227 654.096 131.52C650.086 127.68 648.08 122.219 648.08 115.136V87.6161Z" fill="#1D2645"/>
<path d="M570.918 44.3525H587.686V70.0805L586.662 81.4725H587.686C589.478 78.4859 592.038 76.0539 595.366 74.1765C598.779 72.2139 602.577 71.2325 606.758 71.2325C614.865 71.2325 620.838 73.6219 624.678 78.4005C628.603 83.1792 630.566 89.7072 630.566 97.9845V136.001H613.798V100.033C613.798 95.6805 612.774 92.3952 610.726 90.1765C608.678 87.8725 605.819 86.7205 602.15 86.7205C599.846 86.7205 597.798 87.2325 596.006 88.2565C594.214 89.1952 592.678 90.5179 591.398 92.2245C590.203 93.9312 589.265 95.9365 588.582 98.2405C587.985 100.459 587.686 102.849 587.686 105.409V136.001H570.918V44.3525Z" fill="#1D2645"/>
<path d="M523.471 165.696C519.034 165.696 515.066 165.099 511.567 163.904C508.154 162.795 505.167 161.302 502.607 159.424C500.047 157.632 497.914 155.627 496.207 153.408C494.5 151.19 493.263 148.971 492.495 146.752L508.495 140.352C509.69 143.68 511.652 146.24 514.383 148.032C517.114 149.91 520.143 150.848 523.471 150.848C528.762 150.848 532.943 149.184 536.015 145.856C539.087 142.614 540.623 138.048 540.623 132.16V127.808H539.599C537.636 130.539 535.034 132.715 531.791 134.336C528.634 135.872 524.879 136.64 520.527 136.64C516.772 136.64 513.103 135.872 509.519 134.336C506.02 132.8 502.906 130.624 500.175 127.808C497.444 124.907 495.226 121.451 493.519 117.44C491.812 113.43 490.959 108.95 490.959 104C490.959 99.0511 491.812 94.5711 493.519 90.5604C495.226 86.4644 497.444 83.0084 500.175 80.1924C502.906 77.2911 506.02 75.0724 509.519 73.5364C513.103 72.0004 516.772 71.2324 520.527 71.2324C524.879 71.2324 528.634 72.0431 531.791 73.6644C535.034 75.2004 537.636 77.3338 539.599 80.0644H540.623V73.2804H556.623V131.52C556.623 136.811 555.812 141.547 554.191 145.728C552.57 149.995 550.308 153.579 547.407 156.48C544.506 159.467 541.007 161.728 536.911 163.264C532.9 164.886 528.42 165.696 523.471 165.696ZM524.111 121.536C526.159 121.536 528.164 121.152 530.127 120.384C532.175 119.616 533.967 118.507 535.503 117.056C537.039 115.52 538.276 113.686 539.215 111.552C540.154 109.334 540.623 106.816 540.623 104C540.623 101.184 540.154 98.6671 539.215 96.4484C538.276 94.2298 537.039 92.3951 535.503 90.9444C533.967 89.4084 532.175 88.2564 530.127 87.4884C528.164 86.7204 526.159 86.3364 524.111 86.3364C522.063 86.3364 520.058 86.7204 518.095 87.4884C516.132 88.2564 514.383 89.4084 512.847 90.9444C511.311 92.4804 510.074 94.3578 509.135 96.5764C508.196 98.7098 507.727 101.184 507.727 104C507.727 106.816 508.196 109.334 509.135 111.552C510.074 113.686 511.311 115.52 512.847 117.056C514.383 118.507 516.132 119.616 518.095 120.384C520.058 121.152 522.063 121.536 524.111 121.536Z" fill="#1D2645"/>
<path d="M471.387 64.1925C469.936 64.1925 468.528 63.9365 467.163 63.4245C465.883 62.8271 464.731 62.0591 463.707 61.1205C462.768 60.0965 462 58.9445 461.403 57.6645C460.891 56.3845 460.635 54.9765 460.635 53.4405C460.635 51.9045 460.891 50.4965 461.403 49.2165C462 47.9365 462.768 46.8271 463.707 45.8885C464.731 44.8645 465.883 44.0965 467.163 43.5845C468.528 42.9871 469.936 42.6885 471.387 42.6885C474.373 42.6885 476.933 43.7551 479.067 45.8885C481.2 47.9365 482.267 50.4538 482.267 53.4405C482.267 56.4271 481.2 58.9871 479.067 61.1205C476.933 63.1685 474.373 64.1925 471.387 64.1925ZM463.067 136V73.2805H479.835V136H463.067Z" fill="#1D2645"/>
<path d="M409.918 73.2803H425.662V81.9843H426.686C427.454 80.4483 428.478 79.0403 429.758 77.7603C431.038 76.4803 432.446 75.3709 433.982 74.4323C435.603 73.4936 437.31 72.7683 439.102 72.2563C440.979 71.7443 442.814 71.4883 444.606 71.4883C446.825 71.4883 448.702 71.7016 450.238 72.1283C451.859 72.5549 453.225 73.1096 454.334 73.7923L449.854 89.0243C448.83 88.5123 447.678 88.1283 446.398 87.8723C445.203 87.5309 443.71 87.3603 441.918 87.3603C439.614 87.3603 437.523 87.8296 435.646 88.7683C433.769 89.6216 432.147 90.8589 430.782 92.4803C429.502 94.1016 428.478 96.0216 427.71 98.2403C427.027 100.374 426.686 102.72 426.686 105.28V136H409.918V73.2803Z" fill="#1D2645"/>
<path d="M370.06 120.896C367.159 126.016 363.233 130.155 358.284 133.312C353.42 136.47 347.447 138.048 340.364 138.048C335.585 138.048 331.148 137.238 327.052 135.616C323.041 133.91 319.543 131.563 316.556 128.576C313.569 125.59 311.223 122.091 309.516 118.08C307.895 113.984 307.084 109.504 307.084 104.64C307.084 100.118 307.895 95.8511 309.516 91.8404C311.137 87.7444 313.399 84.2031 316.3 81.2164C319.201 78.1444 322.615 75.7124 326.54 73.9204C330.551 72.1284 334.945 71.2324 339.724 71.2324C344.759 71.2324 349.239 72.0858 353.164 73.7924C357.089 75.4138 360.375 77.7178 363.02 80.7044C365.665 83.6058 367.671 87.0618 369.036 91.0724C370.401 95.0831 371.084 99.4351 371.084 104.128C371.084 104.726 371.084 105.238 371.084 105.664C370.999 106.176 370.956 106.646 370.956 107.072C370.871 107.499 370.828 107.968 370.828 108.48H323.596C323.937 111.04 324.62 113.259 325.644 115.136C326.753 116.928 328.076 118.464 329.612 119.744C331.233 120.939 332.983 121.835 334.86 122.432C336.737 122.944 338.657 123.2 340.62 123.2C344.46 123.2 347.617 122.347 350.092 120.64C352.652 118.848 354.657 116.63 356.108 113.984L370.06 120.896ZM354.828 96.5764C354.743 95.4671 354.359 94.2298 353.676 92.8644C353.079 91.4991 352.14 90.2191 350.86 89.0244C349.665 87.8298 348.129 86.8484 346.252 86.0804C344.46 85.3124 342.284 84.9284 339.724 84.9284C336.14 84.9284 332.983 85.9524 330.252 88.0004C327.521 90.0484 325.601 92.9071 324.492 96.5764H354.828Z" fill="#1D2645"/>
<path d="M237.168 44.3525H253.936V70.0805L252.912 81.4725H253.936C255.728 78.4859 258.288 76.0539 261.616 74.1765C265.029 72.2139 268.827 71.2325 273.008 71.2325C281.115 71.2325 287.088 73.6219 290.928 78.4005C294.853 83.1792 296.816 89.7072 296.816 97.9845V136.001H280.048V100.033C280.048 95.6805 279.024 92.3952 276.976 90.1765C274.928 87.8725 272.069 86.7205 268.4 86.7205C266.096 86.7205 264.048 87.2325 262.256 88.2565C260.464 89.1952 258.928 90.5179 257.648 92.2245C256.453 93.9312 255.515 95.9365 254.832 98.2405C254.235 100.459 253.936 102.849 253.936 105.409V136.001H237.168V44.3525Z" fill="#1D2645"/>
<path d="M192.08 87.6161H181.072V73.2801H192.08V54.0801H208.848V73.2801H224.208V87.6161H208.848V111.936C208.848 113.387 208.976 114.752 209.232 116.032C209.574 117.227 210.171 118.251 211.024 119.104C212.219 120.469 213.926 121.152 216.144 121.152C217.595 121.152 218.747 121.024 219.6 120.768C220.454 120.427 221.264 120 222.032 119.488L226.768 134.208C224.806 135.147 222.672 135.829 220.368 136.256C218.15 136.768 215.675 137.024 212.944 137.024C209.787 137.024 206.928 136.555 204.368 135.616C201.894 134.592 199.803 133.227 198.096 131.52C194.086 127.68 192.08 122.219 192.08 115.136V87.6161Z" fill="#1D2645"/>
<path d="M112.989 71.2324C117.853 71.2324 122.29 72.0858 126.301 73.7924C130.397 75.4138 133.896 77.7178 136.797 80.7044C139.784 83.6058 142.088 87.1044 143.709 91.2004C145.416 95.2964 146.269 99.7764 146.269 104.64C146.269 109.504 145.416 113.984 143.709 118.08C142.088 122.176 139.784 125.718 136.797 128.704C133.896 131.606 130.397 133.91 126.301 135.616C122.29 137.238 117.853 138.048 112.989 138.048C108.125 138.048 103.645 137.238 99.549 135.616C95.5383 133.91 92.0397 131.606 89.053 128.704C86.1517 125.718 83.8477 122.176 82.141 118.08C80.5197 113.984 79.709 109.504 79.709 104.64C79.709 99.7764 80.5197 95.2964 82.141 91.2004C83.8477 87.1044 86.1517 83.6058 89.053 80.7044C92.0397 77.7178 95.5383 75.4138 99.549 73.7924C103.645 72.0858 108.125 71.2324 112.989 71.2324ZM112.989 122.56C115.122 122.56 117.17 122.176 119.133 121.408C121.181 120.555 122.973 119.36 124.509 117.824C126.045 116.288 127.24 114.411 128.093 112.192C129.032 109.974 129.501 107.456 129.501 104.64C129.501 101.824 129.032 99.3071 128.093 97.0884C127.24 94.8698 126.045 92.9924 124.509 91.4564C122.973 89.9204 121.181 88.7684 119.133 88.0004C117.17 87.1471 115.122 86.7204 112.989 86.7204C110.77 86.7204 108.68 87.1471 106.717 88.0004C104.754 88.7684 103.005 89.9204 101.469 91.4564C99.933 92.9924 98.6957 94.8698 97.757 97.0884C96.9037 99.3071 96.477 101.824 96.477 104.64C96.477 107.456 96.9037 109.974 97.757 112.192C98.6957 114.411 99.933 116.288 101.469 117.824C103.005 119.36 104.754 120.555 106.717 121.408C108.68 122.176 110.77 122.56 112.989 122.56Z" fill="#1D2645"/>
<path d="M53.888 128.449H52.864C51.328 131.094 48.9387 133.355 45.696 135.233C42.4533 137.11 38.4427 138.049 33.664 138.049C29.6533 138.049 25.8133 137.238 22.144 135.617C18.56 133.91 15.36 131.606 12.544 128.705C9.81332 125.718 7.63732 122.177 6.01598 118.081C4.39465 113.985 3.58398 109.505 3.58398 104.641C3.58398 99.7765 4.39465 95.2965 6.01598 91.2005C7.63732 87.1045 9.81332 83.6059 12.544 80.7045C15.36 77.7179 18.56 75.4139 22.144 73.7925C25.8133 72.0859 29.6533 71.2325 33.664 71.2325C38.4427 71.2325 42.4533 72.1712 45.696 74.0485C48.9387 75.9259 51.328 78.1872 52.864 80.8325H53.888L52.864 71.8725V44.3525H69.632V136.001H53.888V128.449ZM37.12 122.561C39.3387 122.561 41.4293 122.177 43.392 121.409C45.44 120.555 47.232 119.361 48.768 117.825C50.304 116.289 51.5413 114.411 52.48 112.193C53.4187 109.974 53.888 107.457 53.888 104.641C53.888 101.825 53.4187 99.3072 52.48 97.0885C51.5413 94.8699 50.304 92.9925 48.768 91.4565C47.232 89.9205 45.44 88.7685 43.392 88.0005C41.4293 87.1472 39.3387 86.7205 37.12 86.7205C34.9013 86.7205 32.768 87.1472 30.72 88.0005C28.7573 88.8539 27.008 90.0485 25.472 91.5845C23.936 93.1205 22.6987 94.9979 21.76 97.2165C20.8213 99.4352 20.352 101.91 20.352 104.641C20.352 107.371 20.8213 109.846 21.76 112.065C22.6987 114.283 23.936 116.161 25.472 117.697C27.008 119.233 28.7573 120.427 30.72 121.281C32.768 122.134 34.9013 122.561 37.12 122.561Z" fill="#1D2645"/>
</svg>
