<svg width="1664" height="181" viewBox="0 0 1664 181" fill="none" xmlns="http://www.w3.org/2000/svg">
<path d="M1064.96 54.592L1078.4 59.328L1079.55 58.944V44.3521H1091.59V58.944L1092.61 59.328L1106.18 54.592L1110.15 65.984L1096.45 70.8481L1096.07 72.0001L1105.28 84.5441L1095.55 91.5841L1086.08 78.784H1085.06L1075.59 91.5841L1065.86 84.5441L1075.07 72.0001L1074.69 70.8481L1060.99 65.984L1064.96 54.592Z" fill="#1D2645"/>
<path d="M1046.71 151.872H1014.97V138.048H1030.33V48.448H1014.97V34.624H1046.71V151.872Z" fill="#1D2645"/>
<path d="M908.387 73.2803H927.203L937.571 112.576H938.467L950.883 73.2803H968.163L980.707 112.576H981.603L991.843 73.2803H1010.4L990.307 136H972.259L959.715 96.4483H958.819L946.275 136H928.483L908.387 73.2803Z" fill="#4285F4"/>
<path d="M872.239 71.2319C877.103 71.2319 881.54 72.0853 885.551 73.7919C889.647 75.4133 893.146 77.7173 896.047 80.7039C899.034 83.6053 901.338 87.1039 902.959 91.1999C904.666 95.2959 905.519 99.7759 905.519 104.64C905.519 109.504 904.666 113.984 902.959 118.08C901.338 122.176 899.034 125.717 896.047 128.704C893.146 131.605 889.647 133.909 885.551 135.616C881.54 137.237 877.103 138.048 872.239 138.048C867.375 138.048 862.895 137.237 858.799 135.616C854.788 133.909 851.29 131.605 848.303 128.704C845.402 125.717 843.098 122.176 841.391 118.08C839.77 113.984 838.959 109.504 838.959 104.64C838.959 99.7759 839.77 95.2959 841.391 91.1999C843.098 87.1039 845.402 83.6053 848.303 80.7039C851.29 77.7173 854.788 75.4133 858.799 73.7919C862.895 72.0853 867.375 71.2319 872.239 71.2319ZM872.239 122.56C874.372 122.56 876.42 122.176 878.383 121.408C880.431 120.555 882.223 119.36 883.759 117.824C885.295 116.288 886.49 114.411 887.343 112.192C888.282 109.973 888.751 107.456 888.751 104.64C888.751 101.824 888.282 99.3066 887.343 97.0879C886.49 94.8693 885.295 92.9919 883.759 91.4559C882.223 89.9199 880.431 88.7679 878.383 87.9999C876.42 87.1466 874.372 86.7199 872.239 86.7199C870.02 86.7199 867.93 87.1466 865.967 87.9999C864.004 88.7679 862.255 89.9199 860.719 91.4559C859.183 92.9919 857.946 94.8693 857.007 97.0879C856.154 99.3066 855.727 101.824 855.727 104.64C855.727 107.456 856.154 109.973 857.007 112.192C857.946 114.411 859.183 116.288 860.719 117.824C862.255 119.36 864.004 120.555 865.967 121.408C867.93 122.176 870.02 122.56 872.239 122.56Z" fill="#4285F4"/>
<path d="M812.034 136V59.3278H797.186C794.456 59.3278 792.28 60.1812 790.658 61.8878C789.122 63.5092 788.354 65.8985 788.354 69.0558V73.2798H803.074V87.6158H788.354V136H771.586V87.6158H760.322V73.2798H771.586V69.3118C771.586 61.0345 773.762 54.7198 778.114 50.3678C782.466 46.0158 788.781 43.8398 797.058 43.8398H828.802V136H812.034Z" fill="#4285F4"/>
<path d="M722.717 34.624H754.461V48.448H739.101V138.048H754.461V151.872H722.717V34.624Z" fill="#1D2645"/>
<path d="M648.08 87.6161H637.072V73.2801H648.08V54.0801H664.848V73.2801H680.208V87.6161H664.848V111.936C664.848 113.387 664.976 114.752 665.232 116.032C665.574 117.227 666.171 118.251 667.024 119.104C668.219 120.469 669.926 121.152 672.144 121.152C673.595 121.152 674.747 121.024 675.6 120.768C676.454 120.427 677.264 120 678.032 119.488L682.768 134.208C680.806 135.147 678.672 135.829 676.368 136.256C674.15 136.768 671.675 137.024 668.944 137.024C665.787 137.024 662.928 136.555 660.368 135.616C657.894 134.592 655.803 133.227 654.096 131.52C650.086 127.68 648.08 122.219 648.08 115.136V87.6161Z" fill="#1D2645"/>
<path d="M570.918 44.3521H587.686V70.08L586.662 81.4721H587.686C589.478 78.4854 592.038 76.0534 595.366 74.176C598.779 72.2134 602.577 71.232 606.758 71.232C614.865 71.232 620.838 73.6214 624.678 78.4C628.603 83.1787 630.566 89.7067 630.566 97.984V136H613.798V100.032C613.798 95.6801 612.774 92.3947 610.726 90.176C608.678 87.872 605.819 86.7201 602.15 86.7201C599.846 86.7201 597.798 87.2321 596.006 88.2561C594.214 89.1947 592.678 90.5174 591.398 92.2241C590.203 93.9307 589.265 95.9361 588.582 98.2401C587.985 100.459 587.686 102.848 587.686 105.408V136H570.918V44.3521Z" fill="#1D2645"/>
<path d="M523.471 165.696C519.034 165.696 515.066 165.099 511.567 163.904C508.154 162.795 505.167 161.301 502.607 159.424C500.047 157.632 497.914 155.627 496.207 153.408C494.5 151.189 493.263 148.971 492.495 146.752L508.495 140.352C509.69 143.68 511.652 146.24 514.383 148.032C517.114 149.909 520.143 150.848 523.471 150.848C528.762 150.848 532.943 149.184 536.015 145.856C539.087 142.613 540.623 138.048 540.623 132.16V127.808H539.599C537.636 130.539 535.034 132.715 531.791 134.336C528.634 135.872 524.879 136.64 520.527 136.64C516.772 136.64 513.103 135.872 509.519 134.336C506.02 132.8 502.906 130.624 500.175 127.808C497.444 124.907 495.226 121.451 493.519 117.44C491.812 113.429 490.959 108.949 490.959 104C490.959 99.0506 491.812 94.5706 493.519 90.5599C495.226 86.4639 497.444 83.0079 500.175 80.1919C502.906 77.2906 506.02 75.0719 509.519 73.5359C513.103 71.9999 516.772 71.2319 520.527 71.2319C524.879 71.2319 528.634 72.0426 531.791 73.6639C535.034 75.1999 537.636 77.3333 539.599 80.0639H540.623V73.2799H556.623V131.52C556.623 136.811 555.812 141.547 554.191 145.728C552.57 149.995 550.308 153.579 547.407 156.48C544.506 159.467 541.007 161.728 536.911 163.264C532.9 164.885 528.42 165.696 523.471 165.696ZM524.111 121.536C526.159 121.536 528.164 121.152 530.127 120.384C532.175 119.616 533.967 118.507 535.503 117.056C537.039 115.52 538.276 113.685 539.215 111.552C540.154 109.333 540.623 106.816 540.623 104C540.623 101.184 540.154 98.6666 539.215 96.4479C538.276 94.2293 537.039 92.3946 535.503 90.9439C533.967 89.4079 532.175 88.2559 530.127 87.4879C528.164 86.7199 526.159 86.3359 524.111 86.3359C522.063 86.3359 520.058 86.7199 518.095 87.4879C516.132 88.2559 514.383 89.4079 512.847 90.9439C511.311 92.4799 510.074 94.3573 509.135 96.5759C508.196 98.7093 507.727 101.184 507.727 104C507.727 106.816 508.196 109.333 509.135 111.552C510.074 113.685 511.311 115.52 512.847 117.056C514.383 118.507 516.132 119.616 518.095 120.384C520.058 121.152 522.063 121.536 524.111 121.536Z" fill="#1D2645"/>
<path d="M471.387 64.192C469.936 64.192 468.528 63.936 467.163 63.424C465.883 62.8267 464.731 62.0587 463.707 61.12C462.768 60.096 462 58.944 461.403 57.664C460.891 56.384 460.635 54.976 460.635 53.44C460.635 51.904 460.891 50.496 461.403 49.216C462 47.936 462.768 46.8267 463.707 45.888C464.731 44.864 465.883 44.096 467.163 43.584C468.528 42.9867 469.936 42.688 471.387 42.688C474.373 42.688 476.933 43.7547 479.067 45.888C481.2 47.936 482.267 50.4533 482.267 53.44C482.267 56.4267 481.2 58.9867 479.067 61.12C476.933 63.168 474.373 64.192 471.387 64.192ZM463.067 136V73.28H479.835V136H463.067Z" fill="#1D2645"/>
<path d="M409.918 73.2798H425.662V81.9838H426.686C427.454 80.4478 428.478 79.0398 429.758 77.7598C431.038 76.4798 432.446 75.3705 433.982 74.4318C435.603 73.4931 437.31 72.7678 439.102 72.2558C440.979 71.7438 442.814 71.4878 444.606 71.4878C446.825 71.4878 448.702 71.7011 450.238 72.1278C451.859 72.5545 453.225 73.1091 454.334 73.7918L449.854 89.0238C448.83 88.5118 447.678 88.1278 446.398 87.8718C445.203 87.5305 443.71 87.3598 441.918 87.3598C439.614 87.3598 437.523 87.8291 435.646 88.7678C433.769 89.6211 432.147 90.8585 430.782 92.4798C429.502 94.1011 428.478 96.0211 427.71 98.2398C427.027 100.373 426.686 102.72 426.686 105.28V136H409.918V73.2798Z" fill="#1D2645"/>
<path d="M370.06 120.896C367.159 126.016 363.233 130.155 358.284 133.312C353.42 136.469 347.447 138.048 340.364 138.048C335.585 138.048 331.148 137.237 327.052 135.616C323.041 133.909 319.543 131.563 316.556 128.576C313.569 125.589 311.223 122.091 309.516 118.08C307.895 113.984 307.084 109.504 307.084 104.64C307.084 100.117 307.895 95.8506 309.516 91.8399C311.137 87.7439 313.399 84.2026 316.3 81.2159C319.201 78.1439 322.615 75.7119 326.54 73.9199C330.551 72.1279 334.945 71.2319 339.724 71.2319C344.759 71.2319 349.239 72.0853 353.164 73.7919C357.089 75.4133 360.375 77.7173 363.02 80.7039C365.665 83.6053 367.671 87.0613 369.036 91.0719C370.401 95.0826 371.084 99.4346 371.084 104.128C371.084 104.725 371.084 105.237 371.084 105.664C370.999 106.176 370.956 106.645 370.956 107.072C370.871 107.499 370.828 107.968 370.828 108.48H323.596C323.937 111.04 324.62 113.259 325.644 115.136C326.753 116.928 328.076 118.464 329.612 119.744C331.233 120.939 332.983 121.835 334.86 122.432C336.737 122.944 338.657 123.2 340.62 123.2C344.46 123.2 347.617 122.347 350.092 120.64C352.652 118.848 354.657 116.629 356.108 113.984L370.06 120.896ZM354.828 96.5759C354.743 95.4666 354.359 94.2293 353.676 92.8639C353.079 91.4986 352.14 90.2186 350.86 89.0239C349.665 87.8293 348.129 86.8479 346.252 86.0799C344.46 85.3119 342.284 84.9279 339.724 84.9279C336.14 84.9279 332.983 85.9519 330.252 87.9999C327.521 90.0479 325.601 92.9066 324.492 96.5759H354.828Z" fill="#1D2645"/>
<path d="M237.168 44.3521H253.936V70.08L252.912 81.4721H253.936C255.728 78.4854 258.288 76.0534 261.616 74.176C265.029 72.2134 268.827 71.232 273.008 71.232C281.115 71.232 287.088 73.6214 290.928 78.4C294.853 83.1787 296.816 89.7067 296.816 97.984V136H280.048V100.032C280.048 95.6801 279.024 92.3947 276.976 90.176C274.928 87.872 272.069 86.7201 268.4 86.7201C266.096 86.7201 264.048 87.2321 262.256 88.2561C260.464 89.1947 258.928 90.5174 257.648 92.2241C256.453 93.9307 255.515 95.9361 254.832 98.2401C254.235 100.459 253.936 102.848 253.936 105.408V136H237.168V44.3521Z" fill="#1D2645"/>
<path d="M192.08 87.6161H181.072V73.2801H192.08V54.0801H208.848V73.2801H224.208V87.6161H208.848V111.936C208.848 113.387 208.976 114.752 209.232 116.032C209.574 117.227 210.171 118.251 211.024 119.104C212.219 120.469 213.926 121.152 216.144 121.152C217.595 121.152 218.747 121.024 219.6 120.768C220.454 120.427 221.264 120 222.032 119.488L226.768 134.208C224.806 135.147 222.672 135.829 220.368 136.256C218.15 136.768 215.675 137.024 212.944 137.024C209.787 137.024 206.928 136.555 204.368 135.616C201.894 134.592 199.803 133.227 198.096 131.52C194.086 127.68 192.08 122.219 192.08 115.136V87.6161Z" fill="#1D2645"/>
<path d="M112.989 71.2319C117.853 71.2319 122.29 72.0853 126.301 73.7919C130.397 75.4133 133.896 77.7173 136.797 80.7039C139.784 83.6053 142.088 87.1039 143.709 91.1999C145.416 95.2959 146.269 99.7759 146.269 104.64C146.269 109.504 145.416 113.984 143.709 118.08C142.088 122.176 139.784 125.717 136.797 128.704C133.896 131.605 130.397 133.909 126.301 135.616C122.29 137.237 117.853 138.048 112.989 138.048C108.125 138.048 103.645 137.237 99.549 135.616C95.5383 133.909 92.0397 131.605 89.053 128.704C86.1517 125.717 83.8477 122.176 82.141 118.08C80.5197 113.984 79.709 109.504 79.709 104.64C79.709 99.7759 80.5197 95.2959 82.141 91.1999C83.8477 87.1039 86.1517 83.6053 89.053 80.7039C92.0397 77.7173 95.5383 75.4133 99.549 73.7919C103.645 72.0853 108.125 71.2319 112.989 71.2319ZM112.989 122.56C115.122 122.56 117.17 122.176 119.133 121.408C121.181 120.555 122.973 119.36 124.509 117.824C126.045 116.288 127.24 114.411 128.093 112.192C129.032 109.973 129.501 107.456 129.501 104.64C129.501 101.824 129.032 99.3066 128.093 97.0879C127.24 94.8693 126.045 92.9919 124.509 91.4559C122.973 89.9199 121.181 88.7679 119.133 87.9999C117.17 87.1466 115.122 86.7199 112.989 86.7199C110.77 86.7199 108.68 87.1466 106.717 87.9999C104.754 88.7679 103.005 89.9199 101.469 91.4559C99.933 92.9919 98.6957 94.8693 97.757 97.0879C96.9037 99.3066 96.477 101.824 96.477 104.64C96.477 107.456 96.9037 109.973 97.757 112.192C98.6957 114.411 99.933 116.288 101.469 117.824C103.005 119.36 104.754 120.555 106.717 121.408C108.68 122.176 110.77 122.56 112.989 122.56Z" fill="#1D2645"/>
<path d="M53.888 128.448H52.864C51.328 131.093 48.9387 133.355 45.696 135.232C42.4533 137.109 38.4427 138.048 33.664 138.048C29.6533 138.048 25.8133 137.237 22.144 135.616C18.56 133.909 15.36 131.605 12.544 128.704C9.81332 125.717 7.63732 122.176 6.01598 118.08C4.39465 113.984 3.58398 109.504 3.58398 104.64C3.58398 99.7761 4.39465 95.2961 6.01598 91.2001C7.63732 87.104 9.81332 83.6054 12.544 80.704C15.36 77.7174 18.56 75.4134 22.144 73.792C25.8133 72.0854 29.6533 71.232 33.664 71.232C38.4427 71.232 42.4533 72.1707 45.696 74.048C48.9387 75.9254 51.328 78.1867 52.864 80.8321H53.888L52.864 71.872V44.3521H69.632V136H53.888V128.448ZM37.12 122.56C39.3387 122.56 41.4293 122.176 43.392 121.408C45.44 120.555 47.232 119.36 48.768 117.824C50.304 116.288 51.5413 114.411 52.48 112.192C53.4187 109.973 53.888 107.456 53.888 104.64C53.888 101.824 53.4187 99.3067 52.48 97.0881C51.5413 94.8694 50.304 92.992 48.768 91.456C47.232 89.92 45.44 88.7681 43.392 88.0001C41.4293 87.1467 39.3387 86.7201 37.12 86.7201C34.9013 86.7201 32.768 87.1467 30.72 88.0001C28.7573 88.8534 27.008 90.0481 25.472 91.5841C23.936 93.1201 22.6987 94.9974 21.76 97.2161C20.8213 99.4347 20.352 101.909 20.352 104.64C20.352 107.371 20.8213 109.845 21.76 112.064C22.6987 114.283 23.936 116.16 25.472 117.696C27.008 119.232 28.7573 120.427 30.72 121.28C32.768 122.133 34.9013 122.56 37.12 122.56Z" fill="#1D2645"/>
</svg>
