<svg width="1664" height="181" viewBox="0 0 1664 181" fill="none" xmlns="http://www.w3.org/2000/svg">
<path d="M1440.84 54.592L1454.28 59.328L1455.43 58.944V44.3521H1467.46V58.944L1468.49 59.328L1482.05 54.592L1486.02 65.984L1472.33 70.8481L1471.94 72.0001L1481.16 84.5441L1471.43 91.5841L1461.96 78.784H1460.93L1451.46 91.5841L1441.73 84.5441L1450.95 72.0001L1450.57 70.8481L1436.87 65.984L1440.84 54.592Z" fill="#1D2645"/>
<path d="M1422.59 151.872H1390.85V138.048H1406.21V48.448H1390.85V34.624H1422.59V151.872Z" fill="#1D2645"/>
<path d="M1336.16 81.4719H1337.19C1339.15 78.3146 1341.79 75.8399 1345.12 74.0479C1348.45 72.1706 1352.25 71.2319 1356.51 71.2319C1360.44 71.2319 1363.9 71.8719 1366.88 73.1519C1369.87 74.4319 1372.3 76.2666 1374.18 78.6559C1376.14 80.9599 1377.59 83.7759 1378.53 87.1039C1379.55 90.3466 1380.07 93.9733 1380.07 97.9839V136H1363.3V100.032C1363.3 95.5093 1362.27 92.1813 1360.23 90.0479C1358.26 87.8293 1355.36 86.7199 1351.52 86.7199C1349.22 86.7199 1347.17 87.2319 1345.38 88.2559C1343.67 89.1946 1342.18 90.5173 1340.9 92.2239C1339.7 93.8453 1338.76 95.8079 1338.08 98.1119C1337.48 100.331 1337.19 102.72 1337.19 105.28V136H1320.42V73.2799H1336.16V81.4719Z" fill="#FBBC04"/>
<path d="M1277.61 71.2319C1282.48 71.2319 1286.92 72.0853 1290.93 73.7919C1295.02 75.4133 1298.52 77.7173 1301.42 80.7039C1304.41 83.6053 1306.71 87.1039 1308.33 91.1999C1310.04 95.2959 1310.89 99.7759 1310.89 104.64C1310.89 109.504 1310.04 113.984 1308.33 118.08C1306.71 122.176 1304.41 125.717 1301.42 128.704C1298.52 131.605 1295.02 133.909 1290.93 135.616C1286.92 137.237 1282.48 138.048 1277.61 138.048C1272.75 138.048 1268.27 137.237 1264.17 135.616C1260.16 133.909 1256.66 131.605 1253.68 128.704C1250.78 125.717 1248.47 122.176 1246.77 118.08C1245.14 113.984 1244.33 109.504 1244.33 104.64C1244.33 99.7759 1245.14 95.2959 1246.77 91.1999C1248.47 87.1039 1250.78 83.6053 1253.68 80.7039C1256.66 77.7173 1260.16 75.4133 1264.17 73.7919C1268.27 72.0853 1272.75 71.2319 1277.61 71.2319ZM1277.61 122.56C1279.75 122.56 1281.8 122.176 1283.76 121.408C1285.81 120.555 1287.6 119.36 1289.13 117.824C1290.67 116.288 1291.86 114.411 1292.72 112.192C1293.66 109.973 1294.13 107.456 1294.13 104.64C1294.13 101.824 1293.66 99.3066 1292.72 97.0879C1291.86 94.8693 1290.67 92.9919 1289.13 91.4559C1287.6 89.9199 1285.81 88.7679 1283.76 87.9999C1281.8 87.1466 1279.75 86.7199 1277.61 86.7199C1275.4 86.7199 1273.3 87.1466 1271.34 87.9999C1269.38 88.7679 1267.63 89.9199 1266.09 91.4559C1264.56 92.9919 1263.32 94.8693 1262.38 97.0879C1261.53 99.3066 1261.1 101.824 1261.1 104.64C1261.1 107.456 1261.53 109.973 1262.38 112.192C1263.32 114.411 1264.56 116.288 1266.09 117.824C1267.63 119.36 1269.38 120.555 1271.34 121.408C1273.3 122.176 1275.4 122.56 1277.61 122.56Z" fill="#FBBC04"/>
<path d="M1224.76 64.192C1223.31 64.192 1221.9 63.936 1220.54 63.424C1219.26 62.8267 1218.11 62.0587 1217.08 61.12C1216.14 60.096 1215.38 58.944 1214.78 57.664C1214.27 56.384 1214.01 54.976 1214.01 53.44C1214.01 51.904 1214.27 50.496 1214.78 49.216C1215.38 47.936 1216.14 46.8267 1217.08 45.888C1218.11 44.864 1219.26 44.096 1220.54 43.584C1221.9 42.9867 1223.31 42.688 1224.76 42.688C1227.75 42.688 1230.31 43.7547 1232.44 45.888C1234.58 47.936 1235.64 50.4533 1235.64 53.44C1235.64 56.4267 1234.58 58.9867 1232.44 61.12C1230.31 63.168 1227.75 64.192 1224.76 64.192ZM1216.44 136V73.28H1233.21V136H1216.44Z" fill="#FBBC04"/>
<path d="M1170.33 87.6161H1159.32V73.2801H1170.33V54.0801H1187.1V73.2801H1202.46V87.6161H1187.1V111.936C1187.1 113.387 1187.23 114.752 1187.48 116.032C1187.82 117.227 1188.42 118.251 1189.27 119.104C1190.47 120.469 1192.18 121.152 1194.39 121.152C1195.84 121.152 1197 121.024 1197.85 120.768C1198.7 120.427 1199.51 120 1200.28 119.488L1205.02 134.208C1203.06 135.147 1200.92 135.829 1198.62 136.256C1196.4 136.768 1193.92 137.024 1191.19 137.024C1188.04 137.024 1185.18 136.555 1182.62 135.616C1180.14 134.592 1178.05 133.227 1176.35 131.52C1172.34 127.68 1170.33 122.219 1170.33 115.136V87.6161Z" fill="#FBBC04"/>
<path d="M1134.82 129.344H1133.8C1131.84 131.733 1129.45 133.781 1126.63 135.488C1123.9 137.195 1120.36 138.048 1116.01 138.048C1112.77 138.048 1109.69 137.493 1106.79 136.384C1103.98 135.36 1101.5 133.909 1099.37 132.032C1097.23 130.155 1095.57 127.893 1094.38 125.248C1093.18 122.603 1092.58 119.701 1092.58 116.544C1092.58 113.301 1093.22 110.4 1094.5 107.84C1095.78 105.195 1097.58 102.933 1099.88 101.056C1102.18 99.1786 1104.87 97.7706 1107.94 96.8319C1111.1 95.8079 1114.51 95.2959 1118.18 95.2959C1122.28 95.2959 1125.65 95.6373 1128.3 96.3199C1130.94 96.9173 1133.12 97.5573 1134.82 98.2399V96.3199C1134.82 92.9919 1133.5 90.2613 1130.86 88.1279C1128.21 85.9093 1124.93 84.7999 1121 84.7999C1115.2 84.7999 1110.29 87.2319 1106.28 92.0959L1094.12 83.7759C1100.78 75.4133 1109.86 71.2319 1121.38 71.2319C1131.11 71.2319 1138.54 73.5359 1143.66 78.1439C1148.78 82.6666 1151.34 89.4079 1151.34 98.3679V136H1134.82V129.344ZM1134.82 110.528C1132.86 109.589 1130.81 108.864 1128.68 108.352C1126.63 107.755 1124.37 107.456 1121.9 107.456C1117.89 107.456 1114.77 108.352 1112.55 110.144C1110.42 111.851 1109.35 113.984 1109.35 116.544C1109.35 119.104 1110.38 121.152 1112.42 122.688C1114.56 124.224 1116.99 124.992 1119.72 124.992C1121.94 124.992 1123.99 124.608 1125.86 123.84C1127.74 122.987 1129.32 121.92 1130.6 120.64C1131.97 119.275 1132.99 117.739 1133.67 116.032C1134.44 114.24 1134.82 112.405 1134.82 110.528Z" fill="#FBBC04"/>
<path d="M1046.54 73.2798H1062.29V81.9838H1063.31C1064.08 80.4478 1065.1 79.0398 1066.38 77.7598C1067.66 76.4798 1069.07 75.3705 1070.61 74.4318C1072.23 73.4931 1073.94 72.7678 1075.73 72.2558C1077.6 71.7438 1079.44 71.4878 1081.23 71.4878C1083.45 71.4878 1085.33 71.7011 1086.86 72.1278C1088.48 72.5545 1089.85 73.1091 1090.96 73.7918L1086.48 89.0238C1085.46 88.5118 1084.3 88.1278 1083.02 87.8718C1081.83 87.5305 1080.33 87.3598 1078.54 87.3598C1076.24 87.3598 1074.15 87.8291 1072.27 88.7678C1070.39 89.6211 1068.77 90.8585 1067.41 92.4798C1066.13 94.1011 1065.1 96.0211 1064.33 98.2398C1063.65 100.373 1063.31 102.72 1063.31 105.28V136H1046.54V73.2798Z" fill="#FBBC04"/>
<path d="M1002.08 87.6161H991.072V73.2801H1002.08V54.0801H1018.85V73.2801H1034.21V87.6161H1018.85V111.936C1018.85 113.387 1018.98 114.752 1019.23 116.032C1019.57 117.227 1020.17 118.251 1021.02 119.104C1022.22 120.469 1023.93 121.152 1026.14 121.152C1027.59 121.152 1028.75 121.024 1029.6 120.768C1030.45 120.427 1031.26 120 1032.03 119.488L1036.77 134.208C1034.81 135.147 1032.67 135.829 1030.37 136.256C1028.15 136.768 1025.67 137.024 1022.94 137.024C1019.79 137.024 1016.93 136.555 1014.37 135.616C1011.89 134.592 1009.8 133.227 1008.1 131.52C1004.09 127.68 1002.08 122.219 1002.08 115.136V87.6161Z" fill="#FBBC04"/>
<path d="M958.75 138.048C954.654 138.048 950.985 137.536 947.742 136.512C944.585 135.488 941.812 134.165 939.422 132.544C937.118 130.837 935.156 128.917 933.534 126.784C931.913 124.565 930.676 122.347 929.822 120.128L944.798 113.728C946.249 116.971 948.169 119.403 950.558 121.024C953.033 122.56 955.764 123.328 958.75 123.328C961.822 123.328 964.254 122.773 966.046 121.664C967.838 120.555 968.734 119.232 968.734 117.696C968.734 115.989 967.966 114.624 966.43 113.6C964.98 112.491 962.42 111.509 958.75 110.656L949.918 108.736C947.956 108.309 945.908 107.627 943.774 106.688C941.726 105.749 939.849 104.555 938.142 103.104C936.436 101.653 935.028 99.9039 933.918 97.8559C932.809 95.8079 932.254 93.4186 932.254 90.6879C932.254 87.6159 932.894 84.8853 934.174 82.4959C935.54 80.1066 937.374 78.1013 939.678 76.4799C941.982 74.7733 944.67 73.4933 947.742 72.6399C950.9 71.7013 954.27 71.2319 957.854 71.2319C963.828 71.2319 969.161 72.4266 973.854 74.8159C978.548 77.1199 982.004 80.8319 984.222 85.9519L969.758 91.8399C968.564 89.3653 966.814 87.5733 964.51 86.4639C962.206 85.3546 959.902 84.7999 957.598 84.7999C955.209 84.7999 953.118 85.3119 951.326 86.3359C949.534 87.2746 948.638 88.5119 948.638 90.0479C948.638 91.4986 949.364 92.6506 950.814 93.5039C952.35 94.3573 954.398 95.1253 956.958 95.8079L966.558 98.1119C972.958 99.6479 977.694 102.123 980.766 105.536C983.924 108.864 985.502 112.832 985.502 117.44C985.502 120.171 984.862 122.773 983.582 125.248C982.302 127.723 980.468 129.941 978.078 131.904C975.774 133.781 972.958 135.275 969.63 136.384C966.388 137.493 962.761 138.048 958.75 138.048Z" fill="#FBBC04"/>
<path d="M904.435 127.808H903.411C901.449 130.966 898.803 133.483 895.475 135.36C892.147 137.152 888.35 138.048 884.083 138.048C876.147 138.048 870.217 135.616 866.291 130.752C862.451 125.888 860.531 119.403 860.531 111.296V73.2803H877.299V109.248C877.299 113.771 878.281 117.142 880.243 119.36C882.291 121.494 885.235 122.56 889.075 122.56C891.379 122.56 893.385 122.091 895.091 121.152C896.883 120.128 898.377 118.806 899.571 117.184C900.851 115.478 901.79 113.515 902.387 111.296C903.07 108.992 903.411 106.56 903.411 104V73.2803H920.179V136H904.435V127.808Z" fill="#FBBC04"/>
<path d="M829.918 136V44.3521H846.686V136H829.918Z" fill="#FBBC04"/>
<path d="M798.793 136V44.3521H815.561V136H798.793Z" fill="#FBBC04"/>
<path d="M775.012 64.192C773.561 64.192 772.153 63.936 770.788 63.424C769.508 62.8267 768.356 62.0587 767.332 61.12C766.393 60.096 765.625 58.944 765.028 57.664C764.516 56.384 764.26 54.976 764.26 53.44C764.26 51.904 764.516 50.496 765.028 49.216C765.625 47.936 766.393 46.8267 767.332 45.888C768.356 44.864 769.508 44.096 770.788 43.584C772.153 42.9867 773.561 42.688 775.012 42.688C777.998 42.688 780.558 43.7547 782.692 45.888C784.825 47.936 785.892 50.4533 785.892 53.44C785.892 56.4267 784.825 58.9867 782.692 61.12C780.558 63.168 777.998 64.192 775.012 64.192ZM766.692 136V73.28H783.46V136H766.692Z" fill="#FBBC04"/>
<path d="M722.717 34.624H754.461V48.448H739.101V138.048H754.461V151.872H722.717V34.624Z" fill="#1D2645"/>
<path d="M648.08 87.6161H637.072V73.2801H648.08V54.0801H664.848V73.2801H680.208V87.6161H664.848V111.936C664.848 113.387 664.976 114.752 665.232 116.032C665.574 117.227 666.171 118.251 667.024 119.104C668.219 120.469 669.926 121.152 672.144 121.152C673.595 121.152 674.747 121.024 675.6 120.768C676.454 120.427 677.264 120 678.032 119.488L682.768 134.208C680.806 135.147 678.672 135.829 676.368 136.256C674.15 136.768 671.675 137.024 668.944 137.024C665.787 137.024 662.928 136.555 660.368 135.616C657.894 134.592 655.803 133.227 654.096 131.52C650.086 127.68 648.08 122.219 648.08 115.136V87.6161Z" fill="#1D2645"/>
<path d="M570.918 44.3521H587.686V70.08L586.662 81.4721H587.686C589.478 78.4854 592.038 76.0534 595.366 74.176C598.779 72.2134 602.577 71.232 606.758 71.232C614.865 71.232 620.838 73.6214 624.678 78.4C628.603 83.1787 630.566 89.7067 630.566 97.984V136H613.798V100.032C613.798 95.6801 612.774 92.3947 610.726 90.176C608.678 87.872 605.819 86.7201 602.15 86.7201C599.846 86.7201 597.798 87.2321 596.006 88.2561C594.214 89.1947 592.678 90.5174 591.398 92.2241C590.203 93.9307 589.265 95.9361 588.582 98.2401C587.985 100.459 587.686 102.848 587.686 105.408V136H570.918V44.3521Z" fill="#1D2645"/>
<path d="M523.471 165.696C519.034 165.696 515.066 165.099 511.567 163.904C508.154 162.795 505.167 161.301 502.607 159.424C500.047 157.632 497.914 155.627 496.207 153.408C494.5 151.189 493.263 148.971 492.495 146.752L508.495 140.352C509.69 143.68 511.652 146.24 514.383 148.032C517.114 149.909 520.143 150.848 523.471 150.848C528.762 150.848 532.943 149.184 536.015 145.856C539.087 142.613 540.623 138.048 540.623 132.16V127.808H539.599C537.636 130.539 535.034 132.715 531.791 134.336C528.634 135.872 524.879 136.64 520.527 136.64C516.772 136.64 513.103 135.872 509.519 134.336C506.02 132.8 502.906 130.624 500.175 127.808C497.444 124.907 495.226 121.451 493.519 117.44C491.812 113.429 490.959 108.949 490.959 104C490.959 99.0506 491.812 94.5706 493.519 90.5599C495.226 86.4639 497.444 83.0079 500.175 80.1919C502.906 77.2906 506.02 75.0719 509.519 73.5359C513.103 71.9999 516.772 71.2319 520.527 71.2319C524.879 71.2319 528.634 72.0426 531.791 73.6639C535.034 75.1999 537.636 77.3333 539.599 80.0639H540.623V73.2799H556.623V131.52C556.623 136.811 555.812 141.547 554.191 145.728C552.57 149.995 550.308 153.579 547.407 156.48C544.506 159.467 541.007 161.728 536.911 163.264C532.9 164.885 528.42 165.696 523.471 165.696ZM524.111 121.536C526.159 121.536 528.164 121.152 530.127 120.384C532.175 119.616 533.967 118.507 535.503 117.056C537.039 115.52 538.276 113.685 539.215 111.552C540.154 109.333 540.623 106.816 540.623 104C540.623 101.184 540.154 98.6666 539.215 96.4479C538.276 94.2293 537.039 92.3946 535.503 90.9439C533.967 89.4079 532.175 88.2559 530.127 87.4879C528.164 86.7199 526.159 86.3359 524.111 86.3359C522.063 86.3359 520.058 86.7199 518.095 87.4879C516.132 88.2559 514.383 89.4079 512.847 90.9439C511.311 92.4799 510.074 94.3573 509.135 96.5759C508.196 98.7093 507.727 101.184 507.727 104C507.727 106.816 508.196 109.333 509.135 111.552C510.074 113.685 511.311 115.52 512.847 117.056C514.383 118.507 516.132 119.616 518.095 120.384C520.058 121.152 522.063 121.536 524.111 121.536Z" fill="#1D2645"/>
<path d="M471.387 64.192C469.936 64.192 468.528 63.936 467.163 63.424C465.883 62.8267 464.731 62.0587 463.707 61.12C462.768 60.096 462 58.944 461.403 57.664C460.891 56.384 460.635 54.976 460.635 53.44C460.635 51.904 460.891 50.496 461.403 49.216C462 47.936 462.768 46.8267 463.707 45.888C464.731 44.864 465.883 44.096 467.163 43.584C468.528 42.9867 469.936 42.688 471.387 42.688C474.373 42.688 476.933 43.7547 479.067 45.888C481.2 47.936 482.267 50.4533 482.267 53.44C482.267 56.4267 481.2 58.9867 479.067 61.12C476.933 63.168 474.373 64.192 471.387 64.192ZM463.067 136V73.28H479.835V136H463.067Z" fill="#1D2645"/>
<path d="M409.918 73.2798H425.662V81.9838H426.686C427.454 80.4478 428.478 79.0398 429.758 77.7598C431.038 76.4798 432.446 75.3705 433.982 74.4318C435.603 73.4931 437.31 72.7678 439.102 72.2558C440.979 71.7438 442.814 71.4878 444.606 71.4878C446.825 71.4878 448.702 71.7011 450.238 72.1278C451.859 72.5545 453.225 73.1091 454.334 73.7918L449.854 89.0238C448.83 88.5118 447.678 88.1278 446.398 87.8718C445.203 87.5305 443.71 87.3598 441.918 87.3598C439.614 87.3598 437.523 87.8291 435.646 88.7678C433.769 89.6211 432.147 90.8585 430.782 92.4798C429.502 94.1011 428.478 96.0211 427.71 98.2398C427.027 100.373 426.686 102.72 426.686 105.28V136H409.918V73.2798Z" fill="#1D2645"/>
<path d="M370.06 120.896C367.159 126.016 363.233 130.155 358.284 133.312C353.42 136.469 347.447 138.048 340.364 138.048C335.585 138.048 331.148 137.237 327.052 135.616C323.041 133.909 319.543 131.563 316.556 128.576C313.569 125.589 311.223 122.091 309.516 118.08C307.895 113.984 307.084 109.504 307.084 104.64C307.084 100.117 307.895 95.8506 309.516 91.8399C311.137 87.7439 313.399 84.2026 316.3 81.2159C319.201 78.1439 322.615 75.7119 326.54 73.9199C330.551 72.1279 334.945 71.2319 339.724 71.2319C344.759 71.2319 349.239 72.0853 353.164 73.7919C357.089 75.4133 360.375 77.7173 363.02 80.7039C365.665 83.6053 367.671 87.0613 369.036 91.0719C370.401 95.0826 371.084 99.4346 371.084 104.128C371.084 104.725 371.084 105.237 371.084 105.664C370.999 106.176 370.956 106.645 370.956 107.072C370.871 107.499 370.828 107.968 370.828 108.48H323.596C323.937 111.04 324.62 113.259 325.644 115.136C326.753 116.928 328.076 118.464 329.612 119.744C331.233 120.939 332.983 121.835 334.86 122.432C336.737 122.944 338.657 123.2 340.62 123.2C344.46 123.2 347.617 122.347 350.092 120.64C352.652 118.848 354.657 116.629 356.108 113.984L370.06 120.896ZM354.828 96.5759C354.743 95.4666 354.359 94.2293 353.676 92.8639C353.079 91.4986 352.14 90.2186 350.86 89.0239C349.665 87.8293 348.129 86.8479 346.252 86.0799C344.46 85.3119 342.284 84.9279 339.724 84.9279C336.14 84.9279 332.983 85.9519 330.252 87.9999C327.521 90.0479 325.601 92.9066 324.492 96.5759H354.828Z" fill="#1D2645"/>
<path d="M237.168 44.3521H253.936V70.08L252.912 81.4721H253.936C255.728 78.4854 258.288 76.0534 261.616 74.176C265.029 72.2134 268.827 71.232 273.008 71.232C281.115 71.232 287.088 73.6214 290.928 78.4C294.853 83.1787 296.816 89.7067 296.816 97.984V136H280.048V100.032C280.048 95.6801 279.024 92.3947 276.976 90.176C274.928 87.872 272.069 86.7201 268.4 86.7201C266.096 86.7201 264.048 87.2321 262.256 88.2561C260.464 89.1947 258.928 90.5174 257.648 92.2241C256.453 93.9307 255.515 95.9361 254.832 98.2401C254.235 100.459 253.936 102.848 253.936 105.408V136H237.168V44.3521Z" fill="#1D2645"/>
<path d="M192.08 87.6161H181.072V73.2801H192.08V54.0801H208.848V73.2801H224.208V87.6161H208.848V111.936C208.848 113.387 208.976 114.752 209.232 116.032C209.574 117.227 210.171 118.251 211.024 119.104C212.219 120.469 213.926 121.152 216.144 121.152C217.595 121.152 218.747 121.024 219.6 120.768C220.454 120.427 221.264 120 222.032 119.488L226.768 134.208C224.806 135.147 222.672 135.829 220.368 136.256C218.15 136.768 215.675 137.024 212.944 137.024C209.787 137.024 206.928 136.555 204.368 135.616C201.894 134.592 199.803 133.227 198.096 131.52C194.086 127.68 192.08 122.219 192.08 115.136V87.6161Z" fill="#1D2645"/>
<path d="M112.989 71.2319C117.853 71.2319 122.29 72.0853 126.301 73.7919C130.397 75.4133 133.896 77.7173 136.797 80.7039C139.784 83.6053 142.088 87.1039 143.709 91.1999C145.416 95.2959 146.269 99.7759 146.269 104.64C146.269 109.504 145.416 113.984 143.709 118.08C142.088 122.176 139.784 125.717 136.797 128.704C133.896 131.605 130.397 133.909 126.301 135.616C122.29 137.237 117.853 138.048 112.989 138.048C108.125 138.048 103.645 137.237 99.549 135.616C95.5383 133.909 92.0397 131.605 89.053 128.704C86.1517 125.717 83.8477 122.176 82.141 118.08C80.5197 113.984 79.709 109.504 79.709 104.64C79.709 99.7759 80.5197 95.2959 82.141 91.1999C83.8477 87.1039 86.1517 83.6053 89.053 80.7039C92.0397 77.7173 95.5383 75.4133 99.549 73.7919C103.645 72.0853 108.125 71.2319 112.989 71.2319ZM112.989 122.56C115.122 122.56 117.17 122.176 119.133 121.408C121.181 120.555 122.973 119.36 124.509 117.824C126.045 116.288 127.24 114.411 128.093 112.192C129.032 109.973 129.501 107.456 129.501 104.64C129.501 101.824 129.032 99.3066 128.093 97.0879C127.24 94.8693 126.045 92.9919 124.509 91.4559C122.973 89.9199 121.181 88.7679 119.133 87.9999C117.17 87.1466 115.122 86.7199 112.989 86.7199C110.77 86.7199 108.68 87.1466 106.717 87.9999C104.754 88.7679 103.005 89.9199 101.469 91.4559C99.933 92.9919 98.6957 94.8693 97.757 97.0879C96.9037 99.3066 96.477 101.824 96.477 104.64C96.477 107.456 96.9037 109.973 97.757 112.192C98.6957 114.411 99.933 116.288 101.469 117.824C103.005 119.36 104.754 120.555 106.717 121.408C108.68 122.176 110.77 122.56 112.989 122.56Z" fill="#1D2645"/>
<path d="M53.888 128.448H52.864C51.328 131.093 48.9387 133.355 45.696 135.232C42.4533 137.109 38.4427 138.048 33.664 138.048C29.6533 138.048 25.8133 137.237 22.144 135.616C18.56 133.909 15.36 131.605 12.544 128.704C9.81332 125.717 7.63732 122.176 6.01598 118.08C4.39465 113.984 3.58398 109.504 3.58398 104.64C3.58398 99.7761 4.39465 95.2961 6.01598 91.2001C7.63732 87.104 9.81332 83.6054 12.544 80.704C15.36 77.7174 18.56 75.4134 22.144 73.792C25.8133 72.0854 29.6533 71.232 33.664 71.232C38.4427 71.232 42.4533 72.1707 45.696 74.048C48.9387 75.9254 51.328 78.1867 52.864 80.8321H53.888L52.864 71.872V44.3521H69.632V136H53.888V128.448ZM37.12 122.56C39.3387 122.56 41.4293 122.176 43.392 121.408C45.44 120.555 47.232 119.36 48.768 117.824C50.304 116.288 51.5413 114.411 52.48 112.192C53.4187 109.973 53.888 107.456 53.888 104.64C53.888 101.824 53.4187 99.3067 52.48 97.0881C51.5413 94.8694 50.304 92.992 48.768 91.456C47.232 89.92 45.44 88.7681 43.392 88.0001C41.4293 87.1467 39.3387 86.7201 37.12 86.7201C34.9013 86.7201 32.768 87.1467 30.72 88.0001C28.7573 88.8534 27.008 90.0481 25.472 91.5841C23.936 93.1201 22.6987 94.9974 21.76 97.2161C20.8213 99.4347 20.352 101.909 20.352 104.64C20.352 107.371 20.8213 109.845 21.76 112.064C22.6987 114.283 23.936 116.16 25.472 117.696C27.008 119.232 28.7573 120.427 30.72 121.28C32.768 122.133 34.9013 122.56 37.12 122.56Z" fill="#1D2645"/>
</svg>
