<svg width="1664" height="181" viewBox="0 0 1664 181" fill="none" xmlns="http://www.w3.org/2000/svg">
<path d="M1244.21 54.5916L1257.65 59.3276L1258.8 58.9436V44.3516H1270.84V58.9436L1271.86 59.3276L1285.43 54.5916L1289.4 65.9836L1275.7 70.8476L1275.32 71.9996L1284.53 84.5436L1274.8 91.5836L1265.33 78.7836H1264.31L1254.84 91.5836L1245.11 84.5436L1254.32 71.9996L1253.94 70.8476L1240.24 65.9836L1244.21 54.5916Z" fill="#1D2645"/>
<path d="M1225.96 151.872H1194.22V138.048H1209.58V48.448H1194.22V34.624H1225.96V151.872Z" fill="#1D2645"/>
<path d="M1149.85 165.696C1145.41 165.696 1141.44 165.099 1137.94 163.904C1134.53 162.795 1131.54 161.302 1128.98 159.424C1126.42 157.632 1124.29 155.627 1122.58 153.408C1120.88 151.19 1119.64 148.971 1118.87 146.752L1134.87 140.352C1136.06 143.68 1138.03 146.24 1140.76 148.032C1143.49 149.91 1146.52 150.848 1149.85 150.848C1155.14 150.848 1159.32 149.184 1162.39 145.856C1165.46 142.614 1167 138.048 1167 132.16V127.808H1165.97C1164.01 130.539 1161.41 132.715 1158.17 134.336C1155.01 135.872 1151.25 136.64 1146.9 136.64C1143.15 136.64 1139.48 135.872 1135.89 134.336C1132.4 132.8 1129.28 130.624 1126.55 127.808C1123.82 124.907 1121.6 121.451 1119.89 117.44C1118.19 113.43 1117.33 108.95 1117.33 104C1117.33 99.0511 1118.19 94.5711 1119.89 90.5604C1121.6 86.4644 1123.82 83.0084 1126.55 80.1924C1129.28 77.2911 1132.4 75.0724 1135.89 73.5364C1139.48 72.0004 1143.15 71.2324 1146.9 71.2324C1151.25 71.2324 1155.01 72.0431 1158.17 73.6644C1161.41 75.2004 1164.01 77.3338 1165.97 80.0644H1167V73.2804H1183V131.52C1183 136.811 1182.19 141.547 1180.57 145.728C1178.94 149.995 1176.68 153.579 1173.78 156.48C1170.88 159.467 1167.38 161.728 1163.29 163.264C1159.28 164.886 1154.8 165.696 1149.85 165.696ZM1150.49 121.536C1152.53 121.536 1154.54 121.152 1156.5 120.384C1158.55 119.616 1160.34 118.507 1161.88 117.056C1163.41 115.52 1164.65 113.686 1165.59 111.552C1166.53 109.334 1167 106.816 1167 104C1167 101.184 1166.53 98.6671 1165.59 96.4484C1164.65 94.2298 1163.41 92.3951 1161.88 90.9444C1160.34 89.4084 1158.55 88.2564 1156.5 87.4884C1154.54 86.7204 1152.53 86.3364 1150.49 86.3364C1148.44 86.3364 1146.43 86.7204 1144.47 87.4884C1142.51 88.2564 1140.76 89.4084 1139.22 90.9444C1137.69 92.4804 1136.45 94.3578 1135.51 96.5764C1134.57 98.7098 1134.1 101.184 1134.1 104C1134.1 106.816 1134.57 109.334 1135.51 111.552C1136.45 113.686 1137.69 115.52 1139.22 117.056C1140.76 118.507 1142.51 119.616 1144.47 120.384C1146.43 121.152 1148.44 121.536 1150.49 121.536Z" fill="#EA4335"/>
<path d="M1063.79 81.4724H1064.81C1066.77 78.3151 1069.42 75.8404 1072.75 74.0484C1076.07 72.1711 1079.87 71.2324 1084.14 71.2324C1088.06 71.2324 1091.52 71.8724 1094.51 73.1524C1097.49 74.4324 1099.93 76.2671 1101.8 78.6564C1103.77 80.9604 1105.22 83.7764 1106.16 87.1044C1107.18 90.3471 1107.69 93.9738 1107.69 97.9844V136H1090.92V100.032C1090.92 95.5098 1089.9 92.1818 1087.85 90.0484C1085.89 87.8298 1082.99 86.7204 1079.15 86.7204C1076.84 86.7204 1074.8 87.2324 1073 88.2564C1071.3 89.1951 1069.8 90.5178 1068.52 92.2244C1067.33 93.8458 1066.39 95.8084 1065.71 98.1124C1065.11 100.331 1064.81 102.72 1064.81 105.28V136H1048.04V73.2804H1063.79V81.4724Z" fill="#EA4335"/>
<path d="M1024.26 64.1925C1022.81 64.1925 1021.4 63.9365 1020.04 63.4245C1018.76 62.8271 1017.61 62.0591 1016.58 61.1205C1015.64 60.0965 1014.88 58.9445 1014.28 57.6645C1013.77 56.3845 1013.51 54.9765 1013.51 53.4405C1013.51 51.9045 1013.77 50.4965 1014.28 49.2165C1014.88 47.9365 1015.64 46.8271 1016.58 45.8885C1017.61 44.8645 1018.76 44.0965 1020.04 43.5845C1021.4 42.9871 1022.81 42.6885 1024.26 42.6885C1027.25 42.6885 1029.81 43.7551 1031.94 45.8885C1034.08 47.9365 1035.14 50.4538 1035.14 53.4405C1035.14 56.4271 1034.08 58.9871 1031.94 61.1205C1029.81 63.1685 1027.25 64.1925 1024.26 64.1925ZM1015.94 136V73.2805H1032.71V136H1015.94Z" fill="#EA4335"/>
<path d="M984.888 128.448H983.864C982.328 131.093 979.939 133.354 976.696 135.232C973.453 137.109 969.443 138.048 964.664 138.048C960.653 138.048 956.813 137.237 953.144 135.616C949.56 133.909 946.36 131.605 943.544 128.704C940.813 125.717 938.637 122.176 937.016 118.08C935.395 113.984 934.584 109.504 934.584 104.64C934.584 99.7756 935.395 95.2956 937.016 91.1996C938.637 87.1036 940.813 83.6049 943.544 80.7036C946.36 77.7169 949.56 75.4129 953.144 73.7916C956.813 72.0849 960.653 71.2316 964.664 71.2316C969.443 71.2316 973.453 72.1702 976.696 74.0476C979.939 75.9249 982.328 78.1862 983.864 80.8316H984.888L983.864 71.8716V44.3516H1000.63V136H984.888V128.448ZM968.12 122.56C970.339 122.56 972.429 122.176 974.392 121.408C976.44 120.554 978.232 119.36 979.768 117.824C981.304 116.288 982.541 114.41 983.48 112.192C984.419 109.973 984.888 107.456 984.888 104.64C984.888 101.824 984.419 99.3062 983.48 97.0876C982.541 94.8689 981.304 92.9916 979.768 91.4556C978.232 89.9196 976.44 88.7676 974.392 87.9996C972.429 87.1462 970.339 86.7196 968.12 86.7196C965.901 86.7196 963.768 87.1462 961.72 87.9996C959.757 88.8529 958.008 90.0476 956.472 91.5836C954.936 93.1196 953.699 94.9969 952.76 97.2156C951.821 99.4342 951.352 101.909 951.352 104.64C951.352 107.37 951.821 109.845 952.76 112.064C953.699 114.282 954.936 116.16 956.472 117.696C958.008 119.232 959.757 120.426 961.72 121.28C963.768 122.133 965.901 122.56 968.12 122.56Z" fill="#EA4335"/>
<path d="M880.412 81.4724H881.436C883.399 78.3151 886.044 75.8404 889.372 74.0484C892.7 72.1711 896.497 71.2324 900.764 71.2324C904.689 71.2324 908.145 71.8724 911.132 73.1524C914.119 74.4324 916.551 76.2671 918.428 78.6564C920.391 80.9604 921.841 83.7764 922.78 87.1044C923.804 90.3471 924.316 93.9738 924.316 97.9844V136H907.548V100.032C907.548 95.5098 906.524 92.1818 904.476 90.0484C902.513 87.8298 899.612 86.7204 895.772 86.7204C893.468 86.7204 891.42 87.2324 889.628 88.2564C887.921 89.1951 886.428 90.5178 885.148 92.2244C883.953 93.8458 883.015 95.8084 882.332 98.1124C881.735 100.331 881.436 102.72 881.436 105.28V136H864.668V73.2804H880.412V81.4724Z" fill="#EA4335"/>
<path d="M834.824 129.344H833.8C831.837 131.734 829.448 133.782 826.632 135.488C823.901 137.195 820.36 138.048 816.008 138.048C812.765 138.048 809.693 137.494 806.792 136.384C803.976 135.36 801.501 133.91 799.368 132.032C797.235 130.155 795.571 127.894 794.376 125.248C793.181 122.603 792.584 119.702 792.584 116.544C792.584 113.302 793.224 110.4 794.504 107.84C795.784 105.195 797.576 102.934 799.88 101.056C802.184 99.1791 804.872 97.7711 807.944 96.8324C811.101 95.8084 814.515 95.2964 818.184 95.2964C822.28 95.2964 825.651 95.6378 828.296 96.3204C830.941 96.9178 833.117 97.5578 834.824 98.2404V96.3204C834.824 92.9924 833.501 90.2618 830.856 88.1284C828.211 85.9098 824.925 84.8004 821 84.8004C815.197 84.8004 810.291 87.2324 806.28 92.0964L794.12 83.7764C800.776 75.4138 809.864 71.2324 821.384 71.2324C831.112 71.2324 838.536 73.5364 843.656 78.1444C848.776 82.6671 851.336 89.4084 851.336 98.3684V136H834.824V129.344ZM834.824 110.528C832.861 109.59 830.813 108.864 828.68 108.352C826.632 107.755 824.371 107.456 821.896 107.456C817.885 107.456 814.771 108.352 812.552 110.144C810.419 111.851 809.352 113.984 809.352 116.544C809.352 119.104 810.376 121.152 812.424 122.688C814.557 124.224 816.989 124.992 819.72 124.992C821.939 124.992 823.987 124.608 825.864 123.84C827.741 122.987 829.32 121.92 830.6 120.64C831.965 119.275 832.989 117.739 833.672 116.032C834.44 114.24 834.824 112.406 834.824 110.528Z" fill="#EA4335"/>
<path d="M765.668 136V44.3516H782.436V136H765.668Z" fill="#EA4335"/>
<path d="M722.717 34.624H754.461V48.448H739.101V138.048H754.461V151.872H722.717V34.624Z" fill="#1D2645"/>
<path d="M648.08 87.6161H637.072V73.2801H648.08V54.0801H664.848V73.2801H680.208V87.6161H664.848V111.936C664.848 113.387 664.976 114.752 665.232 116.032C665.574 117.227 666.171 118.251 667.024 119.104C668.219 120.469 669.926 121.152 672.144 121.152C673.595 121.152 674.747 121.024 675.6 120.768C676.454 120.427 677.264 120 678.032 119.488L682.768 134.208C680.806 135.147 678.672 135.829 676.368 136.256C674.15 136.768 671.675 137.024 668.944 137.024C665.787 137.024 662.928 136.555 660.368 135.616C657.894 134.592 655.803 133.227 654.096 131.52C650.086 127.68 648.08 122.219 648.08 115.136V87.6161Z" fill="#1D2645"/>
<path d="M570.918 44.3516H587.686V70.0796L586.662 81.4716H587.686C589.478 78.4849 592.038 76.0529 595.366 74.1756C598.779 72.2129 602.577 71.2316 606.758 71.2316C614.865 71.2316 620.838 73.6209 624.678 78.3996C628.603 83.1782 630.566 89.7062 630.566 97.9836V136H613.798V100.032C613.798 95.6796 612.774 92.3942 610.726 90.1756C608.678 87.8716 605.819 86.7196 602.15 86.7196C599.846 86.7196 597.798 87.2316 596.006 88.2556C594.214 89.1942 592.678 90.5169 591.398 92.2236C590.203 93.9302 589.265 95.9356 588.582 98.2396C587.985 100.458 587.686 102.848 587.686 105.408V136H570.918V44.3516Z" fill="#1D2645"/>
<path d="M523.471 165.696C519.034 165.696 515.066 165.099 511.567 163.904C508.154 162.795 505.167 161.302 502.607 159.424C500.047 157.632 497.914 155.627 496.207 153.408C494.5 151.19 493.263 148.971 492.495 146.752L508.495 140.352C509.69 143.68 511.652 146.24 514.383 148.032C517.114 149.91 520.143 150.848 523.471 150.848C528.762 150.848 532.943 149.184 536.015 145.856C539.087 142.614 540.623 138.048 540.623 132.16V127.808H539.599C537.636 130.539 535.034 132.715 531.791 134.336C528.634 135.872 524.879 136.64 520.527 136.64C516.772 136.64 513.103 135.872 509.519 134.336C506.02 132.8 502.906 130.624 500.175 127.808C497.444 124.907 495.226 121.451 493.519 117.44C491.812 113.43 490.959 108.95 490.959 104C490.959 99.0511 491.812 94.5711 493.519 90.5604C495.226 86.4644 497.444 83.0084 500.175 80.1924C502.906 77.2911 506.02 75.0724 509.519 73.5364C513.103 72.0004 516.772 71.2324 520.527 71.2324C524.879 71.2324 528.634 72.0431 531.791 73.6644C535.034 75.2004 537.636 77.3338 539.599 80.0644H540.623V73.2804H556.623V131.52C556.623 136.811 555.812 141.547 554.191 145.728C552.57 149.995 550.308 153.579 547.407 156.48C544.506 159.467 541.007 161.728 536.911 163.264C532.9 164.886 528.42 165.696 523.471 165.696ZM524.111 121.536C526.159 121.536 528.164 121.152 530.127 120.384C532.175 119.616 533.967 118.507 535.503 117.056C537.039 115.52 538.276 113.686 539.215 111.552C540.154 109.334 540.623 106.816 540.623 104C540.623 101.184 540.154 98.6671 539.215 96.4484C538.276 94.2298 537.039 92.3951 535.503 90.9444C533.967 89.4084 532.175 88.2564 530.127 87.4884C528.164 86.7204 526.159 86.3364 524.111 86.3364C522.063 86.3364 520.058 86.7204 518.095 87.4884C516.132 88.2564 514.383 89.4084 512.847 90.9444C511.311 92.4804 510.074 94.3578 509.135 96.5764C508.196 98.7098 507.727 101.184 507.727 104C507.727 106.816 508.196 109.334 509.135 111.552C510.074 113.686 511.311 115.52 512.847 117.056C514.383 118.507 516.132 119.616 518.095 120.384C520.058 121.152 522.063 121.536 524.111 121.536Z" fill="#1D2645"/>
<path d="M471.387 64.1925C469.936 64.1925 468.528 63.9365 467.163 63.4245C465.883 62.8271 464.731 62.0591 463.707 61.1205C462.768 60.0965 462 58.9445 461.403 57.6645C460.891 56.3845 460.635 54.9765 460.635 53.4405C460.635 51.9045 460.891 50.4965 461.403 49.2165C462 47.9365 462.768 46.8271 463.707 45.8885C464.731 44.8645 465.883 44.0965 467.163 43.5845C468.528 42.9871 469.936 42.6885 471.387 42.6885C474.373 42.6885 476.933 43.7551 479.067 45.8885C481.2 47.9365 482.267 50.4538 482.267 53.4405C482.267 56.4271 481.2 58.9871 479.067 61.1205C476.933 63.1685 474.373 64.1925 471.387 64.1925ZM463.067 136V73.2805H479.835V136H463.067Z" fill="#1D2645"/>
<path d="M409.918 73.2803H425.662V81.9843H426.686C427.454 80.4483 428.478 79.0403 429.758 77.7603C431.038 76.4803 432.446 75.3709 433.982 74.4323C435.603 73.4936 437.31 72.7683 439.102 72.2563C440.979 71.7443 442.814 71.4883 444.606 71.4883C446.825 71.4883 448.702 71.7016 450.238 72.1283C451.859 72.5549 453.225 73.1096 454.334 73.7923L449.854 89.0243C448.83 88.5123 447.678 88.1283 446.398 87.8723C445.203 87.5309 443.71 87.3603 441.918 87.3603C439.614 87.3603 437.523 87.8296 435.646 88.7683C433.769 89.6216 432.147 90.8589 430.782 92.4803C429.502 94.1016 428.478 96.0216 427.71 98.2403C427.027 100.374 426.686 102.72 426.686 105.28V136H409.918V73.2803Z" fill="#1D2645"/>
<path d="M370.06 120.896C367.159 126.016 363.233 130.155 358.284 133.312C353.42 136.47 347.447 138.048 340.364 138.048C335.585 138.048 331.148 137.238 327.052 135.616C323.041 133.91 319.543 131.563 316.556 128.576C313.569 125.59 311.223 122.091 309.516 118.08C307.895 113.984 307.084 109.504 307.084 104.64C307.084 100.118 307.895 95.8511 309.516 91.8404C311.137 87.7444 313.399 84.2031 316.3 81.2164C319.201 78.1444 322.615 75.7124 326.54 73.9204C330.551 72.1284 334.945 71.2324 339.724 71.2324C344.759 71.2324 349.239 72.0858 353.164 73.7924C357.089 75.4138 360.375 77.7178 363.02 80.7044C365.665 83.6058 367.671 87.0618 369.036 91.0724C370.401 95.0831 371.084 99.4351 371.084 104.128C371.084 104.726 371.084 105.238 371.084 105.664C370.999 106.176 370.956 106.646 370.956 107.072C370.871 107.499 370.828 107.968 370.828 108.48H323.596C323.937 111.04 324.62 113.259 325.644 115.136C326.753 116.928 328.076 118.464 329.612 119.744C331.233 120.939 332.983 121.835 334.86 122.432C336.737 122.944 338.657 123.2 340.62 123.2C344.46 123.2 347.617 122.347 350.092 120.64C352.652 118.848 354.657 116.63 356.108 113.984L370.06 120.896ZM354.828 96.5764C354.743 95.4671 354.359 94.2298 353.676 92.8644C353.079 91.4991 352.14 90.2191 350.86 89.0244C349.665 87.8298 348.129 86.8484 346.252 86.0804C344.46 85.3124 342.284 84.9284 339.724 84.9284C336.14 84.9284 332.983 85.9524 330.252 88.0004C327.521 90.0484 325.601 92.9071 324.492 96.5764H354.828Z" fill="#1D2645"/>
<path d="M237.168 44.3516H253.936V70.0796L252.912 81.4716H253.936C255.728 78.4849 258.288 76.0529 261.616 74.1756C265.029 72.2129 268.827 71.2316 273.008 71.2316C281.115 71.2316 287.088 73.6209 290.928 78.3996C294.853 83.1782 296.816 89.7062 296.816 97.9836V136H280.048V100.032C280.048 95.6796 279.024 92.3942 276.976 90.1756C274.928 87.8716 272.069 86.7196 268.4 86.7196C266.096 86.7196 264.048 87.2316 262.256 88.2556C260.464 89.1942 258.928 90.5169 257.648 92.2236C256.453 93.9302 255.515 95.9356 254.832 98.2396C254.235 100.458 253.936 102.848 253.936 105.408V136H237.168V44.3516Z" fill="#1D2645"/>
<path d="M192.08 87.6161H181.072V73.2801H192.08V54.0801H208.848V73.2801H224.208V87.6161H208.848V111.936C208.848 113.387 208.976 114.752 209.232 116.032C209.574 117.227 210.171 118.251 211.024 119.104C212.219 120.469 213.926 121.152 216.144 121.152C217.595 121.152 218.747 121.024 219.6 120.768C220.454 120.427 221.264 120 222.032 119.488L226.768 134.208C224.806 135.147 222.672 135.829 220.368 136.256C218.15 136.768 215.675 137.024 212.944 137.024C209.787 137.024 206.928 136.555 204.368 135.616C201.894 134.592 199.803 133.227 198.096 131.52C194.086 127.68 192.08 122.219 192.08 115.136V87.6161Z" fill="#1D2645"/>
<path d="M112.989 71.2324C117.853 71.2324 122.29 72.0858 126.301 73.7924C130.397 75.4138 133.896 77.7178 136.797 80.7044C139.784 83.6058 142.088 87.1044 143.709 91.2004C145.416 95.2964 146.269 99.7764 146.269 104.64C146.269 109.504 145.416 113.984 143.709 118.08C142.088 122.176 139.784 125.718 136.797 128.704C133.896 131.606 130.397 133.91 126.301 135.616C122.29 137.238 117.853 138.048 112.989 138.048C108.125 138.048 103.645 137.238 99.549 135.616C95.5383 133.91 92.0397 131.606 89.053 128.704C86.1517 125.718 83.8477 122.176 82.141 118.08C80.5197 113.984 79.709 109.504 79.709 104.64C79.709 99.7764 80.5197 95.2964 82.141 91.2004C83.8477 87.1044 86.1517 83.6058 89.053 80.7044C92.0397 77.7178 95.5383 75.4138 99.549 73.7924C103.645 72.0858 108.125 71.2324 112.989 71.2324ZM112.989 122.56C115.122 122.56 117.17 122.176 119.133 121.408C121.181 120.555 122.973 119.36 124.509 117.824C126.045 116.288 127.24 114.411 128.093 112.192C129.032 109.974 129.501 107.456 129.501 104.64C129.501 101.824 129.032 99.3071 128.093 97.0884C127.24 94.8698 126.045 92.9924 124.509 91.4564C122.973 89.9204 121.181 88.7684 119.133 88.0004C117.17 87.1471 115.122 86.7204 112.989 86.7204C110.77 86.7204 108.68 87.1471 106.717 88.0004C104.754 88.7684 103.005 89.9204 101.469 91.4564C99.933 92.9924 98.6957 94.8698 97.757 97.0884C96.9037 99.3071 96.477 101.824 96.477 104.64C96.477 107.456 96.9037 109.974 97.757 112.192C98.6957 114.411 99.933 116.288 101.469 117.824C103.005 119.36 104.754 120.555 106.717 121.408C108.68 122.176 110.77 122.56 112.989 122.56Z" fill="#1D2645"/>
<path d="M53.888 128.448H52.864C51.328 131.093 48.9387 133.354 45.696 135.232C42.4533 137.109 38.4427 138.048 33.664 138.048C29.6533 138.048 25.8133 137.237 22.144 135.616C18.56 133.909 15.36 131.605 12.544 128.704C9.81332 125.717 7.63732 122.176 6.01598 118.08C4.39465 113.984 3.58398 109.504 3.58398 104.64C3.58398 99.7756 4.39465 95.2956 6.01598 91.1996C7.63732 87.1036 9.81332 83.6049 12.544 80.7036C15.36 77.7169 18.56 75.4129 22.144 73.7916C25.8133 72.0849 29.6533 71.2316 33.664 71.2316C38.4427 71.2316 42.4533 72.1702 45.696 74.0476C48.9387 75.9249 51.328 78.1862 52.864 80.8316H53.888L52.864 71.8716V44.3516H69.632V136H53.888V128.448ZM37.12 122.56C39.3387 122.56 41.4293 122.176 43.392 121.408C45.44 120.554 47.232 119.36 48.768 117.824C50.304 116.288 51.5413 114.41 52.48 112.192C53.4187 109.973 53.888 107.456 53.888 104.64C53.888 101.824 53.4187 99.3062 52.48 97.0876C51.5413 94.8689 50.304 92.9916 48.768 91.4556C47.232 89.9196 45.44 88.7676 43.392 87.9996C41.4293 87.1462 39.3387 86.7196 37.12 86.7196C34.9013 86.7196 32.768 87.1462 30.72 87.9996C28.7573 88.8529 27.008 90.0476 25.472 91.5836C23.936 93.1196 22.6987 94.9969 21.76 97.2156C20.8213 99.4342 20.352 101.909 20.352 104.64C20.352 107.37 20.8213 109.845 21.76 112.064C22.6987 114.282 23.936 116.16 25.472 117.696C27.008 119.232 28.7573 120.426 30.72 121.28C32.768 122.133 34.9013 122.56 37.12 122.56Z" fill="#1D2645"/>
</svg>
