<svg width="1664" height="181" viewBox="0 0 1664 181" fill="none" xmlns="http://www.w3.org/2000/svg">
<path d="M1326.84 54.592L1340.28 59.328L1341.43 58.944V44.3521H1353.46V58.944L1354.49 59.328L1368.05 54.592L1372.02 65.984L1358.33 70.8481L1357.94 72.0001L1367.16 84.5441L1357.43 91.5841L1347.96 78.784H1346.93L1337.46 91.5841L1327.73 84.5441L1336.95 72.0001L1336.57 70.8481L1322.87 65.984L1326.84 54.592Z" fill="#1D2645"/>
<path d="M1308.59 151.872H1276.85V138.048H1292.21V48.448H1276.85V34.624H1308.59V151.872Z" fill="#1D2645"/>
<path d="M1206.42 44.3521H1223.19V70.08L1222.16 81.4721H1223.19C1224.98 78.4854 1227.54 76.0534 1230.87 74.176C1234.28 72.2134 1238.08 71.232 1242.26 71.232C1250.36 71.232 1256.34 73.6214 1260.18 78.4C1264.1 83.1787 1266.07 89.7067 1266.07 97.984V136H1249.3V100.032C1249.3 95.6801 1248.27 92.3947 1246.23 90.176C1244.18 87.872 1241.32 86.7201 1237.65 86.7201C1235.35 86.7201 1233.3 87.2321 1231.51 88.2561C1229.71 89.1947 1228.18 90.5174 1226.9 92.2241C1225.7 93.9307 1224.76 95.9361 1224.08 98.2401C1223.48 100.459 1223.19 102.848 1223.19 105.408V136H1206.42V44.3521Z" fill="#34A853"/>
<path d="M1196.19 120C1193.46 125.291 1189.62 129.643 1184.67 133.056C1179.8 136.384 1173.7 138.048 1166.36 138.048C1161.5 138.048 1157.02 137.237 1152.92 135.616C1148.91 133.909 1145.41 131.563 1142.43 128.576C1139.53 125.589 1137.22 122.091 1135.52 118.08C1133.89 113.984 1133.08 109.504 1133.08 104.64C1133.08 99.7759 1133.89 95.2959 1135.52 91.1999C1137.22 87.1039 1139.53 83.6053 1142.43 80.7039C1145.41 77.7173 1148.91 75.4133 1152.92 73.7919C1157.02 72.0853 1161.5 71.2319 1166.36 71.2319C1173.62 71.2319 1179.72 72.8959 1184.67 76.2239C1189.62 79.5519 1193.24 83.8613 1195.55 89.1519L1180.19 95.5519C1178.74 92.6506 1176.86 90.4746 1174.56 89.0239C1172.34 87.4879 1169.52 86.7199 1166.11 86.7199C1163.89 86.7199 1161.8 87.1466 1159.84 87.9999C1157.87 88.8533 1156.12 90.0479 1154.59 91.5839C1153.14 93.1199 1151.99 94.9973 1151.13 97.2159C1150.28 99.4346 1149.85 101.909 1149.85 104.64C1149.85 107.371 1150.28 109.845 1151.13 112.064C1151.99 114.283 1153.14 116.16 1154.59 117.696C1156.12 119.232 1157.87 120.427 1159.84 121.28C1161.8 122.133 1163.89 122.56 1166.11 122.56C1169.61 122.56 1172.55 121.792 1174.94 120.256C1177.41 118.635 1179.38 116.331 1180.83 113.344L1196.19 120Z" fill="#34A853"/>
<path d="M1088.42 73.2798H1104.16V81.9838H1105.19C1105.95 80.4478 1106.98 79.0398 1108.26 77.7598C1109.54 76.4798 1110.95 75.3705 1112.48 74.4318C1114.1 73.4931 1115.81 72.7678 1117.6 72.2558C1119.48 71.7438 1121.31 71.4878 1123.11 71.4878C1125.32 71.4878 1127.2 71.7011 1128.74 72.1278C1130.36 72.5545 1131.72 73.1091 1132.83 73.7918L1128.35 89.0238C1127.33 88.5118 1126.18 88.1278 1124.9 87.8718C1123.7 87.5305 1122.21 87.3598 1120.42 87.3598C1118.11 87.3598 1116.02 87.8291 1114.15 88.7678C1112.27 89.6211 1110.65 90.8585 1109.28 92.4798C1108 94.1011 1106.98 96.0211 1106.21 98.2398C1105.53 100.373 1105.19 102.72 1105.19 105.28V136H1088.42V73.2798Z" fill="#34A853"/>
<path d="M1058.57 129.344H1057.55C1055.59 131.733 1053.2 133.781 1050.38 135.488C1047.65 137.195 1044.11 138.048 1039.76 138.048C1036.52 138.048 1033.44 137.493 1030.54 136.384C1027.73 135.36 1025.25 133.909 1023.12 132.032C1020.98 130.155 1019.32 127.893 1018.13 125.248C1016.93 122.603 1016.33 119.701 1016.33 116.544C1016.33 113.301 1016.97 110.4 1018.25 107.84C1019.53 105.195 1021.33 102.933 1023.63 101.056C1025.93 99.1786 1028.62 97.7706 1031.69 96.8319C1034.85 95.8079 1038.26 95.2959 1041.93 95.2959C1046.03 95.2959 1049.4 95.6373 1052.05 96.3199C1054.69 96.9173 1056.87 97.5573 1058.57 98.2399V96.3199C1058.57 92.9919 1057.25 90.2613 1054.61 88.1279C1051.96 85.9093 1048.68 84.7999 1044.75 84.7999C1038.95 84.7999 1034.04 87.2319 1030.03 92.0959L1017.87 83.7759C1024.53 75.4133 1033.61 71.2319 1045.13 71.2319C1054.86 71.2319 1062.29 73.5359 1067.41 78.1439C1072.53 82.6666 1075.09 89.4079 1075.09 98.3679V136H1058.57V129.344ZM1058.57 110.528C1056.61 109.589 1054.56 108.864 1052.43 108.352C1050.38 107.755 1048.12 107.456 1045.65 107.456C1041.64 107.456 1038.52 108.352 1036.3 110.144C1034.17 111.851 1033.1 113.984 1033.1 116.544C1033.1 119.104 1034.13 121.152 1036.17 122.688C1038.31 124.224 1040.74 124.992 1043.47 124.992C1045.69 124.992 1047.74 124.608 1049.61 123.84C1051.49 122.987 1053.07 121.92 1054.35 120.64C1055.72 119.275 1056.74 117.739 1057.42 116.032C1058.19 114.24 1058.57 112.405 1058.57 110.528Z" fill="#34A853"/>
<path d="M1007.56 120.896C1004.66 126.016 1000.73 130.155 995.784 133.312C990.92 136.469 984.947 138.048 977.864 138.048C973.085 138.048 968.648 137.237 964.552 135.616C960.541 133.909 957.043 131.563 954.056 128.576C951.069 125.589 948.723 122.091 947.016 118.08C945.395 113.984 944.584 109.504 944.584 104.64C944.584 100.117 945.395 95.8506 947.016 91.8399C948.637 87.7439 950.899 84.2026 953.8 81.2159C956.701 78.1439 960.115 75.7119 964.04 73.9199C968.051 72.1279 972.445 71.2319 977.224 71.2319C982.259 71.2319 986.739 72.0853 990.664 73.7919C994.589 75.4133 997.875 77.7173 1000.52 80.7039C1003.17 83.6053 1005.17 87.0613 1006.54 91.0719C1007.9 95.0826 1008.58 99.4346 1008.58 104.128C1008.58 104.725 1008.58 105.237 1008.58 105.664C1008.5 106.176 1008.46 106.645 1008.46 107.072C1008.37 107.499 1008.33 107.968 1008.33 108.48H961.096C961.437 111.04 962.12 113.259 963.144 115.136C964.253 116.928 965.576 118.464 967.112 119.744C968.733 120.939 970.483 121.835 972.36 122.432C974.237 122.944 976.157 123.2 978.12 123.2C981.96 123.2 985.117 122.347 987.592 120.64C990.152 118.848 992.157 116.629 993.608 113.984L1007.56 120.896ZM992.328 96.5759C992.243 95.4666 991.859 94.2293 991.176 92.8639C990.579 91.4986 989.64 90.2186 988.36 89.0239C987.165 87.8293 985.629 86.8479 983.752 86.0799C981.96 85.3119 979.784 84.9279 977.224 84.9279C973.64 84.9279 970.483 85.9519 967.752 87.9999C965.021 90.0479 963.101 92.9066 961.992 96.5759H992.328Z" fill="#34A853"/>
<path d="M910.5 138.048C906.404 138.048 902.735 137.536 899.492 136.512C896.335 135.488 893.562 134.165 891.172 132.544C888.868 130.837 886.906 128.917 885.284 126.784C883.663 124.565 882.426 122.347 881.572 120.128L896.548 113.728C897.999 116.971 899.919 119.403 902.308 121.024C904.783 122.56 907.514 123.328 910.5 123.328C913.572 123.328 916.004 122.773 917.796 121.664C919.588 120.555 920.484 119.232 920.484 117.696C920.484 115.989 919.716 114.624 918.18 113.6C916.73 112.491 914.17 111.509 910.5 110.656L901.668 108.736C899.706 108.309 897.658 107.627 895.524 106.688C893.476 105.749 891.599 104.555 889.892 103.104C888.186 101.653 886.778 99.9039 885.668 97.8559C884.559 95.8079 884.004 93.4186 884.004 90.6879C884.004 87.6159 884.644 84.8853 885.924 82.4959C887.29 80.1066 889.124 78.1013 891.428 76.4799C893.732 74.7733 896.42 73.4933 899.492 72.6399C902.65 71.7013 906.02 71.2319 909.604 71.2319C915.578 71.2319 920.911 72.4266 925.604 74.8159C930.298 77.1199 933.754 80.8319 935.972 85.9519L921.508 91.8399C920.314 89.3653 918.564 87.5733 916.26 86.4639C913.956 85.3546 911.652 84.7999 909.348 84.7999C906.959 84.7999 904.868 85.3119 903.076 86.3359C901.284 87.2746 900.388 88.5119 900.388 90.0479C900.388 91.4986 901.114 92.6506 902.564 93.5039C904.1 94.3573 906.148 95.1253 908.708 95.8079L918.308 98.1119C924.708 99.6479 929.444 102.123 932.516 105.536C935.674 108.864 937.252 112.832 937.252 117.44C937.252 120.171 936.612 122.773 935.332 125.248C934.052 127.723 932.218 129.941 929.828 131.904C927.524 133.781 924.708 135.275 921.38 136.384C918.138 137.493 914.511 138.048 910.5 138.048Z" fill="#34A853"/>
<path d="M873.31 120.896C870.409 126.016 866.483 130.155 861.534 133.312C856.67 136.469 850.697 138.048 843.614 138.048C838.835 138.048 834.398 137.237 830.302 135.616C826.291 133.909 822.793 131.563 819.806 128.576C816.819 125.589 814.473 122.091 812.766 118.08C811.145 113.984 810.334 109.504 810.334 104.64C810.334 100.117 811.145 95.8506 812.766 91.8399C814.387 87.7439 816.649 84.2026 819.55 81.2159C822.451 78.1439 825.865 75.7119 829.79 73.9199C833.801 72.1279 838.195 71.2319 842.974 71.2319C848.009 71.2319 852.489 72.0853 856.414 73.7919C860.339 75.4133 863.625 77.7173 866.27 80.7039C868.915 83.6053 870.921 87.0613 872.286 91.0719C873.651 95.0826 874.334 99.4346 874.334 104.128C874.334 104.725 874.334 105.237 874.334 105.664C874.249 106.176 874.206 106.645 874.206 107.072C874.121 107.499 874.078 107.968 874.078 108.48H826.846C827.187 111.04 827.87 113.259 828.894 115.136C830.003 116.928 831.326 118.464 832.862 119.744C834.483 120.939 836.233 121.835 838.11 122.432C839.987 122.944 841.907 123.2 843.87 123.2C847.71 123.2 850.867 122.347 853.342 120.64C855.902 118.848 857.907 116.629 859.358 113.984L873.31 120.896ZM858.078 96.5759C857.993 95.4666 857.609 94.2293 856.926 92.8639C856.329 91.4986 855.39 90.2186 854.11 89.0239C852.915 87.8293 851.379 86.8479 849.502 86.0799C847.71 85.3119 845.534 84.9279 842.974 84.9279C839.39 84.9279 836.233 85.9519 833.502 87.9999C830.771 90.0479 828.851 92.9066 827.742 96.5759H858.078Z" fill="#34A853"/>
<path d="M765.668 73.2798H781.412V81.9838H782.436C783.204 80.4478 784.228 79.0398 785.508 77.7598C786.788 76.4798 788.196 75.3705 789.732 74.4318C791.353 73.4931 793.06 72.7678 794.852 72.2558C796.729 71.7438 798.564 71.4878 800.356 71.4878C802.575 71.4878 804.452 71.7011 805.988 72.1278C807.609 72.5545 808.975 73.1091 810.084 73.7918L805.604 89.0238C804.58 88.5118 803.428 88.1278 802.148 87.8718C800.953 87.5305 799.46 87.3598 797.668 87.3598C795.364 87.3598 793.273 87.8291 791.396 88.7678C789.519 89.6211 787.897 90.8585 786.532 92.4798C785.252 94.1011 784.228 96.0211 783.46 98.2398C782.777 100.373 782.436 102.72 782.436 105.28V136H765.668V73.2798Z" fill="#34A853"/>
<path d="M722.717 34.624H754.461V48.448H739.101V138.048H754.461V151.872H722.717V34.624Z" fill="#1D2645"/>
<path d="M648.08 87.6161H637.072V73.2801H648.08V54.0801H664.848V73.2801H680.208V87.6161H664.848V111.936C664.848 113.387 664.976 114.752 665.232 116.032C665.574 117.227 666.171 118.251 667.024 119.104C668.219 120.469 669.926 121.152 672.144 121.152C673.595 121.152 674.747 121.024 675.6 120.768C676.454 120.427 677.264 120 678.032 119.488L682.768 134.208C680.806 135.147 678.672 135.829 676.368 136.256C674.15 136.768 671.675 137.024 668.944 137.024C665.787 137.024 662.928 136.555 660.368 135.616C657.894 134.592 655.803 133.227 654.096 131.52C650.086 127.68 648.08 122.219 648.08 115.136V87.6161Z" fill="#1D2645"/>
<path d="M570.918 44.3521H587.686V70.08L586.662 81.4721H587.686C589.478 78.4854 592.038 76.0534 595.366 74.176C598.779 72.2134 602.577 71.232 606.758 71.232C614.865 71.232 620.838 73.6214 624.678 78.4C628.603 83.1787 630.566 89.7067 630.566 97.984V136H613.798V100.032C613.798 95.6801 612.774 92.3947 610.726 90.176C608.678 87.872 605.819 86.7201 602.15 86.7201C599.846 86.7201 597.798 87.2321 596.006 88.2561C594.214 89.1947 592.678 90.5174 591.398 92.2241C590.203 93.9307 589.265 95.9361 588.582 98.2401C587.985 100.459 587.686 102.848 587.686 105.408V136H570.918V44.3521Z" fill="#1D2645"/>
<path d="M523.471 165.696C519.034 165.696 515.066 165.099 511.567 163.904C508.154 162.795 505.167 161.301 502.607 159.424C500.047 157.632 497.914 155.627 496.207 153.408C494.5 151.189 493.263 148.971 492.495 146.752L508.495 140.352C509.69 143.68 511.652 146.24 514.383 148.032C517.114 149.909 520.143 150.848 523.471 150.848C528.762 150.848 532.943 149.184 536.015 145.856C539.087 142.613 540.623 138.048 540.623 132.16V127.808H539.599C537.636 130.539 535.034 132.715 531.791 134.336C528.634 135.872 524.879 136.64 520.527 136.64C516.772 136.64 513.103 135.872 509.519 134.336C506.02 132.8 502.906 130.624 500.175 127.808C497.444 124.907 495.226 121.451 493.519 117.44C491.812 113.429 490.959 108.949 490.959 104C490.959 99.0506 491.812 94.5706 493.519 90.5599C495.226 86.4639 497.444 83.0079 500.175 80.1919C502.906 77.2906 506.02 75.0719 509.519 73.5359C513.103 71.9999 516.772 71.2319 520.527 71.2319C524.879 71.2319 528.634 72.0426 531.791 73.6639C535.034 75.1999 537.636 77.3333 539.599 80.0639H540.623V73.2799H556.623V131.52C556.623 136.811 555.812 141.547 554.191 145.728C552.57 149.995 550.308 153.579 547.407 156.48C544.506 159.467 541.007 161.728 536.911 163.264C532.9 164.885 528.42 165.696 523.471 165.696ZM524.111 121.536C526.159 121.536 528.164 121.152 530.127 120.384C532.175 119.616 533.967 118.507 535.503 117.056C537.039 115.52 538.276 113.685 539.215 111.552C540.154 109.333 540.623 106.816 540.623 104C540.623 101.184 540.154 98.6666 539.215 96.4479C538.276 94.2293 537.039 92.3946 535.503 90.9439C533.967 89.4079 532.175 88.2559 530.127 87.4879C528.164 86.7199 526.159 86.3359 524.111 86.3359C522.063 86.3359 520.058 86.7199 518.095 87.4879C516.132 88.2559 514.383 89.4079 512.847 90.9439C511.311 92.4799 510.074 94.3573 509.135 96.5759C508.196 98.7093 507.727 101.184 507.727 104C507.727 106.816 508.196 109.333 509.135 111.552C510.074 113.685 511.311 115.52 512.847 117.056C514.383 118.507 516.132 119.616 518.095 120.384C520.058 121.152 522.063 121.536 524.111 121.536Z" fill="#1D2645"/>
<path d="M471.387 64.192C469.936 64.192 468.528 63.936 467.163 63.424C465.883 62.8267 464.731 62.0587 463.707 61.12C462.768 60.096 462 58.944 461.403 57.664C460.891 56.384 460.635 54.976 460.635 53.44C460.635 51.904 460.891 50.496 461.403 49.216C462 47.936 462.768 46.8267 463.707 45.888C464.731 44.864 465.883 44.096 467.163 43.584C468.528 42.9867 469.936 42.688 471.387 42.688C474.373 42.688 476.933 43.7547 479.067 45.888C481.2 47.936 482.267 50.4533 482.267 53.44C482.267 56.4267 481.2 58.9867 479.067 61.12C476.933 63.168 474.373 64.192 471.387 64.192ZM463.067 136V73.28H479.835V136H463.067Z" fill="#1D2645"/>
<path d="M409.918 73.2798H425.662V81.9838H426.686C427.454 80.4478 428.478 79.0398 429.758 77.7598C431.038 76.4798 432.446 75.3705 433.982 74.4318C435.603 73.4931 437.31 72.7678 439.102 72.2558C440.979 71.7438 442.814 71.4878 444.606 71.4878C446.825 71.4878 448.702 71.7011 450.238 72.1278C451.859 72.5545 453.225 73.1091 454.334 73.7918L449.854 89.0238C448.83 88.5118 447.678 88.1278 446.398 87.8718C445.203 87.5305 443.71 87.3598 441.918 87.3598C439.614 87.3598 437.523 87.8291 435.646 88.7678C433.769 89.6211 432.147 90.8585 430.782 92.4798C429.502 94.1011 428.478 96.0211 427.71 98.2398C427.027 100.373 426.686 102.72 426.686 105.28V136H409.918V73.2798Z" fill="#1D2645"/>
<path d="M370.06 120.896C367.159 126.016 363.233 130.155 358.284 133.312C353.42 136.469 347.447 138.048 340.364 138.048C335.585 138.048 331.148 137.237 327.052 135.616C323.041 133.909 319.543 131.563 316.556 128.576C313.569 125.589 311.223 122.091 309.516 118.08C307.895 113.984 307.084 109.504 307.084 104.64C307.084 100.117 307.895 95.8506 309.516 91.8399C311.137 87.7439 313.399 84.2026 316.3 81.2159C319.201 78.1439 322.615 75.7119 326.54 73.9199C330.551 72.1279 334.945 71.2319 339.724 71.2319C344.759 71.2319 349.239 72.0853 353.164 73.7919C357.089 75.4133 360.375 77.7173 363.02 80.7039C365.665 83.6053 367.671 87.0613 369.036 91.0719C370.401 95.0826 371.084 99.4346 371.084 104.128C371.084 104.725 371.084 105.237 371.084 105.664C370.999 106.176 370.956 106.645 370.956 107.072C370.871 107.499 370.828 107.968 370.828 108.48H323.596C323.937 111.04 324.62 113.259 325.644 115.136C326.753 116.928 328.076 118.464 329.612 119.744C331.233 120.939 332.983 121.835 334.86 122.432C336.737 122.944 338.657 123.2 340.62 123.2C344.46 123.2 347.617 122.347 350.092 120.64C352.652 118.848 354.657 116.629 356.108 113.984L370.06 120.896ZM354.828 96.5759C354.743 95.4666 354.359 94.2293 353.676 92.8639C353.079 91.4986 352.14 90.2186 350.86 89.0239C349.665 87.8293 348.129 86.8479 346.252 86.0799C344.46 85.3119 342.284 84.9279 339.724 84.9279C336.14 84.9279 332.983 85.9519 330.252 87.9999C327.521 90.0479 325.601 92.9066 324.492 96.5759H354.828Z" fill="#1D2645"/>
<path d="M237.168 44.3521H253.936V70.08L252.912 81.4721H253.936C255.728 78.4854 258.288 76.0534 261.616 74.176C265.029 72.2134 268.827 71.232 273.008 71.232C281.115 71.232 287.088 73.6214 290.928 78.4C294.853 83.1787 296.816 89.7067 296.816 97.984V136H280.048V100.032C280.048 95.6801 279.024 92.3947 276.976 90.176C274.928 87.872 272.069 86.7201 268.4 86.7201C266.096 86.7201 264.048 87.2321 262.256 88.2561C260.464 89.1947 258.928 90.5174 257.648 92.2241C256.453 93.9307 255.515 95.9361 254.832 98.2401C254.235 100.459 253.936 102.848 253.936 105.408V136H237.168V44.3521Z" fill="#1D2645"/>
<path d="M192.08 87.6161H181.072V73.2801H192.08V54.0801H208.848V73.2801H224.208V87.6161H208.848V111.936C208.848 113.387 208.976 114.752 209.232 116.032C209.574 117.227 210.171 118.251 211.024 119.104C212.219 120.469 213.926 121.152 216.144 121.152C217.595 121.152 218.747 121.024 219.6 120.768C220.454 120.427 221.264 120 222.032 119.488L226.768 134.208C224.806 135.147 222.672 135.829 220.368 136.256C218.15 136.768 215.675 137.024 212.944 137.024C209.787 137.024 206.928 136.555 204.368 135.616C201.894 134.592 199.803 133.227 198.096 131.52C194.086 127.68 192.08 122.219 192.08 115.136V87.6161Z" fill="#1D2645"/>
<path d="M112.989 71.2319C117.853 71.2319 122.29 72.0853 126.301 73.7919C130.397 75.4133 133.896 77.7173 136.797 80.7039C139.784 83.6053 142.088 87.1039 143.709 91.1999C145.416 95.2959 146.269 99.7759 146.269 104.64C146.269 109.504 145.416 113.984 143.709 118.08C142.088 122.176 139.784 125.717 136.797 128.704C133.896 131.605 130.397 133.909 126.301 135.616C122.29 137.237 117.853 138.048 112.989 138.048C108.125 138.048 103.645 137.237 99.549 135.616C95.5383 133.909 92.0397 131.605 89.053 128.704C86.1517 125.717 83.8477 122.176 82.141 118.08C80.5197 113.984 79.709 109.504 79.709 104.64C79.709 99.7759 80.5197 95.2959 82.141 91.1999C83.8477 87.1039 86.1517 83.6053 89.053 80.7039C92.0397 77.7173 95.5383 75.4133 99.549 73.7919C103.645 72.0853 108.125 71.2319 112.989 71.2319ZM112.989 122.56C115.122 122.56 117.17 122.176 119.133 121.408C121.181 120.555 122.973 119.36 124.509 117.824C126.045 116.288 127.24 114.411 128.093 112.192C129.032 109.973 129.501 107.456 129.501 104.64C129.501 101.824 129.032 99.3066 128.093 97.0879C127.24 94.8693 126.045 92.9919 124.509 91.4559C122.973 89.9199 121.181 88.7679 119.133 87.9999C117.17 87.1466 115.122 86.7199 112.989 86.7199C110.77 86.7199 108.68 87.1466 106.717 87.9999C104.754 88.7679 103.005 89.9199 101.469 91.4559C99.933 92.9919 98.6957 94.8693 97.757 97.0879C96.9037 99.3066 96.477 101.824 96.477 104.64C96.477 107.456 96.9037 109.973 97.757 112.192C98.6957 114.411 99.933 116.288 101.469 117.824C103.005 119.36 104.754 120.555 106.717 121.408C108.68 122.176 110.77 122.56 112.989 122.56Z" fill="#1D2645"/>
<path d="M53.888 128.448H52.864C51.328 131.093 48.9387 133.355 45.696 135.232C42.4533 137.109 38.4427 138.048 33.664 138.048C29.6533 138.048 25.8133 137.237 22.144 135.616C18.56 133.909 15.36 131.605 12.544 128.704C9.81332 125.717 7.63732 122.176 6.01598 118.08C4.39465 113.984 3.58398 109.504 3.58398 104.64C3.58398 99.7761 4.39465 95.2961 6.01598 91.2001C7.63732 87.104 9.81332 83.6054 12.544 80.704C15.36 77.7174 18.56 75.4134 22.144 73.792C25.8133 72.0854 29.6533 71.232 33.664 71.232C38.4427 71.232 42.4533 72.1707 45.696 74.048C48.9387 75.9254 51.328 78.1867 52.864 80.8321H53.888L52.864 71.872V44.3521H69.632V136H53.888V128.448ZM37.12 122.56C39.3387 122.56 41.4293 122.176 43.392 121.408C45.44 120.555 47.232 119.36 48.768 117.824C50.304 116.288 51.5413 114.411 52.48 112.192C53.4187 109.973 53.888 107.456 53.888 104.64C53.888 101.824 53.4187 99.3067 52.48 97.0881C51.5413 94.8694 50.304 92.992 48.768 91.456C47.232 89.92 45.44 88.7681 43.392 88.0001C41.4293 87.1467 39.3387 86.7201 37.12 86.7201C34.9013 86.7201 32.768 87.1467 30.72 88.0001C28.7573 88.8534 27.008 90.0481 25.472 91.5841C23.936 93.1201 22.6987 94.9974 21.76 97.2161C20.8213 99.4347 20.352 101.909 20.352 104.64C20.352 107.371 20.8213 109.845 21.76 112.064C22.6987 114.283 23.936 116.16 25.472 117.696C27.008 119.232 28.7573 120.427 30.72 121.28C32.768 122.133 34.9013 122.56 37.12 122.56Z" fill="#1D2645"/>
</svg>
