<svg width="340" height="301" viewBox="0 0 340 301" fill="none" xmlns="http://www.w3.org/2000/svg">
<g clip-path="url(#clip0_408_9910)">
<path d="M21.4844 186.61V30.9705C21.4844 27.6099 21.4844 26.6099 25.3095 26.6099H46.4844" stroke="#585168"/>
<circle cx="62.4844" cy="26.1099" r="8" fill="#816FDA"/>
<path d="M84.4166 23.6539C85.2206 23.6539 85.9226 23.8219 86.5226 24.1579C87.1346 24.4939 87.6026 24.9679 87.9266 25.5799C88.2626 26.1799 88.4306 26.8759 88.4306 27.6679C88.4306 28.4599 88.2506 29.1679 87.8906 29.7919C87.5306 30.4039 87.0266 30.8839 86.3786 31.2319C85.7426 31.5679 85.0046 31.7359 84.1646 31.7359C83.4206 31.7359 82.6946 31.6039 81.9866 31.3399C81.2786 31.0759 80.6786 30.7159 80.1866 30.2599C79.9946 30.0799 79.8986 29.8759 79.8986 29.6479C79.8986 29.4679 79.9466 29.3179 80.0426 29.1979C80.1386 29.0779 80.2526 29.0179 80.3846 29.0179C80.5526 29.0179 80.7206 29.0839 80.8886 29.2159C81.4166 29.6479 81.9446 29.9719 82.4726 30.1879C83.0006 30.3919 83.5526 30.4939 84.1286 30.4939C85.0166 30.4939 85.7126 30.2419 86.2166 29.7379C86.7206 29.2339 86.9726 28.5499 86.9726 27.6859C86.9726 26.8459 86.7206 26.1679 86.2166 25.6519C85.7126 25.1359 85.0346 24.8779 84.1826 24.8779C83.0906 24.8779 82.2026 25.2979 81.5186 26.1379C81.3506 26.3179 81.1466 26.4079 80.9066 26.4079C80.7386 26.4079 80.5946 26.3599 80.4746 26.2639C80.3666 26.1559 80.3126 26.0119 80.3126 25.8319V19.6219C80.3126 19.4179 80.3726 19.2499 80.4926 19.1179C80.6246 18.9859 80.8046 18.9199 81.0326 18.9199H87.3686C87.5846 18.9199 87.7526 18.9739 87.8726 19.0819C88.0046 19.1899 88.0706 19.3399 88.0706 19.5319C88.0706 19.7239 88.0046 19.8739 87.8726 19.9819C87.7526 20.0899 87.5846 20.1439 87.3686 20.1439H81.7706V24.6619C82.1066 24.3379 82.4966 24.0919 82.9406 23.9239C83.3966 23.7439 83.8886 23.6539 84.4166 23.6539ZM95.4042 27.4159C95.1882 27.4159 95.0202 27.3619 94.9002 27.2539C94.7922 27.1459 94.7382 27.0019 94.7382 26.8219C94.7382 26.6419 94.7922 26.4979 94.9002 26.3899C95.0202 26.2699 95.1882 26.2099 95.4042 26.2099H99.3642C99.5922 26.2099 99.7602 26.2699 99.8682 26.3899C99.9882 26.4979 100.048 26.6419 100.048 26.8219C100.048 27.0019 99.9882 27.1459 99.8682 27.2539C99.7602 27.3619 99.5922 27.4159 99.3642 27.4159H95.4042ZM114.315 30.3679C114.531 30.3679 114.699 30.4219 114.819 30.5299C114.939 30.6379 114.999 30.7879 114.999 30.9799C114.999 31.1839 114.939 31.3399 114.819 31.4479C114.711 31.5559 114.543 31.6099 114.315 31.6099H108.357C108.129 31.6099 107.955 31.5559 107.835 31.4479C107.727 31.3399 107.673 31.1839 107.673 30.9799C107.673 30.7879 107.733 30.6379 107.853 30.5299C107.973 30.4219 108.141 30.3679 108.357 30.3679H110.589V20.7199L108.627 21.9979C108.531 22.0579 108.435 22.0879 108.339 22.0879C108.171 22.0879 108.021 22.0099 107.889 21.8539C107.769 21.6979 107.709 21.5299 107.709 21.3499C107.709 21.0979 107.805 20.9179 107.997 20.8099L110.733 19.0279C110.937 18.8959 111.147 18.8299 111.363 18.8299C111.567 18.8299 111.735 18.8959 111.867 19.0279C111.999 19.1599 112.065 19.3459 112.065 19.5859V30.3679H114.315ZM121.454 31.7539C120.002 31.7539 118.898 31.2019 118.142 30.0979C117.386 28.9939 117.008 27.3859 117.008 25.2739C117.008 23.1499 117.386 21.5359 118.142 20.4319C118.898 19.3279 120.002 18.7759 121.454 18.7759C122.906 18.7759 124.01 19.3279 124.766 20.4319C125.522 21.5239 125.9 23.1319 125.9 25.2559C125.9 27.3799 125.522 28.9939 124.766 30.0979C124.01 31.2019 122.906 31.7539 121.454 31.7539ZM121.454 30.5119C122.462 30.5119 123.206 30.0859 123.686 29.2339C124.166 28.3819 124.406 27.0559 124.406 25.2559C124.406 23.4439 124.166 22.1179 123.686 21.2779C123.218 20.4379 122.474 20.0179 121.454 20.0179C120.446 20.0179 119.702 20.4439 119.222 21.2959C118.742 22.1359 118.502 23.4559 118.502 25.2559C118.502 27.0559 118.742 28.3819 119.222 29.2339C119.702 30.0859 120.446 30.5119 121.454 30.5119ZM142.198 22.6279C144.142 22.6279 145.114 23.7859 145.114 26.1019V30.9799C145.114 31.2079 145.048 31.3879 144.916 31.5199C144.784 31.6399 144.61 31.6999 144.394 31.6999C144.178 31.6999 143.998 31.6399 143.854 31.5199C143.722 31.3879 143.656 31.2079 143.656 30.9799V26.1379C143.656 25.3339 143.512 24.7519 143.224 24.3919C142.936 24.0319 142.486 23.8519 141.874 23.8519C141.142 23.8519 140.566 24.0979 140.146 24.5899C139.726 25.0819 139.516 25.7479 139.516 26.5879V30.9799C139.516 31.2079 139.444 31.3879 139.3 31.5199C139.168 31.6399 138.994 31.6999 138.778 31.6999C138.562 31.6999 138.388 31.6399 138.256 31.5199C138.124 31.3879 138.058 31.2079 138.058 30.9799V26.1379C138.058 25.3339 137.914 24.7519 137.626 24.3919C137.338 24.0319 136.882 23.8519 136.258 23.8519C135.538 23.8519 134.962 24.0979 134.53 24.5899C134.11 25.0819 133.9 25.7479 133.9 26.5879V30.9799C133.9 31.2079 133.834 31.3879 133.702 31.5199C133.57 31.6399 133.396 31.6999 133.18 31.6999C132.964 31.6999 132.784 31.6399 132.64 31.5199C132.508 31.3879 132.442 31.2079 132.442 30.9799V23.3839C132.442 23.1679 132.508 22.9939 132.64 22.8619C132.784 22.7299 132.964 22.6639 133.18 22.6639C133.384 22.6639 133.552 22.7299 133.684 22.8619C133.816 22.9819 133.882 23.1499 133.882 23.3659V24.2299C134.146 23.7139 134.512 23.3179 134.98 23.0419C135.448 22.7659 135.988 22.6279 136.6 22.6279C137.968 22.6279 138.862 23.2039 139.282 24.3559C139.534 23.8279 139.918 23.4079 140.434 23.0959C140.95 22.7839 141.538 22.6279 142.198 22.6279ZM148.31 31.6999C148.094 31.6999 147.914 31.6399 147.77 31.5199C147.638 31.3879 147.572 31.2079 147.572 30.9799V23.3839C147.572 23.1559 147.638 22.9819 147.77 22.8619C147.914 22.7299 148.094 22.6639 148.31 22.6639C148.526 22.6639 148.7 22.7299 148.832 22.8619C148.964 22.9819 149.03 23.1559 149.03 23.3839V30.9799C149.03 31.2199 148.964 31.3999 148.832 31.5199C148.7 31.6399 148.526 31.6999 148.31 31.6999ZM148.31 20.7739C148.022 20.7739 147.788 20.6899 147.608 20.5219C147.428 20.3539 147.338 20.1319 147.338 19.8559C147.338 19.5919 147.428 19.3759 147.608 19.2079C147.788 19.0399 148.022 18.9559 148.31 18.9559C148.598 18.9559 148.832 19.0399 149.012 19.2079C149.192 19.3759 149.282 19.5919 149.282 19.8559C149.282 20.1319 149.192 20.3539 149.012 20.5219C148.832 20.6899 148.598 20.7739 148.31 20.7739ZM155.968 22.6279C158.068 22.6279 159.118 23.7859 159.118 26.1019V30.9799C159.118 31.2079 159.052 31.3879 158.92 31.5199C158.8 31.6399 158.626 31.6999 158.398 31.6999C158.17 31.6999 157.99 31.6399 157.858 31.5199C157.726 31.3879 157.66 31.2079 157.66 30.9799V26.1919C157.66 25.3759 157.498 24.7819 157.174 24.4099C156.862 24.0379 156.358 23.8519 155.662 23.8519C154.858 23.8519 154.216 24.0979 153.736 24.5899C153.256 25.0819 153.016 25.7479 153.016 26.5879V30.9799C153.016 31.2079 152.95 31.3879 152.818 31.5199C152.698 31.6399 152.524 31.6999 152.296 31.6999C152.068 31.6999 151.888 31.6399 151.756 31.5199C151.624 31.3879 151.558 31.2079 151.558 30.9799V23.3839C151.558 23.1679 151.624 22.9939 151.756 22.8619C151.888 22.7299 152.068 22.6639 152.296 22.6639C152.512 22.6639 152.68 22.7299 152.8 22.8619C152.932 22.9939 152.998 23.1619 152.998 23.3659V24.2839C153.286 23.7439 153.688 23.3359 154.204 23.0599C154.72 22.7719 155.308 22.6279 155.968 22.6279Z" fill="#A7A2B5"/>
<circle cx="180.297" cy="54.7974" r="8" fill="#816FDA"/>
<path d="M215.925 39.8154C217.869 39.8154 218.841 40.9734 218.841 43.2894V48.1674C218.841 48.3954 218.775 48.5754 218.643 48.7074C218.511 48.8274 218.337 48.8874 218.121 48.8874C217.905 48.8874 217.725 48.8274 217.581 48.7074C217.449 48.5754 217.383 48.3954 217.383 48.1674V43.3254C217.383 42.5214 217.239 41.9394 216.951 41.5794C216.663 41.2194 216.213 41.0394 215.601 41.0394C214.869 41.0394 214.293 41.2854 213.873 41.7774C213.453 42.2694 213.243 42.9354 213.243 43.7754V48.1674C213.243 48.3954 213.171 48.5754 213.027 48.7074C212.895 48.8274 212.721 48.8874 212.505 48.8874C212.289 48.8874 212.115 48.8274 211.983 48.7074C211.851 48.5754 211.785 48.3954 211.785 48.1674V43.3254C211.785 42.5214 211.641 41.9394 211.353 41.5794C211.065 41.2194 210.609 41.0394 209.985 41.0394C209.265 41.0394 208.689 41.2854 208.257 41.7774C207.837 42.2694 207.627 42.9354 207.627 43.7754V48.1674C207.627 48.3954 207.561 48.5754 207.429 48.7074C207.297 48.8274 207.123 48.8874 206.907 48.8874C206.691 48.8874 206.511 48.8274 206.367 48.7074C206.235 48.5754 206.169 48.3954 206.169 48.1674V40.5714C206.169 40.3554 206.235 40.1814 206.367 40.0494C206.511 39.9174 206.691 39.8514 206.907 39.8514C207.111 39.8514 207.279 39.9174 207.411 40.0494C207.543 40.1694 207.609 40.3374 207.609 40.5534V41.4174C207.873 40.9014 208.239 40.5054 208.707 40.2294C209.175 39.9534 209.715 39.8154 210.327 39.8154C211.695 39.8154 212.589 40.3914 213.009 41.5434C213.261 41.0154 213.645 40.5954 214.161 40.2834C214.677 39.9714 215.265 39.8154 215.925 39.8154ZM224.935 48.9234C224.107 48.9234 223.375 48.7374 222.739 48.3654C222.115 47.9934 221.629 47.4654 221.281 46.7814C220.945 46.0854 220.777 45.2814 220.777 44.3694C220.777 43.4574 220.945 42.6594 221.281 41.9754C221.629 41.2794 222.115 40.7454 222.739 40.3734C223.375 40.0014 224.107 39.8154 224.935 39.8154C225.763 39.8154 226.495 40.0014 227.131 40.3734C227.767 40.7454 228.253 41.2794 228.589 41.9754C228.937 42.6594 229.111 43.4574 229.111 44.3694C229.111 45.2814 228.937 46.0854 228.589 46.7814C228.253 47.4654 227.767 47.9934 227.131 48.3654C226.495 48.7374 225.763 48.9234 224.935 48.9234ZM224.935 47.7174C225.799 47.7174 226.459 47.4354 226.915 46.8714C227.383 46.2954 227.617 45.4614 227.617 44.3694C227.617 43.3014 227.383 42.4794 226.915 41.9034C226.447 41.3154 225.787 41.0214 224.935 41.0214C224.083 41.0214 223.423 41.3154 222.955 41.9034C222.487 42.4794 222.253 43.3014 222.253 44.3694C222.253 45.4494 222.481 46.2774 222.937 46.8534C223.405 47.4294 224.071 47.7174 224.935 47.7174ZM235.423 39.8514C235.927 39.8154 236.179 40.0194 236.179 40.4634C236.179 40.6554 236.125 40.8114 236.017 40.9314C235.909 41.0394 235.723 41.1054 235.459 41.1294L234.919 41.1834C234.115 41.2554 233.515 41.5434 233.119 42.0474C232.735 42.5394 232.543 43.1214 232.543 43.7934V48.1674C232.543 48.4074 232.477 48.5874 232.345 48.7074C232.213 48.8274 232.039 48.8874 231.823 48.8874C231.607 48.8874 231.427 48.8274 231.283 48.7074C231.151 48.5754 231.085 48.3954 231.085 48.1674V40.5714C231.085 40.3434 231.157 40.1694 231.301 40.0494C231.445 39.9174 231.619 39.8514 231.823 39.8514C232.015 39.8514 232.177 39.9174 232.309 40.0494C232.441 40.1694 232.507 40.3374 232.507 40.5534V41.5614C232.759 41.0334 233.113 40.6314 233.569 40.3554C234.037 40.0794 234.571 39.9174 235.171 39.8694L235.423 39.8514ZM243.843 46.7634C243.975 46.7634 244.089 46.8174 244.185 46.9254C244.281 47.0334 244.329 47.1714 244.329 47.3394C244.329 47.6394 244.119 47.9154 243.699 48.1674C243.267 48.4194 242.811 48.6114 242.331 48.7434C241.851 48.8634 241.383 48.9234 240.927 48.9234C239.571 48.9234 238.497 48.5214 237.705 47.7174C236.925 46.9134 236.535 45.8034 236.535 44.3874C236.535 43.4874 236.709 42.6954 237.057 42.0114C237.405 41.3154 237.891 40.7754 238.515 40.3914C239.151 40.0074 239.871 39.8154 240.675 39.8154C241.815 39.8154 242.721 40.1874 243.393 40.9314C244.065 41.6754 244.401 42.6834 244.401 43.9554C244.401 44.1954 244.353 44.3694 244.257 44.4774C244.161 44.5854 244.005 44.6394 243.789 44.6394H237.993C238.101 46.7034 239.079 47.7354 240.927 47.7354C241.395 47.7354 241.797 47.6754 242.133 47.5554C242.469 47.4234 242.829 47.2494 243.213 47.0334C243.525 46.8534 243.735 46.7634 243.843 46.7634ZM240.693 40.9494C239.925 40.9494 239.307 41.1894 238.839 41.6694C238.383 42.1494 238.113 42.8274 238.029 43.7034H243.123C243.099 42.8154 242.877 42.1374 242.457 41.6694C242.037 41.1894 241.449 40.9494 240.693 40.9494ZM254.844 47.7354C255.264 47.7714 255.474 47.9634 255.474 48.3114C255.474 48.5154 255.396 48.6714 255.24 48.7794C255.096 48.8754 254.874 48.9114 254.574 48.8874L254.088 48.8514C253.128 48.7794 252.42 48.4914 251.964 47.9874C251.508 47.4834 251.28 46.7214 251.28 45.7014V41.1834H250.074C249.87 41.1834 249.708 41.1354 249.588 41.0394C249.48 40.9314 249.426 40.7934 249.426 40.6254C249.426 40.4454 249.48 40.3014 249.588 40.1934C249.708 40.0854 249.87 40.0314 250.074 40.0314H251.28V37.9974C251.28 37.7694 251.346 37.5954 251.478 37.4754C251.61 37.3434 251.79 37.2774 252.018 37.2774C252.234 37.2774 252.408 37.3434 252.54 37.4754C252.672 37.5954 252.738 37.7694 252.738 37.9974V40.0314H254.736C254.928 40.0314 255.078 40.0854 255.186 40.1934C255.306 40.3014 255.366 40.4454 255.366 40.6254C255.366 40.7934 255.306 40.9314 255.186 41.0394C255.078 41.1354 254.928 41.1834 254.736 41.1834H252.738V45.7734C252.738 46.4334 252.87 46.9134 253.134 47.2134C253.41 47.5014 253.818 47.6634 254.358 47.6994L254.844 47.7354ZM261.141 39.8154C262.173 39.8154 262.953 40.1094 263.481 40.6974C264.009 41.2734 264.273 42.1374 264.273 43.2894V48.1674C264.273 48.3954 264.207 48.5754 264.075 48.7074C263.943 48.8274 263.769 48.8874 263.553 48.8874C263.325 48.8874 263.145 48.8274 263.013 48.7074C262.881 48.5754 262.815 48.3954 262.815 48.1674V43.3254C262.815 42.5454 262.653 41.9694 262.329 41.5974C262.017 41.2254 261.513 41.0394 260.817 41.0394C260.013 41.0394 259.371 41.2854 258.891 41.7774C258.411 42.2694 258.171 42.9354 258.171 43.7754V48.1674C258.171 48.3954 258.105 48.5754 257.973 48.7074C257.853 48.8274 257.679 48.8874 257.451 48.8874C257.223 48.8874 257.043 48.8274 256.911 48.7074C256.779 48.5754 256.713 48.3954 256.713 48.1674V36.7194C256.713 36.5154 256.779 36.3474 256.911 36.2154C257.055 36.0834 257.235 36.0174 257.451 36.0174C257.679 36.0174 257.853 36.0834 257.973 36.2154C258.105 36.3354 258.171 36.5034 258.171 36.7194V41.4354C258.459 40.9074 258.861 40.5054 259.377 40.2294C259.893 39.9534 260.481 39.8154 261.141 39.8154ZM270.328 39.8154C272.524 39.8154 273.622 40.9674 273.622 43.2714V48.1674C273.622 48.3834 273.556 48.5574 273.424 48.6894C273.304 48.8214 273.136 48.8874 272.92 48.8874C272.704 48.8874 272.53 48.8214 272.398 48.6894C272.266 48.5574 272.2 48.3834 272.2 48.1674V47.3034C271.972 47.8194 271.624 48.2214 271.156 48.5094C270.688 48.7854 270.148 48.9234 269.536 48.9234C268.972 48.9234 268.45 48.8094 267.97 48.5814C267.502 48.3534 267.13 48.0354 266.854 47.6274C266.578 47.2194 266.44 46.7694 266.44 46.2774C266.44 45.6174 266.608 45.1074 266.944 44.7474C267.28 44.3754 267.832 44.1114 268.6 43.9554C269.368 43.7874 270.436 43.7034 271.804 43.7034H272.2V43.1094C272.2 42.3894 272.05 41.8614 271.75 41.5254C271.462 41.1894 270.988 41.0214 270.328 41.0214C269.512 41.0214 268.684 41.2434 267.844 41.6874C267.52 41.8914 267.292 41.9934 267.16 41.9934C267.016 41.9934 266.896 41.9394 266.8 41.8314C266.704 41.7234 266.656 41.5854 266.656 41.4174C266.656 41.2494 266.704 41.1054 266.8 40.9854C266.908 40.8534 267.076 40.7214 267.304 40.5894C267.724 40.3494 268.198 40.1634 268.726 40.0314C269.266 39.8874 269.8 39.8154 270.328 39.8154ZM269.734 47.7714C270.454 47.7714 271.042 47.5314 271.498 47.0514C271.966 46.5594 272.2 45.9294 272.2 45.1614V44.6394H271.876C270.82 44.6394 270.016 44.6874 269.464 44.7834C268.912 44.8674 268.516 45.0174 268.276 45.2334C268.048 45.4374 267.934 45.7434 267.934 46.1514C267.934 46.6194 268.102 47.0094 268.438 47.3214C268.786 47.6214 269.218 47.7714 269.734 47.7714ZM280.503 39.8154C282.603 39.8154 283.653 40.9734 283.653 43.2894V48.1674C283.653 48.3954 283.587 48.5754 283.455 48.7074C283.335 48.8274 283.161 48.8874 282.933 48.8874C282.705 48.8874 282.525 48.8274 282.393 48.7074C282.261 48.5754 282.195 48.3954 282.195 48.1674V43.3794C282.195 42.5634 282.033 41.9694 281.709 41.5974C281.397 41.2254 280.893 41.0394 280.197 41.0394C279.393 41.0394 278.751 41.2854 278.271 41.7774C277.791 42.2694 277.551 42.9354 277.551 43.7754V48.1674C277.551 48.3954 277.485 48.5754 277.353 48.7074C277.233 48.8274 277.059 48.8874 276.831 48.8874C276.603 48.8874 276.423 48.8274 276.291 48.7074C276.159 48.5754 276.093 48.3954 276.093 48.1674V40.5714C276.093 40.3554 276.159 40.1814 276.291 40.0494C276.423 39.9174 276.603 39.8514 276.831 39.8514C277.047 39.8514 277.215 39.9174 277.335 40.0494C277.467 40.1814 277.533 40.3494 277.533 40.5534V41.4714C277.821 40.9314 278.223 40.5234 278.739 40.2474C279.255 39.9594 279.843 39.8154 280.503 39.8154ZM226.164 70.5554C226.38 70.5554 226.548 70.6094 226.668 70.7174C226.788 70.8254 226.848 70.9754 226.848 71.1674C226.848 71.3714 226.788 71.5274 226.668 71.6354C226.56 71.7434 226.392 71.7974 226.164 71.7974H220.206C219.978 71.7974 219.804 71.7434 219.684 71.6354C219.576 71.5274 219.522 71.3714 219.522 71.1674C219.522 70.9754 219.582 70.8254 219.702 70.7174C219.822 70.6094 219.99 70.5554 220.206 70.5554H222.438V60.9074L220.476 62.1854C220.38 62.2454 220.284 62.2754 220.188 62.2754C220.02 62.2754 219.87 62.1974 219.738 62.0414C219.618 61.8854 219.558 61.7174 219.558 61.5374C219.558 61.2854 219.654 61.1054 219.846 60.9974L222.582 59.2154C222.786 59.0834 222.996 59.0174 223.212 59.0174C223.416 59.0174 223.584 59.0834 223.716 59.2154C223.848 59.3474 223.914 59.5334 223.914 59.7734V70.5554H226.164ZM233.302 71.9414C231.85 71.9414 230.746 71.3894 229.99 70.2854C229.234 69.1814 228.856 67.5734 228.856 65.4614C228.856 63.3374 229.234 61.7234 229.99 60.6194C230.746 59.5154 231.85 58.9634 233.302 58.9634C234.754 58.9634 235.858 59.5154 236.614 60.6194C237.37 61.7114 237.748 63.3194 237.748 65.4434C237.748 67.5674 237.37 69.1814 236.614 70.2854C235.858 71.3894 234.754 71.9414 233.302 71.9414ZM233.302 70.6994C234.31 70.6994 235.054 70.2734 235.534 69.4214C236.014 68.5694 236.254 67.2434 236.254 65.4434C236.254 63.6314 236.014 62.3054 235.534 61.4654C235.066 60.6254 234.322 60.2054 233.302 60.2054C232.294 60.2054 231.55 60.6314 231.07 61.4834C230.59 62.3234 230.35 63.6434 230.35 65.4434C230.35 67.2434 230.59 68.5694 231.07 69.4214C231.55 70.2734 232.294 70.6994 233.302 70.6994ZM254.046 62.8154C255.99 62.8154 256.962 63.9734 256.962 66.2894V71.1674C256.962 71.3954 256.896 71.5754 256.764 71.7074C256.632 71.8274 256.458 71.8874 256.242 71.8874C256.026 71.8874 255.846 71.8274 255.702 71.7074C255.57 71.5754 255.504 71.3954 255.504 71.1674V66.3254C255.504 65.5214 255.36 64.9394 255.072 64.5794C254.784 64.2194 254.334 64.0394 253.722 64.0394C252.99 64.0394 252.414 64.2854 251.994 64.7774C251.574 65.2694 251.364 65.9354 251.364 66.7754V71.1674C251.364 71.3954 251.292 71.5754 251.148 71.7074C251.016 71.8274 250.842 71.8874 250.626 71.8874C250.41 71.8874 250.236 71.8274 250.104 71.7074C249.972 71.5754 249.906 71.3954 249.906 71.1674V66.3254C249.906 65.5214 249.762 64.9394 249.474 64.5794C249.186 64.2194 248.73 64.0394 248.106 64.0394C247.386 64.0394 246.81 64.2854 246.378 64.7774C245.958 65.2694 245.748 65.9354 245.748 66.7754V71.1674C245.748 71.3954 245.682 71.5754 245.55 71.7074C245.418 71.8274 245.244 71.8874 245.028 71.8874C244.812 71.8874 244.632 71.8274 244.488 71.7074C244.356 71.5754 244.29 71.3954 244.29 71.1674V63.5714C244.29 63.3554 244.356 63.1814 244.488 63.0494C244.632 62.9174 244.812 62.8514 245.028 62.8514C245.232 62.8514 245.4 62.9174 245.532 63.0494C245.664 63.1694 245.73 63.3374 245.73 63.5534V64.4174C245.994 63.9014 246.36 63.5054 246.828 63.2294C247.296 62.9534 247.836 62.8154 248.448 62.8154C249.816 62.8154 250.71 63.3914 251.13 64.5434C251.382 64.0154 251.766 63.5954 252.282 63.2834C252.798 62.9714 253.386 62.8154 254.046 62.8154ZM260.158 71.8874C259.942 71.8874 259.762 71.8274 259.618 71.7074C259.486 71.5754 259.42 71.3954 259.42 71.1674V63.5714C259.42 63.3434 259.486 63.1694 259.618 63.0494C259.762 62.9174 259.942 62.8514 260.158 62.8514C260.374 62.8514 260.548 62.9174 260.68 63.0494C260.812 63.1694 260.878 63.3434 260.878 63.5714V71.1674C260.878 71.4074 260.812 71.5874 260.68 71.7074C260.548 71.8274 260.374 71.8874 260.158 71.8874ZM260.158 60.9614C259.87 60.9614 259.636 60.8774 259.456 60.7094C259.276 60.5414 259.186 60.3194 259.186 60.0434C259.186 59.7794 259.276 59.5634 259.456 59.3954C259.636 59.2274 259.87 59.1434 260.158 59.1434C260.446 59.1434 260.68 59.2274 260.86 59.3954C261.04 59.5634 261.13 59.7794 261.13 60.0434C261.13 60.3194 261.04 60.5414 260.86 60.7094C260.68 60.8774 260.446 60.9614 260.158 60.9614ZM267.816 62.8154C269.916 62.8154 270.966 63.9734 270.966 66.2894V71.1674C270.966 71.3954 270.9 71.5754 270.768 71.7074C270.648 71.8274 270.474 71.8874 270.246 71.8874C270.018 71.8874 269.838 71.8274 269.706 71.7074C269.574 71.5754 269.508 71.3954 269.508 71.1674V66.3794C269.508 65.5634 269.346 64.9694 269.022 64.5974C268.71 64.2254 268.206 64.0394 267.51 64.0394C266.706 64.0394 266.064 64.2854 265.584 64.7774C265.104 65.2694 264.864 65.9354 264.864 66.7754V71.1674C264.864 71.3954 264.798 71.5754 264.666 71.7074C264.546 71.8274 264.372 71.8874 264.144 71.8874C263.916 71.8874 263.736 71.8274 263.604 71.7074C263.472 71.5754 263.406 71.3954 263.406 71.1674V63.5714C263.406 63.3554 263.472 63.1814 263.604 63.0494C263.736 62.9174 263.916 62.8514 264.144 62.8514C264.36 62.8514 264.528 62.9174 264.648 63.0494C264.78 63.1814 264.846 63.3494 264.846 63.5534V64.4714C265.134 63.9314 265.536 63.5234 266.052 63.2474C266.568 62.9594 267.156 62.8154 267.816 62.8154Z" fill="#A7A2B5"/>
<path d="M139.297 215.61V59.9705C139.297 56.6099 139.297 55.6099 143.122 55.6099H164.297" stroke="#585168"/>
<path d="M198.047 169.797H219.222" stroke="#585168"/>
<circle cx="235.047" cy="170.297" r="8" fill="#816FDA"/>
<path d="M274.968 174.555C275.184 174.555 275.352 174.609 275.472 174.717C275.592 174.825 275.652 174.975 275.652 175.167C275.652 175.371 275.592 175.527 275.472 175.635C275.364 175.743 275.196 175.797 274.968 175.797H269.01C268.782 175.797 268.608 175.743 268.488 175.635C268.38 175.527 268.326 175.371 268.326 175.167C268.326 174.975 268.386 174.825 268.506 174.717C268.626 174.609 268.794 174.555 269.01 174.555H271.242V164.907L269.28 166.185C269.184 166.245 269.088 166.275 268.992 166.275C268.824 166.275 268.674 166.197 268.542 166.041C268.422 165.885 268.362 165.717 268.362 165.537C268.362 165.285 268.458 165.105 268.65 164.997L271.386 163.215C271.59 163.083 271.8 163.017 272.016 163.017C272.22 163.017 272.388 163.083 272.52 163.215C272.652 163.347 272.718 163.533 272.718 163.773V174.555H274.968ZM282.986 171.603C282.77 171.603 282.602 171.549 282.482 171.441C282.374 171.333 282.32 171.189 282.32 171.009C282.32 170.829 282.374 170.685 282.482 170.577C282.602 170.457 282.77 170.397 282.986 170.397H286.946C287.174 170.397 287.342 170.457 287.45 170.577C287.57 170.685 287.63 170.829 287.63 171.009C287.63 171.189 287.57 171.333 287.45 171.441C287.342 171.549 287.174 171.603 286.946 171.603H282.986ZM297.742 174.555C297.958 174.555 298.126 174.609 298.246 174.717C298.366 174.825 298.426 174.975 298.426 175.167C298.426 175.587 298.198 175.797 297.742 175.797H290.686C290.482 175.797 290.314 175.737 290.182 175.617C290.05 175.485 289.984 175.329 289.984 175.149C289.984 174.921 290.068 174.723 290.236 174.555L294.574 169.785C295.174 169.113 295.606 168.513 295.87 167.985C296.146 167.445 296.284 166.905 296.284 166.365C296.284 165.669 296.08 165.135 295.672 164.763C295.276 164.391 294.712 164.205 293.98 164.205C293.404 164.205 292.852 164.313 292.324 164.529C291.796 164.733 291.268 165.051 290.74 165.483C290.56 165.627 290.392 165.699 290.236 165.699C290.104 165.699 289.99 165.639 289.894 165.519C289.798 165.387 289.75 165.231 289.75 165.051C289.75 164.799 289.846 164.595 290.038 164.439C290.53 163.983 291.13 163.623 291.838 163.359C292.546 163.095 293.272 162.963 294.016 162.963C295.156 162.963 296.062 163.263 296.734 163.863C297.418 164.463 297.76 165.273 297.76 166.293C297.76 167.025 297.592 167.727 297.256 168.399C296.932 169.071 296.392 169.821 295.636 170.649L292.036 174.555H297.742ZM314.742 166.815C316.686 166.815 317.658 167.973 317.658 170.289V175.167C317.658 175.395 317.592 175.575 317.46 175.707C317.328 175.827 317.154 175.887 316.938 175.887C316.722 175.887 316.542 175.827 316.398 175.707C316.266 175.575 316.2 175.395 316.2 175.167V170.325C316.2 169.521 316.056 168.939 315.768 168.579C315.48 168.219 315.03 168.039 314.418 168.039C313.686 168.039 313.11 168.285 312.69 168.777C312.27 169.269 312.06 169.935 312.06 170.775V175.167C312.06 175.395 311.988 175.575 311.844 175.707C311.712 175.827 311.538 175.887 311.322 175.887C311.106 175.887 310.932 175.827 310.8 175.707C310.668 175.575 310.602 175.395 310.602 175.167V170.325C310.602 169.521 310.458 168.939 310.17 168.579C309.882 168.219 309.426 168.039 308.802 168.039C308.082 168.039 307.506 168.285 307.074 168.777C306.654 169.269 306.444 169.935 306.444 170.775V175.167C306.444 175.395 306.378 175.575 306.246 175.707C306.114 175.827 305.94 175.887 305.724 175.887C305.508 175.887 305.328 175.827 305.184 175.707C305.052 175.575 304.986 175.395 304.986 175.167V167.571C304.986 167.355 305.052 167.181 305.184 167.049C305.328 166.917 305.508 166.851 305.724 166.851C305.928 166.851 306.096 166.917 306.228 167.049C306.36 167.169 306.426 167.337 306.426 167.553V168.417C306.69 167.901 307.056 167.505 307.524 167.229C307.992 166.953 308.532 166.815 309.144 166.815C310.512 166.815 311.406 167.391 311.826 168.543C312.078 168.015 312.462 167.595 312.978 167.283C313.494 166.971 314.082 166.815 314.742 166.815ZM320.854 175.887C320.638 175.887 320.458 175.827 320.314 175.707C320.182 175.575 320.116 175.395 320.116 175.167V167.571C320.116 167.343 320.182 167.169 320.314 167.049C320.458 166.917 320.638 166.851 320.854 166.851C321.07 166.851 321.244 166.917 321.376 167.049C321.508 167.169 321.574 167.343 321.574 167.571V175.167C321.574 175.407 321.508 175.587 321.376 175.707C321.244 175.827 321.07 175.887 320.854 175.887ZM320.854 164.961C320.566 164.961 320.332 164.877 320.152 164.709C319.972 164.541 319.882 164.319 319.882 164.043C319.882 163.779 319.972 163.563 320.152 163.395C320.332 163.227 320.566 163.143 320.854 163.143C321.142 163.143 321.376 163.227 321.556 163.395C321.736 163.563 321.826 163.779 321.826 164.043C321.826 164.319 321.736 164.541 321.556 164.709C321.376 164.877 321.142 164.961 320.854 164.961ZM328.511 166.815C330.611 166.815 331.661 167.973 331.661 170.289V175.167C331.661 175.395 331.595 175.575 331.463 175.707C331.343 175.827 331.169 175.887 330.941 175.887C330.713 175.887 330.533 175.827 330.401 175.707C330.269 175.575 330.203 175.395 330.203 175.167V170.379C330.203 169.563 330.041 168.969 329.717 168.597C329.405 168.225 328.901 168.039 328.205 168.039C327.401 168.039 326.759 168.285 326.279 168.777C325.799 169.269 325.559 169.935 325.559 170.775V175.167C325.559 175.395 325.493 175.575 325.361 175.707C325.241 175.827 325.067 175.887 324.839 175.887C324.611 175.887 324.431 175.827 324.299 175.707C324.167 175.575 324.101 175.395 324.101 175.167V167.571C324.101 167.355 324.167 167.181 324.299 167.049C324.431 166.917 324.611 166.851 324.839 166.851C325.055 166.851 325.223 166.917 325.343 167.049C325.475 167.181 325.541 167.349 325.541 167.553V168.471C325.829 167.931 326.231 167.523 326.747 167.247C327.263 166.959 327.851 166.815 328.511 166.815Z" fill="#A7A2B5"/>
<path d="M103.109 185.985H203.109C203.109 241.213 158.338 285.985 103.109 285.985C47.8809 285.985 3.10938 241.213 3.10938 185.985C3.10938 152.516 19.8525 121.267 47.7174 102.728L103.109 185.985Z" fill="#816FDA" stroke="white"/>
<path d="M103.109 185.985L47.7168 102.728C78.4076 82.309 117.843 80.4305 150.336 97.8397L103.109 185.985Z" fill="#F8D47C" stroke="white"/>
<path d="M103.109 185.985L150.336 97.8398C182.829 115.249 203.109 149.122 203.109 185.985H103.109Z" fill="#65E891" stroke="white"/>
</g>
<defs>
<clipPath id="clip0_408_9910">
<rect width="339.416" height="300" fill="white" transform="translate(0.109375 0.109863)"/>
</clipPath>
</defs>
</svg>
