<svg width="341" height="301" viewBox="0 0 341 301" fill="none" xmlns="http://www.w3.org/2000/svg">
<g clip-path="url(#clip0_408_9938)">
<path d="M14.7773 200.61V44.9705C14.7773 41.6099 14.7773 40.6099 18.6025 40.6099H39.7773" stroke="#585168"/>
<circle cx="55.7773" cy="40.1099" r="8" fill="#816FDA"/>
<path d="M80.8821 44.3679C81.0981 44.3679 81.2661 44.4219 81.3861 44.5299C81.5061 44.6379 81.5661 44.7879 81.5661 44.9799C81.5661 45.1839 81.5061 45.3399 81.3861 45.4479C81.2781 45.5559 81.1101 45.6099 80.8821 45.6099H74.9241C74.6961 45.6099 74.5221 45.5559 74.4021 45.4479C74.2941 45.3399 74.2401 45.1839 74.2401 44.9799C74.2401 44.7879 74.3001 44.6379 74.4201 44.5299C74.5401 44.4219 74.7081 44.3679 74.9241 44.3679H77.1561V34.7199L75.1941 35.9979C75.0981 36.0579 75.0021 36.0879 74.9061 36.0879C74.7381 36.0879 74.5881 36.0099 74.4561 35.8539C74.3361 35.6979 74.2761 35.5299 74.2761 35.3499C74.2761 35.0979 74.3721 34.9179 74.5641 34.8099L77.3001 33.0279C77.5041 32.8959 77.7141 32.8299 77.9301 32.8299C78.1341 32.8299 78.3021 32.8959 78.4341 33.0279C78.5661 33.1599 78.6321 33.3459 78.6321 33.5859V44.3679H80.8821ZM88.0211 45.7539C86.5691 45.7539 85.4651 45.2019 84.7091 44.0979C83.9531 42.9939 83.5751 41.3859 83.5751 39.2739C83.5751 37.1499 83.9531 35.5359 84.7091 34.4319C85.4651 33.3279 86.5691 32.7759 88.0211 32.7759C89.4731 32.7759 90.5771 33.3279 91.3331 34.4319C92.0891 35.5239 92.4671 37.1319 92.4671 39.2559C92.4671 41.3799 92.0891 42.9939 91.3331 44.0979C90.5771 45.2019 89.4731 45.7539 88.0211 45.7539ZM88.0211 44.5119C89.0291 44.5119 89.7731 44.0859 90.2531 43.2339C90.7331 42.3819 90.9731 41.0559 90.9731 39.2559C90.9731 37.4439 90.7331 36.1179 90.2531 35.2779C89.7851 34.4379 89.0411 34.0179 88.0211 34.0179C87.0131 34.0179 86.2691 34.4439 85.7891 35.2959C85.3091 36.1359 85.0691 37.4559 85.0691 39.2559C85.0691 41.0559 85.3091 42.3819 85.7891 43.2339C86.2691 44.0859 87.0131 44.5119 88.0211 44.5119ZM99.4947 41.4159C99.2787 41.4159 99.1107 41.3619 98.9907 41.2539C98.8827 41.1459 98.8287 41.0019 98.8287 40.8219C98.8287 40.6419 98.8827 40.4979 98.9907 40.3899C99.1107 40.2699 99.2787 40.2099 99.4947 40.2099H103.455C103.683 40.2099 103.851 40.2699 103.959 40.3899C104.079 40.4979 104.139 40.6419 104.139 40.8219C104.139 41.0019 104.079 41.1459 103.959 41.2539C103.851 41.3619 103.683 41.4159 103.455 41.4159H99.4947ZM118.694 44.3679C118.91 44.3679 119.078 44.4219 119.198 44.5299C119.318 44.6379 119.378 44.7879 119.378 44.9799C119.378 45.3999 119.15 45.6099 118.694 45.6099H111.638C111.434 45.6099 111.266 45.5499 111.134 45.4299C111.002 45.2979 110.936 45.1419 110.936 44.9619C110.936 44.7339 111.02 44.5359 111.188 44.3679L115.526 39.5979C116.126 38.9259 116.558 38.3259 116.822 37.7979C117.098 37.2579 117.236 36.7179 117.236 36.1779C117.236 35.4819 117.032 34.9479 116.624 34.5759C116.228 34.2039 115.664 34.0179 114.932 34.0179C114.356 34.0179 113.804 34.1259 113.276 34.3419C112.748 34.5459 112.22 34.8639 111.692 35.2959C111.512 35.4399 111.344 35.5119 111.188 35.5119C111.056 35.5119 110.942 35.4519 110.846 35.3319C110.75 35.1999 110.702 35.0439 110.702 34.8639C110.702 34.6119 110.798 34.4079 110.99 34.2519C111.482 33.7959 112.082 33.4359 112.79 33.1719C113.498 32.9079 114.224 32.7759 114.968 32.7759C116.108 32.7759 117.014 33.0759 117.686 33.6759C118.37 34.2759 118.712 35.0859 118.712 36.1059C118.712 36.8379 118.544 37.5399 118.208 38.2119C117.884 38.8839 117.344 39.6339 116.588 40.4619L112.988 44.3679H118.694ZM125.545 45.7539C124.093 45.7539 122.989 45.2019 122.233 44.0979C121.477 42.9939 121.099 41.3859 121.099 39.2739C121.099 37.1499 121.477 35.5359 122.233 34.4319C122.989 33.3279 124.093 32.7759 125.545 32.7759C126.997 32.7759 128.101 33.3279 128.857 34.4319C129.613 35.5239 129.991 37.1319 129.991 39.2559C129.991 41.3799 129.613 42.9939 128.857 44.0979C128.101 45.2019 126.997 45.7539 125.545 45.7539ZM125.545 44.5119C126.553 44.5119 127.297 44.0859 127.777 43.2339C128.257 42.3819 128.497 41.0559 128.497 39.2559C128.497 37.4439 128.257 36.1179 127.777 35.2779C127.309 34.4379 126.565 34.0179 125.545 34.0179C124.537 34.0179 123.793 34.4439 123.313 35.2959C122.833 36.1359 122.593 37.4559 122.593 39.2559C122.593 41.0559 122.833 42.3819 123.313 43.2339C123.793 44.0859 124.537 44.5119 125.545 44.5119ZM146.288 36.6279C148.232 36.6279 149.204 37.7859 149.204 40.1019V44.9799C149.204 45.2079 149.138 45.3879 149.006 45.5199C148.874 45.6399 148.7 45.6999 148.484 45.6999C148.268 45.6999 148.088 45.6399 147.944 45.5199C147.812 45.3879 147.746 45.2079 147.746 44.9799V40.1379C147.746 39.3339 147.602 38.7519 147.314 38.3919C147.026 38.0319 146.576 37.8519 145.964 37.8519C145.232 37.8519 144.656 38.0979 144.236 38.5899C143.816 39.0819 143.606 39.7479 143.606 40.5879V44.9799C143.606 45.2079 143.534 45.3879 143.39 45.5199C143.258 45.6399 143.084 45.6999 142.868 45.6999C142.652 45.6999 142.478 45.6399 142.346 45.5199C142.214 45.3879 142.148 45.2079 142.148 44.9799V40.1379C142.148 39.3339 142.004 38.7519 141.716 38.3919C141.428 38.0319 140.972 37.8519 140.348 37.8519C139.628 37.8519 139.052 38.0979 138.62 38.5899C138.2 39.0819 137.99 39.7479 137.99 40.5879V44.9799C137.99 45.2079 137.924 45.3879 137.792 45.5199C137.66 45.6399 137.486 45.6999 137.27 45.6999C137.054 45.6999 136.874 45.6399 136.73 45.5199C136.598 45.3879 136.532 45.2079 136.532 44.9799V37.3839C136.532 37.1679 136.598 36.9939 136.73 36.8619C136.874 36.7299 137.054 36.6639 137.27 36.6639C137.474 36.6639 137.642 36.7299 137.774 36.8619C137.906 36.9819 137.972 37.1499 137.972 37.3659V38.2299C138.236 37.7139 138.602 37.3179 139.07 37.0419C139.538 36.7659 140.078 36.6279 140.69 36.6279C142.058 36.6279 142.952 37.2039 143.372 38.3559C143.624 37.8279 144.008 37.4079 144.524 37.0959C145.04 36.7839 145.628 36.6279 146.288 36.6279ZM152.401 45.6999C152.185 45.6999 152.005 45.6399 151.861 45.5199C151.729 45.3879 151.663 45.2079 151.663 44.9799V37.3839C151.663 37.1559 151.729 36.9819 151.861 36.8619C152.005 36.7299 152.185 36.6639 152.401 36.6639C152.617 36.6639 152.791 36.7299 152.923 36.8619C153.055 36.9819 153.121 37.1559 153.121 37.3839V44.9799C153.121 45.2199 153.055 45.3999 152.923 45.5199C152.791 45.6399 152.617 45.6999 152.401 45.6999ZM152.401 34.7739C152.113 34.7739 151.879 34.6899 151.699 34.5219C151.519 34.3539 151.429 34.1319 151.429 33.8559C151.429 33.5919 151.519 33.3759 151.699 33.2079C151.879 33.0399 152.113 32.9559 152.401 32.9559C152.689 32.9559 152.923 33.0399 153.103 33.2079C153.283 33.3759 153.373 33.5919 153.373 33.8559C153.373 34.1319 153.283 34.3539 153.103 34.5219C152.923 34.6899 152.689 34.7739 152.401 34.7739ZM160.058 36.6279C162.158 36.6279 163.208 37.7859 163.208 40.1019V44.9799C163.208 45.2079 163.142 45.3879 163.01 45.5199C162.89 45.6399 162.716 45.6999 162.488 45.6999C162.26 45.6999 162.08 45.6399 161.948 45.5199C161.816 45.3879 161.75 45.2079 161.75 44.9799V40.1919C161.75 39.3759 161.588 38.7819 161.264 38.4099C160.952 38.0379 160.448 37.8519 159.752 37.8519C158.948 37.8519 158.306 38.0979 157.826 38.5899C157.346 39.0819 157.106 39.7479 157.106 40.5879V44.9799C157.106 45.2079 157.04 45.3879 156.908 45.5199C156.788 45.6399 156.614 45.6999 156.386 45.6999C156.158 45.6999 155.978 45.6399 155.846 45.5199C155.714 45.3879 155.648 45.2079 155.648 44.9799V37.3839C155.648 37.1679 155.714 36.9939 155.846 36.8619C155.978 36.7299 156.158 36.6639 156.386 36.6639C156.602 36.6639 156.77 36.7299 156.89 36.8619C157.022 36.9939 157.088 37.1619 157.088 37.3659V38.2839C157.376 37.7439 157.778 37.3359 158.294 37.0599C158.81 36.7719 159.398 36.6279 160.058 36.6279Z" fill="#A7A2B5"/>
<path d="M155.777 90.6099L190.777 90.6099" stroke="#585168"/>
<circle cx="206.777" cy="89.6099" r="8" fill="#816FDA"/>
<path d="M242.405 74.6279C244.349 74.6279 245.321 75.7859 245.321 78.1019V82.9799C245.321 83.2079 245.255 83.3879 245.123 83.5199C244.991 83.6399 244.817 83.6999 244.601 83.6999C244.385 83.6999 244.205 83.6399 244.061 83.5199C243.929 83.3879 243.863 83.2079 243.863 82.9799V78.1379C243.863 77.3339 243.719 76.7519 243.431 76.3919C243.143 76.0319 242.693 75.8519 242.081 75.8519C241.349 75.8519 240.773 76.0979 240.353 76.5899C239.933 77.0819 239.723 77.7479 239.723 78.5879V82.9799C239.723 83.2079 239.651 83.3879 239.507 83.5199C239.375 83.6399 239.201 83.6999 238.985 83.6999C238.769 83.6999 238.595 83.6399 238.463 83.5199C238.331 83.3879 238.265 83.2079 238.265 82.9799V78.1379C238.265 77.3339 238.121 76.7519 237.833 76.3919C237.545 76.0319 237.089 75.8519 236.465 75.8519C235.745 75.8519 235.169 76.0979 234.737 76.5899C234.317 77.0819 234.107 77.7479 234.107 78.5879V82.9799C234.107 83.2079 234.041 83.3879 233.909 83.5199C233.777 83.6399 233.603 83.6999 233.387 83.6999C233.171 83.6999 232.991 83.6399 232.847 83.5199C232.715 83.3879 232.649 83.2079 232.649 82.9799V75.3839C232.649 75.1679 232.715 74.9939 232.847 74.8619C232.991 74.7299 233.171 74.6639 233.387 74.6639C233.591 74.6639 233.759 74.7299 233.891 74.8619C234.023 74.9819 234.089 75.1499 234.089 75.3659V76.2299C234.353 75.7139 234.719 75.3179 235.187 75.0419C235.655 74.7659 236.195 74.6279 236.807 74.6279C238.175 74.6279 239.069 75.2039 239.489 76.3559C239.741 75.8279 240.125 75.4079 240.641 75.0959C241.157 74.7839 241.745 74.6279 242.405 74.6279ZM251.415 83.7359C250.587 83.7359 249.855 83.5499 249.219 83.1779C248.595 82.8059 248.109 82.2779 247.761 81.5939C247.425 80.8979 247.257 80.0939 247.257 79.1819C247.257 78.2699 247.425 77.4719 247.761 76.7879C248.109 76.0919 248.595 75.5579 249.219 75.1859C249.855 74.8139 250.587 74.6279 251.415 74.6279C252.243 74.6279 252.975 74.8139 253.611 75.1859C254.247 75.5579 254.733 76.0919 255.069 76.7879C255.417 77.4719 255.591 78.2699 255.591 79.1819C255.591 80.0939 255.417 80.8979 255.069 81.5939C254.733 82.2779 254.247 82.8059 253.611 83.1779C252.975 83.5499 252.243 83.7359 251.415 83.7359ZM251.415 82.5299C252.279 82.5299 252.939 82.2479 253.395 81.6839C253.863 81.1079 254.097 80.2739 254.097 79.1819C254.097 78.1139 253.863 77.2919 253.395 76.7159C252.927 76.1279 252.267 75.8339 251.415 75.8339C250.563 75.8339 249.903 76.1279 249.435 76.7159C248.967 77.2919 248.733 78.1139 248.733 79.1819C248.733 80.2619 248.961 81.0899 249.417 81.6659C249.885 82.2419 250.551 82.5299 251.415 82.5299ZM261.904 74.6639C262.408 74.6279 262.66 74.8319 262.66 75.2759C262.66 75.4679 262.606 75.6239 262.498 75.7439C262.39 75.8519 262.204 75.9179 261.94 75.9419L261.4 75.9959C260.596 76.0679 259.996 76.3559 259.6 76.8599C259.216 77.3519 259.024 77.9339 259.024 78.6059V82.9799C259.024 83.2199 258.958 83.3999 258.826 83.5199C258.694 83.6399 258.52 83.6999 258.304 83.6999C258.088 83.6999 257.908 83.6399 257.764 83.5199C257.632 83.3879 257.566 83.2079 257.566 82.9799V75.3839C257.566 75.1559 257.638 74.9819 257.782 74.8619C257.926 74.7299 258.1 74.6639 258.304 74.6639C258.496 74.6639 258.658 74.7299 258.79 74.8619C258.922 74.9819 258.988 75.1499 258.988 75.3659V76.3739C259.24 75.8459 259.594 75.4439 260.05 75.1679C260.518 74.8919 261.052 74.7299 261.652 74.6819L261.904 74.6639ZM270.324 81.5759C270.456 81.5759 270.57 81.6299 270.666 81.7379C270.762 81.8459 270.81 81.9839 270.81 82.1519C270.81 82.4519 270.6 82.7279 270.18 82.9799C269.748 83.2319 269.292 83.4239 268.812 83.5559C268.332 83.6759 267.864 83.7359 267.408 83.7359C266.052 83.7359 264.978 83.3339 264.186 82.5299C263.406 81.7259 263.016 80.6159 263.016 79.1999C263.016 78.2999 263.19 77.5079 263.538 76.8239C263.886 76.1279 264.372 75.5879 264.996 75.2039C265.632 74.8199 266.352 74.6279 267.156 74.6279C268.296 74.6279 269.202 74.9999 269.874 75.7439C270.546 76.4879 270.882 77.4959 270.882 78.7679C270.882 79.0079 270.834 79.1819 270.738 79.2899C270.642 79.3979 270.486 79.4519 270.27 79.4519H264.474C264.582 81.5159 265.56 82.5479 267.408 82.5479C267.876 82.5479 268.278 82.4879 268.614 82.3679C268.95 82.2359 269.31 82.0619 269.694 81.8459C270.006 81.6659 270.216 81.5759 270.324 81.5759ZM267.174 75.7619C266.406 75.7619 265.788 76.0019 265.32 76.4819C264.864 76.9619 264.594 77.6399 264.51 78.5159H269.604C269.58 77.6279 269.358 76.9499 268.938 76.4819C268.518 76.0019 267.93 75.7619 267.174 75.7619ZM281.324 82.5479C281.744 82.5839 281.954 82.7759 281.954 83.1239C281.954 83.3279 281.876 83.4839 281.72 83.5919C281.576 83.6879 281.354 83.7239 281.054 83.6999L280.568 83.6639C279.608 83.5919 278.9 83.3039 278.444 82.7999C277.988 82.2959 277.76 81.5339 277.76 80.5139V75.9959H276.554C276.35 75.9959 276.188 75.9479 276.068 75.8519C275.96 75.7439 275.906 75.6059 275.906 75.4379C275.906 75.2579 275.96 75.1139 276.068 75.0059C276.188 74.8979 276.35 74.8439 276.554 74.8439H277.76V72.8099C277.76 72.5819 277.826 72.4079 277.958 72.2879C278.09 72.1559 278.27 72.0899 278.498 72.0899C278.714 72.0899 278.888 72.1559 279.02 72.2879C279.152 72.4079 279.218 72.5819 279.218 72.8099V74.8439H281.216C281.408 74.8439 281.558 74.8979 281.666 75.0059C281.786 75.1139 281.846 75.2579 281.846 75.4379C281.846 75.6059 281.786 75.7439 281.666 75.8519C281.558 75.9479 281.408 75.9959 281.216 75.9959H279.218V80.5859C279.218 81.2459 279.35 81.7259 279.614 82.0259C279.89 82.3139 280.298 82.4759 280.838 82.5119L281.324 82.5479ZM287.622 74.6279C288.654 74.6279 289.434 74.9219 289.962 75.5099C290.49 76.0859 290.754 76.9499 290.754 78.1019V82.9799C290.754 83.2079 290.688 83.3879 290.556 83.5199C290.424 83.6399 290.25 83.6999 290.034 83.6999C289.806 83.6999 289.626 83.6399 289.494 83.5199C289.362 83.3879 289.296 83.2079 289.296 82.9799V78.1379C289.296 77.3579 289.134 76.7819 288.81 76.4099C288.498 76.0379 287.994 75.8519 287.298 75.8519C286.494 75.8519 285.852 76.0979 285.372 76.5899C284.892 77.0819 284.652 77.7479 284.652 78.5879V82.9799C284.652 83.2079 284.586 83.3879 284.454 83.5199C284.334 83.6399 284.16 83.6999 283.932 83.6999C283.704 83.6999 283.524 83.6399 283.392 83.5199C283.26 83.3879 283.194 83.2079 283.194 82.9799V71.5319C283.194 71.3279 283.26 71.1599 283.392 71.0279C283.536 70.8959 283.716 70.8299 283.932 70.8299C284.16 70.8299 284.334 70.8959 284.454 71.0279C284.586 71.1479 284.652 71.3159 284.652 71.5319V76.2479C284.94 75.7199 285.342 75.3179 285.858 75.0419C286.374 74.7659 286.962 74.6279 287.622 74.6279ZM296.808 74.6279C299.004 74.6279 300.102 75.7799 300.102 78.0839V82.9799C300.102 83.1959 300.036 83.3699 299.904 83.5019C299.784 83.6339 299.616 83.6999 299.4 83.6999C299.184 83.6999 299.01 83.6339 298.878 83.5019C298.746 83.3699 298.68 83.1959 298.68 82.9799V82.1159C298.452 82.6319 298.104 83.0339 297.636 83.3219C297.168 83.5979 296.628 83.7359 296.016 83.7359C295.452 83.7359 294.93 83.6219 294.45 83.3939C293.982 83.1659 293.61 82.8479 293.334 82.4399C293.058 82.0319 292.92 81.5819 292.92 81.0899C292.92 80.4299 293.088 79.9199 293.424 79.5599C293.76 79.1879 294.312 78.9239 295.08 78.7679C295.848 78.5999 296.916 78.5159 298.284 78.5159H298.68V77.9219C298.68 77.2019 298.53 76.6739 298.23 76.3379C297.942 76.0019 297.468 75.8339 296.808 75.8339C295.992 75.8339 295.164 76.0559 294.324 76.4999C294 76.7039 293.772 76.8059 293.64 76.8059C293.496 76.8059 293.376 76.7519 293.28 76.6439C293.184 76.5359 293.136 76.3979 293.136 76.2299C293.136 76.0619 293.184 75.9179 293.28 75.7979C293.388 75.6659 293.556 75.5339 293.784 75.4019C294.204 75.1619 294.678 74.9759 295.206 74.8439C295.746 74.6999 296.28 74.6279 296.808 74.6279ZM296.214 82.5839C296.934 82.5839 297.522 82.3439 297.978 81.8639C298.446 81.3719 298.68 80.7419 298.68 79.9739V79.4519H298.356C297.3 79.4519 296.496 79.4999 295.944 79.5959C295.392 79.6799 294.996 79.8299 294.756 80.0459C294.528 80.2499 294.414 80.5559 294.414 80.9639C294.414 81.4319 294.582 81.8219 294.918 82.1339C295.266 82.4339 295.698 82.5839 296.214 82.5839ZM306.983 74.6279C309.083 74.6279 310.133 75.7859 310.133 78.1019V82.9799C310.133 83.2079 310.067 83.3879 309.935 83.5199C309.815 83.6399 309.641 83.6999 309.413 83.6999C309.185 83.6999 309.005 83.6399 308.873 83.5199C308.741 83.3879 308.675 83.2079 308.675 82.9799V78.1919C308.675 77.3759 308.513 76.7819 308.189 76.4099C307.877 76.0379 307.373 75.8519 306.677 75.8519C305.873 75.8519 305.231 76.0979 304.751 76.5899C304.271 77.0819 304.031 77.7479 304.031 78.5879V82.9799C304.031 83.2079 303.965 83.3879 303.833 83.5199C303.713 83.6399 303.539 83.6999 303.311 83.6999C303.083 83.6999 302.903 83.6399 302.771 83.5199C302.639 83.3879 302.573 83.2079 302.573 82.9799V75.3839C302.573 75.1679 302.639 74.9939 302.771 74.8619C302.903 74.7299 303.083 74.6639 303.311 74.6639C303.527 74.6639 303.695 74.7299 303.815 74.8619C303.947 74.9939 304.013 75.1619 304.013 75.3659V76.2839C304.301 75.7439 304.703 75.3359 305.219 75.0599C305.735 74.7719 306.323 74.6279 306.983 74.6279ZM250.88 100.094C251.648 100.31 252.23 100.682 252.626 101.21C253.034 101.738 253.238 102.392 253.238 103.172C253.238 104.276 252.866 105.146 252.122 105.782C251.378 106.418 250.364 106.736 249.08 106.736C248.3 106.736 247.55 106.604 246.83 106.34C246.122 106.076 245.522 105.716 245.03 105.26C244.838 105.08 244.742 104.876 244.742 104.648C244.742 104.468 244.79 104.318 244.886 104.198C244.982 104.078 245.096 104.018 245.228 104.018C245.396 104.018 245.564 104.084 245.732 104.216C246.284 104.66 246.824 104.984 247.352 105.188C247.88 105.392 248.45 105.494 249.062 105.494C249.95 105.494 250.622 105.29 251.078 104.882C251.546 104.474 251.78 103.886 251.78 103.118C251.78 101.57 250.808 100.796 248.864 100.796H247.91C247.718 100.796 247.562 100.736 247.442 100.616C247.334 100.484 247.28 100.334 247.28 100.166C247.28 99.9979 247.334 99.8539 247.442 99.7339C247.562 99.6139 247.718 99.5539 247.91 99.5539H248.576C249.512 99.5539 250.232 99.3499 250.736 98.9419C251.24 98.5219 251.492 97.9219 251.492 97.1419C251.492 96.4579 251.288 95.9359 250.88 95.5759C250.472 95.2039 249.896 95.0179 249.152 95.0179C248.588 95.0179 248.042 95.1259 247.514 95.3419C246.986 95.5459 246.458 95.8639 245.93 96.2959C245.762 96.4279 245.594 96.4939 245.426 96.4939C245.294 96.4939 245.18 96.4339 245.084 96.3139C244.988 96.1939 244.94 96.0439 244.94 95.8639C244.94 95.6359 245.036 95.4319 245.228 95.2519C245.72 94.7959 246.314 94.4359 247.01 94.1719C247.718 93.9079 248.444 93.7759 249.188 93.7759C250.34 93.7759 251.258 94.0699 251.942 94.6579C252.626 95.2459 252.962 96.0379 252.95 97.0339C252.938 97.7539 252.746 98.3839 252.374 98.9239C252.014 99.4639 251.516 99.8539 250.88 100.094ZM259.783 106.754C258.331 106.754 257.227 106.202 256.471 105.098C255.715 103.994 255.337 102.386 255.337 100.274C255.337 98.1499 255.715 96.5359 256.471 95.4319C257.227 94.3279 258.331 93.7759 259.783 93.7759C261.235 93.7759 262.339 94.3279 263.095 95.4319C263.851 96.5239 264.229 98.1319 264.229 100.256C264.229 102.38 263.851 103.994 263.095 105.098C262.339 106.202 261.235 106.754 259.783 106.754ZM259.783 105.512C260.791 105.512 261.535 105.086 262.015 104.234C262.495 103.382 262.735 102.056 262.735 100.256C262.735 98.4439 262.495 97.1179 262.015 96.2779C261.547 95.4379 260.803 95.0179 259.783 95.0179C258.775 95.0179 258.031 95.4439 257.551 96.2959C257.071 97.1359 256.831 98.4559 256.831 100.256C256.831 102.056 257.071 103.382 257.551 104.234C258.031 105.086 258.775 105.512 259.783 105.512ZM280.527 97.6279C282.471 97.6279 283.443 98.7859 283.443 101.102V105.98C283.443 106.208 283.377 106.388 283.245 106.52C283.113 106.64 282.939 106.7 282.723 106.7C282.507 106.7 282.327 106.64 282.183 106.52C282.051 106.388 281.985 106.208 281.985 105.98V101.138C281.985 100.334 281.841 99.7519 281.553 99.3919C281.265 99.0319 280.815 98.8519 280.203 98.8519C279.471 98.8519 278.895 99.0979 278.475 99.5899C278.055 100.082 277.845 100.748 277.845 101.588V105.98C277.845 106.208 277.773 106.388 277.629 106.52C277.497 106.64 277.323 106.7 277.107 106.7C276.891 106.7 276.717 106.64 276.585 106.52C276.453 106.388 276.387 106.208 276.387 105.98V101.138C276.387 100.334 276.243 99.7519 275.955 99.3919C275.667 99.0319 275.211 98.8519 274.587 98.8519C273.867 98.8519 273.291 99.0979 272.859 99.5899C272.439 100.082 272.229 100.748 272.229 101.588V105.98C272.229 106.208 272.163 106.388 272.031 106.52C271.899 106.64 271.725 106.7 271.509 106.7C271.293 106.7 271.113 106.64 270.969 106.52C270.837 106.388 270.771 106.208 270.771 105.98V98.3839C270.771 98.1679 270.837 97.9939 270.969 97.8619C271.113 97.7299 271.293 97.6639 271.509 97.6639C271.713 97.6639 271.881 97.7299 272.013 97.8619C272.145 97.9819 272.211 98.1499 272.211 98.3659V99.2299C272.475 98.7139 272.841 98.3179 273.309 98.0419C273.777 97.7659 274.317 97.6279 274.929 97.6279C276.297 97.6279 277.191 98.2039 277.611 99.3559C277.863 98.8279 278.247 98.4079 278.763 98.0959C279.279 97.7839 279.867 97.6279 280.527 97.6279ZM286.639 106.7C286.423 106.7 286.243 106.64 286.099 106.52C285.967 106.388 285.901 106.208 285.901 105.98V98.3839C285.901 98.1559 285.967 97.9819 286.099 97.8619C286.243 97.7299 286.423 97.6639 286.639 97.6639C286.855 97.6639 287.029 97.7299 287.161 97.8619C287.293 97.9819 287.359 98.1559 287.359 98.3839V105.98C287.359 106.22 287.293 106.4 287.161 106.52C287.029 106.64 286.855 106.7 286.639 106.7ZM286.639 95.7739C286.351 95.7739 286.117 95.6899 285.937 95.5219C285.757 95.3539 285.667 95.1319 285.667 94.8559C285.667 94.5919 285.757 94.3759 285.937 94.2079C286.117 94.0399 286.351 93.9559 286.639 93.9559C286.927 93.9559 287.161 94.0399 287.341 94.2079C287.521 94.3759 287.611 94.5919 287.611 94.8559C287.611 95.1319 287.521 95.3539 287.341 95.5219C287.161 95.6899 286.927 95.7739 286.639 95.7739ZM294.296 97.6279C296.396 97.6279 297.446 98.7859 297.446 101.102V105.98C297.446 106.208 297.38 106.388 297.248 106.52C297.128 106.64 296.954 106.7 296.726 106.7C296.498 106.7 296.318 106.64 296.186 106.52C296.054 106.388 295.988 106.208 295.988 105.98V101.192C295.988 100.376 295.826 99.7819 295.502 99.4099C295.19 99.0379 294.686 98.8519 293.99 98.8519C293.186 98.8519 292.544 99.0979 292.064 99.5899C291.584 100.082 291.344 100.748 291.344 101.588V105.98C291.344 106.208 291.278 106.388 291.146 106.52C291.026 106.64 290.852 106.7 290.624 106.7C290.396 106.7 290.216 106.64 290.084 106.52C289.952 106.388 289.886 106.208 289.886 105.98V98.3839C289.886 98.1679 289.952 97.9939 290.084 97.8619C290.216 97.7299 290.396 97.6639 290.624 97.6639C290.84 97.6639 291.008 97.7299 291.128 97.8619C291.26 97.9939 291.326 98.1619 291.326 98.3659V99.2839C291.614 98.7439 292.016 98.3359 292.532 98.0599C293.048 97.7719 293.636 97.6279 294.296 97.6279Z" fill="#A7A2B5"/>
<path d="M205.777 165.61H226.952" stroke="#585168"/>
<circle cx="242.777" cy="177.61" r="8" fill="#816FDA"/>
<path d="M260.865 171.7C260.649 171.7 260.469 171.64 260.325 171.52C260.193 171.388 260.127 171.208 260.127 170.98V159.55C260.127 159.322 260.193 159.148 260.325 159.028C260.469 158.896 260.649 158.83 260.865 158.83C261.069 158.83 261.237 158.896 261.369 159.028C261.513 159.148 261.585 159.322 261.585 159.55V170.98C261.585 171.208 261.513 171.388 261.369 171.52C261.237 171.64 261.069 171.7 260.865 171.7ZM270.899 169.576C271.031 169.576 271.145 169.63 271.241 169.738C271.337 169.846 271.385 169.984 271.385 170.152C271.385 170.452 271.175 170.728 270.755 170.98C270.323 171.232 269.867 171.424 269.387 171.556C268.907 171.676 268.439 171.736 267.983 171.736C266.627 171.736 265.553 171.334 264.761 170.53C263.981 169.726 263.591 168.616 263.591 167.2C263.591 166.3 263.765 165.508 264.113 164.824C264.461 164.128 264.947 163.588 265.571 163.204C266.207 162.82 266.927 162.628 267.731 162.628C268.871 162.628 269.777 163 270.449 163.744C271.121 164.488 271.457 165.496 271.457 166.768C271.457 167.008 271.409 167.182 271.313 167.29C271.217 167.398 271.061 167.452 270.845 167.452H265.049C265.157 169.516 266.135 170.548 267.983 170.548C268.451 170.548 268.853 170.488 269.189 170.368C269.525 170.236 269.885 170.062 270.269 169.846C270.581 169.666 270.791 169.576 270.899 169.576ZM267.749 163.762C266.981 163.762 266.363 164.002 265.895 164.482C265.439 164.962 265.169 165.64 265.085 166.516H270.179C270.155 165.628 269.933 164.95 269.513 164.482C269.093 164.002 268.505 163.762 267.749 163.762ZM276.359 171.736C275.807 171.736 275.279 171.67 274.775 171.538C274.283 171.406 273.845 171.22 273.461 170.98C273.245 170.836 273.089 170.704 272.993 170.584C272.909 170.452 272.867 170.296 272.867 170.116C272.867 169.96 272.909 169.834 272.993 169.738C273.089 169.63 273.209 169.576 273.353 169.576C273.497 169.576 273.707 169.666 273.983 169.846C274.343 170.062 274.697 170.236 275.045 170.368C275.405 170.488 275.849 170.548 276.377 170.548C277.025 170.548 277.529 170.434 277.889 170.206C278.249 169.978 278.429 169.648 278.429 169.216C278.429 168.952 278.363 168.742 278.231 168.586C278.099 168.418 277.871 168.274 277.547 168.154C277.223 168.022 276.749 167.89 276.125 167.758C275.069 167.53 274.313 167.224 273.857 166.84C273.401 166.456 273.173 165.934 273.173 165.274C273.173 164.758 273.317 164.302 273.605 163.906C273.893 163.51 274.289 163.198 274.793 162.97C275.309 162.742 275.891 162.628 276.539 162.628C277.007 162.628 277.457 162.694 277.889 162.826C278.333 162.946 278.723 163.12 279.059 163.348C279.467 163.636 279.671 163.936 279.671 164.248C279.671 164.404 279.623 164.536 279.527 164.644C279.431 164.752 279.317 164.806 279.185 164.806C279.041 164.806 278.825 164.704 278.537 164.5C278.201 164.284 277.883 164.116 277.583 163.996C277.283 163.876 276.911 163.816 276.467 163.816C275.903 163.816 275.447 163.942 275.099 164.194C274.763 164.446 274.595 164.782 274.595 165.202C274.595 165.466 274.655 165.682 274.775 165.85C274.907 166.006 275.117 166.15 275.405 166.282C275.705 166.402 276.131 166.522 276.683 166.642C277.499 166.822 278.129 167.02 278.573 167.236C279.029 167.452 279.353 167.716 279.545 168.028C279.737 168.34 279.833 168.736 279.833 169.216C279.833 169.972 279.515 170.584 278.879 171.052C278.243 171.508 277.403 171.736 276.359 171.736ZM284.81 171.736C284.258 171.736 283.73 171.67 283.226 171.538C282.734 171.406 282.296 171.22 281.912 170.98C281.696 170.836 281.54 170.704 281.444 170.584C281.36 170.452 281.318 170.296 281.318 170.116C281.318 169.96 281.36 169.834 281.444 169.738C281.54 169.63 281.66 169.576 281.804 169.576C281.948 169.576 282.158 169.666 282.434 169.846C282.794 170.062 283.148 170.236 283.496 170.368C283.856 170.488 284.3 170.548 284.828 170.548C285.476 170.548 285.98 170.434 286.34 170.206C286.7 169.978 286.88 169.648 286.88 169.216C286.88 168.952 286.814 168.742 286.682 168.586C286.55 168.418 286.322 168.274 285.998 168.154C285.674 168.022 285.2 167.89 284.576 167.758C283.52 167.53 282.764 167.224 282.308 166.84C281.852 166.456 281.624 165.934 281.624 165.274C281.624 164.758 281.768 164.302 282.056 163.906C282.344 163.51 282.74 163.198 283.244 162.97C283.76 162.742 284.342 162.628 284.99 162.628C285.458 162.628 285.908 162.694 286.34 162.826C286.784 162.946 287.174 163.12 287.51 163.348C287.918 163.636 288.122 163.936 288.122 164.248C288.122 164.404 288.074 164.536 287.978 164.644C287.882 164.752 287.768 164.806 287.636 164.806C287.492 164.806 287.276 164.704 286.988 164.5C286.652 164.284 286.334 164.116 286.034 163.996C285.734 163.876 285.362 163.816 284.918 163.816C284.354 163.816 283.898 163.942 283.55 164.194C283.214 164.446 283.046 164.782 283.046 165.202C283.046 165.466 283.106 165.682 283.226 165.85C283.358 166.006 283.568 166.15 283.856 166.282C284.156 166.402 284.582 166.522 285.134 166.642C285.95 166.822 286.58 167.02 287.024 167.236C287.48 167.452 287.804 167.716 287.996 168.028C288.188 168.34 288.284 168.736 288.284 169.216C288.284 169.972 287.966 170.584 287.33 171.052C286.694 171.508 285.854 171.736 284.81 171.736ZM298.801 170.548C299.221 170.584 299.431 170.776 299.431 171.124C299.431 171.328 299.353 171.484 299.197 171.592C299.053 171.688 298.831 171.724 298.531 171.7L298.045 171.664C297.085 171.592 296.377 171.304 295.921 170.8C295.465 170.296 295.237 169.534 295.237 168.514V163.996H294.031C293.827 163.996 293.665 163.948 293.545 163.852C293.437 163.744 293.383 163.606 293.383 163.438C293.383 163.258 293.437 163.114 293.545 163.006C293.665 162.898 293.827 162.844 294.031 162.844H295.237V160.81C295.237 160.582 295.303 160.408 295.435 160.288C295.567 160.156 295.747 160.09 295.975 160.09C296.191 160.09 296.365 160.156 296.497 160.288C296.629 160.408 296.695 160.582 296.695 160.81V162.844H298.693C298.885 162.844 299.035 162.898 299.143 163.006C299.263 163.114 299.323 163.258 299.323 163.438C299.323 163.606 299.263 163.744 299.143 163.852C299.035 163.948 298.885 163.996 298.693 163.996H296.695V168.586C296.695 169.246 296.827 169.726 297.091 170.026C297.367 170.314 297.775 170.476 298.315 170.512L298.801 170.548ZM305.098 162.628C306.13 162.628 306.91 162.922 307.438 163.51C307.966 164.086 308.23 164.95 308.23 166.102V170.98C308.23 171.208 308.164 171.388 308.032 171.52C307.9 171.64 307.726 171.7 307.51 171.7C307.282 171.7 307.102 171.64 306.97 171.52C306.838 171.388 306.772 171.208 306.772 170.98V166.138C306.772 165.358 306.61 164.782 306.286 164.41C305.974 164.038 305.47 163.852 304.774 163.852C303.97 163.852 303.328 164.098 302.848 164.59C302.368 165.082 302.128 165.748 302.128 166.588V170.98C302.128 171.208 302.062 171.388 301.93 171.52C301.81 171.64 301.636 171.7 301.408 171.7C301.18 171.7 301 171.64 300.868 171.52C300.736 171.388 300.67 171.208 300.67 170.98V159.532C300.67 159.328 300.736 159.16 300.868 159.028C301.012 158.896 301.192 158.83 301.408 158.83C301.636 158.83 301.81 158.896 301.93 159.028C302.062 159.148 302.128 159.316 302.128 159.532V164.248C302.416 163.72 302.818 163.318 303.334 163.042C303.85 162.766 304.438 162.628 305.098 162.628ZM314.284 162.628C316.48 162.628 317.578 163.78 317.578 166.084V170.98C317.578 171.196 317.512 171.37 317.38 171.502C317.26 171.634 317.092 171.7 316.876 171.7C316.66 171.7 316.486 171.634 316.354 171.502C316.222 171.37 316.156 171.196 316.156 170.98V170.116C315.928 170.632 315.58 171.034 315.112 171.322C314.644 171.598 314.104 171.736 313.492 171.736C312.928 171.736 312.406 171.622 311.926 171.394C311.458 171.166 311.086 170.848 310.81 170.44C310.534 170.032 310.396 169.582 310.396 169.09C310.396 168.43 310.564 167.92 310.9 167.56C311.236 167.188 311.788 166.924 312.556 166.768C313.324 166.6 314.392 166.516 315.76 166.516H316.156V165.922C316.156 165.202 316.006 164.674 315.706 164.338C315.418 164.002 314.944 163.834 314.284 163.834C313.468 163.834 312.64 164.056 311.8 164.5C311.476 164.704 311.248 164.806 311.116 164.806C310.972 164.806 310.852 164.752 310.756 164.644C310.66 164.536 310.612 164.398 310.612 164.23C310.612 164.062 310.66 163.918 310.756 163.798C310.864 163.666 311.032 163.534 311.26 163.402C311.68 163.162 312.154 162.976 312.682 162.844C313.222 162.7 313.756 162.628 314.284 162.628ZM313.69 170.584C314.41 170.584 314.998 170.344 315.454 169.864C315.922 169.372 316.156 168.742 316.156 167.974V167.452H315.832C314.776 167.452 313.972 167.5 313.42 167.596C312.868 167.68 312.472 167.83 312.232 168.046C312.004 168.25 311.89 168.556 311.89 168.964C311.89 169.432 312.058 169.822 312.394 170.134C312.742 170.434 313.174 170.584 313.69 170.584ZM324.459 162.628C326.559 162.628 327.609 163.786 327.609 166.102V170.98C327.609 171.208 327.543 171.388 327.411 171.52C327.291 171.64 327.117 171.7 326.889 171.7C326.661 171.7 326.481 171.64 326.349 171.52C326.217 171.388 326.151 171.208 326.151 170.98V166.192C326.151 165.376 325.989 164.782 325.665 164.41C325.353 164.038 324.849 163.852 324.153 163.852C323.349 163.852 322.707 164.098 322.227 164.59C321.747 165.082 321.507 165.748 321.507 166.588V170.98C321.507 171.208 321.441 171.388 321.309 171.52C321.189 171.64 321.015 171.7 320.787 171.7C320.559 171.7 320.379 171.64 320.247 171.52C320.115 171.388 320.049 171.208 320.049 170.98V163.384C320.049 163.168 320.115 162.994 320.247 162.862C320.379 162.73 320.559 162.664 320.787 162.664C321.003 162.664 321.171 162.73 321.291 162.862C321.423 162.994 321.489 163.162 321.489 163.366V164.284C321.777 163.744 322.179 163.336 322.695 163.06C323.211 162.772 323.799 162.628 324.459 162.628ZM342.03 170.368C342.246 170.368 342.414 170.422 342.534 170.53C342.654 170.638 342.714 170.788 342.714 170.98C342.714 171.184 342.654 171.34 342.534 171.448C342.426 171.556 342.258 171.61 342.03 171.61H336.072C335.844 171.61 335.67 171.556 335.55 171.448C335.442 171.34 335.388 171.184 335.388 170.98C335.388 170.788 335.448 170.638 335.568 170.53C335.688 170.422 335.856 170.368 336.072 170.368H338.304V160.72L336.342 161.998C336.246 162.058 336.15 162.088 336.054 162.088C335.886 162.088 335.736 162.01 335.604 161.854C335.484 161.698 335.424 161.53 335.424 161.35C335.424 161.098 335.52 160.918 335.712 160.81L338.448 159.028C338.652 158.896 338.862 158.83 339.078 158.83C339.282 158.83 339.45 158.896 339.582 159.028C339.714 159.16 339.78 159.346 339.78 159.586V170.368H342.03ZM349.169 171.754C347.717 171.754 346.613 171.202 345.857 170.098C345.101 168.994 344.723 167.386 344.723 165.274C344.723 163.15 345.101 161.536 345.857 160.432C346.613 159.328 347.717 158.776 349.169 158.776C350.621 158.776 351.725 159.328 352.481 160.432C353.237 161.524 353.615 163.132 353.615 165.256C353.615 167.38 353.237 168.994 352.481 170.098C351.725 171.202 350.621 171.754 349.169 171.754ZM349.169 170.512C350.177 170.512 350.921 170.086 351.401 169.234C351.881 168.382 352.121 167.056 352.121 165.256C352.121 163.444 351.881 162.118 351.401 161.278C350.933 160.438 350.189 160.018 349.169 160.018C348.161 160.018 347.417 160.444 346.937 161.296C346.457 162.136 346.217 163.456 346.217 165.256C346.217 167.056 346.457 168.382 346.937 169.234C347.417 170.086 348.161 170.512 349.169 170.512ZM269.883 185.628C271.827 185.628 272.799 186.786 272.799 189.102V193.98C272.799 194.208 272.733 194.388 272.601 194.52C272.469 194.64 272.295 194.7 272.079 194.7C271.863 194.7 271.683 194.64 271.539 194.52C271.407 194.388 271.341 194.208 271.341 193.98V189.138C271.341 188.334 271.197 187.752 270.909 187.392C270.621 187.032 270.171 186.852 269.559 186.852C268.827 186.852 268.251 187.098 267.831 187.59C267.411 188.082 267.201 188.748 267.201 189.588V193.98C267.201 194.208 267.129 194.388 266.985 194.52C266.853 194.64 266.679 194.7 266.463 194.7C266.247 194.7 266.073 194.64 265.941 194.52C265.809 194.388 265.743 194.208 265.743 193.98V189.138C265.743 188.334 265.599 187.752 265.311 187.392C265.023 187.032 264.567 186.852 263.943 186.852C263.223 186.852 262.647 187.098 262.215 187.59C261.795 188.082 261.585 188.748 261.585 189.588V193.98C261.585 194.208 261.519 194.388 261.387 194.52C261.255 194.64 261.081 194.7 260.865 194.7C260.649 194.7 260.469 194.64 260.325 194.52C260.193 194.388 260.127 194.208 260.127 193.98V186.384C260.127 186.168 260.193 185.994 260.325 185.862C260.469 185.73 260.649 185.664 260.865 185.664C261.069 185.664 261.237 185.73 261.369 185.862C261.501 185.982 261.567 186.15 261.567 186.366V187.23C261.831 186.714 262.197 186.318 262.665 186.042C263.133 185.766 263.673 185.628 264.285 185.628C265.653 185.628 266.547 186.204 266.967 187.356C267.219 186.828 267.603 186.408 268.119 186.096C268.635 185.784 269.223 185.628 269.883 185.628ZM275.995 194.7C275.779 194.7 275.599 194.64 275.455 194.52C275.323 194.388 275.257 194.208 275.257 193.98V186.384C275.257 186.156 275.323 185.982 275.455 185.862C275.599 185.73 275.779 185.664 275.995 185.664C276.211 185.664 276.385 185.73 276.517 185.862C276.649 185.982 276.715 186.156 276.715 186.384V193.98C276.715 194.22 276.649 194.4 276.517 194.52C276.385 194.64 276.211 194.7 275.995 194.7ZM275.995 183.774C275.707 183.774 275.473 183.69 275.293 183.522C275.113 183.354 275.023 183.132 275.023 182.856C275.023 182.592 275.113 182.376 275.293 182.208C275.473 182.04 275.707 181.956 275.995 181.956C276.283 181.956 276.517 182.04 276.697 182.208C276.877 182.376 276.967 182.592 276.967 182.856C276.967 183.132 276.877 183.354 276.697 183.522C276.517 183.69 276.283 183.774 275.995 183.774ZM283.653 185.628C285.753 185.628 286.803 186.786 286.803 189.102V193.98C286.803 194.208 286.737 194.388 286.605 194.52C286.485 194.64 286.311 194.7 286.083 194.7C285.855 194.7 285.675 194.64 285.543 194.52C285.411 194.388 285.345 194.208 285.345 193.98V189.192C285.345 188.376 285.183 187.782 284.859 187.41C284.547 187.038 284.043 186.852 283.347 186.852C282.543 186.852 281.901 187.098 281.421 187.59C280.941 188.082 280.701 188.748 280.701 189.588V193.98C280.701 194.208 280.635 194.388 280.503 194.52C280.383 194.64 280.209 194.7 279.981 194.7C279.753 194.7 279.573 194.64 279.441 194.52C279.309 194.388 279.243 194.208 279.243 193.98V186.384C279.243 186.168 279.309 185.994 279.441 185.862C279.573 185.73 279.753 185.664 279.981 185.664C280.197 185.664 280.365 185.73 280.485 185.862C280.617 185.994 280.683 186.162 280.683 186.366V187.284C280.971 186.744 281.373 186.336 281.889 186.06C282.405 185.772 282.993 185.628 283.653 185.628Z" fill="#A7A2B5"/>
<path d="M105.777 177.455H205.777C205.777 232.683 161.006 277.455 105.777 277.455C50.5489 277.455 5.77734 232.683 5.77734 177.455C5.77734 153.699 14.234 130.72 29.6328 112.632L105.777 177.455Z" fill="#816FDA" stroke="white"/>
<path d="M105.778 177.455L29.6337 112.632C65.4344 70.5783 128.548 65.5093 170.601 101.31C179.575 108.949 187.127 118.115 192.91 128.383L105.778 177.455Z" fill="#F8D47C" stroke="white"/>
<path d="M105.777 177.455L192.909 128.383C201.345 143.362 205.777 160.263 205.777 177.455H105.777Z" fill="#65E891" stroke="white"/>
</g>
<defs>
<clipPath id="clip0_408_9938">
<rect width="339.416" height="300" fill="white" transform="translate(0.777344 0.109863)"/>
</clipPath>
</defs>
</svg>
