<svg width="340" height="301" viewBox="0 0 340 301" fill="none" xmlns="http://www.w3.org/2000/svg">
<g clip-path="url(#clip0_408_9966)">
<path d="M47.3164 183.61V27.9705C47.3164 24.6099 47.3164 23.6099 51.1415 23.6099H72.3164" stroke="#585168"/>
<circle cx="88.3164" cy="23.1099" r="8" fill="#816FDA"/>
<path d="M110.211 19.6279C110.979 19.6279 111.657 19.8199 112.245 20.2039C112.833 20.5879 113.289 21.1279 113.613 21.8239C113.937 22.5079 114.099 23.3059 114.099 24.2179C114.099 25.1299 113.937 25.9279 113.613 26.6119C113.289 27.2839 112.833 27.8059 112.245 28.1779C111.669 28.5499 110.991 28.7359 110.211 28.7359C109.527 28.7359 108.927 28.5859 108.411 28.2859C107.907 27.9859 107.523 27.5599 107.259 27.0079V31.2379C107.259 31.4539 107.193 31.6219 107.061 31.7419C106.941 31.8739 106.767 31.9399 106.539 31.9399C106.311 31.9399 106.131 31.8739 105.999 31.7419C105.867 31.6099 105.801 31.4419 105.801 31.2379V20.3839C105.801 20.1679 105.867 19.9939 105.999 19.8619C106.131 19.7299 106.311 19.6639 106.539 19.6639C106.767 19.6639 106.941 19.7299 107.061 19.8619C107.193 19.9939 107.259 20.1679 107.259 20.3839V21.3559C107.523 20.8039 107.907 20.3779 108.411 20.0779C108.927 19.7779 109.527 19.6279 110.211 19.6279ZM109.923 27.5299C110.775 27.5299 111.435 27.2419 111.903 26.6659C112.371 26.0899 112.605 25.2739 112.605 24.2179C112.605 23.1619 112.371 22.3399 111.903 21.7519C111.435 21.1519 110.775 20.8519 109.923 20.8519C109.071 20.8519 108.411 21.1399 107.943 21.7159C107.487 22.2919 107.259 23.1139 107.259 24.1819C107.259 25.2499 107.487 26.0779 107.943 26.6659C108.411 27.2419 109.071 27.5299 109.923 27.5299ZM119.662 19.6279C121.858 19.6279 122.956 20.7799 122.956 23.0839V27.9799C122.956 28.1959 122.89 28.3699 122.758 28.5019C122.638 28.6339 122.47 28.6999 122.254 28.6999C122.038 28.6999 121.864 28.6339 121.732 28.5019C121.6 28.3699 121.534 28.1959 121.534 27.9799V27.1159C121.306 27.6319 120.958 28.0339 120.49 28.3219C120.022 28.5979 119.482 28.7359 118.87 28.7359C118.306 28.7359 117.784 28.6219 117.304 28.3939C116.836 28.1659 116.464 27.8479 116.188 27.4399C115.912 27.0319 115.774 26.5819 115.774 26.0899C115.774 25.4299 115.942 24.9199 116.278 24.5599C116.614 24.1879 117.166 23.9239 117.934 23.7679C118.702 23.5999 119.77 23.5159 121.138 23.5159H121.534V22.9219C121.534 22.2019 121.384 21.6739 121.084 21.3379C120.796 21.0019 120.322 20.8339 119.662 20.8339C118.846 20.8339 118.018 21.0559 117.178 21.4999C116.854 21.7039 116.626 21.8059 116.494 21.8059C116.35 21.8059 116.23 21.7519 116.134 21.6439C116.038 21.5359 115.99 21.3979 115.99 21.2299C115.99 21.0619 116.038 20.9179 116.134 20.7979C116.242 20.6659 116.41 20.5339 116.638 20.4019C117.058 20.1619 117.532 19.9759 118.06 19.8439C118.6 19.6999 119.134 19.6279 119.662 19.6279ZM119.068 27.5839C119.788 27.5839 120.376 27.3439 120.832 26.8639C121.3 26.3719 121.534 25.7419 121.534 24.9739V24.4519H121.21C120.154 24.4519 119.35 24.4999 118.798 24.5959C118.246 24.6799 117.85 24.8299 117.61 25.0459C117.382 25.2499 117.268 25.5559 117.268 25.9639C117.268 26.4319 117.436 26.8219 117.772 27.1339C118.12 27.4339 118.552 27.5839 119.068 27.5839ZM131.745 20.1139C131.877 19.8259 132.087 19.6819 132.375 19.6819C132.555 19.6819 132.717 19.7419 132.861 19.8619C133.005 19.9819 133.077 20.1319 133.077 20.3119C133.077 20.4199 133.053 20.5159 133.005 20.5999L127.947 31.5079C127.887 31.6399 127.797 31.7419 127.677 31.8139C127.569 31.8859 127.455 31.9219 127.335 31.9219C127.155 31.9219 126.993 31.8619 126.849 31.7419C126.717 31.6339 126.651 31.4899 126.651 31.3099C126.651 31.2139 126.675 31.1179 126.723 31.0219L127.983 28.3039L124.419 20.5999C124.371 20.5159 124.347 20.4259 124.347 20.3299C124.347 20.1499 124.425 19.9939 124.581 19.8619C124.749 19.7299 124.929 19.6639 125.121 19.6639C125.241 19.6639 125.355 19.6999 125.463 19.7719C125.583 19.8439 125.673 19.9459 125.733 20.0779L128.739 26.8279L131.745 20.1139ZM143.327 19.6279C144.095 19.6279 144.773 19.8199 145.361 20.2039C145.949 20.5879 146.405 21.1279 146.729 21.8239C147.053 22.5079 147.215 23.3059 147.215 24.2179C147.215 25.1299 147.053 25.9279 146.729 26.6119C146.405 27.2839 145.949 27.8059 145.361 28.1779C144.785 28.5499 144.107 28.7359 143.327 28.7359C142.643 28.7359 142.043 28.5859 141.527 28.2859C141.023 27.9859 140.639 27.5599 140.375 27.0079V31.2379C140.375 31.4539 140.309 31.6219 140.177 31.7419C140.057 31.8739 139.883 31.9399 139.655 31.9399C139.427 31.9399 139.247 31.8739 139.115 31.7419C138.983 31.6099 138.917 31.4419 138.917 31.2379V20.3839C138.917 20.1679 138.983 19.9939 139.115 19.8619C139.247 19.7299 139.427 19.6639 139.655 19.6639C139.883 19.6639 140.057 19.7299 140.177 19.8619C140.309 19.9939 140.375 20.1679 140.375 20.3839V21.3559C140.639 20.8039 141.023 20.3779 141.527 20.0779C142.043 19.7779 142.643 19.6279 143.327 19.6279ZM143.039 27.5299C143.891 27.5299 144.551 27.2419 145.019 26.6659C145.487 26.0899 145.721 25.2739 145.721 24.2179C145.721 23.1619 145.487 22.3399 145.019 21.7519C144.551 21.1519 143.891 20.8519 143.039 20.8519C142.187 20.8519 141.527 21.1399 141.059 21.7159C140.603 22.2919 140.375 23.1139 140.375 24.1819C140.375 25.2499 140.603 26.0779 141.059 26.6659C141.527 27.2419 142.187 27.5299 143.039 27.5299ZM155.982 26.5759C156.114 26.5759 156.228 26.6299 156.324 26.7379C156.42 26.8459 156.468 26.9839 156.468 27.1519C156.468 27.4519 156.258 27.7279 155.838 27.9799C155.406 28.2319 154.95 28.4239 154.47 28.5559C153.99 28.6759 153.522 28.7359 153.066 28.7359C151.71 28.7359 150.636 28.3339 149.844 27.5299C149.064 26.7259 148.674 25.6159 148.674 24.1999C148.674 23.2999 148.848 22.5079 149.196 21.8239C149.544 21.1279 150.03 20.5879 150.654 20.2039C151.29 19.8199 152.01 19.6279 152.814 19.6279C153.954 19.6279 154.86 19.9999 155.532 20.7439C156.204 21.4879 156.54 22.4959 156.54 23.7679C156.54 24.0079 156.492 24.1819 156.396 24.2899C156.3 24.3979 156.144 24.4519 155.928 24.4519H150.132C150.24 26.5159 151.218 27.5479 153.066 27.5479C153.534 27.5479 153.936 27.4879 154.272 27.3679C154.608 27.2359 154.968 27.0619 155.352 26.8459C155.664 26.6659 155.874 26.5759 155.982 26.5759ZM152.832 20.7619C152.064 20.7619 151.446 21.0019 150.978 21.4819C150.522 21.9619 150.252 22.6399 150.168 23.5159H155.262C155.238 22.6279 155.016 21.9499 154.596 21.4819C154.176 21.0019 153.588 20.7619 152.832 20.7619ZM162.828 19.6639C163.332 19.6279 163.584 19.8319 163.584 20.2759C163.584 20.4679 163.53 20.6239 163.422 20.7439C163.314 20.8519 163.128 20.9179 162.864 20.9419L162.324 20.9959C161.52 21.0679 160.92 21.3559 160.524 21.8599C160.14 22.3519 159.948 22.9339 159.948 23.6059V27.9799C159.948 28.2199 159.882 28.3999 159.75 28.5199C159.618 28.6399 159.444 28.6999 159.228 28.6999C159.012 28.6999 158.832 28.6399 158.688 28.5199C158.556 28.3879 158.49 28.2079 158.49 27.9799V20.3839C158.49 20.1559 158.562 19.9819 158.706 19.8619C158.85 19.7299 159.024 19.6639 159.228 19.6639C159.42 19.6639 159.582 19.7299 159.714 19.8619C159.846 19.9819 159.912 20.1499 159.912 20.3659V21.3739C160.164 20.8459 160.518 20.4439 160.974 20.1679C161.442 19.8919 161.976 19.7299 162.576 19.6819L162.828 19.6639ZM178.836 19.6279C180.78 19.6279 181.752 20.7859 181.752 23.1019V27.9799C181.752 28.2079 181.686 28.3879 181.554 28.5199C181.422 28.6399 181.248 28.6999 181.032 28.6999C180.816 28.6999 180.636 28.6399 180.492 28.5199C180.36 28.3879 180.294 28.2079 180.294 27.9799V23.1379C180.294 22.3339 180.15 21.7519 179.862 21.3919C179.574 21.0319 179.124 20.8519 178.512 20.8519C177.78 20.8519 177.204 21.0979 176.784 21.5899C176.364 22.0819 176.154 22.7479 176.154 23.5879V27.9799C176.154 28.2079 176.082 28.3879 175.938 28.5199C175.806 28.6399 175.632 28.6999 175.416 28.6999C175.2 28.6999 175.026 28.6399 174.894 28.5199C174.762 28.3879 174.696 28.2079 174.696 27.9799V23.1379C174.696 22.3339 174.552 21.7519 174.264 21.3919C173.976 21.0319 173.52 20.8519 172.896 20.8519C172.176 20.8519 171.6 21.0979 171.168 21.5899C170.748 22.0819 170.538 22.7479 170.538 23.5879V27.9799C170.538 28.2079 170.472 28.3879 170.34 28.5199C170.208 28.6399 170.034 28.6999 169.818 28.6999C169.602 28.6999 169.422 28.6399 169.278 28.5199C169.146 28.3879 169.08 28.2079 169.08 27.9799V20.3839C169.08 20.1679 169.146 19.9939 169.278 19.8619C169.422 19.7299 169.602 19.6639 169.818 19.6639C170.022 19.6639 170.19 19.7299 170.322 19.8619C170.454 19.9819 170.52 20.1499 170.52 20.3659V21.2299C170.784 20.7139 171.15 20.3179 171.618 20.0419C172.086 19.7659 172.626 19.6279 173.238 19.6279C174.606 19.6279 175.5 20.2039 175.92 21.3559C176.172 20.8279 176.556 20.4079 177.072 20.0959C177.588 19.7839 178.176 19.6279 178.836 19.6279ZM184.948 28.6999C184.732 28.6999 184.552 28.6399 184.408 28.5199C184.276 28.3879 184.21 28.2079 184.21 27.9799V20.3839C184.21 20.1559 184.276 19.9819 184.408 19.8619C184.552 19.7299 184.732 19.6639 184.948 19.6639C185.164 19.6639 185.338 19.7299 185.47 19.8619C185.602 19.9819 185.668 20.1559 185.668 20.3839V27.9799C185.668 28.2199 185.602 28.3999 185.47 28.5199C185.338 28.6399 185.164 28.6999 184.948 28.6999ZM184.948 17.7739C184.66 17.7739 184.426 17.6899 184.246 17.5219C184.066 17.3539 183.976 17.1319 183.976 16.8559C183.976 16.5919 184.066 16.3759 184.246 16.2079C184.426 16.0399 184.66 15.9559 184.948 15.9559C185.236 15.9559 185.47 16.0399 185.65 16.2079C185.83 16.3759 185.92 16.5919 185.92 16.8559C185.92 17.1319 185.83 17.3539 185.65 17.5219C185.47 17.6899 185.236 17.7739 184.948 17.7739ZM192.606 19.6279C194.706 19.6279 195.756 20.7859 195.756 23.1019V27.9799C195.756 28.2079 195.69 28.3879 195.558 28.5199C195.438 28.6399 195.264 28.6999 195.036 28.6999C194.808 28.6999 194.628 28.6399 194.496 28.5199C194.364 28.3879 194.298 28.2079 194.298 27.9799V23.1919C194.298 22.3759 194.136 21.7819 193.812 21.4099C193.5 21.0379 192.996 20.8519 192.3 20.8519C191.496 20.8519 190.854 21.0979 190.374 21.5899C189.894 22.0819 189.654 22.7479 189.654 23.5879V27.9799C189.654 28.2079 189.588 28.3879 189.456 28.5199C189.336 28.6399 189.162 28.6999 188.934 28.6999C188.706 28.6999 188.526 28.6399 188.394 28.5199C188.262 28.3879 188.196 28.2079 188.196 27.9799V20.3839C188.196 20.1679 188.262 19.9939 188.394 19.8619C188.526 19.7299 188.706 19.6639 188.934 19.6639C189.15 19.6639 189.318 19.7299 189.438 19.8619C189.57 19.9939 189.636 20.1619 189.636 20.3659V21.2839C189.924 20.7439 190.326 20.3359 190.842 20.0599C191.358 19.7719 191.946 19.6279 192.606 19.6279ZM204.889 19.6639C205.117 19.6639 205.291 19.7299 205.411 19.8619C205.543 19.9939 205.609 20.1679 205.609 20.3839V27.9979C205.609 28.2019 205.543 28.3699 205.411 28.5019C205.291 28.6339 205.117 28.6999 204.889 28.6999C204.673 28.6999 204.499 28.6399 204.367 28.5199C204.247 28.3879 204.187 28.2199 204.187 28.0159V27.1159C203.911 27.6439 203.521 28.0459 203.017 28.3219C202.525 28.5979 201.967 28.7359 201.343 28.7359C200.299 28.7359 199.513 28.4479 198.985 27.8719C198.457 27.2839 198.193 26.4199 198.193 25.2799V20.3839C198.193 20.1679 198.259 19.9939 198.391 19.8619C198.523 19.7299 198.703 19.6639 198.931 19.6639C199.159 19.6639 199.333 19.7299 199.453 19.8619C199.585 19.9939 199.651 20.1679 199.651 20.3839V25.2439C199.651 26.0239 199.807 26.5999 200.119 26.9719C200.431 27.3319 200.923 27.5119 201.595 27.5119C202.363 27.5119 202.981 27.2659 203.449 26.7739C203.917 26.2699 204.151 25.6099 204.151 24.7939V20.3839C204.151 20.1679 204.217 19.9939 204.349 19.8619C204.481 19.7299 204.661 19.6639 204.889 19.6639ZM212.17 27.5479C212.59 27.5839 212.8 27.7759 212.8 28.1239C212.8 28.3279 212.722 28.4839 212.566 28.5919C212.422 28.6879 212.2 28.7239 211.9 28.6999L211.414 28.6639C210.454 28.5919 209.746 28.3039 209.29 27.7999C208.834 27.2959 208.606 26.5339 208.606 25.5139V20.9959H207.4C207.196 20.9959 207.034 20.9479 206.914 20.8519C206.806 20.7439 206.752 20.6059 206.752 20.4379C206.752 20.2579 206.806 20.1139 206.914 20.0059C207.034 19.8979 207.196 19.8439 207.4 19.8439H208.606V17.8099C208.606 17.5819 208.672 17.4079 208.804 17.2879C208.936 17.1559 209.116 17.0899 209.344 17.0899C209.56 17.0899 209.734 17.1559 209.866 17.2879C209.998 17.4079 210.064 17.5819 210.064 17.8099V19.8439H212.062C212.254 19.8439 212.404 19.8979 212.512 20.0059C212.632 20.1139 212.692 20.2579 212.692 20.4379C212.692 20.6059 212.632 20.7439 212.512 20.8519C212.404 20.9479 212.254 20.9959 212.062 20.9959H210.064V25.5859C210.064 26.2459 210.196 26.7259 210.46 27.0259C210.736 27.3139 211.144 27.4759 211.684 27.5119L212.17 27.5479ZM220.826 26.5759C220.958 26.5759 221.072 26.6299 221.168 26.7379C221.264 26.8459 221.312 26.9839 221.312 27.1519C221.312 27.4519 221.102 27.7279 220.682 27.9799C220.25 28.2319 219.794 28.4239 219.314 28.5559C218.834 28.6759 218.366 28.7359 217.91 28.7359C216.554 28.7359 215.48 28.3339 214.688 27.5299C213.908 26.7259 213.518 25.6159 213.518 24.1999C213.518 23.2999 213.692 22.5079 214.04 21.8239C214.388 21.1279 214.874 20.5879 215.498 20.2039C216.134 19.8199 216.854 19.6279 217.658 19.6279C218.798 19.6279 219.704 19.9999 220.376 20.7439C221.048 21.4879 221.384 22.4959 221.384 23.7679C221.384 24.0079 221.336 24.1819 221.24 24.2899C221.144 24.3979 220.988 24.4519 220.772 24.4519H214.976C215.084 26.5159 216.062 27.5479 217.91 27.5479C218.378 27.5479 218.78 27.4879 219.116 27.3679C219.452 27.2359 219.812 27.0619 220.196 26.8459C220.508 26.6659 220.718 26.5759 220.826 26.5759ZM217.676 20.7619C216.908 20.7619 216.29 21.0019 215.822 21.4819C215.366 21.9619 215.096 22.6399 215.012 23.5159H220.106C220.082 22.6279 219.86 21.9499 219.44 21.4819C219.02 21.0019 218.432 20.7619 217.676 20.7619Z" fill="#A7A2B5"/>
<path d="M162.785 111.704L219.96 112.704" stroke="#585168"/>
<circle cx="235.785" cy="111.704" r="8" fill="#816FDA"/>
<path d="M257.545 96.7216C258.313 96.7216 258.991 96.9136 259.579 97.2976C260.167 97.6816 260.623 98.2216 260.947 98.9176C261.271 99.6016 261.433 100.4 261.433 101.312C261.433 102.224 261.271 103.022 260.947 103.706C260.623 104.378 260.167 104.9 259.579 105.272C259.003 105.644 258.325 105.83 257.545 105.83C256.861 105.83 256.261 105.68 255.745 105.38C255.241 105.08 254.857 104.654 254.593 104.102V108.332C254.593 108.548 254.527 108.716 254.395 108.836C254.275 108.968 254.101 109.034 253.873 109.034C253.645 109.034 253.465 108.968 253.333 108.836C253.201 108.704 253.135 108.536 253.135 108.332V97.4776C253.135 97.2616 253.201 97.0876 253.333 96.9556C253.465 96.8236 253.645 96.7576 253.873 96.7576C254.101 96.7576 254.275 96.8236 254.395 96.9556C254.527 97.0876 254.593 97.2616 254.593 97.4776V98.4496C254.857 97.8976 255.241 97.4716 255.745 97.1716C256.261 96.8716 256.861 96.7216 257.545 96.7216ZM257.257 104.624C258.109 104.624 258.769 104.336 259.237 103.76C259.705 103.184 259.939 102.368 259.939 101.312C259.939 100.256 259.705 99.4336 259.237 98.8456C258.769 98.2456 258.109 97.9456 257.257 97.9456C256.405 97.9456 255.745 98.2336 255.277 98.8096C254.821 99.3856 254.593 100.208 254.593 101.276C254.593 102.344 254.821 103.172 255.277 103.76C255.745 104.336 256.405 104.624 257.257 104.624ZM266.996 96.7216C269.192 96.7216 270.29 97.8736 270.29 100.178V105.074C270.29 105.29 270.224 105.464 270.092 105.596C269.972 105.728 269.804 105.794 269.588 105.794C269.372 105.794 269.198 105.728 269.066 105.596C268.934 105.464 268.868 105.29 268.868 105.074V104.21C268.64 104.726 268.292 105.128 267.824 105.416C267.356 105.692 266.816 105.83 266.204 105.83C265.64 105.83 265.118 105.716 264.638 105.488C264.17 105.26 263.798 104.942 263.522 104.534C263.246 104.126 263.108 103.676 263.108 103.184C263.108 102.524 263.276 102.014 263.612 101.654C263.948 101.282 264.5 101.018 265.268 100.862C266.036 100.694 267.104 100.61 268.472 100.61H268.868V100.016C268.868 99.2956 268.718 98.7676 268.418 98.4316C268.13 98.0956 267.656 97.9276 266.996 97.9276C266.18 97.9276 265.352 98.1496 264.512 98.5936C264.188 98.7976 263.96 98.8996 263.828 98.8996C263.684 98.8996 263.564 98.8456 263.468 98.7376C263.372 98.6296 263.324 98.4916 263.324 98.3236C263.324 98.1556 263.372 98.0116 263.468 97.8916C263.576 97.7596 263.744 97.6276 263.972 97.4956C264.392 97.2556 264.866 97.0696 265.394 96.9376C265.934 96.7936 266.468 96.7216 266.996 96.7216ZM266.402 104.678C267.122 104.678 267.71 104.438 268.166 103.958C268.634 103.466 268.868 102.836 268.868 102.068V101.546H268.544C267.488 101.546 266.684 101.594 266.132 101.69C265.58 101.774 265.184 101.924 264.944 102.14C264.716 102.344 264.602 102.65 264.602 103.058C264.602 103.526 264.77 103.916 265.106 104.228C265.454 104.528 265.886 104.678 266.402 104.678ZM279.079 97.2076C279.211 96.9196 279.421 96.7756 279.709 96.7756C279.889 96.7756 280.051 96.8356 280.195 96.9556C280.339 97.0756 280.411 97.2256 280.411 97.4056C280.411 97.5136 280.387 97.6096 280.339 97.6936L275.281 108.602C275.221 108.734 275.131 108.836 275.011 108.908C274.903 108.98 274.789 109.016 274.669 109.016C274.489 109.016 274.327 108.956 274.183 108.836C274.051 108.728 273.985 108.584 273.985 108.404C273.985 108.308 274.009 108.212 274.057 108.116L275.317 105.398L271.753 97.6936C271.705 97.6096 271.681 97.5196 271.681 97.4236C271.681 97.2436 271.759 97.0876 271.915 96.9556C272.083 96.8236 272.263 96.7576 272.455 96.7576C272.575 96.7576 272.689 96.7936 272.797 96.8656C272.917 96.9376 273.007 97.0396 273.067 97.1716L276.073 103.922L279.079 97.2076ZM290.661 96.7216C291.429 96.7216 292.107 96.9136 292.695 97.2976C293.283 97.6816 293.739 98.2216 294.063 98.9176C294.387 99.6016 294.549 100.4 294.549 101.312C294.549 102.224 294.387 103.022 294.063 103.706C293.739 104.378 293.283 104.9 292.695 105.272C292.119 105.644 291.441 105.83 290.661 105.83C289.977 105.83 289.377 105.68 288.861 105.38C288.357 105.08 287.973 104.654 287.709 104.102V108.332C287.709 108.548 287.643 108.716 287.511 108.836C287.391 108.968 287.217 109.034 286.989 109.034C286.761 109.034 286.581 108.968 286.449 108.836C286.317 108.704 286.251 108.536 286.251 108.332V97.4776C286.251 97.2616 286.317 97.0876 286.449 96.9556C286.581 96.8236 286.761 96.7576 286.989 96.7576C287.217 96.7576 287.391 96.8236 287.511 96.9556C287.643 97.0876 287.709 97.2616 287.709 97.4776V98.4496C287.973 97.8976 288.357 97.4716 288.861 97.1716C289.377 96.8716 289.977 96.7216 290.661 96.7216ZM290.373 104.624C291.225 104.624 291.885 104.336 292.353 103.76C292.821 103.184 293.055 102.368 293.055 101.312C293.055 100.256 292.821 99.4336 292.353 98.8456C291.885 98.2456 291.225 97.9456 290.373 97.9456C289.521 97.9456 288.861 98.2336 288.393 98.8096C287.937 99.3856 287.709 100.208 287.709 101.276C287.709 102.344 287.937 103.172 288.393 103.76C288.861 104.336 289.521 104.624 290.373 104.624ZM303.316 103.67C303.448 103.67 303.562 103.724 303.658 103.832C303.754 103.94 303.802 104.078 303.802 104.246C303.802 104.546 303.592 104.822 303.172 105.074C302.74 105.326 302.284 105.518 301.804 105.65C301.324 105.77 300.856 105.83 300.4 105.83C299.044 105.83 297.97 105.428 297.178 104.624C296.398 103.82 296.008 102.71 296.008 101.294C296.008 100.394 296.182 99.6016 296.53 98.9176C296.878 98.2216 297.364 97.6816 297.988 97.2976C298.624 96.9136 299.344 96.7216 300.148 96.7216C301.288 96.7216 302.194 97.0936 302.866 97.8376C303.538 98.5816 303.874 99.5896 303.874 100.862C303.874 101.102 303.826 101.276 303.73 101.384C303.634 101.492 303.478 101.546 303.262 101.546H297.466C297.574 103.61 298.552 104.642 300.4 104.642C300.868 104.642 301.27 104.582 301.606 104.462C301.942 104.33 302.302 104.156 302.686 103.94C302.998 103.76 303.208 103.67 303.316 103.67ZM300.166 97.8556C299.398 97.8556 298.78 98.0956 298.312 98.5756C297.856 99.0556 297.586 99.7336 297.502 100.61H302.596C302.572 99.7216 302.35 99.0436 301.93 98.5756C301.51 98.0956 300.922 97.8556 300.166 97.8556ZM310.162 96.7576C310.666 96.7216 310.918 96.9256 310.918 97.3696C310.918 97.5616 310.864 97.7176 310.756 97.8376C310.648 97.9456 310.462 98.0116 310.198 98.0356L309.658 98.0896C308.854 98.1616 308.254 98.4496 307.858 98.9536C307.474 99.4456 307.282 100.028 307.282 100.7V105.074C307.282 105.314 307.216 105.494 307.084 105.614C306.952 105.734 306.778 105.794 306.562 105.794C306.346 105.794 306.166 105.734 306.022 105.614C305.89 105.482 305.824 105.302 305.824 105.074V97.4776C305.824 97.2496 305.896 97.0756 306.04 96.9556C306.184 96.8236 306.358 96.7576 306.562 96.7576C306.754 96.7576 306.916 96.8236 307.048 96.9556C307.18 97.0756 307.246 97.2436 307.246 97.4596V98.4676C307.498 97.9396 307.852 97.5376 308.308 97.2616C308.776 96.9856 309.31 96.8236 309.91 96.7756L310.162 96.7576ZM257.563 119.722C258.595 119.722 259.375 120.016 259.903 120.604C260.431 121.18 260.695 122.044 260.695 123.196V128.074C260.695 128.302 260.629 128.482 260.497 128.614C260.365 128.734 260.191 128.794 259.975 128.794C259.747 128.794 259.567 128.734 259.435 128.614C259.303 128.482 259.237 128.302 259.237 128.074V123.232C259.237 122.452 259.075 121.876 258.751 121.504C258.439 121.132 257.935 120.946 257.239 120.946C256.435 120.946 255.793 121.192 255.313 121.684C254.833 122.176 254.593 122.842 254.593 123.682V128.074C254.593 128.302 254.527 128.482 254.395 128.614C254.275 128.734 254.101 128.794 253.873 128.794C253.645 128.794 253.465 128.734 253.333 128.614C253.201 128.482 253.135 128.302 253.135 128.074V116.626C253.135 116.422 253.201 116.254 253.333 116.122C253.477 115.99 253.657 115.924 253.873 115.924C254.101 115.924 254.275 115.99 254.395 116.122C254.527 116.242 254.593 116.41 254.593 116.626V121.342C254.881 120.814 255.283 120.412 255.799 120.136C256.315 119.86 256.903 119.722 257.563 119.722ZM266.804 128.83C265.976 128.83 265.244 128.644 264.608 128.272C263.984 127.9 263.498 127.372 263.15 126.688C262.814 125.992 262.646 125.188 262.646 124.276C262.646 123.364 262.814 122.566 263.15 121.882C263.498 121.186 263.984 120.652 264.608 120.28C265.244 119.908 265.976 119.722 266.804 119.722C267.632 119.722 268.364 119.908 269 120.28C269.636 120.652 270.122 121.186 270.458 121.882C270.806 122.566 270.98 123.364 270.98 124.276C270.98 125.188 270.806 125.992 270.458 126.688C270.122 127.372 269.636 127.9 269 128.272C268.364 128.644 267.632 128.83 266.804 128.83ZM266.804 127.624C267.668 127.624 268.328 127.342 268.784 126.778C269.252 126.202 269.486 125.368 269.486 124.276C269.486 123.208 269.252 122.386 268.784 121.81C268.316 121.222 267.656 120.928 266.804 120.928C265.952 120.928 265.292 121.222 264.824 121.81C264.356 122.386 264.122 123.208 264.122 124.276C264.122 125.356 264.35 126.184 264.806 126.76C265.274 127.336 265.94 127.624 266.804 127.624ZM279.614 119.758C279.842 119.758 280.016 119.824 280.136 119.956C280.268 120.088 280.334 120.262 280.334 120.478V128.092C280.334 128.296 280.268 128.464 280.136 128.596C280.016 128.728 279.842 128.794 279.614 128.794C279.398 128.794 279.224 128.734 279.092 128.614C278.972 128.482 278.912 128.314 278.912 128.11V127.21C278.636 127.738 278.246 128.14 277.742 128.416C277.25 128.692 276.692 128.83 276.068 128.83C275.024 128.83 274.238 128.542 273.71 127.966C273.182 127.378 272.918 126.514 272.918 125.374V120.478C272.918 120.262 272.984 120.088 273.116 119.956C273.248 119.824 273.428 119.758 273.656 119.758C273.884 119.758 274.058 119.824 274.178 119.956C274.31 120.088 274.376 120.262 274.376 120.478V125.338C274.376 126.118 274.532 126.694 274.844 127.066C275.156 127.426 275.648 127.606 276.32 127.606C277.088 127.606 277.706 127.36 278.174 126.868C278.642 126.364 278.876 125.704 278.876 124.888V120.478C278.876 120.262 278.942 120.088 279.074 119.956C279.206 119.824 279.386 119.758 279.614 119.758ZM287.184 119.758C287.688 119.722 287.94 119.926 287.94 120.37C287.94 120.562 287.886 120.718 287.778 120.838C287.67 120.946 287.484 121.012 287.22 121.036L286.68 121.09C285.876 121.162 285.276 121.45 284.88 121.954C284.496 122.446 284.304 123.028 284.304 123.7V128.074C284.304 128.314 284.238 128.494 284.106 128.614C283.974 128.734 283.8 128.794 283.584 128.794C283.368 128.794 283.188 128.734 283.044 128.614C282.912 128.482 282.846 128.302 282.846 128.074V120.478C282.846 120.25 282.918 120.076 283.062 119.956C283.206 119.824 283.38 119.758 283.584 119.758C283.776 119.758 283.938 119.824 284.07 119.956C284.202 120.076 284.268 120.244 284.268 120.46V121.468C284.52 120.94 284.874 120.538 285.33 120.262C285.798 119.986 286.332 119.824 286.932 119.776L287.184 119.758Z" fill="#A7A2B5"/>
<path d="M199.129 171.704H220.304" stroke="#585168"/>
<circle cx="236.129" cy="172.204" r="8" fill="#816FDA"/>
<path d="M288.775 177.848C287.575 177.848 286.537 177.59 285.661 177.074C284.785 176.546 284.107 175.796 283.627 174.824C283.159 173.84 282.925 172.682 282.925 171.35C282.925 170.03 283.159 168.884 283.627 167.912C284.107 166.928 284.785 166.178 285.661 165.662C286.537 165.134 287.575 164.87 288.775 164.87C289.579 164.87 290.335 165.002 291.043 165.266C291.763 165.518 292.387 165.884 292.915 166.364C293.107 166.544 293.203 166.754 293.203 166.994C293.203 167.162 293.155 167.312 293.059 167.444C292.963 167.564 292.849 167.624 292.717 167.624C292.573 167.624 292.399 167.558 292.195 167.426C291.583 166.946 291.025 166.61 290.521 166.418C290.029 166.226 289.459 166.13 288.811 166.13C287.419 166.13 286.345 166.586 285.589 167.498C284.845 168.398 284.473 169.682 284.473 171.35C284.473 173.03 284.845 174.326 285.589 175.238C286.345 176.138 287.419 176.588 288.811 176.588C289.447 176.588 290.017 176.492 290.521 176.3C291.025 176.108 291.583 175.772 292.195 175.292C292.399 175.16 292.573 175.094 292.717 175.094C292.849 175.094 292.963 175.154 293.059 175.274C293.155 175.394 293.203 175.544 293.203 175.724C293.203 175.964 293.107 176.174 292.915 176.354C292.387 176.834 291.763 177.206 291.043 177.47C290.335 177.722 289.579 177.848 288.775 177.848ZM298.567 168.722C300.763 168.722 301.861 169.874 301.861 172.178V177.074C301.861 177.29 301.795 177.464 301.663 177.596C301.543 177.728 301.375 177.794 301.159 177.794C300.943 177.794 300.769 177.728 300.637 177.596C300.505 177.464 300.439 177.29 300.439 177.074V176.21C300.211 176.726 299.863 177.128 299.395 177.416C298.927 177.692 298.387 177.83 297.775 177.83C297.211 177.83 296.689 177.716 296.209 177.488C295.741 177.26 295.369 176.942 295.093 176.534C294.817 176.126 294.679 175.676 294.679 175.184C294.679 174.524 294.847 174.014 295.183 173.654C295.519 173.282 296.071 173.018 296.839 172.862C297.607 172.694 298.675 172.61 300.043 172.61H300.439V172.016C300.439 171.296 300.289 170.768 299.989 170.432C299.701 170.096 299.227 169.928 298.567 169.928C297.751 169.928 296.923 170.15 296.083 170.594C295.759 170.798 295.531 170.9 295.399 170.9C295.255 170.9 295.135 170.846 295.039 170.738C294.943 170.63 294.895 170.492 294.895 170.324C294.895 170.156 294.943 170.012 295.039 169.892C295.147 169.76 295.315 169.628 295.543 169.496C295.963 169.256 296.437 169.07 296.965 168.938C297.505 168.794 298.039 168.722 298.567 168.722ZM297.973 176.678C298.693 176.678 299.281 176.438 299.737 175.958C300.205 175.466 300.439 174.836 300.439 174.068V173.546H300.115C299.059 173.546 298.255 173.594 297.703 173.69C297.151 173.774 296.755 173.924 296.515 174.14C296.287 174.344 296.173 174.65 296.173 175.058C296.173 175.526 296.341 175.916 296.677 176.228C297.025 176.528 297.457 176.678 297.973 176.678ZM308.67 168.758C309.174 168.722 309.426 168.926 309.426 169.37C309.426 169.562 309.372 169.718 309.264 169.838C309.156 169.946 308.97 170.012 308.706 170.036L308.166 170.09C307.362 170.162 306.762 170.45 306.366 170.954C305.982 171.446 305.79 172.028 305.79 172.7V177.074C305.79 177.314 305.724 177.494 305.592 177.614C305.46 177.734 305.286 177.794 305.07 177.794C304.854 177.794 304.674 177.734 304.53 177.614C304.398 177.482 304.332 177.302 304.332 177.074V169.478C304.332 169.25 304.404 169.076 304.548 168.956C304.692 168.824 304.866 168.758 305.07 168.758C305.262 168.758 305.424 168.824 305.556 168.956C305.688 169.076 305.754 169.244 305.754 169.46V170.468C306.006 169.94 306.36 169.538 306.816 169.262C307.284 168.986 307.818 168.824 308.418 168.776L308.67 168.758ZM317.342 164.924C317.57 164.924 317.75 164.99 317.882 165.122C318.014 165.254 318.08 165.422 318.08 165.626V177.074C318.08 177.29 318.014 177.464 317.882 177.596C317.75 177.728 317.57 177.794 317.342 177.794C317.114 177.794 316.934 177.728 316.802 177.596C316.682 177.464 316.622 177.29 316.622 177.074V176.102C316.358 176.654 315.968 177.08 315.452 177.38C314.948 177.68 314.354 177.83 313.67 177.83C312.902 177.83 312.224 177.638 311.636 177.254C311.048 176.87 310.592 176.336 310.268 175.652C309.944 174.956 309.782 174.152 309.782 173.24C309.782 172.34 309.944 171.548 310.268 170.864C310.592 170.18 311.048 169.652 311.636 169.28C312.224 168.908 312.902 168.722 313.67 168.722C314.354 168.722 314.948 168.872 315.452 169.172C315.968 169.472 316.358 169.898 316.622 170.45V165.626C316.622 165.41 316.682 165.242 316.802 165.122C316.934 164.99 317.114 164.924 317.342 164.924ZM313.958 176.624C314.81 176.624 315.464 176.336 315.92 175.76C316.388 175.172 316.622 174.344 316.622 173.276C316.622 172.208 316.388 171.386 315.92 170.81C315.464 170.234 314.81 169.946 313.958 169.946C313.106 169.946 312.44 170.234 311.96 170.81C311.492 171.386 311.258 172.196 311.258 173.24C311.258 174.308 311.492 175.142 311.96 175.742C312.44 176.33 313.106 176.624 313.958 176.624Z" fill="#A7A2B5"/>
<path d="M103.441 188.797H203.441C203.441 244.026 158.67 288.797 103.441 288.797C48.2129 288.797 3.44141 244.026 3.44141 188.797C3.44141 133.569 48.2129 88.7974 103.441 88.7974C121.72 88.7974 139.65 93.8074 155.281 103.283L103.441 188.797Z" fill="#816FDA" stroke="white"/>
<path d="M103.442 188.797L155.282 103.283C169.983 112.195 182.138 124.747 190.574 139.726L103.442 188.797Z" fill="#65E891" stroke="white"/>
<path d="M103.441 188.797L190.573 139.726C199.009 154.705 203.441 171.606 203.441 188.797H103.441Z" fill="#F8D47C" stroke="white"/>
</g>
<defs>
<clipPath id="clip0_408_9966">
<rect width="339.416" height="300" fill="white" transform="translate(0.441406 0.109863)"/>
</clipPath>
</defs>
</svg>
