<svg width="103" height="81" viewBox="0 0 103 81" fill="none" xmlns="http://www.w3.org/2000/svg">
<path d="M22.704 80.5235C18.0623 80.5235 14.026 79.3127 10.5952 76.8909C7.16437 74.2673 4.5408 70.7356 2.72448 66.2957C0.90816 61.8558 0 56.8105 0 51.1597C0 44.298 1.10997 37.7391 3.32992 31.4829C5.75168 25.0249 9.38432 19.0714 14.2278 13.6224C19.0714 8.17344 25.3276 3.63264 32.9965 0L45.7107 11.8061C40.2618 13.6224 35.4182 16.1451 31.1802 19.3741C27.1439 22.6031 23.814 26.2357 21.1904 30.272C18.7686 34.3083 17.0532 38.4454 16.0442 42.6835L17.255 43.289C18.0623 42.6835 19.0714 42.179 20.2822 41.7754C21.4931 41.3717 23.3094 41.1699 25.7312 41.1699C28.153 41.1699 30.6756 41.8763 33.2992 43.289C35.9228 44.7017 38.0418 46.8207 39.6563 49.6461C41.4726 52.2697 42.3808 55.8014 42.3808 60.2413C42.3808 63.8739 41.4726 67.2038 39.6563 70.231C38.0418 73.2582 35.721 75.7809 32.6938 77.799C29.6666 79.6154 26.3366 80.5235 22.704 80.5235ZM79.6154 80.5235C74.9737 80.5235 70.9374 79.3127 67.5066 76.8909C64.0757 74.2673 61.4522 70.7356 59.6358 66.2957C57.8195 61.8558 56.9114 56.8105 56.9114 51.1597C56.9114 44.298 58.0213 37.7391 60.2413 31.4829C62.663 25.0249 66.2957 19.0714 71.1392 13.6224C75.9827 8.17344 82.2389 3.63264 89.9079 0L102.622 11.8061C97.1731 13.6224 92.3296 16.1451 88.0915 19.3741C84.0553 22.6031 80.7253 26.2357 78.1018 30.272C75.68 34.3083 73.9646 38.4454 72.9555 42.6835L74.1664 43.289C74.9737 42.6835 75.9827 42.179 77.1936 41.7754C78.4045 41.3717 80.2208 41.1699 82.6426 41.1699C85.0643 41.1699 87.587 41.8763 90.2106 43.289C92.8341 44.7017 94.9532 46.8207 96.5677 49.6461C98.384 52.2697 99.2922 55.8014 99.2922 60.2413C99.2922 63.8739 98.384 67.2038 96.5677 70.231C94.9532 73.2582 92.6323 75.7809 89.6051 77.799C86.5779 79.6154 83.248 80.5235 79.6154 80.5235Z" fill="#FBBC04"/>
</svg>
