<svg width="231" height="232" viewBox="0 0 231 232" fill="none" xmlns="http://www.w3.org/2000/svg">
<rect width="230.876" height="230.876" transform="translate(0 0.890625)" fill="#F8F9F6"/>
<g clip-path="url(#clip0_367_7662)">
<path d="M54.9607 25.8787C54.4166 25.8914 53.8756 25.7926 53.3708 25.5883C52.866 25.384 52.4079 25.0785 52.0246 24.6904C51.6414 24.3024 51.3409 23.84 51.1415 23.3314C50.9422 22.8229 50.8482 22.2788 50.8653 21.7326C50.8512 21.1898 50.9471 20.6499 51.1472 20.1455C51.3473 19.6412 51.6474 19.1829 52.0292 18.7985C52.4097 18.4077 52.8665 18.1 53.3709 17.8947C53.8754 17.6895 54.4166 17.5911 54.9607 17.6057C55.5056 17.5922 56.0465 17.7014 56.5439 17.9253C57.0412 18.1492 57.4823 18.4821 57.8347 18.8995L57.1306 19.6066C56.8723 19.2787 56.5421 19.0153 56.1657 18.8367C55.7893 18.6582 55.3769 18.5694 54.9607 18.5773C54.5551 18.5673 54.1516 18.6407 53.7752 18.7929C53.3988 18.9451 53.0573 19.1729 52.7717 19.4623C52.4799 19.761 52.2521 20.1165 52.1021 20.507C51.9522 20.8974 51.8834 21.3145 51.8999 21.7326C51.8821 22.1523 51.9502 22.5712 52.1002 22.9634C52.2502 23.3555 52.4787 23.7126 52.7717 24.0125C53.0566 24.3028 53.398 24.5312 53.7746 24.6835C54.1512 24.8357 54.5549 24.9086 54.9607 24.8975C55.4211 24.8953 55.8752 24.7895 56.2896 24.5881C56.7041 24.3867 57.0683 24.0947 57.3557 23.7335L58.0934 24.455C57.72 24.9032 57.2499 25.2602 56.7187 25.4987C56.1673 25.7528 55.5673 25.8825 54.9607 25.8787ZM59.928 17.7836V25.7056H58.9125V17.7836H59.928ZM60.7998 22.9928C60.7887 22.6131 60.8524 22.2349 60.9872 21.88C61.122 21.5251 61.3253 21.2004 61.5853 20.9245C61.8427 20.6567 62.1528 20.4457 62.4959 20.3049C62.839 20.1641 63.2075 20.0967 63.578 20.1068C63.9471 20.0962 64.3143 20.1635 64.6559 20.3044C64.9975 20.4452 65.3059 20.6565 65.561 20.9245C65.8237 21.1987 66.029 21.5231 66.1647 21.8783C66.3005 22.2335 66.364 22.6125 66.3514 22.9928C66.3653 23.3732 66.3025 23.7526 66.1667 24.108C66.0308 24.4634 65.8248 24.7876 65.561 25.061C65.3066 25.33 64.9984 25.5419 64.6566 25.6829C64.3148 25.8238 63.9472 25.8905 63.578 25.8787C63.2073 25.8901 62.8385 25.8232 62.4952 25.6823C62.1519 25.5414 61.842 25.3298 61.5853 25.061C61.3253 24.7852 61.122 24.4605 60.9872 24.1055C60.8524 23.7506 60.7887 23.3725 60.7998 22.9928ZM61.8152 22.9928C61.7919 23.513 61.9745 24.0213 62.323 24.4069C62.4842 24.5787 62.6787 24.7156 62.8945 24.8091C63.1103 24.9027 63.3429 24.9509 63.578 24.9509C63.813 24.9509 64.0456 24.9027 64.2614 24.8091C64.4773 24.7156 64.6717 24.5787 64.833 24.4069C65.1815 24.0213 65.364 23.513 65.3407 22.9928C65.363 22.4756 65.1805 21.9706 64.833 21.5883C64.6732 21.4139 64.4792 21.2748 64.2632 21.1796C64.0472 21.0844 63.8139 21.0352 63.578 21.0352C63.3421 21.0352 63.1087 21.0844 62.8927 21.1796C62.6767 21.2748 62.4827 21.4139 62.323 21.5883C61.9755 21.9706 61.7929 22.4756 61.8152 22.9928ZM71.9557 25.7056H70.9977V24.9504H70.9498C70.7785 25.2327 70.5333 25.4623 70.2409 25.6142C69.937 25.7871 69.5938 25.8782 69.2446 25.8787C68.9645 25.8969 68.6837 25.8558 68.4205 25.7581C68.1572 25.6603 67.9174 25.508 67.7166 25.3112C67.337 24.8603 67.1464 24.2793 67.1849 23.6902V20.2896H68.1956V23.6277C68.1744 23.8084 68.1946 23.9916 68.2545 24.1633C68.3144 24.335 68.4125 24.4908 68.5413 24.6187C68.6702 24.7467 68.8263 24.8435 68.998 24.9018C69.1696 24.9601 69.3522 24.9784 69.532 24.9552C69.7259 24.9586 69.9181 24.917 70.0934 24.8335C70.2687 24.7501 70.4225 24.6271 70.5427 24.4742C70.8159 24.1438 70.9606 23.7251 70.9498 23.2958V20.2896H71.9653L71.9557 25.7056ZM75.3854 25.8787C75.0406 25.8786 74.6999 25.8038 74.3866 25.6594C74.0733 25.515 73.7947 25.3043 73.57 25.0418C73.0667 24.48 72.7931 23.7483 72.8036 22.9928C72.7871 22.2411 73.054 21.511 73.5508 20.9486C73.7739 20.6837 74.052 20.4711 74.3656 20.3257C74.6792 20.1803 75.0208 20.1056 75.3662 20.1068C75.7441 20.1004 76.1176 20.188 76.4536 20.3617C76.7613 20.5141 77.0227 20.7467 77.2104 21.0351H77.2535L77.2295 20.2896V17.7836H78.2402V25.7056H77.2822V24.9504H77.2391C77.0514 25.2389 76.7901 25.4714 76.4823 25.6238C76.1435 25.7991 75.7665 25.8868 75.3854 25.8787ZM75.553 24.9504C75.7842 24.9579 76.0141 24.9129 76.2256 24.8188C76.4371 24.7247 76.6247 24.5839 76.7745 24.4069C77.1095 24.015 77.2811 23.5085 77.2535 22.9928C77.2766 22.4806 77.1055 21.9787 76.7745 21.5883C76.6252 21.41 76.4379 21.2678 76.2265 21.172C76.0151 21.0763 75.7849 21.0295 75.553 21.0351C75.3215 21.0315 75.092 21.0793 74.8808 21.1749C74.6697 21.2705 74.4822 21.4116 74.3316 21.5883C74.0006 21.9787 73.8294 22.4806 73.8526 22.9928C73.826 23.5054 73.9976 24.0086 74.3316 24.3973C74.4822 24.5739 74.6697 24.7151 74.8808 24.8107C75.092 24.9063 75.3215 24.954 75.553 24.9504Z" fill="#5F6368"/>
<path d="M16.5184 25.8783C15.3265 25.8822 14.181 25.4144 13.3301 24.5763C12.4793 23.7381 11.9915 22.597 11.9727 21.4003C11.9915 20.2035 12.4793 19.0624 13.3301 18.2243C14.181 17.3861 15.3265 16.9183 16.5184 16.9222C17.0863 16.9127 17.6505 17.0172 18.1777 17.2294C18.7049 17.4417 19.1847 17.7575 19.5888 18.1584L18.7218 19.0193C18.1307 18.4478 17.339 18.1332 16.5184 18.1439C16.0935 18.1426 15.6726 18.2262 15.2802 18.3897C14.8878 18.5533 14.5317 18.7935 14.2326 19.0966C13.9335 19.3996 13.6974 19.7593 13.538 20.1548C13.3787 20.5503 13.2992 20.9736 13.3043 21.4003C13.2992 21.8269 13.3787 22.2502 13.538 22.6457C13.6974 23.0412 13.9335 23.4009 14.2326 23.704C14.5317 24.007 14.8878 24.2472 15.2802 24.4108C15.6726 24.5743 16.0935 24.6579 16.5184 24.6566C16.9369 24.6738 17.3544 24.6027 17.7439 24.4477C18.1333 24.2928 18.4861 24.0575 18.7793 23.7571C19.1701 23.3338 19.4051 22.789 19.4451 22.2131H16.5184V20.9962H20.6378C20.6827 21.2486 20.7036 21.5047 20.7001 21.761C20.7325 22.8166 20.3506 23.8426 19.6367 24.6181C19.2349 25.0372 18.7493 25.3662 18.2119 25.5834C17.6744 25.8006 17.0973 25.9011 16.5184 25.8783Z" fill="#4285F4"/>
<path d="M27.071 22.9924C27.0867 23.3771 27.0248 23.7611 26.889 24.1212C26.7533 24.4813 26.5464 24.8101 26.2809 25.088C26.0153 25.3658 25.6966 25.5868 25.3438 25.7378C24.9911 25.8888 24.6116 25.9667 24.2281 25.9667C23.8446 25.9667 23.4651 25.8888 23.1123 25.7378C22.7596 25.5868 22.4409 25.3658 22.1753 25.088C21.9098 24.8101 21.7029 24.4813 21.5671 24.1212C21.4314 23.7611 21.3695 23.3771 21.3852 22.9924C21.3695 22.6076 21.4314 22.2237 21.5671 21.8635C21.7029 21.5034 21.9098 21.1746 22.1753 20.8968C22.4409 20.6189 22.7596 20.3979 23.1123 20.2469C23.4651 20.0959 23.8446 20.0181 24.2281 20.0181C24.6116 20.0181 24.9911 20.0959 25.3438 20.2469C25.6966 20.3979 26.0153 20.6189 26.2809 20.8968C26.5464 21.1746 26.7533 21.5034 26.889 21.8635C27.0248 22.2237 27.0867 22.6076 27.071 22.9924ZM25.8256 22.9924C25.8467 22.7689 25.8211 22.5435 25.7504 22.3306C25.6798 22.1177 25.5656 21.9219 25.4152 21.7559C25.2648 21.5898 25.0815 21.4572 24.8771 21.3664C24.6727 21.2756 24.4516 21.2287 24.2281 21.2287C24.0046 21.2287 23.7835 21.2756 23.5791 21.3664C23.3747 21.4572 23.1914 21.5898 23.041 21.7559C22.8906 21.9219 22.7764 22.1177 22.7057 22.3306C22.6351 22.5435 22.6095 22.7689 22.6306 22.9924C22.6095 23.2158 22.6351 23.4412 22.7057 23.6541C22.7764 23.8671 22.8906 24.0628 23.041 24.2289C23.1914 24.3949 23.3747 24.5276 23.5791 24.6183C23.7835 24.7091 24.0046 24.756 24.2281 24.756C24.4516 24.756 24.6727 24.7091 24.8771 24.6183C25.0815 24.5276 25.2648 24.3949 25.4152 24.2289C25.5656 24.0628 25.6798 23.8671 25.7504 23.6541C25.8211 23.4412 25.8467 23.2158 25.8256 22.9924Z" fill="#EA4335"/>
<path d="M33.446 22.9924C33.4617 23.3771 33.3998 23.7611 33.264 24.1212C33.1283 24.4813 32.9214 24.8101 32.6559 25.088C32.3903 25.3658 32.0716 25.5868 31.7188 25.7378C31.3661 25.8888 30.9866 25.9667 30.6031 25.9667C30.2196 25.9667 29.8401 25.8888 29.4873 25.7378C29.1346 25.5868 28.8159 25.3658 28.5503 25.088C28.2848 24.8101 28.0779 24.4813 27.9421 24.1212C27.8064 23.7611 27.7445 23.3771 27.7602 22.9924C27.7445 22.6076 27.8064 22.2237 27.9421 21.8635C28.0779 21.5034 28.2848 21.1746 28.5503 20.8968C28.8159 20.6189 29.1346 20.3979 29.4873 20.2469C29.8401 20.0959 30.2196 20.0181 30.6031 20.0181C30.9866 20.0181 31.3661 20.0959 31.7188 20.2469C32.0716 20.3979 32.3903 20.6189 32.6559 20.8968C32.9214 21.1746 33.1283 21.5034 33.264 21.8635C33.3998 22.2237 33.4617 22.6076 33.446 22.9924ZM32.2006 22.9924C32.2176 22.7709 32.1889 22.5484 32.1163 22.3386C32.0436 22.1288 31.9286 21.9364 31.7783 21.7734C31.6281 21.6105 31.446 21.4804 31.2433 21.3915C31.0406 21.3025 30.8219 21.2566 30.6007 21.2566C30.3795 21.2566 30.1607 21.3025 29.9581 21.3915C29.7554 21.4804 29.5733 21.6105 29.423 21.7734C29.2728 21.9364 29.1578 22.1288 29.0851 22.3386C29.0124 22.5484 28.9837 22.7709 29.0008 22.9924C28.9837 23.2138 29.0124 23.4364 29.0851 23.6461C29.1578 23.8559 29.2728 24.0483 29.423 24.2113C29.5733 24.3743 29.7554 24.5043 29.9581 24.5932C30.1607 24.6822 30.3795 24.7281 30.6007 24.7281C30.8219 24.7281 31.0406 24.6822 31.2433 24.5932C31.446 24.5043 31.6281 24.3743 31.7783 24.2113C31.9286 24.0483 32.0436 23.8559 32.1163 23.6461C32.1889 23.4364 32.2176 23.2138 32.2006 22.9924Z" fill="#FBBC04"/>
<path d="M39.66 20.2888V25.4643C39.66 27.5903 38.4003 28.4657 36.9154 28.4657C36.3689 28.4687 35.8339 28.3084 35.3784 28.0052C34.9229 27.702 34.5675 27.2696 34.3575 26.763L35.464 26.282C35.5755 26.5769 35.7715 26.832 36.0272 27.0152C36.283 27.1984 36.587 27.3014 36.901 27.3113C37.859 27.3113 38.4434 26.7197 38.4434 25.6182V25.2046H38.4146C38.223 25.4217 37.9867 25.5944 37.722 25.7106C37.4573 25.8269 37.1707 25.884 36.8818 25.878C36.1196 25.878 35.3886 25.5739 34.8496 25.0327C34.3106 24.4915 34.0078 23.7574 34.0078 22.992C34.0078 22.2266 34.3106 21.4926 34.8496 20.9513C35.3886 20.4101 36.1196 20.1061 36.8818 20.1061C37.1697 20.1007 37.4553 20.1572 37.7197 20.2716C37.984 20.3861 38.2209 20.556 38.4146 20.7698H38.4577V20.2888H39.66ZM38.544 23.0112C38.5616 22.7932 38.5353 22.5738 38.4667 22.3661C38.398 22.1585 38.2885 21.9668 38.1446 21.8025C38.0007 21.6383 37.8253 21.5048 37.6289 21.41C37.4326 21.3152 37.2192 21.2611 37.0016 21.2508C36.7805 21.2588 36.5632 21.3109 36.3624 21.4041C36.1616 21.4972 35.9813 21.6296 35.8319 21.7934C35.6826 21.9573 35.5672 22.1494 35.4925 22.3584C35.4178 22.5675 35.3853 22.7894 35.3969 23.0112C35.3866 23.2316 35.4202 23.4517 35.4957 23.6589C35.5711 23.866 35.6869 24.056 35.8363 24.2176C35.9857 24.3793 36.1657 24.5094 36.3658 24.6004C36.5659 24.6914 36.782 24.7415 37.0016 24.7476C37.2184 24.7399 37.4313 24.6881 37.6276 24.5954C37.8239 24.5027 37.9994 24.371 38.1436 24.2082C38.2877 24.0455 38.3976 23.8551 38.4664 23.6485C38.5352 23.442 38.5616 23.2235 38.544 23.0064V23.0112Z" fill="#4285F4"/>
<path d="M41.8778 17.2302V25.7053H40.6133V17.2302H41.8778Z" fill="#34A853"/>
<path d="M46.8567 23.9449L47.8434 24.6183C47.58 25.0131 47.2235 25.3364 46.8057 25.5596C46.3879 25.7828 45.9216 25.899 45.4484 25.8977C45.0719 25.9031 44.6983 25.8318 44.3501 25.688C44.0019 25.5442 43.6863 25.3309 43.4226 25.0611C43.1588 24.7914 42.9523 24.4706 42.8156 24.1184C42.6788 23.7661 42.6147 23.3897 42.6271 23.0118C42.571 22.3622 42.7549 21.7146 43.1438 21.1924C43.5327 20.6702 44.0994 20.31 44.7358 20.1804C45.3722 20.0508 46.0338 20.1609 46.5946 20.4897C47.1553 20.8185 47.576 21.343 47.7763 21.9632L47.9057 22.2951L44.0737 23.8872C44.1931 24.1567 44.3901 24.3841 44.6394 24.5401C44.8887 24.6962 45.1788 24.7736 45.4723 24.7626C45.7534 24.7562 46.0281 24.6777 46.2704 24.5346C46.5127 24.3915 46.7145 24.1885 46.8567 23.9449ZM43.8342 22.906L46.4112 21.8382C46.308 21.6466 46.1518 21.4892 45.9613 21.3851C45.7709 21.2809 45.5544 21.2345 45.3382 21.2514C45.1312 21.2606 44.928 21.3108 44.7403 21.399C44.5527 21.4872 44.3841 21.6117 44.2444 21.7654C44.1047 21.9191 43.9966 22.0989 43.9262 22.2947C43.8558 22.4904 43.8245 22.6981 43.8342 22.906Z" fill="#EA4335"/>
</g>
<path d="M21.3314 93.9566C20.3834 93.9566 19.4574 93.8133 18.5535 93.5267C17.6717 93.2621 16.8449 92.8543 16.0733 92.3031C15.3237 91.752 14.6623 91.0685 14.0891 90.2528C13.5159 89.4371 13.075 88.4891 12.7663 87.4088L16.3379 85.9537C16.4922 86.571 16.7126 87.1553 16.9993 87.7064C17.3079 88.2355 17.6717 88.6985 18.0906 89.0954C18.5315 89.4922 19.0165 89.8119 19.5456 90.0544C20.0968 90.2748 20.7031 90.3851 21.3645 90.3851C21.9156 90.3851 22.4447 90.3189 22.9518 90.1867C23.4589 90.0323 23.8998 89.8119 24.2746 89.5253C24.6494 89.2387 24.947 88.8859 25.1675 88.467C25.41 88.0482 25.5312 87.5631 25.5312 87.012C25.5312 86.5269 25.4431 86.086 25.2667 85.6892C25.0903 85.2923 24.8147 84.9286 24.4399 84.5979C24.0651 84.2672 23.5691 83.9585 22.9518 83.6719C22.3345 83.3633 21.5959 83.0546 20.7361 82.746L19.248 82.2169C18.6086 81.9964 17.9473 81.7098 17.2638 81.357C16.6024 80.9823 15.9961 80.5413 15.445 80.0343C14.9159 79.5051 14.4749 78.8878 14.1222 78.1824C13.7915 77.4769 13.6261 76.6501 13.6261 75.7021C13.6261 74.8203 13.8025 73.9935 14.1553 73.2219C14.53 72.4282 15.0481 71.7338 15.7095 71.1385C16.3709 70.5433 17.1536 70.0803 18.0575 69.7496C18.9834 69.3968 19.9976 69.2205 21.0999 69.2205C22.2463 69.2205 23.2494 69.3858 24.1092 69.7165C24.9911 70.0252 25.7297 70.422 26.3249 70.907C26.9202 71.392 27.3942 71.9322 27.7469 72.5274C28.1217 73.1006 28.3973 73.6408 28.5737 74.1478L25.2005 75.5698C25.0903 75.2391 24.925 74.9085 24.7045 74.5778C24.5061 74.225 24.2415 73.9164 23.9108 73.6518C23.5801 73.3872 23.1833 73.1668 22.7203 72.9904C22.2794 72.814 21.7613 72.7259 21.166 72.7259C20.6369 72.7259 20.1409 72.803 19.6779 72.9573C19.2149 73.0896 18.8071 73.288 18.4543 73.5526C18.1236 73.8172 17.8591 74.1258 17.6606 74.4785C17.4622 74.8313 17.363 75.2171 17.363 75.636C17.363 76.4738 17.7047 77.1572 18.3882 77.6863C19.0937 78.1934 20.1188 78.6784 21.4637 79.1414L22.9518 79.6705C23.8778 79.9791 24.7265 80.3429 25.4982 80.7618C26.2698 81.1807 26.9422 81.6877 27.5154 82.283C28.0886 82.8562 28.5296 83.5286 28.8382 84.3002C29.1689 85.0719 29.3343 85.9648 29.3343 86.9789C29.3343 88.2135 29.0807 89.2717 28.5737 90.1536C28.0886 91.0134 27.4603 91.7299 26.6887 92.3031C25.9171 92.8763 25.0572 93.2952 24.1092 93.5598C23.1612 93.8243 22.2353 93.9566 21.3314 93.9566ZM47.4714 89.2938C47.1628 89.9331 46.777 90.5394 46.314 91.1126C45.8731 91.6638 45.344 92.1598 44.7267 92.6007C44.1314 93.0196 43.4369 93.3503 42.6433 93.5928C41.8496 93.8354 40.9788 93.9566 40.0308 93.9566C38.7962 93.9566 37.6608 93.7472 36.6246 93.3283C35.5884 92.8874 34.6955 92.2811 33.9459 91.5094C33.1963 90.7378 32.6121 89.8229 32.1932 88.7647C31.7744 87.7064 31.5649 86.56 31.5649 85.3254C31.5649 84.0908 31.7744 82.9444 32.1932 81.8862C32.6121 80.8279 33.1963 79.913 33.9459 79.1414C34.6955 78.3697 35.5884 77.7745 36.6246 77.3556C37.6608 76.9147 38.7962 76.6942 40.0308 76.6942C40.9788 76.6942 41.8386 76.8155 42.6102 77.058C43.4039 77.3005 44.0983 77.6422 44.6936 78.0831C45.3109 78.502 45.84 78.9981 46.2809 79.5713C46.7219 80.1224 47.0746 80.7067 47.3392 81.324L43.9661 82.746C43.5913 81.9082 43.0732 81.2578 42.4118 80.7949C41.7504 80.3319 40.9126 80.1004 39.8985 80.1004C39.2812 80.1004 38.6859 80.2327 38.1127 80.4972C37.5616 80.7397 37.0655 81.0925 36.6246 81.5555C36.2057 81.9964 35.864 82.5365 35.5994 83.1759C35.3569 83.8152 35.2356 84.5317 35.2356 85.3254C35.2356 86.1191 35.3569 86.8356 35.5994 87.4749C35.864 88.1143 36.2057 88.6655 36.6246 89.1284C37.0655 89.5694 37.5616 89.9221 38.1127 90.1867C38.6859 90.4292 39.2812 90.5504 39.8985 90.5504C40.9126 90.5504 41.7724 90.3189 42.4779 89.856C43.2054 89.3709 43.7676 88.7095 44.1645 87.8718L47.4714 89.2938ZM50.1237 69.7496H53.7945V76.7934L53.5961 79.4059H53.7945C54.2574 78.6343 54.9409 77.995 55.8448 77.4879C56.7487 76.9588 57.7518 76.6942 58.8541 76.6942C59.9124 76.6942 60.8273 76.8596 61.5989 77.1903C62.3706 77.4989 63.0099 77.9509 63.517 78.5461C64.024 79.1414 64.3988 79.8579 64.6413 80.6957C64.8839 81.5114 65.0051 82.4153 65.0051 83.4074V93.4275H61.3344V83.9034C61.3344 82.5586 61.0037 81.5885 60.3423 80.9933C59.7029 80.398 58.8872 80.1004 57.8951 80.1004C57.2558 80.1004 56.6826 80.2437 56.1755 80.5303C55.6905 80.7949 55.2606 81.1586 54.8858 81.6216C54.533 82.0846 54.2574 82.6137 54.059 83.2089C53.8827 83.8042 53.7945 84.4215 53.7945 85.0609V93.4275H50.1237V69.7496ZM83.5776 89.5583C82.8942 90.815 81.9241 91.8622 80.6675 92.7C79.4108 93.5377 77.8676 93.9566 76.0377 93.9566C74.8252 93.9566 73.7008 93.7472 72.6646 93.3283C71.6505 92.8874 70.7686 92.2811 70.019 91.5094C69.2695 90.7378 68.6852 89.8339 68.2663 88.7977C67.8475 87.7395 67.638 86.5821 67.638 85.3254C67.638 84.1569 67.8364 83.0546 68.2333 82.0184C68.6301 80.9602 69.1813 80.0453 69.8868 79.2737C70.6143 78.48 71.4851 77.8517 72.4993 77.3887C73.5134 76.9257 74.6378 76.6942 75.8724 76.6942C77.129 76.6942 78.2424 76.9037 79.2124 77.3225C80.2045 77.7414 81.0423 78.3257 81.7257 79.0752C82.4092 79.8248 82.9273 80.7287 83.28 81.787C83.6548 82.8452 83.8422 84.0026 83.8422 85.2593C83.8422 85.3695 83.8422 85.4687 83.8422 85.5569C83.8201 85.6671 83.8091 85.7663 83.8091 85.8545C83.7871 85.9427 83.776 86.0309 83.776 86.1191H71.3088C71.3749 86.8907 71.5623 87.5631 71.8709 88.1363C72.1796 88.7095 72.5544 89.1835 72.9953 89.5583C73.4583 89.9331 73.9654 90.2087 74.5165 90.3851C75.0677 90.5614 75.6078 90.6496 76.1369 90.6496C77.1952 90.6496 78.066 90.3961 78.7494 89.889C79.4329 89.382 79.9951 88.7536 80.436 88.0041L83.5776 89.5583ZM80.1714 83.3082C80.1274 82.9775 80.0171 82.6137 79.8407 82.2169C79.6864 81.798 79.4329 81.4232 79.0801 81.0925C78.7494 80.7397 78.3085 80.4421 77.7574 80.1996C77.2282 79.9571 76.5779 79.8358 75.8062 79.8358C74.748 79.8358 73.8331 80.1555 73.0615 80.7949C72.3119 81.4122 71.8048 82.2499 71.5402 83.3082H80.1714ZM99.047 91.3441H98.8486C98.4077 92.0496 97.7352 92.6669 96.8313 93.196C95.9274 93.7031 94.8472 93.9566 93.5905 93.9566C92.5543 93.9566 91.5622 93.7472 90.6142 93.3283C89.6883 92.8874 88.8726 92.2811 88.1671 91.5094C87.4616 90.7378 86.8994 89.8339 86.4805 88.7977C86.0616 87.7395 85.8522 86.5821 85.8522 85.3254C85.8522 84.0688 86.0616 82.9223 86.4805 81.8862C86.8994 80.8279 87.4616 79.913 88.1671 79.1414C88.8726 78.3697 89.6883 77.7745 90.6142 77.3556C91.5622 76.9147 92.5543 76.6942 93.5905 76.6942C94.8472 76.6942 95.9274 76.9588 96.8313 77.4879C97.7352 77.995 98.4077 78.6012 98.8486 79.3067H99.047L98.8486 77.058V69.7496H102.519V93.4275H99.047V91.3441ZM94.285 90.5504C94.9023 90.5504 95.4975 90.4292 96.0707 90.1867C96.666 89.9441 97.1731 89.6024 97.5919 89.1615C98.0329 88.7206 98.3856 88.1804 98.6502 87.5411C98.9147 86.8797 99.047 86.1411 99.047 85.3254C99.047 84.5097 98.9147 83.7822 98.6502 83.1428C98.3856 82.4814 98.0329 81.9303 97.5919 81.4893C97.1731 81.0484 96.666 80.7067 96.0707 80.4642C95.4975 80.2217 94.9023 80.1004 94.285 80.1004C93.6456 80.1004 93.0393 80.2217 92.4661 80.4642C91.8929 80.7067 91.3859 81.0594 90.9449 81.5224C90.5261 81.9633 90.1843 82.5035 89.9198 83.1428C89.6552 83.7822 89.5229 84.5097 89.5229 85.3254C89.5229 86.1411 89.6552 86.8687 89.9198 87.508C90.1843 88.1474 90.5261 88.6985 90.9449 89.1615C91.3859 89.6024 91.8929 89.9441 92.4661 90.1867C93.0393 90.4292 93.6456 90.5504 94.285 90.5504ZM117.496 91.2449H117.298C116.813 92.0165 116.118 92.6669 115.214 93.196C114.333 93.7031 113.33 93.9566 112.205 93.9566C110.155 93.9566 108.623 93.3503 107.608 92.1378C106.594 90.9032 106.087 89.2717 106.087 87.2435V77.2233H109.758V86.7474C109.758 88.1584 110.078 89.1505 110.717 89.7237C111.378 90.2748 112.238 90.5504 113.296 90.5504C113.914 90.5504 114.465 90.4181 114.95 90.1536C115.457 89.889 115.887 89.5363 116.24 89.0954C116.592 88.6324 116.857 88.1143 117.033 87.5411C117.21 86.9458 117.298 86.3285 117.298 85.6892V77.2233H120.969V93.4275H117.496V91.2449ZM124.66 93.4275V69.7496H128.331V93.4275H124.66ZM146.875 89.5583C146.192 90.815 145.222 91.8622 143.965 92.7C142.708 93.5377 141.165 93.9566 139.335 93.9566C138.123 93.9566 136.998 93.7472 135.962 93.3283C134.948 92.8874 134.066 92.2811 133.317 91.5094C132.567 90.7378 131.983 89.8339 131.564 88.7977C131.145 87.7395 130.936 86.5821 130.936 85.3254C130.936 84.1569 131.134 83.0546 131.531 82.0184C131.928 80.9602 132.479 80.0453 133.184 79.2737C133.912 78.48 134.783 77.8517 135.797 77.3887C136.811 76.9257 137.935 76.6942 139.17 76.6942C140.427 76.6942 141.54 76.9037 142.51 77.3225C143.502 77.7414 144.34 78.3257 145.023 79.0752C145.707 79.8248 146.225 80.7287 146.577 81.787C146.952 82.8452 147.14 84.0026 147.14 85.2593C147.14 85.3695 147.14 85.4687 147.14 85.5569C147.118 85.6671 147.107 85.7663 147.107 85.8545C147.085 85.9427 147.074 86.0309 147.074 86.1191H134.606C134.672 86.8907 134.86 87.5631 135.168 88.1363C135.477 88.7095 135.852 89.1835 136.293 89.5583C136.756 89.9331 137.263 90.2087 137.814 90.3851C138.365 90.5614 138.905 90.6496 139.434 90.6496C140.493 90.6496 141.363 90.3961 142.047 89.889C142.73 89.382 143.293 88.7536 143.733 88.0041L146.875 89.5583ZM143.469 83.3082C143.425 82.9775 143.315 82.6137 143.138 82.2169C142.984 81.798 142.73 81.4232 142.378 81.0925C142.047 80.7397 141.606 80.4421 141.055 80.1996C140.526 79.9571 139.875 79.8358 139.104 79.8358C138.045 79.8358 137.131 80.1555 136.359 80.7949C135.609 81.4122 135.102 82.2499 134.838 83.3082H143.469ZM159.297 74.3463C158.591 74.3463 157.996 74.1038 157.511 73.6187C157.048 73.1337 156.817 72.5495 156.817 71.866C156.817 71.1826 157.048 70.5984 157.511 70.1133C157.996 69.6283 158.591 69.3858 159.297 69.3858C159.98 69.3858 160.554 69.6283 161.017 70.1133C161.502 70.5984 161.744 71.1826 161.744 71.866C161.744 72.5495 161.502 73.1337 161.017 73.6187C160.554 74.1038 159.98 74.3463 159.297 74.3463ZM157.445 93.4275V77.2233H161.116V93.4275H157.445ZM166.717 80.4642H163.873V77.2233H166.717V72.2629H170.388V77.2233H174.389V80.4642H170.388V87.6734C170.388 88.0702 170.432 88.434 170.52 88.7647C170.608 89.0954 170.74 89.3709 170.917 89.5914C171.292 90.0103 171.766 90.2197 172.339 90.2197C172.692 90.2197 172.967 90.1977 173.166 90.1536C173.364 90.0874 173.573 89.9993 173.794 89.889L174.918 93.1299C174.455 93.3062 173.97 93.4385 173.463 93.5267C172.956 93.6369 172.383 93.692 171.744 93.692C170.972 93.692 170.288 93.5708 169.693 93.3283C169.098 93.0858 168.58 92.7551 168.139 92.3362C167.191 91.3882 166.717 90.0985 166.717 88.467V80.4642ZM179.711 93.6259C179.006 93.6259 178.399 93.3834 177.892 92.8984C177.407 92.3913 177.165 91.785 177.165 91.0795C177.165 90.3741 177.407 89.7678 177.892 89.2607C178.399 88.7536 179.006 88.5001 179.711 88.5001C180.417 88.5001 181.023 88.7536 181.53 89.2607C182.037 89.7678 182.29 90.3741 182.29 91.0795C182.29 91.785 182.037 92.3913 181.53 92.8984C181.023 93.3834 180.417 93.6259 179.711 93.6259ZM177.859 76.8926V69.7496H181.596V76.8926L181.232 85.6892H178.223L177.859 76.8926Z" fill="black"/>
<path d="M17.9441 120.613H12.8797V111.592H14.0387V119.504H17.9441V120.613ZM21.7241 120.814C20.817 120.814 20.0696 120.503 19.4816 119.882C18.8937 119.26 18.5998 118.475 18.5998 117.526C18.5998 116.585 18.8853 115.804 19.4565 115.183C20.0276 114.553 20.7582 114.238 21.6485 114.238C22.564 114.238 23.2904 114.536 23.828 115.132C24.3739 115.72 24.6468 116.548 24.6468 117.614L24.6342 117.74H19.784C19.8008 118.345 20.0024 118.832 20.3887 119.202C20.775 119.571 21.237 119.756 21.7745 119.756C22.5136 119.756 23.0931 119.386 23.513 118.647L24.546 119.151C24.2689 119.672 23.8825 120.079 23.387 120.373C22.8999 120.667 22.3456 120.814 21.7241 120.814ZM19.8722 116.783H23.4122C23.3786 116.354 23.2023 116.002 22.8831 115.725C22.5724 115.439 22.1524 115.296 21.6233 115.296C21.1866 115.296 20.8086 115.431 20.4895 115.699C20.1787 115.968 19.973 116.329 19.8722 116.783ZM26.6123 118.723C26.6123 119.025 26.7383 119.277 26.9902 119.479C27.2506 119.68 27.553 119.781 27.8973 119.781C28.3844 119.781 28.8169 119.601 29.1949 119.239C29.5812 118.878 29.7744 118.454 29.7744 117.967C29.4133 117.681 28.9093 117.539 28.2626 117.539C27.7923 117.539 27.3976 117.652 27.0784 117.879C26.7677 118.106 26.6123 118.387 26.6123 118.723ZM28.1115 114.238C28.9681 114.238 29.6442 114.469 30.1397 114.931C30.6353 115.384 30.883 116.01 30.883 116.808V120.613H29.7744V119.756H29.724C29.2453 120.461 28.607 120.814 27.8091 120.814C27.1288 120.814 26.5577 120.613 26.0958 120.209C25.6423 119.806 25.4155 119.302 25.4155 118.698C25.4155 118.059 25.6549 117.551 26.1336 117.173C26.6207 116.795 27.2674 116.606 28.0737 116.606C28.7624 116.606 29.3293 116.732 29.7744 116.984V116.72C29.7744 116.317 29.6148 115.976 29.2957 115.699C28.9765 115.414 28.6028 115.271 28.1745 115.271C27.5278 115.271 27.0154 115.544 26.6375 116.09L25.6171 115.447C26.1798 114.641 27.0112 114.238 28.1115 114.238ZM33.3493 120.613H32.1903V114.44H33.2989V115.447H33.3493C33.4669 115.12 33.7062 114.843 34.0674 114.616C34.4369 114.381 34.798 114.263 35.1508 114.263C35.4867 114.263 35.7723 114.314 36.0074 114.414L35.6547 115.536C35.5119 115.477 35.2852 115.447 34.9744 115.447C34.5377 115.447 34.1555 115.624 33.828 115.976C33.5088 116.329 33.3493 116.741 33.3493 117.211V120.613ZM36.7669 114.44H37.8755V115.296H37.9259C38.1023 114.994 38.371 114.742 38.7322 114.54C39.1017 114.339 39.4838 114.238 39.8786 114.238C40.6345 114.238 41.214 114.456 41.6171 114.893C42.0286 115.321 42.2344 115.934 42.2344 116.732V120.613H41.0754V116.808C41.0502 115.8 40.5421 115.296 39.551 115.296C39.0891 115.296 38.7028 115.485 38.392 115.863C38.0813 116.233 37.9259 116.678 37.9259 117.198V120.613H36.7669V114.44ZM47.2071 118.723C47.2071 119.025 47.333 119.277 47.585 119.479C47.8454 119.68 48.1477 119.781 48.4921 119.781C48.9792 119.781 49.4117 119.601 49.7896 119.239C50.176 118.878 50.3692 118.454 50.3692 117.967C50.008 117.681 49.5041 117.539 48.8574 117.539C48.3871 117.539 47.9923 117.652 47.6732 117.879C47.3624 118.106 47.2071 118.387 47.2071 118.723ZM48.7062 114.238C49.5629 114.238 50.239 114.469 50.7345 114.931C51.23 115.384 51.4778 116.01 51.4778 116.808V120.613H50.3692V119.756H50.3188C49.84 120.461 49.2017 120.814 48.4039 120.814C47.7236 120.814 47.1525 120.613 46.6905 120.209C46.237 119.806 46.0102 119.302 46.0102 118.698C46.0102 118.059 46.2496 117.551 46.7283 117.173C47.2155 116.795 47.8622 116.606 48.6684 116.606C49.3571 116.606 49.924 116.732 50.3692 116.984V116.72C50.3692 116.317 50.2096 115.976 49.8904 115.699C49.5713 115.414 49.1975 115.271 48.7692 115.271C48.1225 115.271 47.6102 115.544 47.2323 116.09L46.2118 115.447C46.7745 114.641 47.606 114.238 48.7062 114.238ZM56.0479 120.814C55.5944 120.814 55.1786 120.718 54.8007 120.524C54.4311 120.331 54.1456 120.075 53.944 119.756H53.8936V120.613H52.785V111.592H53.944V114.44L53.8936 115.296H53.944C54.1456 114.977 54.4311 114.721 54.8007 114.528C55.1786 114.335 55.5944 114.238 56.0479 114.238C56.8626 114.238 57.5513 114.557 58.114 115.195C58.6935 115.842 58.9832 116.619 58.9832 117.526C58.9832 118.441 58.6935 119.218 58.114 119.857C57.5513 120.495 56.8626 120.814 56.0479 120.814ZM55.8589 119.756C56.4132 119.756 56.8794 119.546 57.2573 119.126C57.6352 118.714 57.8242 118.181 57.8242 117.526C57.8242 116.879 57.6352 116.346 57.2573 115.926C56.8794 115.506 56.4132 115.296 55.8589 115.296C55.2962 115.296 54.8259 115.506 54.4479 115.926C54.0784 116.346 53.8936 116.879 53.8936 117.526C53.8936 118.181 54.0784 118.719 54.4479 119.139C54.8259 119.55 55.2962 119.756 55.8589 119.756ZM59.6909 117.526C59.6909 116.577 59.989 115.792 60.5853 115.17C61.19 114.549 61.9501 114.238 62.8656 114.238C63.781 114.238 64.5369 114.549 65.1332 115.17C65.7379 115.792 66.0403 116.577 66.0403 117.526C66.0403 118.483 65.7379 119.269 65.1332 119.882C64.5369 120.503 63.781 120.814 62.8656 120.814C61.9501 120.814 61.19 120.503 60.5853 119.882C59.989 119.26 59.6909 118.475 59.6909 117.526ZM60.8499 117.526C60.8499 118.19 61.0431 118.727 61.4294 119.139C61.8157 119.55 62.2945 119.756 62.8656 119.756C63.4367 119.756 63.9154 119.55 64.3017 119.139C64.6881 118.727 64.8812 118.19 64.8812 117.526C64.8812 116.871 64.6881 116.338 64.3017 115.926C63.907 115.506 63.4283 115.296 62.8656 115.296C62.3029 115.296 61.8241 115.506 61.4294 115.926C61.0431 116.338 60.8499 116.871 60.8499 117.526ZM72.4487 120.613H71.3401V119.756H71.2897C71.1133 120.058 70.8404 120.31 70.4708 120.512C70.1097 120.713 69.7317 120.814 69.337 120.814C68.5811 120.814 67.9974 120.6 67.5859 120.172C67.1827 119.735 66.9812 119.118 66.9812 118.32V114.44H68.1402V118.244C68.1654 119.252 68.6735 119.756 69.6645 119.756C70.1265 119.756 70.5128 119.571 70.8236 119.202C71.1343 118.824 71.2897 118.374 71.2897 117.854V114.44H72.4487V120.613ZM76.3651 120.713C75.8612 120.713 75.4412 120.558 75.1053 120.247C74.7777 119.936 74.6098 119.504 74.6014 118.95V115.498H73.5179V114.44H74.6014V112.55H75.7604V114.44H77.2721V115.498H75.7604V118.572C75.7604 118.983 75.8402 119.265 75.9998 119.416C76.1593 119.559 76.3399 119.63 76.5415 119.63C76.6338 119.63 76.722 119.622 76.806 119.605C76.8984 119.58 76.9824 119.55 77.058 119.517L77.4233 120.55C77.121 120.659 76.7682 120.713 76.3651 120.713ZM86.5599 120.613H85.4513V119.756H85.4009C85.2245 120.058 84.9516 120.31 84.582 120.512C84.2209 120.713 83.8429 120.814 83.4482 120.814C82.6923 120.814 82.1086 120.6 81.6971 120.172C81.294 119.735 81.0924 119.118 81.0924 118.32V114.44H82.2514V118.244C82.2766 119.252 82.7847 119.756 83.7758 119.756C84.2377 119.756 84.624 119.571 84.9348 119.202C85.2455 118.824 85.4009 118.374 85.4009 117.854V114.44H86.5599V120.613ZM92.6335 118.899C92.6335 119.437 92.3984 119.89 91.928 120.26C91.4577 120.629 90.8656 120.814 90.1517 120.814C89.5302 120.814 88.9843 120.655 88.514 120.335C88.0437 120.008 87.7077 119.58 87.5061 119.05L88.5392 118.609C88.6904 118.979 88.9087 119.269 89.1943 119.479C89.4882 119.68 89.8074 119.781 90.1517 119.781C90.5213 119.781 90.8278 119.701 91.0714 119.542C91.3233 119.382 91.4493 119.193 91.4493 118.975C91.4493 118.58 91.147 118.29 90.5423 118.106L89.484 117.841C88.283 117.539 87.6825 116.959 87.6825 116.102C87.6825 115.54 87.9093 115.09 88.3628 114.754C88.8247 114.41 89.4126 114.238 90.1265 114.238C90.6724 114.238 91.1638 114.368 91.6005 114.629C92.0456 114.889 92.3564 115.237 92.5327 115.674L91.4997 116.102C91.3821 115.842 91.189 115.641 90.9202 115.498C90.6598 115.347 90.3659 115.271 90.0383 115.271C89.736 115.271 89.463 115.347 89.2195 115.498C88.9843 115.649 88.8667 115.834 88.8667 116.052C88.8667 116.405 89.1985 116.657 89.862 116.808L90.7942 117.047C92.0204 117.35 92.6335 117.967 92.6335 118.899ZM96.4754 120.814C95.5684 120.814 94.8209 120.503 94.233 119.882C93.6451 119.26 93.3511 118.475 93.3511 117.526C93.3511 116.585 93.6367 115.804 94.2078 115.183C94.7789 114.553 95.5096 114.238 96.3998 114.238C97.3153 114.238 98.0418 114.536 98.5793 115.132C99.1252 115.72 99.3981 116.548 99.3981 117.614L99.3855 117.74H94.5353C94.5521 118.345 94.7537 118.832 95.14 119.202C95.5264 119.571 95.9883 119.756 96.5258 119.756C97.2649 119.756 97.8444 119.386 98.2643 118.647L99.2974 119.151C99.0202 119.672 98.6339 120.079 98.1383 120.373C97.6512 120.667 97.0969 120.814 96.4754 120.814ZM94.6235 116.783H98.1635C98.1299 116.354 97.9536 116.002 97.6344 115.725C97.3237 115.439 96.9037 115.296 96.3746 115.296C95.9379 115.296 95.56 115.431 95.2408 115.699C94.9301 115.968 94.7243 116.329 94.6235 116.783ZM103.182 111.492C103.602 111.492 103.946 111.563 104.215 111.706L103.9 112.726C103.699 112.625 103.472 112.575 103.22 112.575C102.934 112.575 102.699 112.676 102.514 112.877C102.338 113.071 102.25 113.331 102.25 113.658V114.44H103.862V115.498H102.25V120.613H101.091V115.498H99.9319V114.44H101.091V113.545C101.091 112.932 101.284 112.436 101.67 112.059C102.065 111.681 102.569 111.492 103.182 111.492ZM110.267 120.613H109.159V119.756H109.108C108.932 120.058 108.659 120.31 108.289 120.512C107.928 120.713 107.55 120.814 107.156 120.814C106.4 120.814 105.816 120.6 105.404 120.172C105.001 119.735 104.8 119.118 104.8 118.32V114.44H105.959V118.244C105.984 119.252 106.492 119.756 107.483 119.756C107.945 119.756 108.331 119.571 108.642 119.202C108.953 118.824 109.108 118.374 109.108 117.854V114.44H110.267V120.613ZM112.837 111.592V120.613H111.678V111.592H112.837ZM15.7017 136.756C16.256 136.756 16.7221 136.546 17.1 136.126C17.478 135.714 17.6669 135.181 17.6669 134.526C17.6669 133.879 17.478 133.346 17.1 132.926C16.7221 132.506 16.256 132.296 15.7017 132.296C15.139 132.296 14.6686 132.506 14.2907 132.926C13.9211 133.346 13.7364 133.879 13.7364 134.526C13.7364 135.181 13.9211 135.719 14.2907 136.139C14.6686 136.55 15.139 136.756 15.7017 136.756ZM15.8906 137.814C15.4371 137.814 15.0214 137.718 14.6434 137.524C14.2739 137.331 13.9883 137.075 13.7868 136.756H13.7364L13.7868 137.613V140.334H12.6278V131.44H13.7364V132.296H13.7868C13.9883 131.977 14.2739 131.721 14.6434 131.528C15.0214 131.335 15.4371 131.238 15.8906 131.238C16.7053 131.238 17.394 131.557 17.9567 132.195C18.5362 132.842 18.826 133.619 18.826 134.526C18.826 135.441 18.5362 136.218 17.9567 136.857C17.394 137.495 16.7053 137.814 15.8906 137.814ZM20.985 137.613H19.826V131.44H20.9346V132.447H20.985C21.1026 132.12 21.342 131.843 21.7031 131.616C22.0727 131.381 22.4338 131.263 22.7866 131.263C23.1225 131.263 23.4081 131.314 23.6432 131.414L23.2905 132.536C23.1477 132.477 22.9209 132.447 22.6102 132.447C22.1734 132.447 21.7913 132.624 21.4638 132.976C21.1446 133.329 20.985 133.741 20.985 134.211V137.613ZM23.6685 134.526C23.6685 133.577 23.9667 132.792 24.563 132.17C25.1677 131.549 25.9277 131.238 26.8432 131.238C27.7587 131.238 28.5145 131.549 29.1108 132.17C29.7155 132.792 30.0179 133.577 30.0179 134.526C30.0179 135.483 29.7155 136.269 29.1108 136.882C28.5145 137.503 27.7587 137.814 26.8432 137.814C25.9277 137.814 25.1677 137.503 24.563 136.882C23.9667 136.26 23.6685 135.475 23.6685 134.526ZM24.8275 134.526C24.8275 135.19 25.0207 135.727 25.407 136.139C25.7934 136.55 26.2721 136.756 26.8432 136.756C27.4143 136.756 27.893 136.55 28.2794 136.139C28.6657 135.727 28.8589 135.19 28.8589 134.526C28.8589 133.871 28.6657 133.338 28.2794 132.926C27.8846 132.506 27.4059 132.296 26.8432 132.296C26.2805 132.296 25.8018 132.506 25.407 132.926C25.0207 133.338 24.8275 133.871 24.8275 134.526ZM32.1067 137.613H30.9477V131.44H32.0563V132.296H32.1067C32.2831 131.994 32.5518 131.742 32.913 131.54C33.2825 131.339 33.6479 131.238 34.009 131.238C34.4625 131.238 34.8615 131.343 35.2058 131.553C35.5501 131.763 35.8021 132.053 35.9617 132.422C36.474 131.633 37.1837 131.238 38.0907 131.238C38.8046 131.238 39.3547 131.456 39.7411 131.893C40.1274 132.33 40.3206 132.951 40.3206 133.758V137.613H39.1616V133.934C39.1616 133.354 39.0566 132.939 38.8466 132.687C38.6367 132.426 38.2839 132.296 37.7884 132.296C37.3433 132.296 36.9695 132.485 36.6672 132.863C36.3648 133.241 36.2136 133.686 36.2136 134.198V137.613H35.0546V133.934C35.0546 133.354 34.9496 132.939 34.7397 132.687C34.5297 132.426 34.177 132.296 33.6814 132.296C33.2363 132.296 32.8626 132.485 32.5602 132.863C32.2579 133.241 32.1067 133.686 32.1067 134.198V137.613ZM44.6992 136.756C45.2535 136.756 45.7196 136.546 46.0975 136.126C46.4755 135.714 46.6645 135.181 46.6645 134.526C46.6645 133.879 46.4755 133.346 46.0975 132.926C45.7196 132.506 45.2535 132.296 44.6992 132.296C44.1365 132.296 43.6661 132.506 43.2882 132.926C42.9187 133.346 42.7339 133.879 42.7339 134.526C42.7339 135.181 42.9187 135.719 43.2882 136.139C43.6661 136.55 44.1365 136.756 44.6992 136.756ZM44.8881 137.814C44.4346 137.814 44.0189 137.718 43.6409 137.524C43.2714 137.331 42.9858 137.075 42.7843 136.756H42.7339L42.7843 137.613V140.334H41.6253V131.44H42.7339V132.296H42.7843C42.9858 131.977 43.2714 131.721 43.6409 131.528C44.0189 131.335 44.4346 131.238 44.8881 131.238C45.7028 131.238 46.3915 131.557 46.9542 132.195C47.5337 132.842 47.8235 133.619 47.8235 134.526C47.8235 135.441 47.5337 136.218 46.9542 136.857C46.3915 137.495 45.7028 137.814 44.8881 137.814ZM51.083 137.713C50.5791 137.713 50.1592 137.558 49.8232 137.247C49.4957 136.936 49.3277 136.504 49.3193 135.95V132.498H48.2359V131.44H49.3193V129.55H50.4783V131.44H51.9901V132.498H50.4783V135.572C50.4783 135.983 50.5581 136.265 50.7177 136.416C50.8772 136.559 51.0578 136.63 51.2594 136.63C51.3518 136.63 51.4399 136.622 51.5239 136.605C51.6163 136.58 51.7003 136.55 51.7759 136.517L52.1412 137.55C51.8389 137.659 51.4861 137.713 51.083 137.713ZM57.9398 135.899C57.9398 136.437 57.7047 136.89 57.2344 137.26C56.764 137.629 56.1719 137.814 55.458 137.814C54.8365 137.814 54.2906 137.655 53.8203 137.335C53.35 137.008 53.014 136.58 52.8125 136.05L53.8455 135.609C53.9967 135.979 54.215 136.269 54.5006 136.479C54.7946 136.68 55.1137 136.781 55.458 136.781C55.8276 136.781 56.1341 136.701 56.3777 136.542C56.6297 136.382 56.7556 136.193 56.7556 135.975C56.7556 135.58 56.4533 135.29 55.8486 135.106L54.7904 134.841C53.5893 134.539 52.9888 133.959 52.9888 133.102C52.9888 132.54 53.2156 132.09 53.6691 131.754C54.1311 131.41 54.719 131.238 55.4328 131.238C55.9788 131.238 56.4701 131.368 56.9068 131.629C57.3519 131.889 57.6627 132.237 57.8391 132.674L56.806 133.102C56.6884 132.842 56.4953 132.641 56.2265 132.498C55.9662 132.347 55.6722 132.271 55.3447 132.271C55.0423 132.271 54.7694 132.347 54.5258 132.498C54.2906 132.649 54.1731 132.834 54.1731 133.052C54.1731 133.405 54.5048 133.657 55.1683 133.808L56.1005 134.047C57.3267 134.35 57.9398 134.967 57.9398 135.899ZM64.3179 128.492C64.7378 128.492 65.0822 128.563 65.3509 128.706L65.036 129.726C64.8344 129.625 64.6076 129.575 64.3557 129.575C64.0701 129.575 63.835 129.676 63.6502 129.877C63.4738 130.071 63.3856 130.331 63.3856 130.658V131.44H64.9982V132.498H63.3856V137.613H62.2266V132.498H61.0676V131.44H62.2266V130.545C62.2266 129.932 62.4198 129.436 62.8061 129.059C63.2009 128.681 63.7048 128.492 64.3179 128.492ZM65.3747 134.526C65.3747 133.577 65.6729 132.792 66.2692 132.17C66.8739 131.549 67.634 131.238 68.5494 131.238C69.4649 131.238 70.2208 131.549 70.8171 132.17C71.4218 132.792 71.7241 133.577 71.7241 134.526C71.7241 135.483 71.4218 136.269 70.8171 136.882C70.2208 137.503 69.4649 137.814 68.5494 137.814C67.634 137.814 66.8739 137.503 66.2692 136.882C65.6729 136.26 65.3747 135.475 65.3747 134.526ZM66.5337 134.526C66.5337 135.19 66.7269 135.727 67.1132 136.139C67.4996 136.55 67.9783 136.756 68.5494 136.756C69.1205 136.756 69.5993 136.55 69.9856 136.139C70.3719 135.727 70.5651 135.19 70.5651 134.526C70.5651 133.871 70.3719 133.338 69.9856 132.926C69.5909 132.506 69.1121 132.296 68.5494 132.296C67.9867 132.296 67.508 132.506 67.1132 132.926C66.7269 133.338 66.5337 133.871 66.5337 134.526ZM73.8129 137.613H72.6539V131.44H73.7625V132.447H73.8129C73.9305 132.12 74.1699 131.843 74.531 131.616C74.9005 131.381 75.2617 131.263 75.6144 131.263C75.9504 131.263 76.2359 131.314 76.4711 131.414L76.1184 132.536C75.9756 132.477 75.7488 132.447 75.4381 132.447C75.0013 132.447 74.6192 132.624 74.2916 132.976C73.9725 133.329 73.8129 133.741 73.8129 134.211V137.613ZM79.6459 134.526C79.6459 133.577 79.944 132.792 80.5403 132.17C81.145 131.549 81.9051 131.238 82.8206 131.238C83.736 131.238 84.4919 131.549 85.0882 132.17C85.6929 132.792 85.9953 133.577 85.9953 134.526C85.9953 135.483 85.6929 136.269 85.0882 136.882C84.4919 137.503 83.736 137.814 82.8206 137.814C81.9051 137.814 81.145 137.503 80.5403 136.882C79.944 136.26 79.6459 135.475 79.6459 134.526ZM80.8049 134.526C80.8049 135.19 80.9981 135.727 81.3844 136.139C81.7707 136.55 82.2495 136.756 82.8206 136.756C83.3917 136.756 83.8704 136.55 84.2567 136.139C84.6431 135.727 84.8363 135.19 84.8363 134.526C84.8363 133.871 84.6431 133.338 84.2567 132.926C83.862 132.506 83.3833 132.296 82.8206 132.296C82.2579 132.296 81.7791 132.506 81.3844 132.926C80.9981 133.338 80.8049 133.871 80.8049 134.526ZM88.0841 137.613H86.9251V131.44H88.0337V132.447H88.0841C88.2017 132.12 88.441 131.843 88.8022 131.616C89.1717 131.381 89.5328 131.263 89.8856 131.263C90.2215 131.263 90.5071 131.314 90.7423 131.414L90.3895 132.536C90.2467 132.477 90.02 132.447 89.7092 132.447C89.2725 132.447 88.8903 132.624 88.5628 132.976C88.2437 133.329 88.0841 133.741 88.0841 134.211V137.613ZM93.9534 136.756C94.5245 136.756 94.9906 136.55 95.3517 136.139C95.7297 135.727 95.9186 135.19 95.9186 134.526C95.9186 133.879 95.7297 133.346 95.3517 132.926C94.9822 132.506 94.5161 132.296 93.9534 132.296C93.399 132.296 92.9329 132.506 92.555 132.926C92.177 133.346 91.9881 133.879 91.9881 134.526C91.9881 135.181 92.177 135.714 92.555 136.126C92.9329 136.546 93.399 136.756 93.9534 136.756ZM93.9156 140.535C93.5712 140.535 93.2479 140.489 92.9455 140.397C92.6432 140.313 92.366 140.191 92.114 140.031C91.8705 139.872 91.6605 139.683 91.4841 139.464C91.3078 139.246 91.1734 139.003 91.081 138.734L92.177 138.28C92.303 138.641 92.5214 138.931 92.8321 139.15C93.1429 139.368 93.504 139.477 93.9156 139.477C94.5455 139.477 95.0368 139.288 95.3895 138.91C95.7423 138.532 95.9186 138.011 95.9186 137.348V136.756H95.8682C95.6499 137.083 95.3517 137.344 94.9738 137.537C94.6043 137.722 94.2011 137.814 93.7644 137.814C92.9581 137.814 92.2652 137.499 91.6857 136.869C91.1146 136.223 90.8291 135.441 90.8291 134.526C90.8291 133.611 91.1146 132.834 91.6857 132.195C92.2652 131.557 92.9581 131.238 93.7644 131.238C94.2011 131.238 94.6043 131.335 94.9738 131.528C95.3517 131.712 95.6499 131.969 95.8682 132.296H95.9186V131.44H97.0273V137.348C97.0273 138.339 96.7459 139.116 96.1832 139.679C95.6121 140.25 94.8562 140.535 93.9156 140.535ZM99.223 135.723C99.223 136.025 99.3489 136.277 99.6009 136.479C99.8613 136.68 100.164 136.781 100.508 136.781C100.995 136.781 101.428 136.601 101.806 136.239C102.192 135.878 102.385 135.454 102.385 134.967C102.024 134.681 101.52 134.539 100.873 134.539C100.403 134.539 100.008 134.652 99.6891 134.879C99.3783 135.106 99.223 135.387 99.223 135.723ZM100.722 131.238C101.579 131.238 102.255 131.469 102.75 131.931C103.246 132.384 103.494 133.01 103.494 133.808V137.613H102.385V136.756H102.335C101.856 137.461 101.218 137.814 100.42 137.814C99.7395 137.814 99.1684 137.613 98.7064 137.209C98.2529 136.806 98.0261 136.302 98.0261 135.698C98.0261 135.059 98.2655 134.551 98.7442 134.173C99.2314 133.795 99.878 133.606 100.684 133.606C101.373 133.606 101.94 133.732 102.385 133.984V133.72C102.385 133.317 102.225 132.976 101.906 132.699C101.587 132.414 101.213 132.271 100.785 132.271C100.138 132.271 99.6261 132.544 99.2481 133.09L98.2277 132.447C98.7904 131.641 99.6219 131.238 100.722 131.238ZM104.801 131.44H105.91V132.296H105.96C106.136 131.994 106.405 131.742 106.766 131.54C107.136 131.339 107.518 131.238 107.913 131.238C108.668 131.238 109.248 131.456 109.651 131.893C110.063 132.321 110.268 132.934 110.268 133.732V137.613H109.109V133.808C109.084 132.8 108.576 132.296 107.585 132.296C107.123 132.296 106.737 132.485 106.426 132.863C106.115 133.233 105.96 133.678 105.96 134.198V137.613H104.801V131.44ZM113.128 129.31C113.128 129.537 113.048 129.73 112.889 129.89C112.729 130.05 112.536 130.129 112.309 130.129C112.082 130.129 111.889 130.05 111.73 129.89C111.57 129.73 111.49 129.537 111.49 129.31C111.49 129.084 111.57 128.891 111.73 128.731C111.889 128.571 112.082 128.492 112.309 128.492C112.536 128.492 112.729 128.571 112.889 128.731C113.048 128.891 113.128 129.084 113.128 129.31ZM112.889 131.44V137.613H111.73V131.44H112.889ZM119.121 135.899C119.121 136.437 118.886 136.89 118.416 137.26C117.945 137.629 117.353 137.814 116.639 137.814C116.018 137.814 115.472 137.655 115.002 137.335C114.531 137.008 114.195 136.58 113.994 136.05L115.027 135.609C115.178 135.979 115.396 136.269 115.682 136.479C115.976 136.68 116.295 136.781 116.639 136.781C117.009 136.781 117.316 136.701 117.559 136.542C117.811 136.382 117.937 136.193 117.937 135.975C117.937 135.58 117.635 135.29 117.03 135.106L115.972 134.841C114.771 134.539 114.17 133.959 114.17 133.102C114.17 132.54 114.397 132.09 114.851 131.754C115.312 131.41 115.9 131.238 116.614 131.238C117.16 131.238 117.652 131.368 118.088 131.629C118.533 131.889 118.844 132.237 119.02 132.674L117.987 133.102C117.87 132.842 117.677 132.641 117.408 132.498C117.148 132.347 116.854 132.271 116.526 132.271C116.224 132.271 115.951 132.347 115.707 132.498C115.472 132.649 115.354 132.834 115.354 133.052C115.354 133.405 115.686 133.657 116.35 133.808L117.282 134.047C118.508 134.35 119.121 134.967 119.121 135.899ZM121.568 129.31C121.568 129.537 121.488 129.73 121.328 129.89C121.169 130.05 120.976 130.129 120.749 130.129C120.522 130.129 120.329 130.05 120.169 129.89C120.01 129.73 119.93 129.537 119.93 129.31C119.93 129.084 120.01 128.891 120.169 128.731C120.329 128.571 120.522 128.492 120.749 128.492C120.976 128.492 121.169 128.571 121.328 128.731C121.488 128.891 121.568 129.084 121.568 129.31ZM121.328 131.44V137.613H120.169V131.44H121.328ZM122.837 131.44H123.945V132.296H123.996C124.172 131.994 124.441 131.742 124.802 131.54C125.172 131.339 125.554 131.238 125.948 131.238C126.704 131.238 127.284 131.456 127.687 131.893C128.098 132.321 128.304 132.934 128.304 133.732V137.613H127.145V133.808C127.12 132.8 126.612 132.296 125.621 132.296C125.159 132.296 124.773 132.485 124.462 132.863C124.151 133.233 123.996 133.678 123.996 134.198V137.613H122.837V131.44ZM132.375 136.756C132.946 136.756 133.412 136.55 133.773 136.139C134.151 135.727 134.34 135.19 134.34 134.526C134.34 133.879 134.151 133.346 133.773 132.926C133.404 132.506 132.937 132.296 132.375 132.296C131.82 132.296 131.354 132.506 130.976 132.926C130.598 133.346 130.409 133.879 130.409 134.526C130.409 135.181 130.598 135.714 130.976 136.126C131.354 136.546 131.82 136.756 132.375 136.756ZM132.337 140.535C131.993 140.535 131.669 140.489 131.367 140.397C131.065 140.313 130.787 140.191 130.535 140.031C130.292 139.872 130.082 139.683 129.906 139.464C129.729 139.246 129.595 139.003 129.502 138.734L130.598 138.28C130.724 138.641 130.943 138.931 131.254 139.15C131.564 139.368 131.925 139.477 132.337 139.477C132.967 139.477 133.458 139.288 133.811 138.91C134.164 138.532 134.34 138.011 134.34 137.348V136.756H134.29C134.071 137.083 133.773 137.344 133.395 137.537C133.026 137.722 132.623 137.814 132.186 137.814C131.38 137.814 130.687 137.499 130.107 136.869C129.536 136.223 129.25 135.441 129.25 134.526C129.25 133.611 129.536 132.834 130.107 132.195C130.687 131.557 131.38 131.238 132.186 131.238C132.623 131.238 133.026 131.335 133.395 131.528C133.773 131.712 134.071 131.969 134.29 132.296H134.34V131.44H135.449V137.348C135.449 138.339 135.167 139.116 134.605 139.679C134.033 140.25 133.278 140.535 132.337 140.535ZM18.1961 148.44L14.3285 157.334H13.1317L14.5678 154.222L12.023 148.44H13.2828L15.1222 152.874H15.1473L16.9363 148.44H18.1961ZM18.3537 151.526C18.3537 150.577 18.6519 149.792 19.2482 149.17C19.8529 148.549 20.613 148.238 21.5284 148.238C22.4439 148.238 23.1998 148.549 23.7961 149.17C24.4008 149.792 24.7031 150.577 24.7031 151.526C24.7031 152.483 24.4008 153.269 23.7961 153.882C23.1998 154.503 22.4439 154.814 21.5284 154.814C20.613 154.814 19.8529 154.503 19.2482 153.882C18.6519 153.26 18.3537 152.475 18.3537 151.526ZM19.5127 151.526C19.5127 152.19 19.7059 152.727 20.0923 153.139C20.4786 153.55 20.9573 153.756 21.5284 153.756C22.0995 153.756 22.5783 153.55 22.9646 153.139C23.3509 152.727 23.5441 152.19 23.5441 151.526C23.5441 150.871 23.3509 150.338 22.9646 149.926C22.5699 149.506 22.0911 149.296 21.5284 149.296C20.9657 149.296 20.487 149.506 20.0923 149.926C19.7059 150.338 19.5127 150.871 19.5127 151.526ZM31.1116 154.613H30.0029V153.756H29.9525C29.7762 154.058 29.5032 154.31 29.1337 154.512C28.7725 154.713 28.3946 154.814 27.9999 154.814C27.244 154.814 26.6603 154.6 26.2487 154.172C25.8456 153.735 25.644 153.118 25.644 152.32V148.44H26.803V152.244C26.8282 153.252 27.3364 153.756 28.3274 153.756C28.7893 153.756 29.1757 153.571 29.4864 153.202C29.7972 152.824 29.9525 152.374 29.9525 151.854V148.44H31.1116V154.613ZM33.6814 154.613H32.5224V148.44H33.6311V149.447H33.6814C33.799 149.12 34.0384 148.843 34.3995 148.616C34.7691 148.381 35.1302 148.263 35.483 148.263C35.8189 148.263 36.1045 148.314 36.3396 148.414L35.9869 149.536C35.8441 149.477 35.6173 149.447 35.3066 149.447C34.8699 149.447 34.4877 149.624 34.1602 149.976C33.841 150.329 33.6814 150.741 33.6814 151.211V154.613ZM42.6387 153.756C43.2098 153.756 43.6759 153.55 44.0371 153.139C44.415 152.727 44.604 152.19 44.604 151.526C44.604 150.879 44.415 150.346 44.0371 149.926C43.6675 149.506 43.2014 149.296 42.6387 149.296C42.0844 149.296 41.6183 149.506 41.2403 149.926C40.8624 150.346 40.6734 150.879 40.6734 151.526C40.6734 152.181 40.8624 152.714 41.2403 153.126C41.6183 153.546 42.0844 153.756 42.6387 153.756ZM42.4497 154.814C41.6435 154.814 40.9506 154.495 40.3711 153.857C39.8 153.21 39.5144 152.433 39.5144 151.526C39.5144 150.619 39.8 149.842 40.3711 149.195C40.9506 148.557 41.6435 148.238 42.4497 148.238C42.9033 148.238 43.3148 148.335 43.6843 148.528C44.0623 148.721 44.352 148.977 44.5536 149.296H44.604L44.5536 148.44V145.592H45.7126V154.613H44.604V153.756H44.5536C44.352 154.075 44.0623 154.331 43.6843 154.524C43.3148 154.718 42.9033 154.814 42.4497 154.814ZM47.9083 152.723C47.9083 153.025 48.0343 153.277 48.2862 153.479C48.5466 153.68 48.849 153.781 49.1933 153.781C49.6804 153.781 50.113 153.601 50.4909 153.239C50.8772 152.878 51.0704 152.454 51.0704 151.967C50.7093 151.681 50.2053 151.539 49.5586 151.539C49.0883 151.539 48.6936 151.652 48.3744 151.879C48.0637 152.106 47.9083 152.387 47.9083 152.723ZM49.4075 148.238C50.2641 148.238 50.9402 148.469 51.4357 148.931C51.9313 149.384 52.179 150.01 52.179 150.808V154.613H51.0704V153.756H51.02C50.5413 154.461 49.903 154.814 49.1051 154.814C48.4248 154.814 47.8537 154.613 47.3918 154.209C46.9383 153.806 46.7115 153.302 46.7115 152.698C46.7115 152.059 46.9509 151.551 47.4296 151.173C47.9167 150.795 48.5634 150.606 49.3697 150.606C50.0584 150.606 50.6253 150.732 51.0704 150.984V150.72C51.0704 150.317 50.9108 149.976 50.5917 149.699C50.2725 149.414 49.8988 149.271 49.4705 149.271C48.8238 149.271 48.3114 149.544 47.9335 150.09L46.9131 149.447C47.4758 148.641 48.3072 148.238 49.4075 148.238ZM58.8812 148.44L55.0136 157.334H53.8168L55.2529 154.222L52.7081 148.44H53.9679L55.8072 152.874H55.8324L57.6214 148.44H58.8812ZM71.1487 148.44L69.1583 154.613H67.974L66.4371 149.876L64.9127 154.613H63.7411L61.7506 148.44H62.96L64.3332 153.101H64.3458L65.8702 148.44H67.067L68.5913 153.101H68.6039L69.9645 148.44H71.1487ZM73.4026 146.31C73.4026 146.537 73.3228 146.73 73.1632 146.89C73.0037 147.05 72.8105 147.129 72.5837 147.129C72.357 147.129 72.1638 147.05 72.0042 146.89C71.8446 146.73 71.7649 146.537 71.7649 146.31C71.7649 146.084 71.8446 145.891 72.0042 145.731C72.1638 145.571 72.357 145.492 72.5837 145.492C72.8105 145.492 73.0037 145.571 73.1632 145.731C73.3228 145.891 73.4026 146.084 73.4026 146.31ZM73.1632 148.44V154.613H72.0042V148.44H73.1632ZM77.054 154.713C76.5501 154.713 76.1302 154.558 75.7942 154.247C75.4667 153.936 75.2987 153.504 75.2903 152.95V149.498H74.2069V148.44H75.2903V146.55H76.4493V148.44H77.9611V149.498H76.4493V152.572C76.4493 152.983 76.5291 153.265 76.6887 153.416C76.8483 153.559 77.0288 153.63 77.2304 153.63C77.3228 153.63 77.411 153.622 77.495 153.605C77.5874 153.58 77.6713 153.55 77.7469 153.517L78.1123 154.55C77.8099 154.659 77.4572 154.713 77.054 154.713ZM79.1251 145.592H80.2841V148.44L80.2338 149.296H80.2841C80.4605 148.994 80.7293 148.742 81.0904 148.54C81.46 148.339 81.8421 148.238 82.2368 148.238C82.9927 148.238 83.5722 148.456 83.9754 148.893C84.3869 149.321 84.5927 149.934 84.5927 150.732V154.613H83.4336V150.959C83.4336 149.851 82.9423 149.296 81.9597 149.296C81.4894 149.296 81.0904 149.494 80.7629 149.888C80.4437 150.275 80.2841 150.728 80.2841 151.249V154.613H79.1251V145.592ZM97.3568 150.468C97.3568 151.728 96.983 152.731 96.2356 153.479C95.3957 154.369 94.2913 154.814 92.9223 154.814C91.6121 154.814 90.5035 154.361 89.5964 153.454C88.6894 152.546 88.2358 151.429 88.2358 150.102C88.2358 148.775 88.6894 147.658 89.5964 146.751C90.5035 145.844 91.6121 145.391 92.9223 145.391C93.5858 145.391 94.2115 145.508 94.7994 145.744C95.3873 145.979 95.8702 146.31 96.2482 146.739L95.4167 147.57C95.1395 147.234 94.7784 146.974 94.3333 146.789C93.8965 146.596 93.4262 146.499 92.9223 146.499C91.9396 146.499 91.1082 146.84 90.4279 147.52C89.756 148.209 89.4201 149.069 89.4201 150.102C89.4201 151.136 89.756 151.996 90.4279 152.685C91.1082 153.365 91.9396 153.705 92.9223 153.705C93.8209 153.705 94.5684 153.454 95.1647 152.95C95.761 152.446 96.1054 151.753 96.1978 150.871H92.9223V149.788H97.2938C97.3358 150.023 97.3568 150.249 97.3568 150.468ZM101.273 154.814C100.366 154.814 99.6189 154.503 99.031 153.882C98.4431 153.26 98.1492 152.475 98.1492 151.526C98.1492 150.585 98.4347 149.804 99.0058 149.183C99.5769 148.553 100.308 148.238 101.198 148.238C102.113 148.238 102.84 148.536 103.377 149.132C103.923 149.72 104.196 150.548 104.196 151.614L104.184 151.74H99.3334C99.3502 152.345 99.5518 152.832 99.9381 153.202C100.324 153.571 100.786 153.756 101.324 153.756C102.063 153.756 102.642 153.386 103.062 152.647L104.095 153.151C103.818 153.672 103.432 154.079 102.936 154.373C102.449 154.667 101.895 154.814 101.273 154.814ZM99.4216 150.783H102.962C102.928 150.354 102.752 150.002 102.432 149.725C102.122 149.439 101.702 149.296 101.173 149.296C100.736 149.296 100.358 149.431 100.039 149.699C99.7281 149.968 99.5224 150.329 99.4216 150.783ZM106.415 154.613H105.256V148.44H106.365V149.296H106.415C106.591 148.994 106.86 148.742 107.221 148.54C107.591 148.339 107.956 148.238 108.317 148.238C108.771 148.238 109.17 148.343 109.514 148.553C109.859 148.763 110.111 149.053 110.27 149.422C110.782 148.633 111.492 148.238 112.399 148.238C113.113 148.238 113.663 148.456 114.05 148.893C114.436 149.33 114.629 149.951 114.629 150.758V154.613H113.47V150.934C113.47 150.354 113.365 149.939 113.155 149.687C112.945 149.426 112.592 149.296 112.097 149.296C111.652 149.296 111.278 149.485 110.976 149.863C110.673 150.241 110.522 150.686 110.522 151.198V154.613H109.363V150.934C109.363 150.354 109.258 149.939 109.048 149.687C108.838 149.426 108.485 149.296 107.99 149.296C107.545 149.296 107.171 149.485 106.869 149.863C106.566 150.241 106.415 150.686 106.415 151.198V154.613ZM117.483 146.31C117.483 146.537 117.403 146.73 117.244 146.89C117.084 147.05 116.891 147.129 116.664 147.129C116.438 147.129 116.244 147.05 116.085 146.89C115.925 146.73 115.846 146.537 115.846 146.31C115.846 146.084 115.925 145.891 116.085 145.731C116.244 145.571 116.438 145.492 116.664 145.492C116.891 145.492 117.084 145.571 117.244 145.731C117.403 145.891 117.483 146.084 117.483 146.31ZM117.244 148.44V154.613H116.085V148.44H117.244ZM118.752 148.44H119.861V149.296H119.911C120.088 148.994 120.356 148.742 120.717 148.54C121.087 148.339 121.469 148.238 121.864 148.238C122.62 148.238 123.199 148.456 123.602 148.893C124.014 149.321 124.22 149.934 124.22 150.732V154.613H123.061V150.808C123.036 149.8 122.527 149.296 121.536 149.296C121.074 149.296 120.688 149.485 120.377 149.863C120.067 150.233 119.911 150.678 119.911 151.198V154.613H118.752V148.44ZM127.079 146.31C127.079 146.537 127 146.73 126.84 146.89C126.68 147.05 126.487 147.129 126.26 147.129C126.034 147.129 125.841 147.05 125.681 146.89C125.521 146.73 125.442 146.537 125.442 146.31C125.442 146.084 125.521 145.891 125.681 145.731C125.841 145.571 126.034 145.492 126.26 145.492C126.487 145.492 126.68 145.571 126.84 145.731C127 145.891 127.079 146.084 127.079 146.31ZM126.84 148.44V154.613H125.681V148.44H126.84ZM129.961 153.831C129.961 154.067 129.877 154.268 129.709 154.436C129.549 154.604 129.348 154.688 129.104 154.688C128.869 154.688 128.667 154.604 128.499 154.436C128.332 154.268 128.248 154.067 128.248 153.831C128.248 153.588 128.332 153.386 128.499 153.227C128.667 153.059 128.869 152.975 129.104 152.975C129.348 152.975 129.549 153.059 129.709 153.227C129.877 153.386 129.961 153.588 129.961 153.831Z" fill="black"/>
<path d="M16.385 208.596C16.385 209.134 16.1876 209.566 15.7927 209.892C15.3921 210.212 14.9057 210.373 14.3334 210.373C13.824 210.373 13.3748 210.224 12.9856 209.926C12.5965 209.629 12.3275 209.222 12.1787 208.707L12.9341 208.398C12.9856 208.581 13.0571 208.747 13.1487 208.896C13.2403 209.045 13.3462 209.174 13.4663 209.282C13.5922 209.385 13.7296 209.468 13.8784 209.531C14.0272 209.589 14.1846 209.617 14.3505 209.617C14.7111 209.617 15.0058 209.526 15.2347 209.343C15.4636 209.154 15.5781 208.905 15.5781 208.596C15.5781 208.338 15.4837 208.118 15.2948 207.935C15.1174 207.757 14.7855 207.586 14.299 207.42C13.8069 207.242 13.5007 207.122 13.3805 207.059C12.7281 206.727 12.4019 206.238 12.4019 205.591C12.4019 205.139 12.5821 204.753 12.9427 204.432C13.309 204.112 13.7582 203.952 14.2904 203.952C14.7597 203.952 15.166 204.072 15.5094 204.312C15.8528 204.547 16.0817 204.841 16.1962 205.196L15.4579 205.505C15.3892 205.276 15.2519 205.088 15.0459 204.939C14.8456 204.784 14.5995 204.707 14.3076 204.707C13.9986 204.707 13.7382 204.793 13.5264 204.965C13.3147 205.125 13.2088 205.334 13.2088 205.591C13.2088 205.803 13.2918 205.986 13.4578 206.141C13.6409 206.295 14.0386 206.478 14.651 206.69C15.2748 206.902 15.7183 207.162 15.9816 207.471C16.2505 207.774 16.385 208.149 16.385 208.596ZM23.072 206.029L21.7157 210.235H20.9087L19.8614 207.008L18.8227 210.235H18.0244L16.668 206.029H17.4921L18.4278 209.205H18.4364L19.4751 206.029H20.2907L21.3294 209.205H21.3379L22.2651 206.029H23.072ZM24.6078 204.578C24.6078 204.733 24.5534 204.864 24.4447 204.973C24.336 205.082 24.2043 205.136 24.0498 205.136C23.8953 205.136 23.7637 205.082 23.6549 204.973C23.5462 204.864 23.4918 204.733 23.4918 204.578C23.4918 204.424 23.5462 204.292 23.6549 204.183C23.7637 204.075 23.8953 204.02 24.0498 204.02C24.2043 204.02 24.336 204.075 24.4447 204.183C24.5534 204.292 24.6078 204.424 24.6078 204.578ZM24.4447 206.029V210.235H23.6549V206.029H24.4447ZM27.5327 209.652C27.9104 209.652 28.2281 209.509 28.4856 209.222C28.7431 208.942 28.8719 208.579 28.8719 208.132C28.8719 207.692 28.7431 207.328 28.4856 207.042C28.2281 206.756 27.9104 206.613 27.5327 206.613C27.1493 206.613 26.8288 206.756 26.5713 207.042C26.3195 207.328 26.1936 207.692 26.1936 208.132C26.1936 208.579 26.3195 208.945 26.5713 209.231C26.8288 209.511 27.1493 209.652 27.5327 209.652ZM27.6615 210.373C27.3524 210.373 27.0692 210.307 26.8116 210.175C26.5598 210.044 26.3652 209.869 26.2279 209.652H26.1936L26.2279 210.235V212.09H25.4381V206.029H26.1936V206.613H26.2279C26.3652 206.395 26.5598 206.221 26.8116 206.089C27.0692 205.957 27.3524 205.892 27.6615 205.892C28.2166 205.892 28.6859 206.109 29.0693 206.544C29.4642 206.985 29.6616 207.514 29.6616 208.132C29.6616 208.756 29.4642 209.285 29.0693 209.72C28.6859 210.155 28.2166 210.373 27.6615 210.373ZM32.2736 210.373C31.6555 210.373 31.1462 210.161 30.7456 209.737C30.345 209.314 30.1446 208.779 30.1446 208.132C30.1446 207.491 30.3392 206.959 30.7284 206.535C31.1175 206.106 31.6154 205.892 32.2221 205.892C32.8459 205.892 33.3409 206.095 33.7072 206.501C34.0792 206.902 34.2652 207.465 34.2652 208.192L34.2566 208.278H30.9516C30.963 208.69 31.1004 209.022 31.3636 209.274C31.6269 209.526 31.9416 209.652 32.3079 209.652C32.8115 209.652 33.2064 209.4 33.4926 208.896L34.1965 209.24C34.0076 209.594 33.7444 209.872 33.4067 210.072C33.0748 210.273 32.6971 210.373 32.2736 210.373ZM31.0117 207.626H33.4239C33.401 207.334 33.2808 207.093 33.0633 206.905C32.8516 206.71 32.5654 206.613 32.2049 206.613C31.9073 206.613 31.6498 206.704 31.4323 206.887C31.2206 207.071 31.0803 207.317 31.0117 207.626ZM38.646 204.02C38.9321 204.02 39.1668 204.069 39.3499 204.166L39.1353 204.862C38.998 204.793 38.8434 204.759 38.6718 204.759C38.4772 204.759 38.3169 204.827 38.191 204.965C38.0708 205.096 38.0108 205.274 38.0108 205.497V206.029H39.1096V206.75H38.0108V210.235H37.221V206.75H36.4312V206.029H37.221V205.42C37.221 205.002 37.3526 204.664 37.6159 204.407C37.8849 204.149 38.2282 204.02 38.646 204.02ZM39.3661 208.132C39.3661 207.485 39.5693 206.95 39.9756 206.527C40.3877 206.103 40.9056 205.892 41.5294 205.892C42.1532 205.892 42.6683 206.103 43.0746 206.527C43.4867 206.95 43.6927 207.485 43.6927 208.132C43.6927 208.785 43.4867 209.32 43.0746 209.737C42.6683 210.161 42.1532 210.373 41.5294 210.373C40.9056 210.373 40.3877 210.161 39.9756 209.737C39.5693 209.314 39.3661 208.779 39.3661 208.132ZM40.1559 208.132C40.1559 208.584 40.2875 208.951 40.5508 209.231C40.814 209.511 41.1403 209.652 41.5294 209.652C41.9186 209.652 42.2448 209.511 42.508 209.231C42.7713 208.951 42.9029 208.584 42.9029 208.132C42.9029 207.686 42.7713 207.322 42.508 207.042C42.2391 206.756 41.9128 206.613 41.5294 206.613C41.146 206.613 40.8198 206.756 40.5508 207.042C40.2875 207.322 40.1559 207.686 40.1559 208.132ZM45.116 210.235H44.3262V206.029H45.0817V206.716H45.116C45.1961 206.493 45.3592 206.304 45.6053 206.149C45.8571 205.989 46.1032 205.909 46.3436 205.909C46.5725 205.909 46.7671 205.943 46.9273 206.012L46.6869 206.776C46.5897 206.736 46.4351 206.716 46.2234 206.716C45.9258 206.716 45.6654 206.836 45.4422 207.076C45.2247 207.317 45.116 207.597 45.116 207.918V210.235ZM50.1208 210.235H49.331V206.029H50.0864V206.613H50.1208C50.2409 206.407 50.4241 206.235 50.6702 206.098C50.922 205.96 51.1709 205.892 51.417 205.892C51.726 205.892 51.9979 205.963 52.2325 206.106C52.4672 206.249 52.6388 206.447 52.7476 206.699C53.0967 206.161 53.5803 205.892 54.1983 205.892C54.6848 205.892 55.0596 206.04 55.3229 206.338C55.5862 206.636 55.7178 207.059 55.7178 207.609V210.235H54.928V207.729C54.928 207.334 54.8565 207.051 54.7134 206.879C54.5703 206.701 54.33 206.613 53.9923 206.613C53.689 206.613 53.4343 206.742 53.2283 206.999C53.0223 207.257 52.9193 207.56 52.9193 207.909V210.235H52.1295V207.729C52.1295 207.334 52.058 207.051 51.9149 206.879C51.7718 206.701 51.5315 206.613 51.1938 206.613C50.8905 206.613 50.6358 206.742 50.4298 206.999C50.2238 207.257 50.1208 207.56 50.1208 207.909V210.235ZM56.4008 208.132C56.4008 207.485 56.6039 206.95 57.0103 206.527C57.4223 206.103 57.9402 205.892 58.564 205.892C59.1878 205.892 59.7029 206.103 60.1092 206.527C60.5213 206.95 60.7273 207.485 60.7273 208.132C60.7273 208.785 60.5213 209.32 60.1092 209.737C59.7029 210.161 59.1878 210.373 58.564 210.373C57.9402 210.373 57.4223 210.161 57.0103 209.737C56.6039 209.314 56.4008 208.779 56.4008 208.132ZM57.1905 208.132C57.1905 208.584 57.3222 208.951 57.5854 209.231C57.8487 209.511 58.1749 209.652 58.564 209.652C58.9532 209.652 59.2794 209.511 59.5427 209.231C59.8059 208.951 59.9375 208.584 59.9375 208.132C59.9375 207.686 59.8059 207.322 59.5427 207.042C59.2737 206.756 58.9475 206.613 58.564 206.613C58.1806 206.613 57.8544 206.756 57.5854 207.042C57.3222 207.322 57.1905 207.686 57.1905 208.132ZM62.1506 210.235H61.3609V206.029H62.1163V206.716H62.1506C62.2308 206.493 62.3939 206.304 62.6399 206.149C62.8918 205.989 63.1378 205.909 63.3782 205.909C63.6071 205.909 63.8017 205.943 63.9619 206.012L63.7216 206.776C63.6243 206.736 63.4698 206.716 63.258 206.716C62.9604 206.716 62.7 206.836 62.4768 207.076C62.2594 207.317 62.1506 207.597 62.1506 207.918V210.235ZM66.1081 210.373C65.49 210.373 64.9807 210.161 64.5801 209.737C64.1795 209.314 63.9792 208.779 63.9792 208.132C63.9792 207.491 64.1738 206.959 64.5629 206.535C64.9521 206.106 65.45 205.892 66.0566 205.892C66.6804 205.892 67.1754 206.095 67.5417 206.501C67.9137 206.902 68.0997 207.465 68.0997 208.192L68.0911 208.278H64.7861C64.7976 208.69 64.9349 209.022 65.1982 209.274C65.4614 209.526 65.7762 209.652 66.1424 209.652C66.6461 209.652 67.0409 209.4 67.3271 208.896L68.031 209.24C67.8421 209.594 67.5789 209.872 67.2412 210.072C66.9093 210.273 66.5316 210.373 66.1081 210.373ZM64.8462 207.626H67.2584C67.2355 207.334 67.1153 207.093 66.8979 206.905C66.6861 206.71 66.4 206.613 66.0394 206.613C65.7418 206.613 65.4843 206.704 65.2668 206.887C65.0551 207.071 64.9149 207.317 64.8462 207.626Z" fill="#145DBF"/>
<path d="M79.7023 202.943L78.9458 203.7L81.9396 206.699H75.4102V207.772H81.9396L78.9458 210.771L79.7023 211.528L83.9945 207.236L79.7023 202.943Z" fill="#145DBF"/>
<defs>
<clipPath id="clip0_367_7662">
<rect width="66.27" height="11.5438" fill="white" transform="translate(11.9727 16.9233)"/>
</clipPath>
</defs>
</svg>
