<svg width="232" height="232" viewBox="0 0 232 232" fill="none" xmlns="http://www.w3.org/2000/svg">
<rect width="230.876" height="230.876" transform="translate(0.675781 0.890625)" fill="#F8F9F6"/>
<g clip-path="url(#clip0_367_7676)">
<path d="M55.6404 25.8787C55.0963 25.8914 54.5553 25.7926 54.0505 25.5883C53.5457 25.384 53.0876 25.0785 52.7043 24.6904C52.321 24.3024 52.0205 23.84 51.8212 23.3314C51.6219 22.8229 51.5279 22.2788 51.5449 21.7326C51.5309 21.1898 51.6268 20.6499 51.8269 20.1455C52.027 19.6412 52.3271 19.1829 52.7089 18.7985C53.0894 18.4077 53.5462 18.1 54.0506 17.8947C54.5551 17.6895 55.0963 17.5911 55.6404 17.6057C56.1853 17.5922 56.7262 17.7014 57.2236 17.9253C57.7209 18.1492 58.162 18.4821 58.5144 18.8995L57.8103 19.6066C57.552 19.2787 57.2218 19.0153 56.8454 18.8367C56.469 18.6582 56.0566 18.5694 55.6404 18.5773C55.2347 18.5673 54.8313 18.6407 54.4549 18.7929C54.0785 18.9451 53.737 19.1729 53.4514 19.4623C53.1596 19.761 52.9317 20.1165 52.7818 20.507C52.6319 20.8974 52.5631 21.3145 52.5796 21.7326C52.5618 22.1523 52.6299 22.5712 52.7799 22.9634C52.9298 23.3555 53.1584 23.7126 53.4514 24.0125C53.7363 24.3028 54.0777 24.5312 54.4543 24.6835C54.8309 24.8357 55.2346 24.9086 55.6404 24.8975C56.1008 24.8953 56.5549 24.7895 56.9693 24.5881C57.3838 24.3867 57.748 24.0947 58.0354 23.7335L58.7731 24.455C58.3997 24.9032 57.9296 25.2602 57.3983 25.4987C56.847 25.7528 56.247 25.8825 55.6404 25.8787ZM60.6077 17.7836V25.7056H59.5922V17.7836H60.6077ZM61.4794 22.9928C61.4684 22.6131 61.5321 22.2349 61.6669 21.88C61.8017 21.5251 62.005 21.2004 62.265 20.9245C62.5224 20.6567 62.8325 20.4457 63.1756 20.3049C63.5186 20.1641 63.8872 20.0967 64.2577 20.1068C64.6268 20.0962 64.994 20.1635 65.3356 20.3044C65.6772 20.4452 65.9855 20.6565 66.2407 20.9245C66.5034 21.1987 66.7087 21.5231 66.8444 21.8783C66.9802 22.2335 67.0436 22.6125 67.0311 22.9928C67.045 23.3732 66.9822 23.7526 66.8464 24.108C66.7105 24.4634 66.5045 24.7876 66.2407 25.061C65.9863 25.33 65.6781 25.5419 65.3363 25.6829C64.9945 25.8238 64.6269 25.8905 64.2577 25.8787C63.887 25.8901 63.5181 25.8232 63.1749 25.6823C62.8316 25.5414 62.5217 25.3298 62.265 25.061C62.005 24.7852 61.8017 24.4605 61.6669 24.1055C61.5321 23.7506 61.4684 23.3725 61.4794 22.9928ZM62.4949 22.9928C62.4716 23.513 62.6541 24.0213 63.0027 24.4069C63.1639 24.5787 63.3584 24.7156 63.5742 24.8091C63.79 24.9027 64.0226 24.9509 64.2577 24.9509C64.4927 24.9509 64.7253 24.9027 64.9411 24.8091C65.1569 24.7156 65.3514 24.5787 65.5126 24.4069C65.8612 24.0213 66.0437 23.513 66.0204 22.9928C66.0427 22.4756 65.8602 21.9706 65.5126 21.5883C65.3529 21.4139 65.1589 21.2748 64.9429 21.1796C64.7269 21.0844 64.4936 21.0352 64.2577 21.0352C64.0218 21.0352 63.7884 21.0844 63.5724 21.1796C63.3564 21.2748 63.1624 21.4139 63.0027 21.5883C62.6552 21.9706 62.4726 22.4756 62.4949 22.9928ZM72.6354 25.7056H71.6774V24.9504H71.6295C71.4582 25.2327 71.213 25.4623 70.9206 25.6142C70.6167 25.7871 70.2735 25.8782 69.9243 25.8787C69.6442 25.8969 69.3634 25.8558 69.1002 25.7581C68.8369 25.6603 68.5971 25.508 68.3962 25.3112C68.0167 24.8603 67.8261 24.2793 67.8645 23.6902V20.2896H68.8752V23.6277C68.8541 23.8084 68.8743 23.9916 68.9342 24.1633C68.9941 24.335 69.0922 24.4908 69.221 24.6187C69.3498 24.7467 69.506 24.8435 69.6777 24.9018C69.8493 24.9601 70.0319 24.9784 70.2117 24.9552C70.4056 24.9586 70.5978 24.917 70.7731 24.8335C70.9484 24.7501 71.1021 24.6271 71.2224 24.4742C71.4956 24.1438 71.6402 23.7251 71.6295 23.2958V20.2896H72.645L72.6354 25.7056ZM76.0651 25.8787C75.7203 25.8786 75.3796 25.8038 75.0663 25.6594C74.753 25.515 74.4744 25.3043 74.2497 25.0418C73.7464 24.48 73.4727 23.7483 73.4832 22.9928C73.4668 22.2411 73.7337 21.511 74.2305 20.9486C74.4536 20.6837 74.7317 20.4711 75.0453 20.3257C75.3589 20.1803 75.7005 20.1056 76.0459 20.1068C76.4238 20.1004 76.7973 20.188 77.1332 20.3617C77.441 20.5141 77.7024 20.7467 77.8901 21.0351H77.9332L77.9092 20.2896V17.7836H78.9199V25.7056H77.9619V24.9504H77.9188C77.7311 25.2389 77.4698 25.4714 77.162 25.6238C76.8232 25.7991 76.4461 25.8868 76.0651 25.8787ZM76.2327 24.9504C76.4639 24.9579 76.6938 24.9129 76.9053 24.8188C77.1168 24.7247 77.3044 24.5839 77.4542 24.4069C77.7892 24.015 77.9608 23.5085 77.9332 22.9928C77.9563 22.4806 77.7851 21.9787 77.4542 21.5883C77.3049 21.41 77.1176 21.2678 76.9062 21.172C76.6947 21.0763 76.4646 21.0295 76.2327 21.0351C76.0012 21.0315 75.7716 21.0793 75.5605 21.1749C75.3494 21.2705 75.1619 21.4116 75.0113 21.5883C74.6803 21.9787 74.5091 22.4806 74.5323 22.9928C74.5057 23.5054 74.6773 24.0086 75.0113 24.3973C75.1619 24.5739 75.3494 24.7151 75.5605 24.8107C75.7716 24.9063 76.0012 24.954 76.2327 24.9504Z" fill="#5F6368"/>
<path d="M17.1942 25.8783C16.0022 25.8822 14.8568 25.4144 14.0059 24.5763C13.155 23.7381 12.6673 22.597 12.6484 21.4003C12.6673 20.2035 13.155 19.0624 14.0059 18.2243C14.8568 17.3861 16.0022 16.9183 17.1942 16.9222C17.7621 16.9127 18.3263 17.0172 18.8535 17.2294C19.3807 17.4417 19.8605 17.7575 20.2646 18.1584L19.3976 19.0193C18.8064 18.4478 18.0147 18.1332 17.1942 18.1439C16.7693 18.1426 16.3484 18.2262 15.956 18.3897C15.5636 18.5533 15.2074 18.7935 14.9084 19.0966C14.6093 19.3996 14.3732 19.7593 14.2138 20.1548C14.0544 20.5503 13.975 20.9736 13.9801 21.4003C13.975 21.8269 14.0544 22.2502 14.2138 22.6457C14.3732 23.0412 14.6093 23.4009 14.9084 23.704C15.2074 24.007 15.5636 24.2472 15.956 24.4108C16.3484 24.5743 16.7693 24.6579 17.1942 24.6566C17.6127 24.6738 18.0302 24.6027 18.4197 24.4477C18.8091 24.2928 19.1618 24.0575 19.4551 23.7571C19.8459 23.3338 20.0808 22.789 20.1209 22.2131H17.1942V20.9962H21.3136C21.3585 21.2486 21.3794 21.5047 21.3759 21.761C21.4083 22.8166 21.0264 23.8426 20.3125 24.6181C19.9107 25.0372 19.4251 25.3662 18.8877 25.5834C18.3502 25.8006 17.7731 25.9011 17.1942 25.8783Z" fill="#4285F4"/>
<path d="M27.7467 22.9924C27.7625 23.3771 27.7006 23.7611 27.5648 24.1212C27.429 24.4813 27.2222 24.8101 26.9566 25.088C26.6911 25.3658 26.3724 25.5868 26.0196 25.7378C25.6669 25.8888 25.2873 25.9667 24.9039 25.9667C24.5204 25.9667 24.1409 25.8888 23.7881 25.7378C23.4354 25.5868 23.1166 25.3658 22.8511 25.088C22.5856 24.8101 22.3787 24.4813 22.2429 24.1212C22.1071 23.7611 22.0453 23.3771 22.061 22.9924C22.0453 22.6076 22.1071 22.2237 22.2429 21.8635C22.3787 21.5034 22.5856 21.1746 22.8511 20.8968C23.1166 20.6189 23.4354 20.3979 23.7881 20.2469C24.1409 20.0959 24.5204 20.0181 24.9039 20.0181C25.2873 20.0181 25.6669 20.0959 26.0196 20.2469C26.3724 20.3979 26.6911 20.6189 26.9566 20.8968C27.2222 21.1746 27.429 21.5034 27.5648 21.8635C27.7006 22.2237 27.7625 22.6076 27.7467 22.9924ZM26.5013 22.9924C26.5225 22.7689 26.4969 22.5435 26.4262 22.3306C26.3555 22.1177 26.2413 21.9219 26.0909 21.7559C25.9406 21.5898 25.7573 21.4572 25.5529 21.3664C25.3484 21.2756 25.1274 21.2287 24.9039 21.2287C24.6804 21.2287 24.4593 21.2756 24.2549 21.3664C24.0505 21.4572 23.8672 21.5898 23.7168 21.7559C23.5664 21.9219 23.4522 22.1177 23.3815 22.3306C23.3109 22.5435 23.2853 22.7689 23.3064 22.9924C23.2853 23.2158 23.3109 23.4412 23.3815 23.6541C23.4522 23.8671 23.5664 24.0628 23.7168 24.2289C23.8672 24.3949 24.0505 24.5276 24.2549 24.6183C24.4593 24.7091 24.6804 24.756 24.9039 24.756C25.1274 24.756 25.3484 24.7091 25.5529 24.6183C25.7573 24.5276 25.9406 24.3949 26.0909 24.2289C26.2413 24.0628 26.3555 23.8671 26.4262 23.6541C26.4969 23.4412 26.5225 23.2158 26.5013 22.9924Z" fill="#EA4335"/>
<path d="M34.1217 22.9924C34.1375 23.3771 34.0756 23.7611 33.9398 24.1212C33.804 24.4813 33.5972 24.8101 33.3316 25.088C33.0661 25.3658 32.7474 25.5868 32.3946 25.7378C32.0419 25.8888 31.6623 25.9667 31.2789 25.9667C30.8954 25.9667 30.5159 25.8888 30.1631 25.7378C29.8104 25.5868 29.4916 25.3658 29.2261 25.088C28.9606 24.8101 28.7537 24.4813 28.6179 24.1212C28.4821 23.7611 28.4203 23.3771 28.436 22.9924C28.4203 22.6076 28.4821 22.2237 28.6179 21.8635C28.7537 21.5034 28.9606 21.1746 29.2261 20.8968C29.4916 20.6189 29.8104 20.3979 30.1631 20.2469C30.5159 20.0959 30.8954 20.0181 31.2789 20.0181C31.6623 20.0181 32.0419 20.0959 32.3946 20.2469C32.7474 20.3979 33.0661 20.6189 33.3316 20.8968C33.5972 21.1746 33.804 21.5034 33.9398 21.8635C34.0756 22.2237 34.1375 22.6076 34.1217 22.9924ZM32.8763 22.9924C32.8934 22.7709 32.8647 22.5484 32.7921 22.3386C32.7194 22.1288 32.6044 21.9364 32.4541 21.7734C32.3039 21.6105 32.1217 21.4804 31.9191 21.3915C31.7164 21.3025 31.4976 21.2566 31.2765 21.2566C31.0553 21.2566 30.8365 21.3025 30.6339 21.3915C30.4312 21.4804 30.249 21.6105 30.0988 21.7734C29.9486 21.9364 29.8335 22.1288 29.7609 22.3386C29.6882 22.5484 29.6595 22.7709 29.6766 22.9924C29.6595 23.2138 29.6882 23.4364 29.7609 23.6461C29.8335 23.8559 29.9486 24.0483 30.0988 24.2113C30.249 24.3743 30.4312 24.5043 30.6339 24.5932C30.8365 24.6822 31.0553 24.7281 31.2765 24.7281C31.4976 24.7281 31.7164 24.6822 31.9191 24.5932C32.1217 24.5043 32.3039 24.3743 32.4541 24.2113C32.6044 24.0483 32.7194 23.8559 32.7921 23.6461C32.8647 23.4364 32.8934 23.2138 32.8763 22.9924Z" fill="#FBBC04"/>
<path d="M40.3358 20.2888V25.4643C40.3358 27.5903 39.076 28.4657 37.5911 28.4657C37.0447 28.4687 36.5096 28.3084 36.0542 28.0052C35.5987 27.702 35.2433 27.2696 35.0333 26.763L36.1398 26.282C36.2513 26.5769 36.4472 26.832 36.703 27.0152C36.9587 27.1984 37.2628 27.3014 37.5768 27.3113C38.5348 27.3113 39.1192 26.7197 39.1192 25.6182V25.2046H39.0904C38.8988 25.4217 38.6625 25.5944 38.3978 25.7106C38.1331 25.8269 37.8464 25.884 37.5576 25.878C36.7954 25.878 36.0644 25.5739 35.5254 25.0327C34.9864 24.4915 34.6836 23.7574 34.6836 22.992C34.6836 22.2266 34.9864 21.4926 35.5254 20.9513C36.0644 20.4101 36.7954 20.1061 37.5576 20.1061C37.8454 20.1007 38.1311 20.1572 38.3954 20.2716C38.6598 20.3861 38.8967 20.556 39.0904 20.7698H39.1335V20.2888H40.3358ZM39.2197 23.0112C39.2373 22.7932 39.211 22.5738 39.1424 22.3661C39.0738 22.1585 38.9643 21.9668 38.8204 21.8025C38.6765 21.6383 38.5011 21.5048 38.3047 21.41C38.1084 21.3152 37.895 21.2611 37.6774 21.2508C37.4563 21.2588 37.239 21.3109 37.0382 21.4041C36.8374 21.4972 36.6571 21.6296 36.5077 21.7934C36.3584 21.9573 36.243 22.1494 36.1683 22.3584C36.0936 22.5675 36.0611 22.7894 36.0727 23.0112C36.0624 23.2316 36.096 23.4517 36.1714 23.6589C36.2469 23.866 36.3627 24.056 36.5121 24.2176C36.6615 24.3793 36.8415 24.5094 37.0416 24.6004C37.2417 24.6914 37.4578 24.7415 37.6774 24.7476C37.8941 24.7399 38.1071 24.6881 38.3034 24.5954C38.4997 24.5027 38.6752 24.371 38.8194 24.2082C38.9635 24.0455 39.0733 23.8551 39.1422 23.6485C39.211 23.442 39.2374 23.2235 39.2197 23.0064V23.0112Z" fill="#4285F4"/>
<path d="M42.5536 17.2302V25.7053H41.2891V17.2302H42.5536Z" fill="#34A853"/>
<path d="M47.5324 23.9449L48.5192 24.6183C48.2557 25.0131 47.8993 25.3364 47.4815 25.5596C47.0637 25.7828 46.5974 25.899 46.1242 25.8977C45.7477 25.9031 45.3741 25.8318 45.0258 25.688C44.6776 25.5442 44.3621 25.3309 44.0984 25.0611C43.8346 24.7914 43.6281 24.4706 43.4914 24.1184C43.3546 23.7661 43.2905 23.3897 43.3028 23.0118C43.2468 22.3622 43.4307 21.7146 43.8196 21.1924C44.2085 20.6702 44.7752 20.31 45.4116 20.1804C46.048 20.0508 46.7096 20.1609 47.2703 20.4897C47.8311 20.8185 48.2517 21.343 48.4521 21.9632L48.5815 22.2951L44.7494 23.8872C44.8688 24.1567 45.0659 24.3841 45.3152 24.5401C45.5645 24.6962 45.8546 24.7736 46.1481 24.7626C46.4292 24.7562 46.7039 24.6777 46.9462 24.5346C47.1885 24.3915 47.3903 24.1885 47.5324 23.9449ZM44.5099 22.906L47.087 21.8382C46.9838 21.6466 46.8276 21.4892 46.6371 21.3851C46.4467 21.2809 46.2302 21.2345 46.014 21.2514C45.807 21.2606 45.6038 21.3108 45.4161 21.399C45.2284 21.4872 45.0599 21.6117 44.9202 21.7654C44.7805 21.9191 44.6723 22.0989 44.602 22.2947C44.5316 22.4904 44.5003 22.6981 44.5099 22.906Z" fill="#EA4335"/>
</g>
<path d="M14.126 79.7115H16.4451L21.2473 88.0641H21.3704L26.1726 79.7115H28.4711V94.4055H26.1726V86.4223L26.2958 83.9597H26.1726L21.9861 91.2861H20.6111L16.4451 83.9597H16.3219L16.4451 86.4223V94.4055H14.126V79.7115ZM37.1546 93.1742H37.0315C36.7305 93.5709 36.3406 93.9335 35.8617 94.2619C35.3829 94.5765 34.7741 94.7339 34.0353 94.7339C33.5017 94.7339 33.0023 94.6449 32.5371 94.4671C32.072 94.3029 31.6683 94.0703 31.3263 93.7693C30.9843 93.4547 30.7106 93.0921 30.5054 92.6816C30.3139 92.2575 30.2181 91.7923 30.2181 91.2861C30.2181 90.7525 30.3207 90.2737 30.5259 89.8496C30.7448 89.4254 31.039 89.0697 31.4084 88.7824C31.7915 88.4951 32.243 88.2762 32.7629 88.1257C33.2828 87.9615 33.8437 87.8794 34.4457 87.8794C35.1161 87.8794 35.677 87.9478 36.1285 88.0846C36.58 88.2078 36.9221 88.3241 37.1546 88.4335V88.0436C37.1546 87.7426 37.0862 87.4621 36.9494 87.2022C36.8263 86.9422 36.6484 86.7233 36.4158 86.5455C36.1969 86.3539 35.9438 86.2103 35.6565 86.1145C35.3692 86.005 35.0682 85.9503 34.7535 85.9503C34.2473 85.9503 33.789 86.0529 33.3785 86.2582C32.9818 86.4497 32.6261 86.7644 32.3114 87.2022L30.5054 86.0119C30.9843 85.3552 31.5794 84.8626 32.2909 84.5343C33.0023 84.1922 33.8095 84.0212 34.7125 84.0212C36.2038 84.0212 37.353 84.3906 38.1602 85.1294C38.9811 85.8682 39.3916 86.9217 39.3916 88.2899V94.4055H37.1546V93.1742ZM37.1546 90.219C36.8537 90.0411 36.5185 89.8974 36.1491 89.788C35.7797 89.6785 35.3555 89.6238 34.8767 89.6238C34.1652 89.6238 33.5974 89.788 33.1733 90.1164C32.7492 90.4447 32.5371 90.8415 32.5371 91.3066C32.5371 91.5529 32.5919 91.7718 32.7013 91.9634C32.8108 92.1412 32.9476 92.2986 33.1117 92.4354C33.2896 92.5722 33.488 92.6748 33.7069 92.7432C33.9395 92.8116 34.1721 92.8458 34.4047 92.8458C34.7741 92.8458 35.1229 92.7774 35.4513 92.6406C35.7933 92.4901 36.0875 92.2986 36.3338 92.066C36.58 91.8197 36.7784 91.5392 36.9289 91.2246C37.0794 90.9099 37.1546 90.5747 37.1546 90.219ZM43.6897 85.7041H43.8129C44.1138 85.2252 44.538 84.8284 45.0852 84.5138C45.6462 84.1854 46.2755 84.0212 46.9733 84.0212C48.2457 84.0212 49.1965 84.4043 49.8259 85.1705C50.4552 85.923 50.7699 86.9286 50.7699 88.1873V94.4055H48.4919V88.4951C48.4919 87.6195 48.2867 87.0106 47.8763 86.6686C47.4795 86.3129 46.9528 86.135 46.2961 86.135C45.8993 86.135 45.5504 86.2171 45.2494 86.3813C44.9484 86.5455 44.6885 86.7712 44.4696 87.0585C44.2507 87.3322 44.0865 87.6537 43.977 88.0231C43.8676 88.3788 43.8129 88.755 43.8129 89.1518V94.4055H41.5349V84.3496H43.6897V85.7041ZM59.2402 93.1742H59.117C58.8161 93.5709 58.4261 93.9335 57.9473 94.2619C57.4684 94.5765 56.8596 94.7339 56.1208 94.7339C55.5872 94.7339 55.0878 94.6449 54.6227 94.4671C54.1575 94.3029 53.7539 94.0703 53.4118 93.7693C53.0698 93.4547 52.7962 93.0921 52.591 92.6816C52.3994 92.2575 52.3036 91.7923 52.3036 91.2861C52.3036 90.7525 52.4063 90.2737 52.6115 89.8496C52.8304 89.4254 53.1245 89.0697 53.4939 88.7824C53.877 88.4951 54.3285 88.2762 54.8484 88.1257C55.3683 87.9615 55.9292 87.8794 56.5312 87.8794C57.2016 87.8794 57.7626 87.9478 58.2141 88.0846C58.6656 88.2078 59.0076 88.3241 59.2402 88.4335V88.0436C59.2402 87.7426 59.1718 87.4621 59.035 87.2022C58.9118 86.9422 58.734 86.7233 58.5014 86.5455C58.2825 86.3539 58.0294 86.2103 57.7421 86.1145C57.4547 86.005 57.1537 85.9503 56.8391 85.9503C56.3329 85.9503 55.8745 86.0529 55.4641 86.2582C55.0673 86.4497 54.7116 86.7644 54.3969 87.2022L52.591 86.0119C53.0698 85.3552 53.665 84.8626 54.3764 84.5343C55.0878 84.1922 55.895 84.0212 56.798 84.0212C58.2893 84.0212 59.4386 84.3906 60.2458 85.1294C61.0667 85.8682 61.4771 86.9217 61.4771 88.2899V94.4055H59.2402V93.1742ZM59.2402 90.219C58.9392 90.0411 58.604 89.8974 58.2346 89.788C57.8652 89.6785 57.4411 89.6238 56.9622 89.6238C56.2508 89.6238 55.683 89.788 55.2589 90.1164C54.8347 90.4447 54.6227 90.8415 54.6227 91.3066C54.6227 91.5529 54.6774 91.7718 54.7868 91.9634C54.8963 92.1412 55.0331 92.2986 55.1973 92.4354C55.3751 92.5722 55.5735 92.6748 55.7924 92.7432C56.025 92.8116 56.2576 92.8458 56.4902 92.8458C56.8596 92.8458 57.2085 92.7774 57.5368 92.6406C57.8789 92.4901 58.173 92.2986 58.4193 92.066C58.6656 91.8197 58.8639 91.5392 59.0144 91.2246C59.1649 90.9099 59.2402 90.5747 59.2402 90.219ZM68.0762 99.1667C67.3784 99.1667 66.7559 99.0709 66.2086 98.8794C65.675 98.7015 65.2099 98.4689 64.8131 98.1816C64.4163 97.8943 64.088 97.5728 63.828 97.2171C63.5818 96.8614 63.3971 96.5193 63.2739 96.191L65.4493 95.3085C65.6408 95.8421 65.9692 96.273 66.4344 96.6014C66.8995 96.9434 67.4468 97.1145 68.0762 97.1145C69.0202 97.1145 69.7521 96.8272 70.272 96.2525C70.8056 95.6779 71.0724 94.8844 71.0724 93.8719V93.051H70.9493C70.6346 93.5025 70.1968 93.8788 69.6359 94.1798C69.0886 94.4808 68.4456 94.6313 67.7068 94.6313C67.0911 94.6313 66.4959 94.5013 65.9213 94.2413C65.3467 93.9814 64.8336 93.6188 64.3821 93.1537C63.9443 92.6885 63.5955 92.1275 63.3355 91.4708C63.0756 90.8141 62.9456 90.0958 62.9456 89.316C62.9456 88.5361 63.0756 87.8247 63.3355 87.1817C63.5955 86.5249 63.9443 85.964 64.3821 85.4988C64.8336 85.0337 65.3467 84.6711 65.9213 84.4112C66.4959 84.1512 67.0911 84.0212 67.7068 84.0212C68.4456 84.0212 69.0886 84.1717 69.6359 84.4727C70.1968 84.7737 70.6346 85.15 70.9493 85.6014H71.0724V84.3496H73.2683V93.8309C73.2683 94.6928 73.1315 95.4522 72.8579 96.1089C72.5979 96.7793 72.2353 97.3402 71.7702 97.7917C71.3187 98.2432 70.7714 98.5852 70.1284 98.8178C69.499 99.0504 68.815 99.1667 68.0762 99.1667ZM68.1582 92.5175C68.5277 92.5175 68.8902 92.4491 69.2459 92.3122C69.6017 92.1754 69.9095 91.9702 70.1694 91.6966C70.4431 91.4229 70.662 91.0877 70.8262 90.691C70.9903 90.2942 71.0724 89.8359 71.0724 89.316C71.0724 88.8098 70.9903 88.3583 70.8262 87.9615C70.662 87.5511 70.4431 87.2159 70.1694 86.9559C69.9095 86.6823 69.6017 86.4771 69.2459 86.3402C68.8902 86.1898 68.5277 86.1145 68.1582 86.1145C67.7752 86.1145 67.4058 86.1898 67.05 86.3402C66.708 86.4771 66.4002 86.6823 66.1265 86.9559C65.8529 87.2295 65.634 87.5647 65.4698 87.9615C65.3056 88.3583 65.2236 88.8098 65.2236 89.316C65.2236 89.8222 65.3056 90.2737 65.4698 90.6705C65.634 91.0672 65.8529 91.4024 66.1265 91.676C66.4002 91.9497 66.708 92.1617 67.05 92.3122C67.4058 92.4491 67.7752 92.5175 68.1582 92.5175ZM76.8785 82.5641C76.4407 82.5641 76.0713 82.4136 75.7703 82.1127C75.483 81.8117 75.3393 81.4491 75.3393 81.025C75.3393 80.6008 75.483 80.2383 75.7703 79.9373C76.0713 79.6363 76.4407 79.4858 76.8785 79.4858C77.3026 79.4858 77.6583 79.6363 77.9456 79.9373C78.2466 80.2383 78.3971 80.6008 78.3971 81.025C78.3971 81.4491 78.2466 81.8117 77.9456 82.1127C77.6583 82.4136 77.3026 82.5641 76.8785 82.5641ZM75.7292 94.4055V84.3496H78.0072V94.4055H75.7292ZM82.63 85.7041H82.7531C83.0541 85.2252 83.4783 84.8284 84.0255 84.5138C84.5865 84.1854 85.2158 84.0212 85.9136 84.0212C87.186 84.0212 88.1368 84.4043 88.7662 85.1705C89.3955 85.923 89.7102 86.9286 89.7102 88.1873V94.4055H87.4322V88.4951C87.4322 87.6195 87.227 87.0106 86.8166 86.6686C86.4198 86.3129 85.8931 86.135 85.2363 86.135C84.8396 86.135 84.4907 86.2171 84.1897 86.3813C83.8887 86.5455 83.6288 86.7712 83.4099 87.0585C83.1909 87.3322 83.0268 87.6537 82.9173 88.0231C82.8079 88.3788 82.7531 88.755 82.7531 89.1518V94.4055H80.4752V84.3496H82.63V85.7041ZM96.3745 99.1667C95.6767 99.1667 95.0542 99.0709 94.507 98.8794C93.9734 98.7015 93.5082 98.4689 93.1115 98.1816C92.7147 97.8943 92.3863 97.5728 92.1264 97.2171C91.8801 96.8614 91.6954 96.5193 91.5723 96.191L93.7477 95.3085C93.9392 95.8421 94.2675 96.273 94.7327 96.6014C95.1979 96.9434 95.7452 97.1145 96.3745 97.1145C97.3185 97.1145 98.0505 96.8272 98.5704 96.2525C99.104 95.6779 99.3708 94.8844 99.3708 93.8719V93.051H99.2476C98.933 93.5025 98.4951 93.8788 97.9342 94.1798C97.3869 94.4808 96.7439 94.6313 96.0051 94.6313C95.3894 94.6313 94.7943 94.5013 94.2197 94.2413C93.645 93.9814 93.132 93.6188 92.6805 93.1537C92.2427 92.6885 91.8938 92.1275 91.6339 91.4708C91.3739 90.8141 91.2439 90.0958 91.2439 89.316C91.2439 88.5361 91.3739 87.8247 91.6339 87.1817C91.8938 86.5249 92.2427 85.964 92.6805 85.4988C93.132 85.0337 93.645 84.6711 94.2197 84.4112C94.7943 84.1512 95.3894 84.0212 96.0051 84.0212C96.7439 84.0212 97.3869 84.1717 97.9342 84.4727C98.4951 84.7737 98.933 85.15 99.2476 85.6014H99.3708V84.3496H101.567V93.8309C101.567 94.6928 101.43 95.4522 101.156 96.1089C100.896 96.7793 100.534 97.3402 100.069 97.7917C99.617 98.2432 99.0698 98.5852 98.4267 98.8178C97.7974 99.0504 97.1133 99.1667 96.3745 99.1667ZM96.4566 92.5175C96.826 92.5175 97.1886 92.4491 97.5443 92.3122C97.9 92.1754 98.2078 91.9702 98.4678 91.6966C98.7414 91.4229 98.9603 91.0877 99.1245 90.691C99.2887 90.2942 99.3708 89.8359 99.3708 89.316C99.3708 88.8098 99.2887 88.3583 99.1245 87.9615C98.9603 87.5511 98.7414 87.2159 98.4678 86.9559C98.2078 86.6823 97.9 86.4771 97.5443 86.3402C97.1886 86.1898 96.826 86.1145 96.4566 86.1145C96.0735 86.1145 95.7041 86.1898 95.3484 86.3402C95.0064 86.4771 94.6985 86.6823 94.4249 86.9559C94.1513 87.2295 93.9324 87.5647 93.7682 87.9615C93.604 88.3583 93.5219 88.8098 93.5219 89.316C93.5219 89.8222 93.604 90.2737 93.7682 90.6705C93.9324 91.0672 94.1513 91.4024 94.4249 91.676C94.6985 91.9497 95.0064 92.1617 95.3484 92.3122C95.7041 92.4491 96.0735 92.5175 96.4566 92.5175ZM109.481 86.3608H107.716V84.3496H109.481V81.2712H111.759V84.3496H114.242V86.3608H111.759V90.8346C111.759 91.0809 111.786 91.3066 111.841 91.5119C111.896 91.7171 111.978 91.8881 112.087 92.0249C112.32 92.2849 112.614 92.4149 112.97 92.4149C113.189 92.4149 113.36 92.4012 113.483 92.3738C113.606 92.3328 113.736 92.278 113.873 92.2096L114.57 94.2208C114.283 94.3303 113.982 94.4124 113.667 94.4671C113.353 94.5355 112.997 94.5697 112.6 94.5697C112.121 94.5697 111.697 94.4944 111.328 94.344C110.958 94.1935 110.637 93.9882 110.363 93.7283C109.775 93.14 109.481 92.3396 109.481 91.3272V86.3608ZM117.542 82.5641C117.105 82.5641 116.735 82.4136 116.434 82.1127C116.147 81.8117 116.003 81.4491 116.003 81.025C116.003 80.6008 116.147 80.2383 116.434 79.9373C116.735 79.6363 117.105 79.4858 117.542 79.4858C117.966 79.4858 118.322 79.6363 118.609 79.9373C118.91 80.2383 119.061 80.6008 119.061 81.025C119.061 81.4491 118.91 81.8117 118.609 82.1127C118.322 82.4136 117.966 82.5641 117.542 82.5641ZM116.393 94.4055V84.3496H118.671V94.4055H116.393ZM121.139 84.3496H123.294V85.7041H123.417C123.732 85.2115 124.169 84.8079 124.73 84.4932C125.291 84.1786 125.887 84.0212 126.516 84.0212C127.268 84.0212 127.911 84.1991 128.445 84.5548C128.992 84.8968 129.389 85.3483 129.635 85.9093C129.977 85.3757 130.436 84.931 131.01 84.5753C131.585 84.2059 132.276 84.0212 133.083 84.0212C133.699 84.0212 134.232 84.1238 134.684 84.3291C135.135 84.5206 135.505 84.7942 135.792 85.15C136.093 85.5057 136.319 85.9366 136.469 86.4429C136.62 86.9354 136.695 87.4895 136.695 88.1052V94.4055H134.417V88.4951C134.417 87.6195 134.246 87.0106 133.904 86.6686C133.576 86.3129 133.09 86.135 132.447 86.135C132.077 86.135 131.742 86.2171 131.441 86.3813C131.154 86.5455 130.908 86.7712 130.702 87.0585C130.497 87.3322 130.34 87.6537 130.23 88.0231C130.121 88.3925 130.066 88.7824 130.066 89.1928V94.4055H127.788V88.4951C127.788 87.6195 127.61 87.0106 127.255 86.6686C126.913 86.3129 126.413 86.135 125.757 86.135C125.401 86.135 125.079 86.2171 124.792 86.3813C124.505 86.5455 124.258 86.7712 124.053 87.0585C123.848 87.3322 123.691 87.6537 123.581 88.0231C123.472 88.3925 123.417 88.7824 123.417 89.1928V94.4055H121.139V84.3496ZM148.233 92.0044C147.809 92.7843 147.207 93.4341 146.427 93.954C145.647 94.4739 144.689 94.7339 143.554 94.7339C142.801 94.7339 142.103 94.6039 141.46 94.344C140.831 94.0703 140.284 93.6941 139.819 93.2152C139.353 92.7364 138.991 92.1754 138.731 91.5324C138.471 90.8757 138.341 90.1574 138.341 89.3776C138.341 88.6524 138.464 87.9684 138.71 87.3253C138.957 86.6686 139.299 86.1008 139.737 85.622C140.188 85.1294 140.728 84.7395 141.358 84.4522C141.987 84.1649 142.685 84.0212 143.451 84.0212C144.231 84.0212 144.922 84.1512 145.524 84.4112C146.14 84.6711 146.659 85.0337 147.084 85.4988C147.508 85.964 147.829 86.5249 148.048 87.1817C148.281 87.8384 148.397 88.5567 148.397 89.3365C148.397 89.4049 148.397 89.4665 148.397 89.5212C148.383 89.5896 148.376 89.6512 148.376 89.7059C148.363 89.7606 148.356 89.8154 148.356 89.8701H140.619C140.66 90.3489 140.776 90.7662 140.968 91.1219C141.159 91.4777 141.392 91.7718 141.666 92.0044C141.953 92.237 142.268 92.408 142.61 92.5175C142.952 92.6269 143.287 92.6816 143.615 92.6816C144.272 92.6816 144.812 92.5243 145.237 92.2096C145.661 91.895 146.01 91.505 146.283 91.0399L148.233 92.0044ZM146.119 88.1257C146.092 87.9205 146.023 87.6947 145.914 87.4485C145.818 87.1885 145.661 86.9559 145.442 86.7507C145.237 86.5318 144.963 86.3471 144.621 86.1966C144.293 86.0461 143.889 85.9708 143.41 85.9708C142.753 85.9708 142.186 86.1692 141.707 86.566C141.242 86.9491 140.927 87.469 140.763 88.1257H146.119ZM153.561 84.3496H156.044L157.994 91.3066H158.076L160.333 84.3496H162.693L164.93 91.3066H165.012L166.941 84.3496H169.384L166.162 94.4055H163.76L161.483 87.3664H161.4L159.184 94.4055H156.783L153.561 84.3496ZM171.934 82.5641C171.497 82.5641 171.127 82.4136 170.826 82.1127C170.539 81.8117 170.395 81.4491 170.395 81.025C170.395 80.6008 170.539 80.2383 170.826 79.9373C171.127 79.6363 171.497 79.4858 171.934 79.4858C172.359 79.4858 172.714 79.6363 173.002 79.9373C173.303 80.2383 173.453 80.6008 173.453 81.025C173.453 81.4491 173.303 81.8117 173.002 82.1127C172.714 82.4136 172.359 82.5641 171.934 82.5641ZM170.785 94.4055V84.3496H173.063V94.4055H170.785ZM176.539 86.3608H174.774V84.3496H176.539V81.2712H178.817V84.3496H181.3V86.3608H178.817V90.8346C178.817 91.0809 178.845 91.3066 178.899 91.5119C178.954 91.7171 179.036 91.8881 179.145 92.0249C179.378 92.2849 179.672 92.4149 180.028 92.4149C180.247 92.4149 180.418 92.4012 180.541 92.3738C180.664 92.3328 180.794 92.278 180.931 92.2096L181.629 94.2208C181.341 94.3303 181.04 94.4124 180.726 94.4671C180.411 94.5355 180.055 94.5697 179.659 94.5697C179.18 94.5697 178.756 94.4944 178.386 94.344C178.017 94.1935 177.695 93.9882 177.422 93.7283C176.833 93.14 176.539 92.3396 176.539 91.3272V86.3608ZM183.287 79.7115H185.565V84.0828L185.442 85.7041H185.565C185.852 85.2252 186.277 84.8284 186.838 84.5138C187.398 84.1854 188.021 84.0212 188.705 84.0212C189.362 84.0212 189.93 84.1238 190.408 84.3291C190.887 84.5206 191.284 84.8011 191.599 85.1705C191.913 85.5399 192.146 85.9845 192.296 86.5044C192.447 87.0106 192.522 87.5716 192.522 88.1873V94.4055H190.244V88.4951C190.244 87.6605 190.039 87.0585 189.629 86.6891C189.232 86.3197 188.726 86.135 188.11 86.135C187.713 86.135 187.357 86.224 187.043 86.4018C186.742 86.566 186.475 86.7917 186.242 87.0791C186.023 87.3664 185.852 87.6947 185.729 88.0641C185.62 88.4335 185.565 88.8166 185.565 89.2134V94.4055H183.287V79.7115ZM14.9059 108.361H13.141V106.35H14.9059V103.271H17.1839V106.35H19.6671V108.361H17.1839V112.835C17.1839 113.081 17.2112 113.307 17.266 113.512C17.3207 113.717 17.4028 113.888 17.5122 114.025C17.7448 114.285 18.039 114.415 18.3947 114.415C18.6136 114.415 18.7846 114.401 18.9077 114.374C19.0309 114.333 19.1609 114.278 19.2977 114.21L19.9954 116.221C19.7081 116.33 19.4071 116.412 19.0924 116.467C18.7778 116.535 18.422 116.57 18.0253 116.57C17.5464 116.57 17.1223 116.494 16.7529 116.344C16.3835 116.193 16.062 115.988 15.7884 115.728C15.2 115.14 14.9059 114.34 14.9059 113.327V108.361ZM21.6539 101.712H23.9319V106.083L23.8087 107.704H23.9319C24.2192 107.225 24.6433 106.828 25.2042 106.514C25.7652 106.185 26.3877 106.021 27.0718 106.021C27.7285 106.021 28.2963 106.124 28.7751 106.329C29.254 106.521 29.6507 106.801 29.9654 107.17C30.2801 107.54 30.5127 107.985 30.6632 108.504C30.8137 109.011 30.8889 109.572 30.8889 110.187V116.406H28.611V110.495C28.611 109.661 28.4057 109.059 27.9953 108.689C27.5985 108.32 27.0923 108.135 26.4766 108.135C26.0799 108.135 25.7241 108.224 25.4095 108.402C25.1085 108.566 24.8417 108.792 24.6091 109.079C24.3902 109.366 24.2192 109.695 24.096 110.064C23.9866 110.434 23.9319 110.817 23.9319 111.213V116.406H21.6539V101.712ZM42.4146 114.004C41.9905 114.784 41.3885 115.434 40.6086 115.954C39.8288 116.474 38.8711 116.734 37.7355 116.734C36.983 116.734 36.2853 116.604 35.6422 116.344C35.0129 116.07 34.4656 115.694 34.0005 115.215C33.5353 114.736 33.1727 114.175 32.9128 113.532C32.6528 112.876 32.5229 112.157 32.5229 111.378C32.5229 110.652 32.646 109.968 32.8923 109.325C33.1385 108.669 33.4806 108.101 33.9184 107.622C34.3699 107.129 34.9103 106.74 35.5396 106.452C36.169 106.165 36.8667 106.021 37.6329 106.021C38.4128 106.021 39.1037 106.151 39.7057 106.411C40.3213 106.671 40.8412 107.034 41.2654 107.499C41.6895 107.964 42.011 108.525 42.2299 109.182C42.4625 109.838 42.5788 110.557 42.5788 111.337C42.5788 111.405 42.5788 111.466 42.5788 111.521C42.5651 111.59 42.5583 111.651 42.5583 111.706C42.5446 111.761 42.5377 111.815 42.5377 111.87H34.8008C34.8419 112.349 34.9582 112.766 35.1497 113.122C35.3413 113.478 35.5738 113.772 35.8475 114.004C36.1348 114.237 36.4495 114.408 36.7915 114.517C37.1335 114.627 37.4687 114.682 37.7971 114.682C38.4538 114.682 38.9942 114.524 39.4184 114.21C39.8425 113.895 40.1914 113.505 40.465 113.04L42.4146 114.004ZM40.3008 110.126C40.2734 109.92 40.205 109.695 40.0956 109.448C39.9998 109.189 39.8425 108.956 39.6236 108.751C39.4184 108.532 39.1447 108.347 38.8027 108.197C38.4743 108.046 38.0707 107.971 37.5919 107.971C36.9352 107.971 36.3674 108.169 35.8885 108.566C35.4233 108.949 35.1087 109.469 34.9445 110.126H40.3008ZM52.8061 101.712H55.474L60.9945 116.406H58.4292L57.0953 112.629H51.1849L49.8509 116.406H47.2856L52.8061 101.712ZM56.3154 110.516L54.7763 106.185L54.2016 104.462H54.0785L53.5039 106.185L51.9647 110.516H56.3154ZM62.7262 101.712H65.0453V116.406H62.7262V101.712ZM69.0848 116.529C68.647 116.529 68.2707 116.378 67.9561 116.077C67.6551 115.762 67.5046 115.386 67.5046 114.948C67.5046 114.511 67.6551 114.134 67.9561 113.82C68.2707 113.505 68.647 113.348 69.0848 113.348C69.5226 113.348 69.8989 113.505 70.2135 113.82C70.5282 114.134 70.6855 114.511 70.6855 114.948C70.6855 115.386 70.5282 115.762 70.2135 116.077C69.8989 116.378 69.5226 116.529 69.0848 116.529ZM74.2354 116.529C73.7976 116.529 73.4214 116.378 73.1067 116.077C72.8057 115.762 72.6552 115.386 72.6552 114.948C72.6552 114.511 72.8057 114.134 73.1067 113.82C73.4214 113.505 73.7976 113.348 74.2354 113.348C74.6732 113.348 75.0495 113.505 75.3641 113.82C75.6788 114.134 75.8362 114.511 75.8362 114.948C75.8362 115.386 75.6788 115.762 75.3641 116.077C75.0495 116.378 74.6732 116.529 74.2354 116.529ZM79.386 116.529C78.9482 116.529 78.572 116.378 78.2573 116.077C77.9563 115.762 77.8058 115.386 77.8058 114.948C77.8058 114.511 77.9563 114.134 78.2573 113.82C78.572 113.505 78.9482 113.348 79.386 113.348C79.8239 113.348 80.2001 113.505 80.5148 113.82C80.8294 114.134 80.9868 114.511 80.9868 114.948C80.9868 115.386 80.8294 115.762 80.5148 116.077C80.2001 116.378 79.8239 116.529 79.386 116.529Z" fill="black"/>
<path d="M16.8453 139.479C15.7576 139.479 14.8477 139.113 14.1158 138.381C13.3907 137.649 13.0281 136.736 13.0281 135.642C13.0281 134.547 13.3907 133.637 14.1158 132.912C14.8409 132.173 15.7507 131.804 16.8453 131.804C17.9535 131.804 18.853 132.204 19.5439 133.005L18.8667 133.661C18.34 133.025 17.6661 132.707 16.8453 132.707C16.0312 132.707 15.3505 132.981 14.8033 133.528C14.2629 134.068 13.9926 134.773 13.9926 135.642C13.9926 136.51 14.2629 137.215 14.8033 137.755C15.3505 138.303 16.0312 138.576 16.8453 138.576C17.7003 138.576 18.4426 138.217 19.0719 137.499L19.7594 138.166C19.4105 138.583 18.983 138.908 18.4768 139.141C17.9706 139.366 17.4267 139.479 16.8453 139.479ZM21.1856 137.776C21.1856 138.022 21.2882 138.228 21.4934 138.392C21.7055 138.556 21.9517 138.638 22.2322 138.638C22.629 138.638 22.9813 138.491 23.2891 138.197C23.6038 137.903 23.7611 137.557 23.7611 137.16C23.467 136.928 23.0565 136.811 22.5298 136.811C22.1467 136.811 21.8252 136.904 21.5652 137.089C21.3121 137.273 21.1856 137.502 21.1856 137.776ZM22.4066 134.123C23.1044 134.123 23.6551 134.311 24.0587 134.687C24.4623 135.057 24.6641 135.566 24.6641 136.216V139.315H23.7611V138.617H23.7201C23.3301 139.192 22.8102 139.479 22.1604 139.479C21.6063 139.479 21.1411 139.315 20.7649 138.987C20.3955 138.658 20.2108 138.248 20.2108 137.755C20.2108 137.236 20.4057 136.822 20.7956 136.514C21.1924 136.206 21.7191 136.052 22.3759 136.052C22.9368 136.052 23.3985 136.155 23.7611 136.36V136.144C23.7611 135.816 23.6311 135.539 23.3712 135.313C23.1112 135.081 22.8068 134.964 22.4579 134.964C21.9312 134.964 21.5139 135.187 21.2061 135.631L20.3749 135.108C20.8333 134.451 21.5105 134.123 22.4066 134.123ZM25.7288 134.287H26.6318V134.985H26.6729C26.8165 134.739 27.0354 134.533 27.3296 134.369C27.6306 134.205 27.9418 134.123 28.2634 134.123C28.879 134.123 29.351 134.301 29.6794 134.657C30.0146 135.005 30.1822 135.505 30.1822 136.155V139.315H29.2382V136.216C29.2176 135.395 28.8038 134.985 27.9966 134.985C27.6203 134.985 27.3056 135.139 27.0525 135.447C26.7994 135.748 26.6729 136.11 26.6729 136.534V139.315H25.7288V134.287ZM36.2026 139.479C35.8332 139.479 35.4946 139.401 35.1867 139.243C34.8858 139.086 34.6532 138.877 34.489 138.617H34.4479V139.315H33.545V131.968H34.489V134.287L34.4479 134.985H34.489C34.6532 134.725 34.8858 134.516 35.1867 134.359C35.4946 134.202 35.8332 134.123 36.2026 134.123C36.8662 134.123 37.4271 134.383 37.8854 134.903C38.3574 135.43 38.5935 136.062 38.5935 136.801C38.5935 137.547 38.3574 138.18 37.8854 138.7C37.4271 139.219 36.8662 139.479 36.2026 139.479ZM36.0487 138.617C36.5002 138.617 36.8798 138.446 37.1877 138.104C37.4955 137.769 37.6494 137.335 37.6494 136.801C37.6494 136.274 37.4955 135.84 37.1877 135.498C36.8798 135.156 36.5002 134.985 36.0487 134.985C35.5904 134.985 35.2073 135.156 34.8994 135.498C34.5984 135.84 34.4479 136.274 34.4479 136.801C34.4479 137.335 34.5984 137.773 34.8994 138.115C35.2073 138.45 35.5904 138.617 36.0487 138.617ZM41.7146 139.479C40.9758 139.479 40.367 139.226 39.8881 138.72C39.4093 138.214 39.1698 137.574 39.1698 136.801C39.1698 136.035 39.4024 135.399 39.8676 134.893C40.3328 134.38 40.9279 134.123 41.653 134.123C42.3987 134.123 42.9904 134.366 43.4282 134.852C43.8729 135.33 44.0952 136.004 44.0952 136.873L44.0849 136.976H40.1344C40.1481 137.468 40.3122 137.865 40.6269 138.166C40.9416 138.467 41.3178 138.617 41.7557 138.617C42.3576 138.617 42.8297 138.316 43.1717 137.714L44.0131 138.125C43.7874 138.549 43.4727 138.881 43.0691 139.12C42.6723 139.36 42.2208 139.479 41.7146 139.479ZM40.2062 136.196H43.0896C43.0622 135.847 42.9186 135.56 42.6586 135.334C42.4055 135.101 42.0635 134.985 41.6325 134.985C41.2768 134.985 40.969 135.094 40.709 135.313C40.4559 135.532 40.2883 135.826 40.2062 136.196ZM49.4706 139.479C48.7318 139.479 48.123 139.226 47.6441 138.72C47.1653 138.214 46.9258 137.574 46.9258 136.801C46.9258 136.035 47.1584 135.399 47.6236 134.893C48.0888 134.38 48.6839 134.123 49.409 134.123C50.1547 134.123 50.7464 134.366 51.1842 134.852C51.6289 135.33 51.8512 136.004 51.8512 136.873L51.8409 136.976H47.8904C47.9041 137.468 48.0682 137.865 48.3829 138.166C48.6976 138.467 49.0738 138.617 49.5116 138.617C50.1136 138.617 50.5856 138.316 50.9277 137.714L51.7691 138.125C51.5434 138.549 51.2287 138.881 50.8251 139.12C50.4283 139.36 49.9768 139.479 49.4706 139.479ZM47.9622 136.196H50.8456C50.8182 135.847 50.6746 135.56 50.4146 135.334C50.1615 135.101 49.8195 134.985 49.3885 134.985C49.0328 134.985 48.725 135.094 48.465 135.313C48.2119 135.532 48.0443 135.826 47.9622 136.196ZM53.4521 137.776C53.4521 138.022 53.5547 138.228 53.7599 138.392C53.972 138.556 54.2183 138.638 54.4987 138.638C54.8955 138.638 55.2478 138.491 55.5556 138.197C55.8703 137.903 56.0276 137.557 56.0276 137.16C55.7335 136.928 55.323 136.811 54.7963 136.811C54.4132 136.811 54.0917 136.904 53.8317 137.089C53.5786 137.273 53.4521 137.502 53.4521 137.776ZM54.6732 134.123C55.3709 134.123 55.9216 134.311 56.3252 134.687C56.7288 135.057 56.9306 135.566 56.9306 136.216V139.315H56.0276V138.617H55.9866C55.5967 139.192 55.0768 139.479 54.4269 139.479C53.8728 139.479 53.4076 139.315 53.0314 138.987C52.662 138.658 52.4773 138.248 52.4773 137.755C52.4773 137.236 52.6722 136.822 53.0622 136.514C53.4589 136.206 53.9857 136.052 54.6424 136.052C55.2033 136.052 55.6651 136.155 56.0276 136.36V136.144C56.0276 135.816 55.8977 135.539 55.6377 135.313C55.3778 135.081 55.0733 134.964 54.7245 134.964C54.1977 134.964 53.7804 135.187 53.4726 135.631L52.6415 135.108C53.0998 134.451 53.777 134.123 54.6732 134.123ZM61.7932 137.92C61.7932 138.357 61.6017 138.727 61.2186 139.028C60.8355 139.329 60.3532 139.479 59.7718 139.479C59.2655 139.479 58.8209 139.349 58.4378 139.089C58.0547 138.823 57.7811 138.474 57.6169 138.043L58.4583 137.684C58.5815 137.985 58.7593 138.221 58.9919 138.392C59.2313 138.556 59.4913 138.638 59.7718 138.638C60.0728 138.638 60.3224 138.573 60.5208 138.443C60.726 138.313 60.8287 138.159 60.8287 137.981C60.8287 137.66 60.5824 137.424 60.0899 137.273L59.2279 137.058C58.2497 136.811 57.7606 136.339 57.7606 135.642C57.7606 135.183 57.9453 134.817 58.3147 134.544C58.6909 134.263 59.1698 134.123 59.7512 134.123C60.1959 134.123 60.5961 134.229 60.9518 134.441C61.3144 134.653 61.5675 134.937 61.7111 135.293L60.8697 135.642C60.7739 135.43 60.6166 135.265 60.3977 135.149C60.1856 135.026 59.9462 134.964 59.6794 134.964C59.4331 134.964 59.2108 135.026 59.0124 135.149C58.8209 135.272 58.7251 135.423 58.7251 135.601C58.7251 135.888 58.9953 136.093 59.5358 136.216L60.2951 136.411C61.2938 136.658 61.7932 137.16 61.7932 137.92ZM67.1093 134.287L63.9591 141.532H62.9843L64.1541 138.997L62.0813 134.287H63.1074L64.6056 137.899H64.6261L66.0832 134.287H67.1093ZM70.6676 137.776C70.6676 138.022 70.7702 138.228 70.9754 138.392C71.1875 138.556 71.4337 138.638 71.7142 138.638C72.111 138.638 72.4633 138.491 72.7711 138.197C73.0858 137.903 73.2431 137.557 73.2431 137.16C72.949 136.928 72.5385 136.811 72.0118 136.811C71.6287 136.811 71.3072 136.904 71.0472 137.089C70.7941 137.273 70.6676 137.502 70.6676 137.776ZM71.8887 134.123C72.5864 134.123 73.1371 134.311 73.5407 134.687C73.9443 135.057 74.1461 135.566 74.1461 136.216V139.315H73.2431V138.617H73.2021C72.8122 139.192 72.2923 139.479 71.6424 139.479C71.0883 139.479 70.6231 139.315 70.2469 138.987C69.8775 138.658 69.6928 138.248 69.6928 137.755C69.6928 137.236 69.8877 136.822 70.2777 136.514C70.6744 136.206 71.2012 136.052 71.8579 136.052C72.4188 136.052 72.8806 136.155 73.2431 136.36V136.144C73.2431 135.816 73.1132 135.539 72.8532 135.313C72.5933 135.081 72.2888 134.964 71.94 134.964C71.4132 134.964 70.9959 135.187 70.6881 135.631L69.857 135.108C70.3153 134.451 70.9925 134.123 71.8887 134.123ZM75.2109 134.287H76.1139V134.985H76.1549C76.2986 134.739 76.5175 134.533 76.8116 134.369C77.1126 134.205 77.4239 134.123 77.7454 134.123C78.361 134.123 78.8331 134.301 79.1614 134.657C79.4966 135.005 79.6642 135.505 79.6642 136.155V139.315H78.7202V136.216C78.6997 135.395 78.2858 134.985 77.4786 134.985C77.1023 134.985 76.7877 135.139 76.5346 135.447C76.2815 135.748 76.1549 136.11 76.1549 136.534V139.315H75.2109V134.287ZM83.0298 138.617C83.495 138.617 83.8746 138.45 84.1688 138.115C84.4766 137.779 84.6305 137.342 84.6305 136.801C84.6305 136.274 84.4766 135.84 84.1688 135.498C83.8678 135.156 83.4881 134.985 83.0298 134.985C82.5783 134.985 82.1986 135.156 81.8908 135.498C81.583 135.84 81.4291 136.274 81.4291 136.801C81.4291 137.335 81.583 137.769 81.8908 138.104C82.1986 138.446 82.5783 138.617 83.0298 138.617ZM82.8759 139.479C82.2192 139.479 81.6548 139.219 81.1828 138.7C80.7176 138.173 80.485 137.54 80.485 136.801C80.485 136.062 80.7176 135.43 81.1828 134.903C81.6548 134.383 82.2192 134.123 82.8759 134.123C83.2453 134.123 83.5805 134.202 83.8815 134.359C84.1893 134.516 84.4253 134.725 84.5895 134.985H84.6305L84.5895 134.287V131.968H85.5335V139.315H84.6305V138.617H84.5895C84.4253 138.877 84.1893 139.086 83.8815 139.243C83.5805 139.401 83.2453 139.479 82.8759 139.479ZM91.0578 131.886C91.3998 131.886 91.6803 131.944 91.8992 132.061L91.6427 132.892C91.4785 132.81 91.2938 132.769 91.0886 132.769C90.856 132.769 90.6644 132.851 90.5139 133.015C90.3703 133.172 90.2985 133.384 90.2985 133.651V134.287H91.6119V135.149H90.2985V139.315H89.3544V135.149H88.4104V134.287H89.3544V133.559C89.3544 133.059 89.5118 132.656 89.8264 132.348C90.148 132.04 90.5584 131.886 91.0578 131.886ZM96.8286 139.315H95.9257V138.617H95.8846C95.741 138.864 95.5186 139.069 95.2176 139.233C94.9235 139.397 94.6157 139.479 94.2941 139.479C93.6785 139.479 93.203 139.305 92.8678 138.956C92.5395 138.6 92.3753 138.098 92.3753 137.448V134.287H93.3193V137.386C93.3398 138.207 93.7537 138.617 94.5609 138.617C94.9372 138.617 95.2518 138.467 95.505 138.166C95.7581 137.858 95.8846 137.492 95.8846 137.068V134.287H96.8286V139.315ZM97.9778 134.287H98.8808V134.985H98.9218C99.0655 134.739 99.2844 134.533 99.5786 134.369C99.8795 134.205 100.191 134.123 100.512 134.123C101.128 134.123 101.6 134.301 101.928 134.657C102.264 135.005 102.431 135.505 102.431 136.155V139.315H101.487V136.216C101.467 135.395 101.053 134.985 100.246 134.985C99.8693 134.985 99.5546 135.139 99.3015 135.447C99.0484 135.748 98.9218 136.11 98.9218 136.534V139.315H97.9778V134.287ZM104.853 138.679C104.853 138.871 104.784 139.035 104.647 139.172C104.518 139.308 104.353 139.377 104.155 139.377C103.963 139.377 103.799 139.308 103.662 139.172C103.526 139.035 103.457 138.871 103.457 138.679C103.457 138.481 103.526 138.316 103.662 138.186C103.799 138.05 103.963 137.981 104.155 137.981C104.353 137.981 104.518 138.05 104.647 138.186C104.784 138.316 104.853 138.481 104.853 138.679ZM109.287 139.315H108.343V131.968H109.287V135.118H112.961V131.968H113.905V139.315H112.961V136.001H109.287V139.315ZM117.471 139.479C116.732 139.479 116.123 139.226 115.644 138.72C115.165 138.214 114.926 137.574 114.926 136.801C114.926 136.035 115.159 135.399 115.624 134.893C116.089 134.38 116.684 134.123 117.409 134.123C118.155 134.123 118.747 134.366 119.184 134.852C119.629 135.33 119.851 136.004 119.851 136.873L119.841 136.976H115.891C115.904 137.468 116.068 137.865 116.383 138.166C116.698 138.467 117.074 138.617 117.512 138.617C118.114 138.617 118.586 138.316 118.928 137.714L119.769 138.125C119.544 138.549 119.229 138.881 118.825 139.12C118.429 139.36 117.977 139.479 117.471 139.479ZM115.962 136.196H118.846C118.818 135.847 118.675 135.56 118.415 135.334C118.162 135.101 117.82 134.985 117.389 134.985C117.033 134.985 116.725 135.094 116.465 135.313C116.212 135.532 116.045 135.826 115.962 136.196ZM121.659 139.315H120.715V134.287H121.618V135.108H121.659C121.754 134.841 121.949 134.616 122.244 134.431C122.545 134.239 122.839 134.144 123.126 134.144C123.4 134.144 123.632 134.185 123.824 134.267L123.537 135.18C123.42 135.132 123.236 135.108 122.982 135.108C122.627 135.108 122.315 135.252 122.049 135.539C121.789 135.826 121.659 136.162 121.659 136.545V139.315ZM126.389 139.479C125.65 139.479 125.042 139.226 124.563 138.72C124.084 138.214 123.844 137.574 123.844 136.801C123.844 136.035 124.077 135.399 124.542 134.893C125.007 134.38 125.603 134.123 126.328 134.123C127.073 134.123 127.665 134.366 128.103 134.852C128.547 135.33 128.77 136.004 128.77 136.873L128.76 136.976H124.809C124.823 137.468 124.987 137.865 125.302 138.166C125.616 138.467 125.992 138.617 126.43 138.617C127.032 138.617 127.504 138.316 127.846 137.714L128.688 138.125C128.462 138.549 128.147 138.881 127.744 139.12C127.347 139.36 126.895 139.479 126.389 139.479ZM124.881 136.196H127.764C127.737 135.847 127.593 135.56 127.333 135.334C127.08 135.101 126.738 134.985 126.307 134.985C125.951 134.985 125.644 135.094 125.384 135.313C125.13 135.532 124.963 135.826 124.881 136.196ZM139.009 134.287L137.388 139.315H136.423L135.171 135.457L133.93 139.315H132.975L131.354 134.287H132.339L133.458 138.084H133.468L134.71 134.287H135.684L136.926 138.084H136.936L138.044 134.287H139.009ZM141.781 139.479C141.042 139.479 140.433 139.226 139.954 138.72C139.476 138.214 139.236 137.574 139.236 136.801C139.236 136.035 139.469 135.399 139.934 134.893C140.399 134.38 140.994 134.123 141.719 134.123C142.465 134.123 143.057 134.366 143.495 134.852C143.939 135.33 144.162 136.004 144.162 136.873L144.151 136.976H140.201C140.214 137.468 140.379 137.865 140.693 138.166C141.008 138.467 141.384 138.617 141.822 138.617C142.424 138.617 142.896 138.316 143.238 137.714L144.079 138.125C143.854 138.549 143.539 138.881 143.135 139.12C142.739 139.36 142.287 139.479 141.781 139.479ZM140.273 136.196H143.156C143.129 135.847 142.985 135.56 142.725 135.334C142.472 135.101 142.13 134.985 141.699 134.985C141.343 134.985 141.035 135.094 140.775 135.313C140.522 135.532 140.355 135.826 140.273 136.196ZM15.6857 152.617C16.1372 152.617 16.5169 152.446 16.8247 152.104C17.1326 151.769 17.2865 151.335 17.2865 150.801C17.2865 150.274 17.1326 149.84 16.8247 149.498C16.5169 149.156 16.1372 148.985 15.6857 148.985C15.2274 148.985 14.8443 149.156 14.5365 149.498C14.2355 149.84 14.085 150.274 14.085 150.801C14.085 151.335 14.2355 151.773 14.5365 152.115C14.8443 152.45 15.2274 152.617 15.6857 152.617ZM15.8397 153.479C15.4703 153.479 15.1316 153.401 14.8238 153.243C14.5228 153.086 14.2902 152.877 14.126 152.617H14.085L14.126 153.315V155.532H13.182V148.287H14.085V148.985H14.126C14.2902 148.725 14.5228 148.516 14.8238 148.359C15.1316 148.202 15.4703 148.123 15.8397 148.123C16.5032 148.123 17.0642 148.383 17.5225 148.903C17.9945 149.43 18.2305 150.062 18.2305 150.801C18.2305 151.547 17.9945 152.18 17.5225 152.7C17.0642 153.219 16.5032 153.479 15.8397 153.479ZM19.9891 153.315H19.0451V148.287H19.948V149.108H19.9891C20.0849 148.841 20.2798 148.616 20.574 148.431C20.875 148.239 21.1691 148.144 21.4564 148.144C21.7301 148.144 21.9627 148.185 22.1542 148.267L21.8669 149.18C21.7506 149.132 21.5659 149.108 21.3128 149.108C20.9571 149.108 20.6458 149.252 20.379 149.539C20.1191 149.826 19.9891 150.162 19.9891 150.545V153.315ZM24.7196 153.479C23.9808 153.479 23.3719 153.226 22.8931 152.72C22.4142 152.214 22.1748 151.574 22.1748 150.801C22.1748 150.035 22.4074 149.399 22.8726 148.893C23.3377 148.38 23.9329 148.123 24.658 148.123C25.4036 148.123 25.9954 148.366 26.4332 148.852C26.8778 149.33 27.1002 150.004 27.1002 150.873L27.0899 150.976H23.1393C23.153 151.468 23.3172 151.865 23.6319 152.166C23.9466 152.467 24.3228 152.617 24.7606 152.617C25.3626 152.617 25.8346 152.316 26.1767 151.714L27.0181 152.125C26.7923 152.549 26.4776 152.881 26.074 153.12C25.6773 153.36 25.2258 153.479 24.7196 153.479ZM23.2112 150.196H26.0946C26.0672 149.847 25.9235 149.56 25.6636 149.334C25.4105 149.101 25.0684 148.985 24.6375 148.985C24.2818 148.985 23.9739 149.094 23.714 149.313C23.4609 149.532 23.2933 149.826 23.2112 150.196ZM30.4261 152.617C30.8776 152.617 31.2573 152.446 31.5651 152.104C31.873 151.769 32.0269 151.335 32.0269 150.801C32.0269 150.274 31.873 149.84 31.5651 149.498C31.2573 149.156 30.8776 148.985 30.4261 148.985C29.9678 148.985 29.5847 149.156 29.2769 149.498C28.9759 149.84 28.8254 150.274 28.8254 150.801C28.8254 151.335 28.9759 151.773 29.2769 152.115C29.5847 152.45 29.9678 152.617 30.4261 152.617ZM30.5801 153.479C30.2106 153.479 29.872 153.401 29.5642 153.243C29.2632 153.086 29.0306 152.877 28.8664 152.617H28.8254L28.8664 153.315V155.532H27.9224V148.287H28.8254V148.985H28.8664C29.0306 148.725 29.2632 148.516 29.5642 148.359C29.872 148.202 30.2106 148.123 30.5801 148.123C31.2436 148.123 31.8045 148.383 32.2629 148.903C32.7349 149.43 32.9709 150.062 32.9709 150.801C32.9709 151.547 32.7349 152.18 32.2629 152.7C31.8045 153.219 31.2436 153.479 30.5801 153.479ZM34.5231 151.776C34.5231 152.022 34.6257 152.228 34.8309 152.392C35.043 152.556 35.2892 152.638 35.5697 152.638C35.9665 152.638 36.3188 152.491 36.6266 152.197C36.9413 151.903 37.0986 151.557 37.0986 151.16C36.8045 150.928 36.394 150.811 35.8673 150.811C35.4842 150.811 35.1627 150.904 34.9027 151.089C34.6496 151.273 34.5231 151.502 34.5231 151.776ZM35.7441 148.123C36.4419 148.123 36.9926 148.311 37.3962 148.687C37.7998 149.057 38.0016 149.566 38.0016 150.216V153.315H37.0986V152.617H37.0576C36.6676 153.192 36.1477 153.479 35.4979 153.479C34.9438 153.479 34.4786 153.315 34.1024 152.987C33.7329 152.658 33.5482 152.248 33.5482 151.755C33.5482 151.236 33.7432 150.822 34.1331 150.514C34.5299 150.206 35.0566 150.052 35.7134 150.052C36.2743 150.052 36.736 150.155 37.0986 150.36V150.144C37.0986 149.816 36.9686 149.539 36.7087 149.313C36.4487 149.081 36.1443 148.964 35.7954 148.964C35.2687 148.964 34.8514 149.187 34.5436 149.631L33.7124 149.108C34.1708 148.451 34.848 148.123 35.7441 148.123ZM40.0104 153.315H39.0663V148.287H39.9693V149.108H40.0104C40.1061 148.841 40.3011 148.616 40.5953 148.431C40.8963 148.239 41.1904 148.144 41.4777 148.144C41.7513 148.144 41.9839 148.185 42.1755 148.267L41.8882 149.18C41.7719 149.132 41.5872 149.108 41.3341 149.108C40.9783 149.108 40.6671 149.252 40.4003 149.539C40.1403 149.826 40.0104 150.162 40.0104 150.545V153.315ZM44.7408 153.479C44.002 153.479 43.3932 153.226 42.9144 152.72C42.4355 152.214 42.1961 151.574 42.1961 150.801C42.1961 150.035 42.4287 149.399 42.8938 148.893C43.359 148.38 43.9542 148.123 44.6793 148.123C45.4249 148.123 46.0167 148.366 46.4545 148.852C46.8991 149.33 47.1214 150.004 47.1214 150.873L47.1112 150.976H43.1606C43.1743 151.468 43.3385 151.865 43.6532 152.166C43.9678 152.467 44.3441 152.617 44.7819 152.617C45.3839 152.617 45.8559 152.316 46.1979 151.714L47.0393 152.125C46.8136 152.549 46.4989 152.881 46.0953 153.12C45.6986 153.36 45.2471 153.479 44.7408 153.479ZM43.2325 150.196H46.1158C46.0885 149.847 45.9448 149.56 45.6849 149.334C45.4318 149.101 45.0897 148.985 44.6588 148.985C44.303 148.985 43.9952 149.094 43.7353 149.313C43.4821 149.532 43.3145 149.826 43.2325 150.196ZM50.2923 152.617C50.7575 152.617 51.1371 152.45 51.4313 152.115C51.7391 151.779 51.893 151.342 51.893 150.801C51.893 150.274 51.7391 149.84 51.4313 149.498C51.1303 149.156 50.7506 148.985 50.2923 148.985C49.8408 148.985 49.4611 149.156 49.1533 149.498C48.8455 149.84 48.6916 150.274 48.6916 150.801C48.6916 151.335 48.8455 151.769 49.1533 152.104C49.4611 152.446 49.8408 152.617 50.2923 152.617ZM50.1384 153.479C49.4817 153.479 48.9173 153.219 48.4453 152.7C47.9801 152.173 47.7475 151.54 47.7475 150.801C47.7475 150.062 47.9801 149.43 48.4453 148.903C48.9173 148.383 49.4817 148.123 50.1384 148.123C50.5078 148.123 50.843 148.202 51.144 148.359C51.4518 148.516 51.6878 148.725 51.852 148.985H51.893L51.852 148.287V145.968H52.796V153.315H51.893V152.617H51.852C51.6878 152.877 51.4518 153.086 51.144 153.243C50.843 153.401 50.5078 153.479 50.1384 153.479ZM60.0496 151.92C60.0496 152.357 59.8581 152.727 59.475 153.028C59.0919 153.329 58.6096 153.479 58.0282 153.479C57.5219 153.479 57.0773 153.349 56.6942 153.089C56.3111 152.823 56.0375 152.474 55.8733 152.043L56.7147 151.684C56.8379 151.985 57.0157 152.221 57.2483 152.392C57.4877 152.556 57.7477 152.638 58.0282 152.638C58.3292 152.638 58.5788 152.573 58.7772 152.443C58.9825 152.313 59.0851 152.159 59.0851 151.981C59.0851 151.66 58.8388 151.424 58.3463 151.273L57.4843 151.058C56.5061 150.811 56.017 150.339 56.017 149.642C56.017 149.183 56.2017 148.817 56.5711 148.544C56.9473 148.263 57.4262 148.123 58.0076 148.123C58.4523 148.123 58.8525 148.229 59.2082 148.441C59.5708 148.653 59.8239 148.937 59.9675 149.293L59.1261 149.642C59.0303 149.43 58.873 149.265 58.6541 149.149C58.442 149.026 58.2026 148.964 57.9358 148.964C57.6895 148.964 57.4672 149.026 57.2688 149.149C57.0773 149.272 56.9815 149.423 56.9815 149.601C56.9815 149.888 57.2517 150.093 57.7922 150.216L58.5515 150.411C59.5502 150.658 60.0496 151.16 60.0496 151.92ZM60.6341 150.801C60.6341 150.028 60.8769 149.389 61.3626 148.882C61.8552 148.376 62.4743 148.123 63.2199 148.123C63.9656 148.123 64.5812 148.376 65.0669 148.882C65.5595 149.389 65.8057 150.028 65.8057 150.801C65.8057 151.581 65.5595 152.221 65.0669 152.72C64.5812 153.226 63.9656 153.479 63.2199 153.479C62.4743 153.479 61.8552 153.226 61.3626 152.72C60.8769 152.214 60.6341 151.574 60.6341 150.801ZM61.5781 150.801C61.5781 151.342 61.7355 151.779 62.0501 152.115C62.3648 152.45 62.7547 152.617 63.2199 152.617C63.6851 152.617 64.075 152.45 64.3897 152.115C64.7044 151.779 64.8617 151.342 64.8617 150.801C64.8617 150.268 64.7044 149.833 64.3897 149.498C64.0682 149.156 63.6782 148.985 63.2199 148.985C62.7616 148.985 62.3717 149.156 62.0501 149.498C61.7355 149.833 61.5781 150.268 61.5781 150.801ZM67.5071 153.315H66.563V148.287H67.466V148.985H67.5071C67.6507 148.739 67.8696 148.533 68.1638 148.369C68.4648 148.205 68.7623 148.123 69.0565 148.123C69.4259 148.123 69.7508 148.209 70.0313 148.38C70.3118 148.551 70.517 148.787 70.647 149.088C71.0643 148.445 71.6423 148.123 72.3811 148.123C72.9626 148.123 73.4107 148.301 73.7253 148.657C74.04 149.012 74.1973 149.519 74.1973 150.175V153.315H73.2533V150.319C73.2533 149.847 73.1678 149.508 72.9968 149.303C72.8258 149.091 72.5385 148.985 72.1348 148.985C71.7723 148.985 71.4679 149.139 71.2216 149.447C70.9753 149.755 70.8522 150.117 70.8522 150.534V153.315H69.9082V150.319C69.9082 149.847 69.8227 149.508 69.6516 149.303C69.4806 149.091 69.1933 148.985 68.7897 148.985C68.4271 148.985 68.1227 149.139 67.8765 149.447C67.6302 149.755 67.5071 150.117 67.5071 150.534V153.315ZM77.5585 153.479C76.8197 153.479 76.2109 153.226 75.732 152.72C75.2532 152.214 75.0137 151.574 75.0137 150.801C75.0137 150.035 75.2463 149.399 75.7115 148.893C76.1767 148.38 76.7718 148.123 77.4969 148.123C78.2426 148.123 78.8343 148.366 79.2721 148.852C79.7168 149.33 79.9391 150.004 79.9391 150.873L79.9288 150.976H75.9783C75.992 151.468 76.1562 151.865 76.4708 152.166C76.7855 152.467 77.1617 152.617 77.5996 152.617C78.2015 152.617 78.6736 152.316 79.0156 151.714L79.857 152.125C79.6313 152.549 79.3166 152.881 78.913 153.12C78.5162 153.36 78.0647 153.479 77.5585 153.479ZM76.0501 150.196H78.9335C78.9061 149.847 78.7625 149.56 78.5025 149.334C78.2494 149.101 77.9074 148.985 77.4764 148.985C77.1207 148.985 76.8129 149.094 76.5529 149.313C76.2998 149.532 76.1322 149.826 76.0501 150.196ZM87.4693 153.315H86.5664V152.617H86.5253C86.3817 152.864 86.1593 153.069 85.8583 153.233C85.5642 153.397 85.2564 153.479 84.9348 153.479C84.3192 153.479 83.8437 153.305 83.5085 152.956C83.1802 152.6 83.016 152.098 83.016 151.448V148.287H83.96V151.386C83.9806 152.207 84.3944 152.617 85.2016 152.617C85.5779 152.617 85.8925 152.467 86.1457 152.166C86.3988 151.858 86.5253 151.492 86.5253 151.068V148.287H87.4693V153.315ZM92.4163 151.92C92.4163 152.357 92.2248 152.727 91.8417 153.028C91.4586 153.329 90.9764 153.479 90.3949 153.479C89.8887 153.479 89.444 153.349 89.061 153.089C88.6779 152.823 88.4042 152.474 88.2401 152.043L89.0815 151.684C89.2046 151.985 89.3825 152.221 89.6151 152.392C89.8545 152.556 90.1144 152.638 90.3949 152.638C90.6959 152.638 90.9456 152.573 91.144 152.443C91.3492 152.313 91.4518 152.159 91.4518 151.981C91.4518 151.66 91.2055 151.424 90.713 151.273L89.8511 151.058C88.8728 150.811 88.3837 150.339 88.3837 149.642C88.3837 149.183 88.5684 148.817 88.9378 148.544C89.3141 148.263 89.7929 148.123 90.3744 148.123C90.819 148.123 91.2192 148.229 91.5749 148.441C91.9375 148.653 92.1906 148.937 92.3343 149.293L91.4928 149.642C91.3971 149.43 91.2397 149.265 91.0208 149.149C90.8088 149.026 90.5693 148.964 90.3026 148.964C90.0563 148.964 89.834 149.026 89.6356 149.149C89.444 149.272 89.3483 149.423 89.3483 149.601C89.3483 149.888 89.6185 150.093 90.1589 150.216L90.9182 150.411C91.917 150.658 92.4163 151.16 92.4163 151.92ZM95.5456 153.479C94.8068 153.479 94.198 153.226 93.7191 152.72C93.2403 152.214 93.0008 151.574 93.0008 150.801C93.0008 150.035 93.2334 149.399 93.6986 148.893C94.1638 148.38 94.7589 148.123 95.484 148.123C96.2297 148.123 96.8214 148.366 97.2592 148.852C97.7039 149.33 97.9262 150.004 97.9262 150.873L97.9159 150.976H93.9654C93.9791 151.468 94.1432 151.865 94.4579 152.166C94.7726 152.467 95.1488 152.617 95.5866 152.617C96.1886 152.617 96.6606 152.316 97.0027 151.714L97.8441 152.125C97.6183 152.549 97.3037 152.881 96.9001 153.12C96.5033 153.36 96.0518 153.479 95.5456 153.479ZM94.0372 150.196H96.9206C96.8932 149.847 96.7496 149.56 96.4896 149.334C96.2365 149.101 95.8945 148.985 95.4635 148.985C95.1078 148.985 94.8 149.094 94.54 149.313C94.2869 149.532 94.1193 149.826 94.0372 150.196ZM101.008 145.886C101.35 145.886 101.631 145.944 101.85 146.061L101.593 146.892C101.429 146.81 101.244 146.769 101.039 146.769C100.806 146.769 100.615 146.851 100.464 147.015C100.321 147.172 100.249 147.384 100.249 147.651V148.287H101.562V149.149H100.249V153.315H99.3049V149.149H98.3609V148.287H99.3049V147.559C99.3049 147.059 99.4623 146.656 99.777 146.348C100.098 146.04 100.509 145.886 101.008 145.886ZM106.779 153.315H105.876V152.617H105.835C105.691 152.864 105.469 153.069 105.168 153.233C104.874 153.397 104.566 153.479 104.245 153.479C103.629 153.479 103.154 153.305 102.818 152.956C102.49 152.6 102.326 152.098 102.326 151.448V148.287H103.27V151.386C103.29 152.207 103.704 152.617 104.511 152.617C104.888 152.617 105.202 152.467 105.455 152.166C105.709 151.858 105.835 151.492 105.835 151.068V148.287H106.779V153.315ZM108.872 145.968V153.315H107.928V145.968H108.872ZM114.74 152.617C115.191 152.617 115.571 152.446 115.879 152.104C116.187 151.769 116.341 151.335 116.341 150.801C116.341 150.274 116.187 149.84 115.879 149.498C115.571 149.156 115.191 148.985 114.74 148.985C114.282 148.985 113.899 149.156 113.591 149.498C113.29 149.84 113.139 150.274 113.139 150.801C113.139 151.335 113.29 151.773 113.591 152.115C113.899 152.45 114.282 152.617 114.74 152.617ZM114.894 153.479C114.524 153.479 114.186 153.401 113.878 153.243C113.577 153.086 113.344 152.877 113.18 152.617H113.139L113.18 153.315V155.532H112.236V148.287H113.139V148.985H113.18C113.344 148.725 113.577 148.516 113.878 148.359C114.186 148.202 114.524 148.123 114.894 148.123C115.557 148.123 116.118 148.383 116.577 148.903C117.049 149.43 117.285 150.062 117.285 150.801C117.285 151.547 117.049 152.18 116.577 152.7C116.118 153.219 115.557 153.479 114.894 153.479ZM119.043 153.315H118.099V148.287H119.002V149.108H119.043C119.139 148.841 119.334 148.616 119.628 148.431C119.929 148.239 120.223 148.144 120.511 148.144C120.784 148.144 121.017 148.185 121.208 148.267L120.921 149.18C120.805 149.132 120.62 149.108 120.367 149.108C120.011 149.108 119.7 149.252 119.433 149.539C119.173 149.826 119.043 150.162 119.043 150.545V153.315ZM121.229 150.801C121.229 150.028 121.472 149.389 121.958 148.882C122.45 148.376 123.069 148.123 123.815 148.123C124.56 148.123 125.176 148.376 125.662 148.882C126.154 149.389 126.401 150.028 126.401 150.801C126.401 151.581 126.154 152.221 125.662 152.72C125.176 153.226 124.56 153.479 123.815 153.479C123.069 153.479 122.45 153.226 121.958 152.72C121.472 152.214 121.229 151.574 121.229 150.801ZM122.173 150.801C122.173 151.342 122.33 151.779 122.645 152.115C122.96 152.45 123.35 152.617 123.815 152.617C124.28 152.617 124.67 152.45 124.985 152.115C125.299 151.779 125.457 151.342 125.457 150.801C125.457 150.268 125.299 149.833 124.985 149.498C124.663 149.156 124.273 148.985 123.815 148.985C123.357 148.985 122.967 149.156 122.645 149.498C122.33 149.833 122.173 150.268 122.173 150.801ZM128.102 153.315H127.158V148.287H128.061V148.985H128.102C128.246 148.739 128.465 148.533 128.759 148.369C129.06 148.205 129.357 148.123 129.651 148.123C130.021 148.123 130.346 148.209 130.626 148.38C130.907 148.551 131.112 148.787 131.242 149.088C131.659 148.445 132.237 148.123 132.976 148.123C133.558 148.123 134.006 148.301 134.32 148.657C134.635 149.012 134.792 149.519 134.792 150.175V153.315H133.848V150.319C133.848 149.847 133.763 149.508 133.592 149.303C133.421 149.091 133.133 148.985 132.73 148.985C132.367 148.985 132.063 149.139 131.817 149.447C131.57 149.755 131.447 150.117 131.447 150.534V153.315H130.503V150.319C130.503 149.847 130.418 149.508 130.247 149.303C130.076 149.091 129.788 148.985 129.385 148.985C129.022 148.985 128.718 149.139 128.471 149.447C128.225 149.755 128.102 150.117 128.102 150.534V153.315ZM138.359 152.617C138.81 152.617 139.19 152.446 139.498 152.104C139.805 151.769 139.959 151.335 139.959 150.801C139.959 150.274 139.805 149.84 139.498 149.498C139.19 149.156 138.81 148.985 138.359 148.985C137.9 148.985 137.517 149.156 137.209 149.498C136.908 149.84 136.758 150.274 136.758 150.801C136.758 151.335 136.908 151.773 137.209 152.115C137.517 152.45 137.9 152.617 138.359 152.617ZM138.513 153.479C138.143 153.479 137.805 153.401 137.497 153.243C137.196 153.086 136.963 152.877 136.799 152.617H136.758L136.799 153.315V155.532H135.855V148.287H136.758V148.985H136.799C136.963 148.725 137.196 148.516 137.497 148.359C137.805 148.202 138.143 148.123 138.513 148.123C139.176 148.123 139.737 148.383 140.195 148.903C140.667 149.43 140.903 150.062 140.903 150.801C140.903 151.547 140.667 152.18 140.195 152.7C139.737 153.219 139.176 153.479 138.513 153.479ZM143.558 153.397C143.148 153.397 142.806 153.271 142.532 153.018C142.265 152.765 142.129 152.412 142.122 151.961V149.149H141.239V148.287H142.122V146.748H143.066V148.287H144.297V149.149H143.066V151.653C143.066 151.988 143.131 152.217 143.261 152.34C143.391 152.457 143.538 152.515 143.702 152.515C143.777 152.515 143.849 152.508 143.917 152.494C143.993 152.474 144.061 152.45 144.123 152.422L144.42 153.264C144.174 153.353 143.887 153.397 143.558 153.397ZM15.5421 159.886C15.8841 159.886 16.1646 159.944 16.3835 160.061L16.127 160.892C15.9628 160.81 15.7781 160.769 15.5729 160.769C15.3403 160.769 15.1487 160.851 14.9982 161.015C14.8546 161.172 14.7828 161.384 14.7828 161.651V162.287H16.0962V163.149H14.7828V167.315H13.8387V163.149H12.8947V162.287H13.8387V161.559C13.8387 161.059 13.9961 160.656 14.3107 160.348C14.6323 160.04 15.0427 159.886 15.5421 159.886ZM16.4029 164.801C16.4029 164.028 16.6457 163.389 17.1314 162.882C17.624 162.376 18.2431 162.123 18.9887 162.123C19.7344 162.123 20.35 162.376 20.8357 162.882C21.3283 163.389 21.5745 164.028 21.5745 164.801C21.5745 165.581 21.3283 166.221 20.8357 166.72C20.35 167.226 19.7344 167.479 18.9887 167.479C18.2431 167.479 17.624 167.226 17.1314 166.72C16.6457 166.214 16.4029 165.574 16.4029 164.801ZM17.3469 164.801C17.3469 165.342 17.5043 165.779 17.8189 166.115C18.1336 166.45 18.5235 166.617 18.9887 166.617C19.4539 166.617 19.8438 166.45 20.1585 166.115C20.4732 165.779 20.6305 165.342 20.6305 164.801C20.6305 164.268 20.4732 163.833 20.1585 163.498C19.837 163.156 19.447 162.985 18.9887 162.985C18.5304 162.985 18.1405 163.156 17.8189 163.498C17.5043 163.833 17.3469 164.268 17.3469 164.801ZM23.2759 167.315H22.3318V162.287H23.2348V163.108H23.2759C23.3716 162.841 23.5666 162.616 23.8608 162.431C24.1617 162.239 24.4559 162.144 24.7432 162.144C25.0168 162.144 25.2494 162.185 25.441 162.267L25.1537 163.18C25.0374 163.132 24.8527 163.108 24.5996 163.108C24.2438 163.108 23.9326 163.252 23.6658 163.539C23.4058 163.826 23.2759 164.162 23.2759 164.545V167.315ZM32.8086 162.287L29.6584 169.532H28.6836L29.8534 166.997L27.7806 162.287H28.8067L30.3048 165.899H30.3254L31.7824 162.287H32.8086ZM32.937 164.801C32.937 164.028 33.1798 163.389 33.6655 162.882C34.1581 162.376 34.7772 162.123 35.5228 162.123C36.2684 162.123 36.8841 162.376 37.3698 162.882C37.8623 163.389 38.1086 164.028 38.1086 164.801C38.1086 165.581 37.8623 166.221 37.3698 166.72C36.8841 167.226 36.2684 167.479 35.5228 167.479C34.7772 167.479 34.1581 167.226 33.6655 166.72C33.1798 166.214 32.937 165.574 32.937 164.801ZM33.881 164.801C33.881 165.342 34.0384 165.779 34.353 166.115C34.6677 166.45 35.0576 166.617 35.5228 166.617C35.988 166.617 36.3779 166.45 36.6926 166.115C37.0072 165.779 37.1646 165.342 37.1646 164.801C37.1646 164.268 37.0072 163.833 36.6926 163.498C36.3711 163.156 35.9811 162.985 35.5228 162.985C35.0645 162.985 34.6745 163.156 34.353 163.498C34.0384 163.833 33.881 164.268 33.881 164.801ZM43.3283 167.315H42.4254V166.617H42.3843C42.2407 166.864 42.0183 167.069 41.7173 167.233C41.4232 167.397 41.1153 167.479 40.7938 167.479C40.1782 167.479 39.7027 167.305 39.3675 166.956C39.0392 166.6 38.875 166.098 38.875 165.448V162.287H39.819V165.386C39.8395 166.207 40.2534 166.617 41.0606 166.617C41.4369 166.617 41.7515 166.467 42.0046 166.166C42.2578 165.858 42.3843 165.492 42.3843 165.068V162.287H43.3283V167.315ZM48.7228 167.397C48.3124 167.397 47.9703 167.271 47.6967 167.018C47.4299 166.765 47.2931 166.412 47.2863 165.961V163.149H46.4038V162.287H47.2863V160.748H48.2303V162.287H49.4616V163.149H48.2303V165.653C48.2303 165.988 48.2953 166.217 48.4252 166.34C48.5552 166.457 48.7023 166.515 48.8665 166.515C48.9417 166.515 49.0136 166.508 49.082 166.494C49.1572 166.474 49.2256 166.45 49.2872 166.422L49.5848 167.264C49.3385 167.353 49.0512 167.397 48.7228 167.397ZM50.0222 164.801C50.0222 164.028 50.2651 163.389 50.7508 162.882C51.2433 162.376 51.8624 162.123 52.608 162.123C53.3537 162.123 53.9693 162.376 54.455 162.882C54.9476 163.389 55.1938 164.028 55.1938 164.801C55.1938 165.581 54.9476 166.221 54.455 166.72C53.9693 167.226 53.3537 167.479 52.608 167.479C51.8624 167.479 51.2433 167.226 50.7508 166.72C50.2651 166.214 50.0222 165.574 50.0222 164.801ZM50.9662 164.801C50.9662 165.342 51.1236 165.779 51.4383 166.115C51.7529 166.45 52.1429 166.617 52.608 166.617C53.0732 166.617 53.4631 166.45 53.7778 166.115C54.0925 165.779 54.2498 165.342 54.2498 164.801C54.2498 164.268 54.0925 163.833 53.7778 163.498C53.4563 163.156 53.0664 162.985 52.608 162.985C52.1497 162.985 51.7598 163.156 51.4383 163.498C51.1236 163.833 50.9662 164.268 50.9662 164.801ZM60.7687 166.617C61.2202 166.617 61.5998 166.446 61.9077 166.104C62.2155 165.769 62.3694 165.335 62.3694 164.801C62.3694 164.274 62.2155 163.84 61.9077 163.498C61.5998 163.156 61.2202 162.985 60.7687 162.985C60.3104 162.985 59.9273 163.156 59.6194 163.498C59.3185 163.84 59.168 164.274 59.168 164.801C59.168 165.335 59.3185 165.773 59.6194 166.115C59.9273 166.45 60.3104 166.617 60.7687 166.617ZM60.9226 167.479C60.5532 167.479 60.2146 167.401 59.9068 167.243C59.6058 167.086 59.3732 166.877 59.209 166.617H59.168L59.209 167.315V169.532H58.265V162.287H59.168V162.985H59.209C59.3732 162.725 59.6058 162.516 59.9068 162.359C60.2146 162.202 60.5532 162.123 60.9226 162.123C61.5862 162.123 62.1471 162.383 62.6054 162.903C63.0775 163.43 63.3135 164.062 63.3135 164.801C63.3135 165.547 63.0775 166.18 62.6054 166.7C62.1471 167.219 61.5862 167.479 60.9226 167.479ZM65.0219 159.968V167.315H64.0779V159.968H65.0219ZM66.8096 165.776C66.8096 166.022 66.9122 166.228 67.1175 166.392C67.3295 166.556 67.5758 166.638 67.8563 166.638C68.253 166.638 68.6053 166.491 68.9132 166.197C69.2278 165.903 69.3852 165.557 69.3852 165.16C69.091 164.928 68.6806 164.811 68.1538 164.811C67.7708 164.811 67.4492 164.904 67.1893 165.089C66.9362 165.273 66.8096 165.502 66.8096 165.776ZM68.0307 162.123C68.7285 162.123 69.2791 162.311 69.6828 162.687C70.0864 163.057 70.2882 163.566 70.2882 164.216V167.315H69.3852V166.617H69.3441C68.9542 167.192 68.4343 167.479 67.7844 167.479C67.2303 167.479 66.7652 167.315 66.3889 166.987C66.0195 166.658 65.8348 166.248 65.8348 165.755C65.8348 165.236 66.0298 164.822 66.4197 164.514C66.8165 164.206 67.3432 164.052 67.9999 164.052C68.5609 164.052 69.0226 164.155 69.3852 164.36V164.144C69.3852 163.816 69.2552 163.539 68.9953 163.313C68.7353 163.081 68.4309 162.964 68.082 162.964C67.5553 162.964 67.138 163.187 66.8302 163.631L65.999 163.108C66.4573 162.451 67.1346 162.123 68.0307 162.123ZM71.3529 162.287H72.2559V162.985H72.2969C72.4406 162.739 72.6595 162.533 72.9537 162.369C73.2547 162.205 73.5659 162.123 73.8874 162.123C74.5031 162.123 74.9751 162.301 75.3035 162.657C75.6387 163.005 75.8063 163.505 75.8063 164.155V167.315H74.8622V164.216C74.8417 163.395 74.4278 162.985 73.6206 162.985C73.2444 162.985 72.9297 163.139 72.6766 163.447C72.4235 163.748 72.2969 164.11 72.2969 164.534V167.315H71.3529V162.287ZM83.6634 162.287L80.5132 169.532H79.5384L80.7082 166.997L78.6355 162.287H79.6616L81.1597 165.899H81.1802L82.6373 162.287H83.6634ZM83.7918 164.801C83.7918 164.028 84.0347 163.389 84.5204 162.882C85.0129 162.376 85.632 162.123 86.3777 162.123C87.1233 162.123 87.739 162.376 88.2247 162.882C88.7172 163.389 88.9635 164.028 88.9635 164.801C88.9635 165.581 88.7172 166.221 88.2247 166.72C87.739 167.226 87.1233 167.479 86.3777 167.479C85.632 167.479 85.0129 167.226 84.5204 166.72C84.0347 166.214 83.7918 165.574 83.7918 164.801ZM84.7359 164.801C84.7359 165.342 84.8932 165.779 85.2079 166.115C85.5226 166.45 85.9125 166.617 86.3777 166.617C86.8428 166.617 87.2328 166.45 87.5474 166.115C87.8621 165.779 88.0194 165.342 88.0194 164.801C88.0194 164.268 87.8621 163.833 87.5474 163.498C87.2259 163.156 86.836 162.985 86.3777 162.985C85.9193 162.985 85.5294 163.156 85.2079 163.498C84.8932 163.833 84.7359 164.268 84.7359 164.801ZM94.1832 167.315H93.2802V166.617H93.2392C93.0955 166.864 92.8732 167.069 92.5722 167.233C92.278 167.397 91.9702 167.479 91.6487 167.479C91.033 167.479 90.5576 167.305 90.2224 166.956C89.894 166.6 89.7298 166.098 89.7298 165.448V162.287H90.6739V165.386C90.6944 166.207 91.1083 166.617 91.9155 166.617C92.2917 166.617 92.6064 166.467 92.8595 166.166C93.1126 165.858 93.2392 165.492 93.2392 165.068V162.287H94.1832V167.315ZM96.2764 167.315H95.3324V162.287H96.2353V163.108H96.2764C96.3722 162.841 96.5671 162.616 96.8613 162.431C97.1623 162.239 97.4564 162.144 97.7437 162.144C98.0174 162.144 98.25 162.185 98.4415 162.267L98.1542 163.18C98.0379 163.132 97.8532 163.108 97.6001 163.108C97.2444 163.108 96.9331 163.252 96.6663 163.539C96.4064 163.826 96.2764 164.162 96.2764 164.545V167.315ZM103.572 166.617C104.037 166.617 104.417 166.45 104.711 166.115C105.019 165.779 105.173 165.342 105.173 164.801C105.173 164.274 105.019 163.84 104.711 163.498C104.41 163.156 104.03 162.985 103.572 162.985C103.121 162.985 102.741 163.156 102.433 163.498C102.125 163.84 101.971 164.274 101.971 164.801C101.971 165.335 102.125 165.769 102.433 166.104C102.741 166.446 103.121 166.617 103.572 166.617ZM103.418 167.479C102.762 167.479 102.197 167.219 101.725 166.7C101.26 166.173 101.027 165.54 101.027 164.801C101.027 164.062 101.26 163.43 101.725 162.903C102.197 162.383 102.762 162.123 103.418 162.123C103.788 162.123 104.123 162.202 104.424 162.359C104.732 162.516 104.968 162.725 105.132 162.985H105.173L105.132 162.287V159.968H106.076V167.315H105.173V166.617H105.132C104.968 166.877 104.732 167.086 104.424 167.243C104.123 167.401 103.788 167.479 103.418 167.479ZM107.864 165.776C107.864 166.022 107.967 166.228 108.172 166.392C108.384 166.556 108.63 166.638 108.911 166.638C109.308 166.638 109.66 166.491 109.968 166.197C110.282 165.903 110.44 165.557 110.44 165.16C110.146 164.928 109.735 164.811 109.208 164.811C108.825 164.811 108.504 164.904 108.244 165.089C107.991 165.273 107.864 165.502 107.864 165.776ZM109.085 162.123C109.783 162.123 110.334 162.311 110.737 162.687C111.141 163.057 111.343 163.566 111.343 164.216V167.315H110.44V166.617H110.399C110.009 167.192 109.489 167.479 108.839 167.479C108.285 167.479 107.82 167.315 107.444 166.987C107.074 166.658 106.889 166.248 106.889 165.755C106.889 165.236 107.084 164.822 107.474 164.514C107.871 164.206 108.398 164.052 109.055 164.052C109.616 164.052 110.077 164.155 110.44 164.36V164.144C110.44 163.816 110.31 163.539 110.05 163.313C109.79 163.081 109.486 162.964 109.137 162.964C108.61 162.964 108.193 163.187 107.885 163.631L107.054 163.108C107.512 162.451 108.189 162.123 109.085 162.123ZM116.802 162.287L113.652 169.532H112.677L113.847 166.997L111.774 162.287H112.8L114.298 165.899H114.319L115.776 162.287H116.802ZM126.794 162.287L125.173 167.315H124.208L122.956 163.457L121.715 167.315H120.76L119.139 162.287H120.124L121.243 166.084H121.253L122.494 162.287H123.469L124.711 166.084H124.721L125.829 162.287H126.794ZM128.63 160.553C128.63 160.738 128.565 160.895 128.435 161.025C128.305 161.155 128.147 161.22 127.963 161.22C127.778 161.22 127.621 161.155 127.491 161.025C127.361 160.895 127.296 160.738 127.296 160.553C127.296 160.368 127.361 160.211 127.491 160.081C127.621 159.951 127.778 159.886 127.963 159.886C128.147 159.886 128.305 159.951 128.435 160.081C128.565 160.211 128.63 160.368 128.63 160.553ZM128.435 162.287V167.315H127.491V162.287H128.435ZM131.604 167.397C131.193 167.397 130.851 167.271 130.578 167.018C130.311 166.765 130.174 166.412 130.167 165.961V163.149H129.285V162.287H130.167V160.748H131.111V162.287H132.343V163.149H131.111V165.653C131.111 165.988 131.176 166.217 131.306 166.34C131.436 166.457 131.583 166.515 131.747 166.515C131.823 166.515 131.894 166.508 131.963 166.494C132.038 166.474 132.107 166.45 132.168 166.422L132.466 167.264C132.219 167.353 131.932 167.397 131.604 167.397ZM133.291 159.968H134.235V162.287L134.194 162.985H134.235C134.378 162.739 134.597 162.533 134.891 162.369C135.192 162.205 135.504 162.123 135.825 162.123C136.441 162.123 136.913 162.301 137.241 162.657C137.576 163.005 137.744 163.505 137.744 164.155V167.315H136.8V164.339C136.8 163.436 136.4 162.985 135.599 162.985C135.216 162.985 134.891 163.146 134.625 163.467C134.365 163.782 134.235 164.151 134.235 164.575V167.315H133.291V159.968ZM15.2137 181.397C14.8033 181.397 14.4612 181.271 14.1876 181.018C13.9208 180.765 13.784 180.412 13.7772 179.961V177.149H12.8947V176.287H13.7772V174.748H14.7212V176.287H15.9525V177.149H14.7212V179.653C14.7212 179.988 14.7862 180.217 14.9162 180.34C15.0461 180.457 15.1932 180.515 15.3574 180.515C15.4326 180.515 15.5045 180.508 15.5729 180.494C15.6481 180.474 15.7165 180.45 15.7781 180.422L16.0757 181.264C15.8294 181.353 15.5421 181.397 15.2137 181.397ZM16.9006 173.968H17.8447V176.287L17.8036 176.985H17.8447C17.9883 176.739 18.2072 176.533 18.5014 176.369C18.8024 176.205 19.1136 176.123 19.4352 176.123C20.0508 176.123 20.5228 176.301 20.8512 176.657C21.1864 177.005 21.354 177.505 21.354 178.155V181.315H20.41V178.339C20.41 177.436 20.0098 176.985 19.2094 176.985C18.8263 176.985 18.5014 177.146 18.2346 177.467C17.9746 177.782 17.8447 178.151 17.8447 178.575V181.315H16.9006V173.968ZM24.7196 181.479C23.9808 181.479 23.3719 181.226 22.8931 180.72C22.4142 180.214 22.1748 179.574 22.1748 178.801C22.1748 178.035 22.4074 177.399 22.8726 176.893C23.3377 176.38 23.9329 176.123 24.658 176.123C25.4036 176.123 25.9954 176.366 26.4332 176.852C26.8778 177.33 27.1002 178.004 27.1002 178.873L27.0899 178.976H23.1393C23.153 179.468 23.3172 179.865 23.6319 180.166C23.9466 180.467 24.3228 180.617 24.7606 180.617C25.3626 180.617 25.8346 180.316 26.1767 179.714L27.0181 180.125C26.7923 180.549 26.4776 180.881 26.074 181.12C25.6773 181.36 25.2258 181.479 24.7196 181.479ZM23.2112 178.196H26.0946C26.0672 177.847 25.9235 177.56 25.6636 177.334C25.4105 177.101 25.0684 176.985 24.6375 176.985C24.2818 176.985 23.9739 177.094 23.714 177.313C23.4609 177.532 23.2933 177.826 23.2112 178.196ZM30.2181 173.968H31.1621V176.287L31.1211 176.985H31.1621C31.3058 176.739 31.5247 176.533 31.8188 176.369C32.1198 176.205 32.4311 176.123 32.7526 176.123C33.3683 176.123 33.8403 176.301 34.1686 176.657C34.5038 177.005 34.6714 177.505 34.6714 178.155V181.315H33.7274V178.339C33.7274 177.436 33.3272 176.985 32.5269 176.985C32.1438 176.985 31.8188 177.146 31.5521 177.467C31.2921 177.782 31.1621 178.151 31.1621 178.575V181.315H30.2181V173.968ZM38.037 181.479C37.2982 181.479 36.6894 181.226 36.2105 180.72C35.7317 180.214 35.4923 179.574 35.4923 178.801C35.4923 178.035 35.7248 177.399 36.19 176.893C36.6552 176.38 37.2503 176.123 37.9755 176.123C38.7211 176.123 39.3128 176.366 39.7506 176.852C40.1953 177.33 40.4176 178.004 40.4176 178.873L40.4074 178.976H36.4568C36.4705 179.468 36.6347 179.865 36.9493 180.166C37.264 180.467 37.6403 180.617 38.0781 180.617C38.6801 180.617 39.1521 180.316 39.4941 179.714L40.3355 180.125C40.1098 180.549 39.7951 180.881 39.3915 181.12C38.9947 181.36 38.5432 181.479 38.037 181.479ZM36.5286 178.196H39.412C39.3847 177.847 39.241 177.56 38.9811 177.334C38.7279 177.101 38.3859 176.985 37.9549 176.985C37.5992 176.985 37.2914 177.094 37.0314 177.313C36.7783 177.532 36.6107 177.826 36.5286 178.196ZM42.2249 173.968V181.315H41.2809V173.968H42.2249ZM45.8379 180.617C46.2894 180.617 46.6691 180.446 46.9769 180.104C47.2847 179.769 47.4387 179.335 47.4387 178.801C47.4387 178.274 47.2847 177.84 46.9769 177.498C46.6691 177.156 46.2894 176.985 45.8379 176.985C45.3796 176.985 44.9965 177.156 44.6887 177.498C44.3877 177.84 44.2372 178.274 44.2372 178.801C44.2372 179.335 44.3877 179.773 44.6887 180.115C44.9965 180.45 45.3796 180.617 45.8379 180.617ZM45.9918 181.479C45.6224 181.479 45.2838 181.401 44.976 181.243C44.675 181.086 44.4424 180.877 44.2782 180.617H44.2372L44.2782 181.315V183.532H43.3342V176.287H44.2372V176.985H44.2782C44.4424 176.725 44.675 176.516 44.976 176.359C45.2838 176.202 45.6224 176.123 45.9918 176.123C46.6554 176.123 47.2163 176.383 47.6747 176.903C48.1467 177.43 48.3827 178.062 48.3827 178.801C48.3827 179.547 48.1467 180.18 47.6747 180.7C47.2163 181.219 46.6554 181.479 45.9918 181.479ZM51.2147 178.801C51.2147 178.028 51.4575 177.389 51.9432 176.882C52.4358 176.376 53.0548 176.123 53.8005 176.123C54.5461 176.123 55.1618 176.376 55.6475 176.882C56.14 177.389 56.3863 178.028 56.3863 178.801C56.3863 179.581 56.14 180.221 55.6475 180.72C55.1618 181.226 54.5461 181.479 53.8005 181.479C53.0548 181.479 52.4358 181.226 51.9432 180.72C51.4575 180.214 51.2147 179.574 51.2147 178.801ZM52.1587 178.801C52.1587 179.342 52.316 179.779 52.6307 180.115C52.9454 180.45 53.3353 180.617 53.8005 180.617C54.2657 180.617 54.6556 180.45 54.9703 180.115C55.2849 179.779 55.4423 179.342 55.4423 178.801C55.4423 178.268 55.2849 177.833 54.9703 177.498C54.6487 177.156 54.2588 176.985 53.8005 176.985C53.3422 176.985 52.9522 177.156 52.6307 177.498C52.316 177.833 52.1587 178.268 52.1587 178.801ZM59.4125 173.886C59.7546 173.886 60.035 173.944 60.254 174.061L59.9974 174.892C59.8332 174.81 59.6485 174.769 59.4433 174.769C59.2107 174.769 59.0192 174.851 58.8687 175.015C58.725 175.172 58.6532 175.384 58.6532 175.651V176.287H59.9666V177.149H58.6532V181.315H57.7092V177.149H56.7652V176.287H57.7092V175.559C57.7092 175.059 57.8665 174.656 58.1812 174.348C58.5027 174.04 58.9132 173.886 59.4125 173.886ZM70.1597 177.939C70.1597 178.965 69.8552 179.783 69.2464 180.392C68.5623 181.117 67.6628 181.479 66.5477 181.479C65.4806 181.479 64.5776 181.11 63.8388 180.371C63.1 179.632 62.7306 178.723 62.7306 177.642C62.7306 176.561 63.1 175.651 63.8388 174.912C64.5776 174.173 65.4806 173.804 66.5477 173.804C67.0882 173.804 67.5978 173.9 68.0766 174.091C68.5555 174.283 68.9488 174.553 69.2567 174.902L68.5794 175.579C68.3537 175.306 68.0595 175.094 67.697 174.943C67.3413 174.786 66.9582 174.707 66.5477 174.707C65.7474 174.707 65.0701 174.984 64.516 175.538C63.9688 176.099 63.6951 176.8 63.6951 177.642C63.6951 178.483 63.9688 179.184 64.516 179.745C65.0701 180.299 65.7474 180.576 66.5477 180.576C67.2797 180.576 67.8885 180.371 68.3742 179.961C68.8599 179.55 69.1404 178.986 69.2156 178.268H66.5477V177.385H70.1084C70.1426 177.577 70.1597 177.761 70.1597 177.939ZM73.3498 181.479C72.611 181.479 72.0022 181.226 71.5233 180.72C71.0445 180.214 70.8051 179.574 70.8051 178.801C70.8051 178.035 71.0377 177.399 71.5028 176.893C71.968 176.38 72.5631 176.123 73.2883 176.123C74.0339 176.123 74.6256 176.366 75.0634 176.852C75.5081 177.33 75.7304 178.004 75.7304 178.873L75.7202 178.976H71.7696C71.7833 179.468 71.9475 179.865 72.2622 180.166C72.5768 180.467 72.9531 180.617 73.3909 180.617C73.9929 180.617 74.4649 180.316 74.8069 179.714L75.6483 180.125C75.4226 180.549 75.1079 180.881 74.7043 181.12C74.3075 181.36 73.8561 181.479 73.3498 181.479ZM71.8414 178.196H74.7248C74.6975 177.847 74.5538 177.56 74.2939 177.334C74.0408 177.101 73.6987 176.985 73.2677 176.985C72.912 176.985 72.6042 177.094 72.3442 177.313C72.0911 177.532 71.9235 177.826 71.8414 178.196ZM77.5377 181.315H76.5937V176.287H77.4967V176.985H77.5377C77.6814 176.739 77.9003 176.533 78.1945 176.369C78.4955 176.205 78.793 176.123 79.0872 176.123C79.4566 176.123 79.7815 176.209 80.062 176.38C80.3425 176.551 80.5477 176.787 80.6777 177.088C81.0949 176.445 81.673 176.123 82.4118 176.123C82.9933 176.123 83.4413 176.301 83.756 176.657C84.0707 177.012 84.228 177.519 84.228 178.175V181.315H83.284V178.319C83.284 177.847 83.1985 177.508 83.0275 177.303C82.8564 177.091 82.5691 176.985 82.1655 176.985C81.803 176.985 81.4986 177.139 81.2523 177.447C81.006 177.755 80.8829 178.117 80.8829 178.534V181.315H79.9389V178.319C79.9389 177.847 79.8533 177.508 79.6823 177.303C79.5113 177.091 79.224 176.985 78.8204 176.985C78.4578 176.985 78.1534 177.139 77.9071 177.447C77.6609 177.755 77.5377 178.117 77.5377 178.534V181.315ZM86.5528 174.553C86.5528 174.738 86.4878 174.895 86.3579 175.025C86.2279 175.155 86.0705 175.22 85.8858 175.22C85.7011 175.22 85.5438 175.155 85.4138 175.025C85.2839 174.895 85.2189 174.738 85.2189 174.553C85.2189 174.368 85.2839 174.211 85.4138 174.081C85.5438 173.951 85.7011 173.886 85.8858 173.886C86.0705 173.886 86.2279 173.951 86.3579 174.081C86.4878 174.211 86.5528 174.368 86.5528 174.553ZM86.3579 176.287V181.315H85.4138V176.287H86.3579ZM87.5864 176.287H88.4894V176.985H88.5304C88.6741 176.739 88.893 176.533 89.1871 176.369C89.4881 176.205 89.7994 176.123 90.1209 176.123C90.7366 176.123 91.2086 176.301 91.5369 176.657C91.8721 177.005 92.0397 177.505 92.0397 178.155V181.315H91.0957V178.216C91.0752 177.395 90.6613 176.985 89.8541 176.985C89.4779 176.985 89.1632 177.139 88.9101 177.447C88.657 177.748 88.5304 178.11 88.5304 178.534V181.315H87.5864V176.287ZM94.3689 174.553C94.3689 174.738 94.3039 174.895 94.174 175.025C94.044 175.155 93.8867 175.22 93.702 175.22C93.5173 175.22 93.3599 175.155 93.2299 175.025C93.1 174.895 93.035 174.738 93.035 174.553C93.035 174.368 93.1 174.211 93.2299 174.081C93.3599 173.951 93.5173 173.886 93.702 173.886C93.8867 173.886 94.044 173.951 94.174 174.081C94.3039 174.211 94.3689 174.368 94.3689 174.553ZM94.174 176.287V181.315H93.2299V176.287H94.174ZM96.7159 180.679C96.7159 180.871 96.6475 181.035 96.5107 181.172C96.3807 181.308 96.2166 181.377 96.0182 181.377C95.8266 181.377 95.6625 181.308 95.5256 181.172C95.3888 181.035 95.3204 180.871 95.3204 180.679C95.3204 180.481 95.3888 180.316 95.5256 180.186C95.6625 180.05 95.8266 179.981 96.0182 179.981C96.2166 179.981 96.3807 180.05 96.5107 180.186C96.6475 180.316 96.7159 180.481 96.7159 180.679Z" fill="black"/>
<path d="M15.2238 204.364V210.235H14.434V205.342L13.2923 205.84L12.9918 205.171L14.7173 204.364H15.2238ZM19.4626 204.089L16.9131 210.235H16.1748L18.7244 204.089H19.4626ZM23.9052 208.57C23.9052 209.085 23.7135 209.514 23.3301 209.858C22.9524 210.201 22.4831 210.373 21.9223 210.373C21.4816 210.373 21.0838 210.241 20.729 209.978C20.3685 209.703 20.1253 209.345 19.9993 208.905L20.7204 208.604C20.812 208.931 20.9608 209.182 21.1668 209.36C21.3786 209.531 21.6304 209.617 21.9223 209.617C22.2427 209.617 22.5203 209.517 22.7549 209.317C22.9839 209.111 23.0983 208.862 23.0983 208.57C23.0983 208.278 22.9781 208.032 22.7378 207.832C22.5031 207.631 22.2198 207.531 21.8879 207.531H21.3814V206.793H21.8278C22.1426 206.793 22.4001 206.707 22.6004 206.535C22.8007 206.358 22.9009 206.129 22.9009 205.849C22.9009 205.591 22.8064 205.382 22.6176 205.222C22.4287 205.062 22.1798 204.982 21.8707 204.982C21.3728 204.982 21.0323 205.236 20.8492 205.746L20.1195 205.437C20.2512 205.076 20.4715 204.784 20.7805 204.561C21.0896 204.338 21.453 204.226 21.8707 204.226C22.3915 204.226 22.8293 204.381 23.1842 204.69C23.5333 204.987 23.7078 205.374 23.7078 205.849C23.7078 206.415 23.4445 206.836 22.918 207.111V207.145C23.2271 207.277 23.4674 207.468 23.6391 207.72C23.8165 207.972 23.9052 208.255 23.9052 208.57Z" fill="#145DBF"/>
<path d="M35.3781 202.943L34.6216 203.7L37.6154 206.699H31.0859V207.772H37.6154L34.6216 210.771L35.3781 211.528L39.6703 207.236L35.3781 202.943Z" fill="#145DBF"/>
<path d="M195.761 112.095C197.072 110.555 199.596 111.48 199.601 113.502C199.605 115.072 201.223 116.122 202.656 115.481C204.488 114.66 206.355 116.556 205.507 118.375L205.448 118.503C204.784 119.927 205.791 121.565 207.36 121.617C209.372 121.683 210.236 124.199 208.69 125.487L208.565 125.592C207.353 126.602 207.547 128.518 208.938 129.264C210.73 130.226 210.363 132.899 208.391 133.395C206.852 133.782 206.177 135.622 207.101 136.912C208.285 138.566 206.838 140.842 204.849 140.418C203.305 140.088 201.919 141.425 202.191 142.979L202.219 143.14C202.566 145.122 200.28 146.483 198.702 145.234C197.471 144.258 195.644 144.858 195.23 146.373L195.193 146.509C194.664 148.445 192.014 148.685 191.146 146.874C190.468 145.459 188.554 145.215 187.537 146.41C186.226 147.949 183.702 147.024 183.697 145.002C183.693 143.432 182.075 142.382 180.642 143.023C178.81 143.844 176.943 141.948 177.791 140.129L177.85 140.001C178.513 138.578 177.507 136.939 175.937 136.888C173.926 136.821 173.061 134.305 174.607 133.017L174.732 132.913C175.945 131.902 175.751 129.986 174.36 129.24C172.568 128.278 172.935 125.605 174.907 125.109C176.446 124.722 177.12 122.882 176.197 121.592C175.012 119.939 176.46 117.662 178.449 118.086C179.992 118.416 181.379 117.08 181.107 115.525L181.079 115.365C180.732 113.382 183.018 112.021 184.596 113.271C185.827 114.246 187.654 113.646 188.068 112.131L188.105 111.996C188.634 110.059 191.284 109.82 192.152 111.63C192.83 113.045 194.744 113.29 195.761 112.095Z" fill="#DAE9FF"/>
<path d="M171.66 118.871C171.796 118.921 171.914 118.978 172.012 119.042C172.11 119.105 172.194 119.172 172.263 119.241L171.773 119.875C171.728 119.831 171.679 119.791 171.626 119.755C171.573 119.719 171.502 119.685 171.414 119.653C171.273 119.601 171.133 119.605 170.995 119.665C170.861 119.727 170.761 119.85 170.693 120.036L170.556 120.409L171.471 120.744L171.208 121.462L170.293 121.126L169.241 123.995L168.429 123.697L169.481 120.828L168.822 120.587L169.085 119.87L169.744 120.111L169.902 119.679C169.975 119.479 170.072 119.313 170.193 119.18C170.315 119.042 170.452 118.94 170.604 118.874C170.762 118.805 170.93 118.769 171.108 118.768C171.29 118.769 171.474 118.803 171.66 118.871ZM173.611 121.396C173.884 121.496 174.118 121.637 174.311 121.819C174.506 121.996 174.656 122.2 174.759 122.432C174.862 122.663 174.917 122.913 174.924 123.181C174.931 123.449 174.884 123.72 174.784 123.993C174.684 124.267 174.545 124.503 174.366 124.704C174.188 124.904 173.984 125.059 173.755 125.169C173.527 125.279 173.28 125.34 173.015 125.354C172.752 125.363 172.483 125.317 172.21 125.217C171.937 125.116 171.703 124.978 171.507 124.801C171.314 124.62 171.165 124.413 171.062 124.181C170.959 123.95 170.904 123.7 170.897 123.432C170.89 123.163 170.937 122.893 171.037 122.62C171.137 122.346 171.276 122.11 171.455 121.909C171.634 121.709 171.837 121.554 172.066 121.444C172.294 121.334 172.54 121.275 172.803 121.266C173.068 121.253 173.338 121.296 173.611 121.396ZM172.487 124.463C172.623 124.513 172.765 124.534 172.911 124.527C173.058 124.52 173.198 124.486 173.331 124.424C173.469 124.364 173.594 124.274 173.704 124.154C173.816 124.029 173.906 123.876 173.972 123.695C174.038 123.515 174.068 123.343 174.061 123.18C174.056 123.012 174.02 122.861 173.954 122.726C173.892 122.592 173.807 122.476 173.7 122.375C173.593 122.275 173.471 122.2 173.335 122.15C173.198 122.1 173.056 122.078 172.91 122.086C172.763 122.093 172.621 122.126 172.483 122.186C172.349 122.248 172.226 122.342 172.114 122.467C172.004 122.587 171.916 122.737 171.849 122.917C171.783 123.098 171.752 123.272 171.757 123.44C171.764 123.603 171.798 123.751 171.86 123.884C171.927 124.02 172.014 124.137 172.121 124.237C172.228 124.338 172.35 124.413 172.487 124.463ZM175.988 122.4L176.756 122.682L176.557 123.224L176.601 123.24C176.679 123.163 176.769 123.099 176.871 123.048C176.979 122.994 177.09 122.957 177.202 122.937C177.321 122.914 177.437 122.907 177.551 122.915C177.67 122.92 177.779 122.941 177.877 122.977C177.994 123.02 178.09 123.066 178.166 123.116C178.242 123.166 178.308 123.221 178.363 123.28L177.853 123.948C177.808 123.904 177.753 123.864 177.689 123.829C177.631 123.792 177.555 123.756 177.463 123.722C177.331 123.673 177.199 123.655 177.067 123.668C176.94 123.682 176.818 123.721 176.701 123.783C176.584 123.845 176.478 123.931 176.383 124.04C176.292 124.151 176.221 124.277 176.169 124.418L175.485 126.284L174.673 125.987L175.988 122.4ZM181.981 128.143L181.937 128.127C181.783 128.247 181.584 128.329 181.341 128.373C181.099 128.412 180.84 128.38 180.562 128.278C180.332 128.194 180.13 128.068 179.954 127.898C179.785 127.725 179.653 127.525 179.56 127.297C179.466 127.069 179.415 126.823 179.407 126.56C179.4 126.292 179.447 126.018 179.549 125.74C179.651 125.462 179.791 125.226 179.968 125.03C180.146 124.83 180.345 124.673 180.563 124.56C180.782 124.446 181.011 124.38 181.25 124.363C181.496 124.342 181.733 124.374 181.962 124.458C182.24 124.56 182.458 124.706 182.615 124.897C182.774 125.082 182.874 125.271 182.914 125.463L182.958 125.479L183.097 124.965L183.69 123.348L184.502 123.646L182.581 128.886L181.812 128.604L181.981 128.143ZM180.992 127.581C181.128 127.631 181.27 127.653 181.417 127.645C181.568 127.64 181.708 127.605 181.836 127.542C181.97 127.48 182.092 127.389 182.202 127.269C182.314 127.144 182.403 126.991 182.47 126.811C182.536 126.63 182.566 126.459 182.559 126.296C182.554 126.128 182.521 125.977 182.459 125.844C182.402 125.712 182.317 125.596 182.205 125.494C182.098 125.393 181.976 125.318 181.84 125.268C181.698 125.216 181.554 125.194 181.408 125.201C181.261 125.208 181.12 125.245 180.985 125.312C180.857 125.375 180.737 125.467 180.627 125.587C180.516 125.707 180.428 125.858 180.362 126.038C180.296 126.219 180.266 126.39 180.273 126.553C180.279 126.716 180.31 126.866 180.365 127.003C180.427 127.136 180.512 127.253 180.619 127.353C180.726 127.453 180.85 127.529 180.992 127.581ZM187.001 129.535C186.747 129.757 186.448 129.911 186.102 129.994C185.756 130.077 185.38 130.045 184.975 129.896C184.707 129.798 184.475 129.66 184.28 129.484C184.091 129.304 183.945 129.098 183.842 128.867C183.738 128.635 183.682 128.387 183.674 128.124C183.667 127.856 183.714 127.583 183.816 127.305C183.911 127.046 184.045 126.818 184.216 126.621C184.39 126.419 184.586 126.261 184.805 126.148C185.031 126.031 185.274 125.963 185.536 125.943C185.798 125.922 186.066 125.962 186.339 126.063C186.617 126.165 186.847 126.301 187.027 126.473C187.213 126.646 187.351 126.843 187.441 127.064C187.532 127.286 187.573 127.528 187.565 127.791C187.562 128.055 187.51 128.327 187.408 128.605C187.399 128.629 187.391 128.651 187.384 128.671C187.37 128.693 187.36 128.714 187.352 128.734C187.34 128.752 187.331 128.77 187.324 128.79L184.564 127.778C184.516 127.954 184.503 128.118 184.525 128.27C184.547 128.422 184.591 128.557 184.659 128.676C184.731 128.797 184.82 128.899 184.928 128.983C185.036 129.066 185.148 129.13 185.265 129.173C185.5 129.258 185.713 129.273 185.905 129.216C186.098 129.159 186.273 129.066 186.431 128.936L187.001 129.535ZM186.754 127.875C186.771 127.798 186.776 127.709 186.769 127.607C186.769 127.502 186.743 127.398 186.692 127.296C186.648 127.191 186.574 127.09 186.472 126.991C186.374 126.895 186.24 126.815 186.07 126.753C185.835 126.667 185.607 126.663 185.384 126.742C185.168 126.818 184.988 126.962 184.844 127.175L186.754 127.875ZM188.222 126.886L189.137 127.221L189.175 130.108L189.211 130.121L191.128 127.951L192.021 128.278L189.205 131.315L188.393 131.017L188.222 126.886ZM194.677 132.349C194.424 132.572 194.124 132.725 193.778 132.808C193.432 132.892 193.056 132.859 192.651 132.711C192.383 132.612 192.151 132.475 191.956 132.298C191.767 132.118 191.621 131.912 191.518 131.681C191.415 131.449 191.359 131.202 191.35 130.938C191.343 130.67 191.391 130.397 191.493 130.119C191.587 129.86 191.721 129.632 191.893 129.435C192.066 129.233 192.263 129.076 192.481 128.962C192.707 128.845 192.95 128.777 193.212 128.757C193.474 128.737 193.742 128.777 194.015 128.877C194.293 128.979 194.523 129.115 194.704 129.287C194.889 129.46 195.027 129.657 195.118 129.879C195.208 130.1 195.249 130.342 195.242 130.605C195.239 130.87 195.186 131.141 195.084 131.419C195.075 131.443 195.067 131.465 195.06 131.485C195.046 131.508 195.036 131.529 195.029 131.548C195.017 131.566 195.007 131.584 195 131.604L192.241 130.592C192.193 130.769 192.18 130.933 192.201 131.084C192.223 131.236 192.268 131.372 192.335 131.49C192.407 131.611 192.497 131.713 192.604 131.797C192.712 131.881 192.824 131.944 192.942 131.987C193.176 132.073 193.389 132.087 193.581 132.031C193.774 131.974 193.949 131.88 194.108 131.75L194.677 132.349ZM194.43 130.689C194.447 130.613 194.452 130.523 194.446 130.421C194.445 130.316 194.42 130.212 194.368 130.111C194.324 130.006 194.25 129.904 194.148 129.806C194.051 129.709 193.917 129.629 193.746 129.567C193.512 129.481 193.283 129.477 193.061 129.556C192.845 129.632 192.664 129.776 192.52 129.989L194.43 130.689ZM195.036 133.452L196.957 128.212L197.769 128.509L195.848 133.75L195.036 133.452ZM199.656 130.945C199.929 131.045 200.162 131.186 200.356 131.367C200.551 131.544 200.701 131.748 200.804 131.98C200.907 132.212 200.962 132.462 200.969 132.73C200.976 132.998 200.929 133.269 200.829 133.542C200.729 133.815 200.59 134.052 200.411 134.252C200.232 134.452 200.029 134.607 199.8 134.717C199.572 134.827 199.325 134.889 199.06 134.902C198.797 134.911 198.528 134.865 198.255 134.765C197.982 134.665 197.748 134.527 197.552 134.35C197.359 134.168 197.21 133.961 197.107 133.73C197.004 133.498 196.949 133.248 196.942 132.98C196.935 132.712 196.982 132.441 197.082 132.168C197.182 131.895 197.321 131.658 197.5 131.458C197.679 131.258 197.882 131.103 198.111 130.993C198.339 130.883 198.585 130.823 198.848 130.815C199.113 130.801 199.383 130.845 199.656 130.945ZM198.532 134.011C198.668 134.061 198.81 134.083 198.956 134.076C199.103 134.069 199.243 134.034 199.376 133.972C199.514 133.912 199.639 133.822 199.749 133.702C199.861 133.577 199.951 133.425 200.017 133.244C200.083 133.063 200.113 132.892 200.106 132.729C200.101 132.561 200.065 132.409 199.999 132.274C199.937 132.141 199.852 132.024 199.745 131.924C199.638 131.824 199.516 131.749 199.379 131.699C199.243 131.648 199.101 131.627 198.955 131.634C198.808 131.641 198.666 131.675 198.528 131.735C198.394 131.797 198.271 131.89 198.159 132.015C198.049 132.135 197.96 132.285 197.894 132.466C197.828 132.646 197.797 132.821 197.802 132.988C197.809 133.151 197.843 133.3 197.905 133.433C197.972 133.568 198.059 133.686 198.166 133.786C198.273 133.886 198.395 133.961 198.532 134.011ZM202.039 131.951L202.807 132.233L202.638 132.694L202.682 132.71C202.837 132.59 203.035 132.51 203.276 132.471C203.519 132.428 203.78 132.457 204.058 132.559C204.287 132.643 204.487 132.771 204.656 132.944C204.831 133.113 204.966 133.312 205.06 133.54C205.153 133.768 205.203 134.016 205.21 134.285C205.219 134.548 205.172 134.819 205.07 135.097C204.968 135.375 204.828 135.614 204.649 135.814C204.473 136.01 204.275 136.164 204.056 136.278C203.837 136.391 203.605 136.458 203.36 136.479C203.121 136.496 202.887 136.463 202.657 136.379C202.379 136.277 202.161 136.133 202.002 135.948C201.845 135.757 201.746 135.566 201.706 135.374L201.662 135.358L201.523 135.872L200.957 137.416L200.145 137.118L202.039 131.951ZM202.78 135.569C202.917 135.619 203.058 135.64 203.205 135.633C203.356 135.628 203.496 135.593 203.625 135.53C203.76 135.463 203.882 135.37 203.993 135.25C204.103 135.13 204.192 134.979 204.258 134.799C204.324 134.618 204.354 134.447 204.347 134.284C204.34 134.121 204.306 133.973 204.244 133.839C204.189 133.703 204.106 133.583 203.994 133.482C203.886 133.381 203.764 133.306 203.628 133.256C203.486 133.204 203.342 133.182 203.196 133.189C203.049 133.196 202.909 133.231 202.776 133.293C202.647 133.356 202.527 133.45 202.415 133.575C202.304 133.695 202.216 133.846 202.15 134.026C202.084 134.207 202.053 134.381 202.058 134.549C202.065 134.712 202.097 134.859 202.153 134.99C202.215 135.124 202.3 135.241 202.407 135.341C202.514 135.441 202.638 135.517 202.78 135.569ZM208.664 137.477C208.411 137.7 208.111 137.853 207.765 137.936C207.419 138.02 207.044 137.987 206.639 137.839C206.37 137.74 206.138 137.603 205.943 137.426C205.754 137.246 205.608 137.04 205.505 136.809C205.402 136.577 205.346 136.33 205.337 136.066C205.33 135.798 205.378 135.525 205.48 135.247C205.575 134.988 205.708 134.76 205.88 134.563C206.054 134.361 206.25 134.204 206.469 134.09C206.694 133.973 206.938 133.905 207.2 133.885C207.462 133.865 207.729 133.905 208.003 134.005C208.281 134.107 208.51 134.243 208.691 134.415C208.877 134.588 209.015 134.785 209.105 135.007C209.195 135.228 209.237 135.47 209.229 135.733C209.226 135.998 209.174 136.269 209.072 136.547C209.063 136.571 209.055 136.593 209.047 136.613C209.034 136.636 209.023 136.657 209.016 136.676C209.004 136.694 208.994 136.712 208.987 136.732L206.228 135.72C206.18 135.897 206.167 136.061 206.189 136.212C206.211 136.364 206.255 136.5 206.322 136.618C206.394 136.739 206.484 136.841 206.592 136.925C206.699 137.009 206.812 137.072 206.929 137.115C207.163 137.201 207.376 137.215 207.569 137.159C207.761 137.102 207.937 137.008 208.095 136.878L208.664 137.477ZM208.418 135.817C208.435 135.741 208.44 135.651 208.433 135.549C208.433 135.444 208.407 135.34 208.356 135.239C208.311 135.134 208.238 135.032 208.135 134.934C208.038 134.837 207.904 134.757 207.733 134.695C207.499 134.609 207.271 134.605 207.048 134.684C206.832 134.76 206.652 134.904 206.507 135.117L208.418 135.817ZM210.338 134.994L211.106 135.275L210.908 135.817L210.952 135.833C211.029 135.757 211.119 135.693 211.221 135.641C211.33 135.587 211.44 135.55 211.552 135.53C211.671 135.508 211.788 135.5 211.901 135.509C212.021 135.514 212.129 135.534 212.227 135.57C212.344 135.613 212.44 135.659 212.516 135.709C212.592 135.759 212.658 135.814 212.714 135.873L212.203 136.541C212.158 136.497 212.104 136.458 212.039 136.423C211.981 136.385 211.905 136.349 211.813 136.315C211.681 136.267 211.549 136.249 211.417 136.261C211.29 136.276 211.168 136.314 211.051 136.376C210.934 136.438 210.828 136.524 210.733 136.633C210.643 136.744 210.571 136.87 210.52 137.011L209.835 138.878L209.023 138.58L210.338 134.994ZM213.014 140.176C212.795 140.096 212.608 139.994 212.454 139.871C212.3 139.748 212.174 139.616 212.076 139.475C211.98 139.329 211.908 139.178 211.86 139.022C211.817 138.868 211.795 138.716 211.795 138.567L212.639 138.527C212.645 138.768 212.707 138.968 212.826 139.127C212.946 139.282 213.097 139.393 213.277 139.459C213.482 139.534 213.658 139.552 213.806 139.512C213.953 139.472 214.046 139.4 214.084 139.298C214.121 139.195 214.109 139.091 214.048 138.986C213.989 138.876 213.848 138.747 213.626 138.599L213.159 138.286C213.056 138.221 212.955 138.142 212.855 138.051C212.763 137.956 212.682 137.851 212.613 137.738C212.546 137.619 212.501 137.492 212.479 137.356C212.463 137.218 212.484 137.07 212.541 136.914C212.606 136.739 212.7 136.596 212.823 136.486C212.951 136.378 213.098 136.302 213.264 136.257C213.429 136.213 213.607 136.198 213.795 136.212C213.989 136.227 214.183 136.271 214.378 136.342C214.539 136.401 214.687 136.475 214.821 136.563C214.959 136.652 215.08 136.754 215.182 136.869C215.283 136.984 215.363 137.113 215.422 137.256C215.487 137.396 215.522 137.548 215.529 137.711L214.702 137.748C214.691 137.567 214.624 137.415 214.503 137.293C214.384 137.166 214.248 137.075 214.097 137.02C214.029 136.994 213.954 136.978 213.874 136.971C213.8 136.961 213.728 136.962 213.657 136.974C213.592 136.984 213.532 137.006 213.475 137.041C213.423 137.077 213.386 137.124 213.365 137.183C213.329 137.28 213.342 137.374 213.403 137.463C213.471 137.548 213.585 137.646 213.745 137.754L214.243 138.094C214.579 138.323 214.798 138.564 214.899 138.816C215.007 139.066 215.014 139.318 214.921 139.572C214.864 139.728 214.774 139.861 214.651 139.971C214.532 140.082 214.387 140.168 214.216 140.227C214.045 140.286 213.856 140.31 213.649 140.301C213.446 140.298 213.234 140.257 213.014 140.176Z" fill="black"/>
<defs>
<clipPath id="clip0_367_7676">
<rect width="66.27" height="11.5438" fill="white" transform="translate(12.6484 16.9233)"/>
</clipPath>
</defs>
</svg>
