<svg width="375" height="812" viewBox="0 0 375 812" fill="none" xmlns="http://www.w3.org/2000/svg">
<g clip-path="url(#clip0_41_1931)">
<rect width="375" height="812" fill="white"/>
<path d="M166.391 66.4648H159.23V74H156.98V56.9375H167.551V58.7891H159.23V64.625H166.391V66.4648ZM172.097 74H169.929V61.3203H172.097V74ZM169.753 57.957C169.753 57.6055 169.858 57.3086 170.069 57.0664C170.288 56.8242 170.608 56.7031 171.03 56.7031C171.452 56.7031 171.773 56.8242 171.991 57.0664C172.21 57.3086 172.319 57.6055 172.319 57.957C172.319 58.3086 172.21 58.6016 171.991 58.8359C171.773 59.0703 171.452 59.1875 171.03 59.1875C170.608 59.1875 170.288 59.0703 170.069 58.8359C169.858 58.6016 169.753 58.3086 169.753 57.957ZM177.768 74H175.6V56H177.768V74ZM184.025 58.25V61.3203H186.392V62.9961H184.025V70.8594C184.025 71.3672 184.13 71.75 184.341 72.0078C184.552 72.2578 184.911 72.3828 185.419 72.3828C185.669 72.3828 186.013 72.3359 186.45 72.2422V74C185.88 74.1562 185.325 74.2344 184.786 74.2344C183.817 74.2344 183.087 73.9414 182.595 73.3555C182.103 72.7695 181.857 71.9375 181.857 70.8594V62.9961H179.548V61.3203H181.857V58.25H184.025ZM194.031 74.2344C192.313 74.2344 190.914 73.6719 189.836 72.5469C188.758 71.4141 188.219 69.9023 188.219 68.0117V67.6133C188.219 66.3555 188.457 65.2344 188.934 64.25C189.418 63.2578 190.09 62.4844 190.949 61.9297C191.817 61.3672 192.754 61.0859 193.762 61.0859C195.41 61.0859 196.692 61.6289 197.606 62.7148C198.52 63.8008 198.977 65.3555 198.977 67.3789V68.2812H190.387C190.418 69.5312 190.781 70.543 191.477 71.3164C192.18 72.082 193.07 72.4648 194.149 72.4648C194.914 72.4648 195.563 72.3086 196.094 71.9961C196.625 71.6836 197.09 71.2695 197.488 70.7539L198.813 71.7852C197.75 73.418 196.156 74.2344 194.031 74.2344ZM193.762 62.8672C192.887 62.8672 192.153 63.1875 191.559 63.8281C190.965 64.4609 190.598 65.3516 190.457 66.5H196.809V66.3359C196.746 65.2344 196.449 64.3828 195.918 63.7812C195.387 63.1719 194.668 62.8672 193.762 62.8672ZM207.46 63.2656C207.132 63.2109 206.777 63.1836 206.394 63.1836C204.972 63.1836 204.007 63.7891 203.499 65V74H201.331V61.3203H203.441L203.476 62.7852C204.187 61.6523 205.195 61.0859 206.499 61.0859C206.921 61.0859 207.241 61.1406 207.46 61.25V63.2656ZM216.682 70.6367C216.682 70.0508 216.459 69.5977 216.014 69.2773C215.576 68.9492 214.807 68.668 213.705 68.4336C212.612 68.1992 211.74 67.918 211.092 67.5898C210.451 67.2617 209.975 66.8711 209.662 66.418C209.358 65.9648 209.205 65.4258 209.205 64.8008C209.205 63.7617 209.643 62.8828 210.518 62.1641C211.401 61.4453 212.526 61.0859 213.893 61.0859C215.33 61.0859 216.494 61.457 217.385 62.1992C218.283 62.9414 218.733 63.8906 218.733 65.0469H216.553C216.553 64.4531 216.299 63.9414 215.791 63.5117C215.291 63.082 214.658 62.8672 213.893 62.8672C213.104 62.8672 212.487 63.0391 212.041 63.3828C211.596 63.7266 211.373 64.1758 211.373 64.7305C211.373 65.2539 211.58 65.6484 211.994 65.9141C212.408 66.1797 213.155 66.4336 214.233 66.6758C215.319 66.918 216.197 67.207 216.869 67.543C217.541 67.8789 218.037 68.2852 218.358 68.7617C218.686 69.2305 218.85 69.8047 218.85 70.4844C218.85 71.6172 218.397 72.5273 217.49 73.2148C216.584 73.8945 215.408 74.2344 213.963 74.2344C212.947 74.2344 212.049 74.0547 211.268 73.6953C210.487 73.3359 209.873 72.8359 209.428 72.1953C208.99 71.5469 208.772 70.8477 208.772 70.0977H210.94C210.979 70.8242 211.268 71.4023 211.807 71.832C212.354 72.2539 213.072 72.4648 213.963 72.4648C214.783 72.4648 215.44 72.3008 215.932 71.9727C216.432 71.6367 216.682 71.1914 216.682 70.6367Z" fill="black"/>
<path d="M326 58L342 74M342 58L326 74" stroke="black" stroke-width="2" stroke-linecap="round"/>
<g clip-path="url(#clip1_41_1931)">
<path fill-rule="evenodd" clip-rule="evenodd" d="M339.589 17.16H354.411C355.659 17.16 356.111 17.2899 356.568 17.534C357.024 17.778 357.382 18.1361 357.626 18.5924C357.87 19.0487 358 19.5013 358 20.7494V25.0705C358 26.3187 357.87 26.7713 357.626 27.2276C357.382 27.6839 357.024 28.042 356.568 28.286C356.111 28.53 355.659 28.66 354.411 28.66H339.589C338.341 28.66 337.889 28.53 337.432 28.286C336.976 28.042 336.618 27.6839 336.374 27.2276C336.13 26.7713 336 26.3187 336 25.0705V20.7494C336 19.5013 336.13 19.0487 336.374 18.5924C336.618 18.1361 336.976 17.778 337.432 17.534C337.889 17.2899 338.341 17.16 339.589 17.16ZM339.589 18.16C338.602 18.16 338.258 18.2265 337.904 18.4158C337.622 18.5666 337.407 18.782 337.256 19.064C337.067 19.4179 337 19.7624 337 20.7494V25.0705C337 26.0575 337.067 26.4021 337.256 26.756C337.407 27.038 337.622 27.2533 337.904 27.4042C338.258 27.5934 338.602 27.66 339.589 27.66H354.411C355.398 27.66 355.742 27.5934 356.096 27.4042C356.378 27.2533 356.593 27.038 356.744 26.756C356.933 26.4021 357 26.0575 357 25.0705V20.7494C357 19.7624 356.933 19.4179 356.744 19.064C356.593 18.782 356.378 18.5666 356.096 18.4158C355.742 18.2265 355.398 18.16 354.411 18.16H339.589ZM360.5 22.85C360.5 24.0865 359 24.85 359 24.85V20.85C359 20.85 360.5 21.6134 360.5 22.85Z" fill="black" fill-opacity="0.36"/>
<rect x="338" y="19.0767" width="18" height="7.66667" rx="1.6" fill="black"/>
<path fill-rule="evenodd" clip-rule="evenodd" d="M307.623 18.5659C307.6 18.6818 307.6 18.8212 307.6 19.1V26.8C307.6 27.0788 307.6 27.2182 307.623 27.3341C307.718 27.8101 308.09 28.1822 308.566 28.2769C308.682 28.3 308.821 28.3 309.1 28.3C309.379 28.3 309.518 28.3 309.634 28.2769C310.11 28.1822 310.482 27.8101 310.577 27.3341C310.6 27.2182 310.6 27.0788 310.6 26.8V19.1C310.6 18.8212 310.6 18.6818 310.577 18.5659C310.482 18.0898 310.11 17.7177 309.634 17.623C309.518 17.6 309.379 17.6 309.1 17.6C308.821 17.6 308.682 17.6 308.566 17.623C308.09 17.7177 307.718 18.0898 307.623 18.5659ZM302.9 21.5C302.9 21.2212 302.9 21.0818 302.923 20.9659C303.018 20.4898 303.39 20.1177 303.866 20.023C303.982 20 304.121 20 304.4 20C304.679 20 304.818 20 304.934 20.023C305.41 20.1177 305.782 20.4898 305.877 20.9659C305.9 21.0818 305.9 21.2212 305.9 21.5V26.8C305.9 27.0788 305.9 27.2182 305.877 27.3341C305.782 27.8101 305.41 28.1822 304.934 28.2769C304.818 28.3 304.679 28.3 304.4 28.3C304.121 28.3 303.982 28.3 303.866 28.2769C303.39 28.1822 303.018 27.8101 302.923 27.3341C302.9 27.2182 302.9 27.0788 302.9 26.8V21.5ZM298.323 23.2659C298.3 23.3818 298.3 23.5212 298.3 23.8V26.8C298.3 27.0788 298.3 27.2182 298.323 27.3341C298.418 27.8101 298.79 28.1822 299.266 28.2769C299.382 28.3 299.521 28.3 299.8 28.3C300.079 28.3 300.218 28.3 300.334 28.2769C300.81 28.1822 301.182 27.8101 301.277 27.3341C301.3 27.2182 301.3 27.0788 301.3 26.8V23.8C301.3 23.5212 301.3 23.3818 301.277 23.2659C301.182 22.7898 300.81 22.4177 300.334 22.323C300.218 22.3 300.079 22.3 299.8 22.3C299.521 22.3 299.382 22.3 299.266 22.323C298.79 22.4177 298.418 22.7898 298.323 23.2659ZM293.523 25.2659C293.5 25.3818 293.5 25.5212 293.5 25.8V26.8C293.5 27.0788 293.5 27.2182 293.523 27.3341C293.618 27.8101 293.99 28.1822 294.466 28.2769C294.582 28.3 294.721 28.3 295 28.3C295.279 28.3 295.418 28.3 295.534 28.2769C296.01 28.1822 296.382 27.8101 296.477 27.3341C296.5 27.2182 296.5 27.0788 296.5 26.8V25.8C296.5 25.5212 296.5 25.3818 296.477 25.2659C296.382 24.7898 296.01 24.4177 295.534 24.323C295.418 24.3 295.279 24.3 295 24.3C294.721 24.3 294.582 24.3 294.466 24.323C293.99 24.4177 293.618 24.7898 293.523 25.2659Z" fill="black"/>
<path fill-rule="evenodd" clip-rule="evenodd" d="M323.3 19.6963C325.535 19.6964 327.684 20.555 329.303 22.0945C329.425 22.2134 329.62 22.2119 329.74 22.0912L330.906 20.9148C330.967 20.8535 331.001 20.7706 331 20.6843C330.999 20.598 330.965 20.5155 330.903 20.4549C326.653 16.3816 319.947 16.3816 315.697 20.4549C315.636 20.5154 315.601 20.5979 315.6 20.6842C315.599 20.7705 315.633 20.8535 315.694 20.9148L316.86 22.0912C316.98 22.2121 317.175 22.2136 317.297 22.0945C318.917 20.5549 321.066 19.6963 323.3 19.6963ZM323.3 23.5237C324.528 23.5236 325.712 23.9799 326.622 24.804C326.745 24.9209 326.939 24.9184 327.059 24.7983L328.223 23.6219C328.285 23.5602 328.319 23.4764 328.318 23.3895C328.317 23.3025 328.281 23.2195 328.219 23.159C325.447 20.5813 321.156 20.5813 318.385 23.159C318.322 23.2195 318.286 23.3025 318.286 23.3895C318.285 23.4765 318.319 23.5602 318.38 23.6219L319.544 24.7983C319.664 24.9184 319.858 24.9209 319.981 24.804C320.891 23.9805 322.074 23.5242 323.3 23.5237ZM325.538 26.3313C325.6 26.2702 325.635 26.1861 325.633 26.0989C325.631 26.0116 325.593 25.929 325.529 25.8705C324.242 24.7826 322.359 24.7826 321.072 25.8705C321.008 25.929 320.97 26.0116 320.968 26.0988C320.966 26.186 321 26.2702 321.063 26.3313L323.077 28.3638C323.136 28.4236 323.216 28.4572 323.3 28.4572C323.384 28.4572 323.465 28.4236 323.524 28.3638L325.538 26.3313Z" fill="black"/>
</g>
<path d="M35.0151 23.8765C34.4829 24.355 33.8872 24.5942 33.228 24.5942C32.2612 24.5942 31.4946 24.2671 30.9282 23.6128C30.3618 22.9585 30.0786 22.0845 30.0786 20.9907C30.0786 20.3071 30.2373 19.6724 30.5547 19.0864C30.8721 18.5005 31.3164 18.0366 31.8877 17.6948C32.4639 17.353 33.0986 17.1821 33.792 17.1821C34.4951 17.1821 35.1299 17.3604 35.6963 17.7168C36.2676 18.0684 36.7119 18.5688 37.0293 19.2183C37.3467 19.8628 37.5103 20.6074 37.52 21.4521V22.397C37.52 23.5737 37.2881 24.5942 36.8242 25.4585C36.3652 26.3228 35.7085 26.9868 34.854 27.4507C33.9995 27.9146 33.0034 28.1465 31.8657 28.1465H31.7119V26.1689L32.1807 26.1616C33.8799 26.0786 34.8247 25.3169 35.0151 23.8765ZM33.8945 22.8145C34.4316 22.8145 34.8174 22.5825 35.0518 22.1187V21.0933C35.0518 20.4097 34.937 19.9043 34.7075 19.5771C34.478 19.25 34.168 19.0864 33.7773 19.0864C33.4307 19.0864 33.1401 19.272 32.9058 19.6431C32.6714 20.0142 32.5542 20.4634 32.5542 20.9907C32.5542 21.5474 32.6738 21.9917 32.9131 22.3237C33.1523 22.6509 33.4795 22.8145 33.8945 22.8145ZM40.2481 25.605C40.6387 25.605 40.9634 25.7222 41.2222 25.9565C41.481 26.186 41.6104 26.4814 41.6104 26.8428C41.6104 27.2041 41.481 27.502 41.2222 27.7363C40.9634 27.9658 40.6387 28.0806 40.2481 28.0806C39.8526 28.0806 39.5254 27.9634 39.2666 27.729C39.0127 27.4946 38.8858 27.1992 38.8858 26.8428C38.8858 26.4863 39.0127 26.1909 39.2666 25.9565C39.5254 25.7222 39.8526 25.605 40.2481 25.605ZM40.2481 19.7603C40.6387 19.7603 40.9634 19.8774 41.2222 20.1118C41.481 20.3413 41.6104 20.6367 41.6104 20.998C41.6104 21.3594 41.481 21.6572 41.2222 21.8916C40.9634 22.1211 40.6387 22.2358 40.2481 22.2358C39.8526 22.2358 39.5254 22.1187 39.2666 21.8843C39.0127 21.6499 38.8858 21.3545 38.8858 20.998C38.8858 20.6416 39.0127 20.3462 39.2666 20.1118C39.5254 19.8774 39.8526 19.7603 40.2481 19.7603ZM49.5387 23.8325H50.6226V25.7368H49.5387V28H47.0704V25.7368H42.9469L42.8004 24.228L47.0704 17.3579V17.3359H49.5387V23.8325ZM45.1514 23.8325H47.0704V20.5513L46.9166 20.8003L45.1514 23.8325ZM57.0128 28H54.5372V20.1191L52.1056 20.8296V18.9546L56.7858 17.3359H57.0128V28Z" fill="black"/>
<rect x="120" y="799" width="135" height="5" rx="2.5" fill="black"/>
<path d="M31.1885 145.737C31.0889 147.114 30.5791 148.198 29.6592 148.989C28.7451 149.78 27.5381 150.176 26.0381 150.176C24.3975 150.176 23.1055 149.625 22.1621 148.523C21.2246 147.416 20.7559 145.898 20.7559 143.971V143.188C20.7559 141.958 20.9727 140.874 21.4062 139.937C21.8398 138.999 22.458 138.281 23.2607 137.783C24.0693 137.279 25.0068 137.027 26.0732 137.027C27.5498 137.027 28.7393 137.423 29.6416 138.214C30.5439 139.005 31.0654 140.115 31.2061 141.545H28.5693C28.5049 140.719 28.2734 140.121 27.875 139.752C27.4824 139.377 26.8818 139.189 26.0732 139.189C25.1943 139.189 24.5352 139.506 24.0957 140.139C23.6621 140.766 23.4395 141.741 23.4277 143.065V144.032C23.4277 145.415 23.6357 146.426 24.0518 147.064C24.4736 147.703 25.1357 148.022 26.0381 148.022C26.8525 148.022 27.459 147.838 27.8574 147.469C28.2617 147.094 28.4932 146.517 28.5518 145.737H31.1885ZM32.1924 145.157C32.1924 144.214 32.3741 143.373 32.7373 142.635C33.1006 141.896 33.6221 141.325 34.3018 140.921C34.9873 140.517 35.7813 140.314 36.6836 140.314C37.9668 140.314 39.0127 140.707 39.8213 141.492C40.6358 142.277 41.0899 143.344 41.1836 144.691L41.2012 145.342C41.2012 146.801 40.794 147.973 39.9795 148.857C39.1651 149.736 38.0723 150.176 36.7012 150.176C35.3301 150.176 34.2344 149.736 33.4141 148.857C32.5996 147.979 32.1924 146.783 32.1924 145.271V145.157ZM34.7325 145.342C34.7325 146.244 34.9024 146.936 35.2422 147.416C35.5821 147.891 36.0684 148.128 36.7012 148.128C37.3164 148.128 37.7969 147.894 38.1426 147.425C38.4883 146.95 38.6612 146.194 38.6612 145.157C38.6612 144.272 38.4883 143.587 38.1426 143.101C37.7969 142.614 37.3106 142.371 36.6836 142.371C36.0625 142.371 35.5821 142.614 35.2422 143.101C34.9024 143.581 34.7325 144.328 34.7325 145.342ZM44.9825 140.49L45.0616 141.554C45.7354 140.728 46.6466 140.314 47.795 140.314C49.0196 140.314 49.8604 140.798 50.3175 141.765C50.9854 140.798 51.9376 140.314 53.1739 140.314C54.2052 140.314 54.9727 140.616 55.4766 141.22C55.9805 141.817 56.2325 142.72 56.2325 143.927V150H53.6837V143.936C53.6837 143.396 53.5782 143.004 53.3673 142.758C53.1563 142.506 52.7843 142.38 52.2511 142.38C51.4893 142.38 50.962 142.743 50.669 143.47L50.6778 150H48.1378V143.944C48.1378 143.394 48.0294 142.995 47.8126 142.749C47.5958 142.503 47.2266 142.38 46.7052 142.38C45.9845 142.38 45.463 142.679 45.1407 143.276V150H42.6007V140.49H44.9825ZM66.588 145.333C66.588 146.798 66.254 147.973 65.5861 148.857C64.9239 149.736 64.0275 150.176 62.8966 150.176C61.9357 150.176 61.1593 149.842 60.5675 149.174V153.656H58.0275V140.49H60.3829L60.4708 141.422C61.0861 140.684 61.8888 140.314 62.879 140.314C64.0509 140.314 64.962 140.748 65.6124 141.615C66.2628 142.482 66.588 143.678 66.588 145.201V145.333ZM64.048 145.148C64.048 144.264 63.8898 143.581 63.5734 143.101C63.2628 142.62 62.8087 142.38 62.2111 142.38C61.4142 142.38 60.8663 142.685 60.5675 143.294V147.188C60.878 147.814 61.4318 148.128 62.2286 148.128C63.4415 148.128 64.048 147.135 64.048 145.148ZM73.5158 150C73.3986 149.771 73.3136 149.487 73.2609 149.147C72.6457 149.833 71.8459 150.176 70.8615 150.176C69.9298 150.176 69.1564 149.906 68.5412 149.367C67.9318 148.828 67.6271 148.148 67.6271 147.328C67.6271 146.32 67.9992 145.547 68.7433 145.008C69.4933 144.469 70.5744 144.196 71.9865 144.19H73.1554V143.646C73.1554 143.206 73.0412 142.854 72.8127 142.591C72.59 142.327 72.2355 142.195 71.7492 142.195C71.3214 142.195 70.9845 142.298 70.7384 142.503C70.4982 142.708 70.3781 142.989 70.3781 143.347H67.838C67.838 142.796 68.008 142.286 68.3478 141.817C68.6877 141.349 69.1681 140.982 69.7892 140.719C70.4103 140.449 71.1076 140.314 71.881 140.314C73.0529 140.314 73.9816 140.61 74.6671 141.202C75.3586 141.788 75.7043 142.614 75.7043 143.681V147.803C75.7101 148.705 75.8361 149.388 76.0822 149.851V150H73.5158ZM71.4152 148.233C71.7902 148.233 72.1359 148.151 72.4523 147.987C72.7687 147.817 73.0031 147.592 73.1554 147.311V145.676H72.2062C70.9347 145.676 70.258 146.115 70.1759 146.994L70.1671 147.144C70.1671 147.46 70.2785 147.721 70.5011 147.926C70.7238 148.131 71.0285 148.233 71.4152 148.233ZM79.8283 140.49L79.9074 141.589C80.5871 140.739 81.4982 140.314 82.6408 140.314C83.6486 140.314 84.3986 140.61 84.8908 141.202C85.383 141.794 85.635 142.679 85.6467 143.856V150H83.1066V143.918C83.1066 143.379 82.9895 142.989 82.7551 142.749C82.5207 142.503 82.1311 142.38 81.5861 142.38C80.8713 142.38 80.3352 142.685 79.9777 143.294V150H77.4377V140.49H79.8283ZM90.0959 150H87.5471V140.49H90.0959V150ZM87.3977 138.029C87.3977 137.648 87.5237 137.335 87.7756 137.089C88.0334 136.843 88.3821 136.72 88.8215 136.72C89.2551 136.72 89.6008 136.843 89.8586 137.089C90.1164 137.335 90.2454 137.648 90.2454 138.029C90.2454 138.416 90.1135 138.732 89.8498 138.979C89.592 139.225 89.2493 139.348 88.8215 139.348C88.3938 139.348 88.0481 139.225 87.7844 138.979C87.5266 138.732 87.3977 138.416 87.3977 138.029ZM96.4085 150.176C95.0139 150.176 93.8772 149.748 92.9983 148.893C92.1253 148.037 91.6888 146.897 91.6888 145.474V145.228C91.6888 144.272 91.8733 143.42 92.2425 142.67C92.6116 141.914 93.1331 141.334 93.8069 140.93C94.4866 140.52 95.26 140.314 96.1272 140.314C97.428 140.314 98.4505 140.725 99.1946 141.545C99.9446 142.365 100.32 143.528 100.32 145.034V146.071H94.2639C94.346 146.692 94.5921 147.19 95.0022 147.565C95.4182 147.94 95.9427 148.128 96.5755 148.128C97.554 148.128 98.3186 147.773 98.8694 147.064L100.117 148.462C99.7366 149.001 99.221 149.423 98.5706 149.728C97.9202 150.026 97.1995 150.176 96.4085 150.176ZM96.1184 142.371C95.6145 142.371 95.2044 142.541 94.888 142.881C94.5774 143.221 94.3782 143.707 94.2903 144.34H97.8235V144.138C97.8118 143.575 97.6595 143.142 97.3665 142.837C97.0735 142.526 96.6575 142.371 96.1184 142.371ZM106.755 147.372C106.755 147.062 106.6 146.818 106.289 146.643C105.985 146.461 105.493 146.3 104.813 146.159C102.551 145.685 101.42 144.724 101.42 143.276C101.42 142.433 101.769 141.729 102.466 141.167C103.169 140.599 104.086 140.314 105.217 140.314C106.424 140.314 107.388 140.599 108.109 141.167C108.835 141.735 109.199 142.474 109.199 143.382H106.659C106.659 143.019 106.541 142.72 106.307 142.485C106.073 142.245 105.706 142.125 105.208 142.125C104.781 142.125 104.45 142.222 104.215 142.415C103.981 142.608 103.864 142.854 103.864 143.153C103.864 143.435 103.995 143.663 104.259 143.839C104.529 144.009 104.98 144.158 105.613 144.287C106.245 144.41 106.779 144.551 107.212 144.709C108.554 145.201 109.225 146.054 109.225 147.267C109.225 148.134 108.853 148.837 108.109 149.376C107.365 149.909 106.404 150.176 105.226 150.176C104.429 150.176 103.72 150.035 103.099 149.754C102.484 149.467 102 149.077 101.649 148.585C101.297 148.087 101.121 147.551 101.121 146.977H103.53C103.553 147.428 103.72 147.773 104.031 148.014C104.341 148.254 104.757 148.374 105.279 148.374C105.765 148.374 106.131 148.283 106.377 148.102C106.629 147.914 106.755 147.671 106.755 147.372Z" fill="black"/>
<path d="M20.5 170.5H43.5V193.5H20.5V170.5Z" stroke="black"/>
<path d="M61.6504 188.5V174.281H66.2988C67.8418 174.281 69.0007 174.6 69.7754 175.238C70.5566 175.876 70.9473 176.82 70.9473 178.07C70.9473 178.734 70.7585 179.324 70.3809 179.838C70.0033 180.346 69.4889 180.74 68.8379 181.02C69.6061 181.234 70.2116 181.645 70.6543 182.25C71.1035 182.849 71.3281 183.565 71.3281 184.398C71.3281 185.674 70.9147 186.677 70.0879 187.406C69.2611 188.135 68.0924 188.5 66.582 188.5H61.6504ZM63.5254 181.85V186.967H66.6211C67.4935 186.967 68.1803 186.742 68.6816 186.293C69.1895 185.837 69.4434 185.212 69.4434 184.418C69.4434 182.706 68.5124 181.85 66.6504 181.85H63.5254ZM63.5254 180.346H66.3574C67.1777 180.346 67.832 180.141 68.3203 179.73C68.8151 179.32 69.0625 178.764 69.0625 178.061C69.0625 177.279 68.8346 176.713 68.3789 176.361C67.9232 176.003 67.2298 175.824 66.2988 175.824H63.5254V180.346ZM73.1846 183.119C73.1846 182.084 73.3864 181.153 73.7901 180.326C74.2002 179.499 74.7666 178.861 75.4893 178.412C76.2185 177.963 77.0485 177.738 77.9795 177.738C79.4183 177.738 80.5804 178.236 81.4659 179.232C82.3578 180.229 82.8038 181.553 82.8038 183.207V183.334C82.8038 184.363 82.6052 185.287 82.208 186.107C81.8174 186.921 81.2543 187.556 80.5186 188.012C79.7894 188.467 78.9496 188.695 77.9991 188.695C76.5668 188.695 75.4047 188.197 74.5127 187.201C73.6273 186.205 73.1846 184.887 73.1846 183.246V183.119ZM75.001 183.334C75.001 184.506 75.2712 185.447 75.8116 186.156C76.3584 186.866 77.0876 187.221 77.9991 187.221C78.917 187.221 79.6462 186.863 80.1866 186.146C80.7269 185.424 80.9971 184.415 80.9971 183.119C80.9971 181.96 80.7204 181.023 80.167 180.307C79.6202 179.584 78.891 179.223 77.9795 179.223C77.0876 179.223 76.3682 179.577 75.8213 180.287C75.2745 180.997 75.001 182.012 75.001 183.334ZM86.8673 188.5H85.0606V173.5H86.8673V188.5ZM92.0538 175.375V177.934H94.0265V179.33H92.0538V185.883C92.0538 186.306 92.1417 186.625 92.3175 186.84C92.4933 187.048 92.7928 187.152 93.2159 187.152C93.4243 187.152 93.7107 187.113 94.0753 187.035V188.5C93.6001 188.63 93.1378 188.695 92.6886 188.695C91.8813 188.695 91.2726 188.451 90.8624 187.963C90.4523 187.475 90.2472 186.781 90.2472 185.883V179.33H88.3234V177.934H90.2472V175.375H92.0538Z" fill="black"/>
<rect x="336" y="170" width="24" height="24" rx="4" fill="black"/>
<path d="M339 180L344.586 185.586C345.367 186.367 346.633 186.367 347.414 185.586L356 177" stroke="white" stroke-width="2" stroke-linecap="round"/>
<path d="M20.5 210.5H43.5V233.5H20.5V210.5Z" stroke="black"/>
<path d="M65.2637 221.889L63.5254 223.695V228.5H61.6504V214.281H63.5254V221.312L69.8438 214.281H72.1094L66.5137 220.561L72.5488 228.5H70.3027L65.2637 221.889ZM75.7041 228.5H73.8975V217.934H75.7041V228.5ZM73.751 215.131C73.751 214.838 73.8389 214.59 74.0147 214.389C74.197 214.187 74.4639 214.086 74.8155 214.086C75.167 214.086 75.434 214.187 75.6163 214.389C75.7985 214.59 75.8897 214.838 75.8897 215.131C75.8897 215.424 75.7985 215.668 75.6163 215.863C75.434 216.059 75.167 216.156 74.8155 216.156C74.4639 216.156 74.197 216.059 74.0147 215.863C73.8389 215.668 73.751 215.424 73.751 215.131ZM87.795 226.01L89.8263 217.934H91.6329L88.5567 228.5H87.0919L84.5235 220.492L82.0235 228.5H80.5587L77.4923 217.934H79.2891L81.3692 225.844L83.8302 217.934H85.2852L87.795 226.01ZM95.2765 228.5H93.4698V217.934H95.2765V228.5ZM93.3234 215.131C93.3234 214.838 93.4112 214.59 93.587 214.389C93.7693 214.187 94.0362 214.086 94.3878 214.086C94.7394 214.086 95.0063 214.187 95.1886 214.389C95.3709 214.59 95.462 214.838 95.462 215.131C95.462 215.424 95.3709 215.668 95.1886 215.863C95.0063 216.059 94.7394 216.156 94.3878 216.156C94.0362 216.156 93.7693 216.059 93.587 215.863C93.4112 215.668 93.3234 215.424 93.3234 215.131ZM108.96 225.697C108.96 225.209 108.775 224.831 108.404 224.564C108.039 224.291 107.398 224.057 106.48 223.861C105.568 223.666 104.842 223.432 104.302 223.158C103.768 222.885 103.371 222.559 103.111 222.182C102.857 221.804 102.73 221.355 102.73 220.834C102.73 219.968 103.094 219.236 103.823 218.637C104.559 218.038 105.497 217.738 106.636 217.738C107.834 217.738 108.804 218.048 109.546 218.666C110.295 219.285 110.669 220.076 110.669 221.039H108.853C108.853 220.544 108.641 220.118 108.218 219.76C107.801 219.402 107.274 219.223 106.636 219.223C105.978 219.223 105.464 219.366 105.093 219.652C104.722 219.939 104.536 220.313 104.536 220.775C104.536 221.212 104.709 221.54 105.054 221.762C105.399 221.983 106.021 222.195 106.919 222.396C107.824 222.598 108.557 222.839 109.116 223.119C109.676 223.399 110.09 223.738 110.357 224.135C110.63 224.525 110.767 225.004 110.767 225.57C110.767 226.514 110.389 227.273 109.634 227.846C108.879 228.412 107.899 228.695 106.695 228.695C105.848 228.695 105.099 228.546 104.448 228.246C103.797 227.947 103.286 227.53 102.915 226.996C102.551 226.456 102.368 225.873 102.368 225.248H104.175C104.208 225.854 104.448 226.335 104.898 226.693C105.353 227.045 105.952 227.221 106.695 227.221C107.378 227.221 107.925 227.084 108.335 226.811C108.752 226.531 108.96 226.16 108.96 225.697ZM117.194 227.221C117.838 227.221 118.401 227.025 118.883 226.635C119.365 226.244 119.632 225.756 119.684 225.17H121.393C121.36 225.775 121.152 226.352 120.768 226.898C120.384 227.445 119.869 227.882 119.225 228.207C118.587 228.533 117.91 228.695 117.194 228.695C115.755 228.695 114.609 228.217 113.756 227.26C112.91 226.296 112.487 224.981 112.487 223.314V223.012C112.487 221.983 112.675 221.068 113.053 220.268C113.431 219.467 113.971 218.845 114.674 218.402C115.384 217.96 116.22 217.738 117.184 217.738C118.369 217.738 119.352 218.093 120.133 218.803C120.921 219.512 121.341 220.434 121.393 221.566H119.684C119.632 220.883 119.371 220.323 118.903 219.887C118.44 219.444 117.867 219.223 117.184 219.223C116.266 219.223 115.553 219.555 115.045 220.219C114.544 220.876 114.293 221.83 114.293 223.08V223.422C114.293 224.639 114.544 225.577 115.045 226.234C115.546 226.892 116.263 227.221 117.194 227.221ZM122.781 223.119C122.781 222.084 122.982 221.153 123.386 220.326C123.796 219.499 124.363 218.861 125.085 218.412C125.814 217.963 126.644 217.738 127.575 217.738C129.014 217.738 130.176 218.236 131.062 219.232C131.954 220.229 132.4 221.553 132.4 223.207V223.334C132.4 224.363 132.201 225.287 131.804 226.107C131.413 226.921 130.85 227.556 130.115 228.012C129.385 228.467 128.546 228.695 127.595 228.695C126.163 228.695 125.001 228.197 124.109 227.201C123.223 226.205 122.781 224.887 122.781 223.246V223.119ZM124.597 223.334C124.597 224.506 124.867 225.447 125.408 226.156C125.954 226.866 126.684 227.221 127.595 227.221C128.513 227.221 129.242 226.863 129.783 226.146C130.323 225.424 130.593 224.415 130.593 223.119C130.593 221.96 130.316 221.023 129.763 220.307C129.216 219.584 128.487 219.223 127.575 219.223C126.684 219.223 125.964 219.577 125.417 220.287C124.87 220.997 124.597 222.012 124.597 223.334ZM134.022 223.119C134.022 222.084 134.224 221.153 134.627 220.326C135.037 219.499 135.604 218.861 136.326 218.412C137.056 217.963 137.886 217.738 138.817 217.738C140.256 217.738 141.418 218.236 142.303 219.232C143.195 220.229 143.641 221.553 143.641 223.207V223.334C143.641 224.363 143.442 225.287 143.045 226.107C142.655 226.921 142.091 227.556 141.356 228.012C140.627 228.467 139.787 228.695 138.836 228.695C137.404 228.695 136.242 228.197 135.35 227.201C134.465 226.205 134.022 224.887 134.022 223.246V223.119ZM135.838 223.334C135.838 224.506 136.108 225.447 136.649 226.156C137.196 226.866 137.925 227.221 138.836 227.221C139.754 227.221 140.483 226.863 141.024 226.146C141.564 225.424 141.834 224.415 141.834 223.119C141.834 221.96 141.558 221.023 141.004 220.307C140.457 219.584 139.728 219.223 138.817 219.223C137.925 219.223 137.205 219.577 136.659 220.287C136.112 220.997 135.838 222.012 135.838 223.334ZM148.193 215.375V217.934H150.165V219.33H148.193V225.883C148.193 226.306 148.281 226.625 148.456 226.84C148.632 227.048 148.932 227.152 149.355 227.152C149.563 227.152 149.85 227.113 150.214 227.035V228.5C149.739 228.63 149.277 228.695 148.827 228.695C148.02 228.695 147.411 228.451 147.001 227.963C146.591 227.475 146.386 226.781 146.386 225.883V219.33H144.462V217.934H146.386V215.375H148.193ZM156.504 228.695C155.072 228.695 153.907 228.227 153.008 227.289C152.11 226.345 151.661 225.085 151.661 223.51V223.178C151.661 222.13 151.859 221.195 152.256 220.375C152.66 219.548 153.22 218.904 153.936 218.441C154.659 217.973 155.44 217.738 156.28 217.738C157.653 217.738 158.721 218.191 159.483 219.096C160.245 220.001 160.625 221.296 160.625 222.982V223.734H153.467C153.493 224.776 153.796 225.619 154.375 226.264C154.961 226.902 155.704 227.221 156.602 227.221C157.24 227.221 157.78 227.09 158.223 226.83C158.666 226.57 159.053 226.225 159.385 225.795L160.489 226.654C159.603 228.015 158.275 228.695 156.504 228.695ZM156.28 219.223C155.551 219.223 154.939 219.49 154.444 220.023C153.949 220.551 153.643 221.293 153.526 222.25H158.819V222.113C158.767 221.195 158.519 220.486 158.077 219.984C157.634 219.477 157.035 219.223 156.28 219.223ZM167.667 219.555C167.394 219.509 167.098 219.486 166.779 219.486C165.594 219.486 164.79 219.991 164.367 221V228.5H162.56V217.934H164.318L164.347 219.154C164.94 218.21 165.779 217.738 166.867 217.738C167.218 217.738 167.485 217.784 167.667 217.875V219.555Z" fill="black"/>
<rect x="336.5" y="210.5" width="23" height="23" rx="3.5" stroke="black"/>
<path d="M20.5 250.5H43.5V273.5H20.5V250.5Z" stroke="black"/>
<path d="M61.6504 268.5V254.281H66.2988C67.8418 254.281 69.0007 254.6 69.7754 255.238C70.5566 255.876 70.9473 256.82 70.9473 258.07C70.9473 258.734 70.7585 259.324 70.3809 259.838C70.0033 260.346 69.4889 260.74 68.8379 261.02C69.6061 261.234 70.2116 261.645 70.6543 262.25C71.1035 262.849 71.3281 263.565 71.3281 264.398C71.3281 265.674 70.9147 266.677 70.0879 267.406C69.2611 268.135 68.0924 268.5 66.582 268.5H61.6504ZM63.5254 261.85V266.967H66.6211C67.4935 266.967 68.1803 266.742 68.6816 266.293C69.1895 265.837 69.4434 265.212 69.4434 264.418C69.4434 262.706 68.5124 261.85 66.6504 261.85H63.5254ZM63.5254 260.346H66.3574C67.1777 260.346 67.832 260.141 68.3203 259.73C68.8151 259.32 69.0625 258.764 69.0625 258.061C69.0625 257.279 68.8346 256.713 68.3789 256.361C67.9232 256.003 67.2298 255.824 66.2988 255.824H63.5254V260.346ZM75.626 268.5H73.8194V257.934H75.626V268.5ZM73.6729 255.131C73.6729 254.838 73.7608 254.59 73.9366 254.389C74.1189 254.187 74.3858 254.086 74.7373 254.086C75.0889 254.086 75.3558 254.187 75.5381 254.389C75.7204 254.59 75.8116 254.838 75.8116 255.131C75.8116 255.424 75.7204 255.668 75.5381 255.863C75.3558 256.059 75.0889 256.156 74.7373 256.156C74.3858 256.156 74.1189 256.059 73.9366 255.863C73.7608 255.668 73.6729 255.424 73.6729 255.131ZM81.3106 263.607L80.1778 264.789V268.5H78.3712V253.5H80.1778V262.572L81.1446 261.41L84.4356 257.934H86.6329L82.5216 262.348L87.1114 268.5H84.9923L81.3106 263.607ZM92.5226 268.695C91.0903 268.695 89.9249 268.227 89.0265 267.289C88.128 266.345 87.6788 265.085 87.6788 263.51V263.178C87.6788 262.13 87.8774 261.195 88.2745 260.375C88.6782 259.548 89.2381 258.904 89.9542 258.441C90.6769 257.973 91.4581 257.738 92.298 257.738C93.6717 257.738 94.7394 258.191 95.5011 259.096C96.2628 260.001 96.6437 261.296 96.6437 262.982V263.734H89.4855C89.5115 264.776 89.8142 265.619 90.3937 266.264C90.9796 266.902 91.7218 267.221 92.6202 267.221C93.2583 267.221 93.7986 267.09 94.2413 266.83C94.684 266.57 95.0714 266.225 95.4034 265.795L96.507 266.654C95.6215 268.015 94.2934 268.695 92.5226 268.695ZM92.298 259.223C91.5688 259.223 90.9568 259.49 90.462 260.023C89.9672 260.551 89.6612 261.293 89.5441 262.25H94.837V262.113C94.7849 261.195 94.5376 260.486 94.0948 259.984C93.6521 259.477 93.0532 259.223 92.298 259.223ZM109.789 268.5H107.904L100.746 257.543V268.5H98.8615V254.281H100.746L107.924 265.287V254.281H109.789V268.5ZM112.193 263.119C112.193 262.084 112.394 261.153 112.798 260.326C113.208 259.499 113.775 258.861 114.497 258.412C115.226 257.963 116.057 257.738 116.987 257.738C118.426 257.738 119.588 258.236 120.474 259.232C121.366 260.229 121.812 261.553 121.812 263.207V263.334C121.812 264.363 121.613 265.287 121.216 266.107C120.825 266.921 120.262 267.556 119.527 268.012C118.797 268.467 117.958 268.695 117.007 268.695C115.575 268.695 114.413 268.197 113.521 267.201C112.635 266.205 112.193 264.887 112.193 263.246V263.119ZM114.009 263.334C114.009 264.506 114.279 265.447 114.82 266.156C115.366 266.866 116.096 267.221 117.007 267.221C117.925 267.221 118.654 266.863 119.195 266.146C119.735 265.424 120.005 264.415 120.005 263.119C120.005 261.96 119.728 261.023 119.175 260.307C118.628 259.584 117.899 259.223 116.987 259.223C116.096 259.223 115.376 259.577 114.829 260.287C114.282 260.997 114.009 262.012 114.009 263.334ZM133.268 266.01L135.299 257.934H137.106L134.03 268.5H132.565L129.996 260.492L127.496 268.5H126.031L122.965 257.934H124.762L126.842 265.844L129.303 257.934H130.758L133.268 266.01Z" fill="black"/>
<rect x="336.5" y="250.5" width="23" height="23" rx="3.5" stroke="black"/>
<path d="M20.5 290.5H43.5V313.5H20.5V290.5Z" stroke="black"/>
<path d="M64.7168 304.018L64.9902 305.893L65.3906 304.203L68.2031 294.281H69.7852L72.5293 304.203L72.9199 305.922L73.2227 304.008L75.4297 294.281H77.3145L73.8672 308.5H72.1582L69.2285 298.139L69.0039 297.055L68.7793 298.139L65.7422 308.5H64.0332L60.5957 294.281H62.4707L64.7168 304.018ZM80.919 308.5H79.1123V297.934H80.919V308.5ZM78.9659 295.131C78.9659 294.838 79.0537 294.59 79.2295 294.389C79.4118 294.187 79.6787 294.086 80.0303 294.086C80.3819 294.086 80.6488 294.187 80.8311 294.389C81.0134 294.59 81.1045 294.838 81.1045 295.131C81.1045 295.424 81.0134 295.668 80.8311 295.863C80.6488 296.059 80.3819 296.156 80.0303 296.156C79.6787 296.156 79.4118 296.059 79.2295 295.863C79.0537 295.668 78.9659 295.424 78.9659 295.131ZM85.3634 297.934L85.422 299.262C86.2292 298.246 87.2839 297.738 88.586 297.738C90.8191 297.738 91.9454 298.998 91.9649 301.518V308.5H90.1583V301.508C90.1518 300.746 89.976 300.183 89.6309 299.818C89.2924 299.454 88.7618 299.271 88.0391 299.271C87.4532 299.271 86.9389 299.428 86.4962 299.74C86.0535 300.053 85.7084 300.463 85.461 300.971V308.5H83.6544V297.934H85.3634ZM94.0948 303.129C94.0948 301.482 94.4757 300.173 95.2374 299.203C95.9991 298.227 97.0083 297.738 98.2648 297.738C99.5538 297.738 100.56 298.194 101.282 299.105L101.37 297.934H103.021V308.246C103.021 309.613 102.614 310.691 101.8 311.479C100.993 312.266 99.9054 312.66 98.5382 312.66C97.7765 312.66 97.031 312.497 96.3019 312.172C95.5727 311.846 95.0161 311.4 94.632 310.834L95.5695 309.75C96.3442 310.707 97.2915 311.186 98.4113 311.186C99.2902 311.186 99.9738 310.938 100.462 310.443C100.957 309.949 101.204 309.252 101.204 308.354V307.445C100.482 308.279 99.4952 308.695 98.2452 308.695C97.0083 308.695 96.0057 308.197 95.2374 307.201C94.4757 306.205 94.0948 304.848 94.0948 303.129ZM95.9113 303.334C95.9113 304.525 96.1554 305.463 96.6437 306.146C97.132 306.824 97.8155 307.162 98.6945 307.162C99.8338 307.162 100.67 306.645 101.204 305.609V300.785C100.651 299.776 99.8208 299.271 98.714 299.271C97.8351 299.271 97.1482 299.613 96.6534 300.297C96.1586 300.98 95.9113 301.993 95.9113 303.334ZM111.742 305.697C111.742 305.209 111.557 304.831 111.186 304.564C110.821 304.291 110.18 304.057 109.262 303.861C108.35 303.666 107.625 303.432 107.084 303.158C106.55 302.885 106.153 302.559 105.893 302.182C105.639 301.804 105.512 301.355 105.512 300.834C105.512 299.968 105.876 299.236 106.606 298.637C107.341 298.038 108.279 297.738 109.418 297.738C110.616 297.738 111.586 298.048 112.328 298.666C113.077 299.285 113.451 300.076 113.451 301.039H111.635C111.635 300.544 111.423 300.118 111 299.76C110.583 299.402 110.056 299.223 109.418 299.223C108.761 299.223 108.246 299.366 107.875 299.652C107.504 299.939 107.319 300.313 107.319 300.775C107.319 301.212 107.491 301.54 107.836 301.762C108.181 301.983 108.803 302.195 109.701 302.396C110.606 302.598 111.339 302.839 111.899 303.119C112.458 303.399 112.872 303.738 113.139 304.135C113.412 304.525 113.549 305.004 113.549 305.57C113.549 306.514 113.171 307.273 112.416 307.846C111.661 308.412 110.681 308.695 109.477 308.695C108.63 308.695 107.882 308.546 107.231 308.246C106.58 307.947 106.069 307.53 105.697 306.996C105.333 306.456 105.151 305.873 105.151 305.248H106.957C106.99 305.854 107.231 306.335 107.68 306.693C108.136 307.045 108.735 307.221 109.477 307.221C110.16 307.221 110.707 307.084 111.117 306.811C111.534 306.531 111.742 306.16 111.742 305.697Z" fill="black"/>
<rect x="336.5" y="290.5" width="23" height="23" rx="3.5" stroke="black"/>
<path d="M32.4316 366.264C32.321 367.794 31.7546 368.998 30.7324 369.877C29.7168 370.756 28.3757 371.195 26.709 371.195C24.8861 371.195 23.4505 370.583 22.4023 369.359C21.3607 368.129 20.8398 366.443 20.8398 364.301V363.432C20.8398 362.064 21.0807 360.86 21.5625 359.818C22.0443 358.777 22.7311 357.979 23.623 357.426C24.5215 356.866 25.5632 356.586 26.748 356.586C28.3887 356.586 29.7103 357.025 30.7129 357.904C31.7155 358.783 32.2949 360.017 32.4512 361.605H29.5215C29.4499 360.688 29.1927 360.023 28.75 359.613C28.3138 359.197 27.6465 358.988 26.748 358.988C25.7715 358.988 25.0391 359.34 24.5508 360.043C24.069 360.74 23.8216 361.824 23.8086 363.295V364.369C23.8086 365.906 24.0397 367.029 24.502 367.738C24.9707 368.448 25.7064 368.803 26.709 368.803C27.6139 368.803 28.2878 368.598 28.7305 368.188C29.1797 367.771 29.4368 367.13 29.502 366.264H32.4316ZM36.7588 361.586C37.5075 360.688 38.4483 360.238 39.5811 360.238C41.8728 360.238 43.0349 361.57 43.0674 364.232V371H40.2452V364.311C40.2452 363.705 40.1149 363.259 39.8545 362.973C39.5941 362.68 39.1612 362.533 38.5557 362.533C37.7289 362.533 37.1299 362.852 36.7588 363.49V371H33.9366V356H36.7588V361.586ZM51.1544 371C51.0242 370.746 50.9298 370.43 50.8712 370.053C50.1876 370.814 49.2989 371.195 48.2052 371.195C47.17 371.195 46.3106 370.896 45.627 370.297C44.9499 369.698 44.6114 368.943 44.6114 368.031C44.6114 366.911 45.0248 366.052 45.8516 365.453C46.685 364.854 47.8861 364.551 49.4552 364.545H50.754V363.939C50.754 363.451 50.627 363.061 50.3731 362.768C50.1257 362.475 49.7318 362.328 49.1915 362.328C48.7162 362.328 48.3419 362.442 48.0684 362.67C47.8015 362.898 47.668 363.21 47.668 363.607H44.8458C44.8458 362.995 45.0346 362.429 45.4122 361.908C45.7898 361.387 46.3236 360.98 47.0138 360.688C47.7039 360.388 48.4786 360.238 49.338 360.238C50.6401 360.238 51.672 360.567 52.4337 361.225C53.2019 361.876 53.586 362.794 53.586 363.979V368.559C53.5925 369.561 53.7325 370.32 54.0059 370.834V371H51.1544ZM48.8204 369.037C49.2371 369.037 49.6212 368.946 49.9727 368.764C50.3243 368.575 50.5847 368.324 50.754 368.012V366.195H49.6993C48.2865 366.195 47.5346 366.684 47.4434 367.66L47.4337 367.826C47.4337 368.178 47.5574 368.467 47.8048 368.695C48.0522 368.923 48.3907 369.037 48.8204 369.037ZM61.5265 363.08C61.1424 363.028 60.8038 363.002 60.5109 363.002C59.4432 363.002 58.7433 363.363 58.4113 364.086V371H55.589V360.434H58.255L58.3331 361.693C58.8995 360.723 59.684 360.238 60.6866 360.238C60.9991 360.238 61.2921 360.281 61.5655 360.365L61.5265 363.08ZM62.1232 365.639C62.1232 364.018 62.5073 362.712 63.2755 361.723C64.0503 360.733 65.092 360.238 66.4005 360.238C67.5594 360.238 68.4611 360.635 69.1056 361.43L69.2228 360.434H71.7814V370.648C71.7814 371.573 71.5698 372.377 71.1466 373.061C70.73 373.744 70.1408 374.265 69.3791 374.623C68.6173 374.981 67.7254 375.16 66.7033 375.16C65.9285 375.16 65.1733 375.004 64.4377 374.691C63.702 374.385 63.1453 373.988 62.7677 373.5L64.0177 371.781C64.7209 372.569 65.5737 372.963 66.5763 372.963C67.325 372.963 67.9077 372.761 68.3244 372.357C68.741 371.96 68.9494 371.394 68.9494 370.658V370.092C68.2983 370.827 67.4422 371.195 66.381 371.195C65.1115 371.195 64.0828 370.701 63.2951 369.711C62.5138 368.715 62.1232 367.396 62.1232 365.756V365.639ZM64.9455 365.844C64.9455 366.801 65.1375 367.553 65.5216 368.1C65.9058 368.64 66.4331 368.91 67.1037 368.91C67.963 368.91 68.5783 368.588 68.9494 367.943V363.5C68.5718 362.855 67.963 362.533 67.1232 362.533C66.4461 362.533 65.9123 362.81 65.5216 363.363C65.1375 363.917 64.9455 364.743 64.9455 365.844ZM78.6574 371.195C77.1079 371.195 75.8449 370.72 74.8684 369.77C73.8983 368.819 73.4133 367.553 73.4133 365.971V365.697C73.4133 364.636 73.6184 363.689 74.0285 362.855C74.4387 362.016 75.0181 361.371 75.7668 360.922C76.522 360.466 77.3814 360.238 78.3449 360.238C79.7902 360.238 80.9263 360.694 81.7531 361.605C82.5865 362.517 83.0031 363.809 83.0031 365.482V366.635H76.2746C76.3658 367.325 76.6392 367.878 77.0949 368.295C77.5572 368.712 78.1398 368.92 78.843 368.92C79.9302 368.92 80.7798 368.526 81.3918 367.738L82.7785 369.291C82.3553 369.89 81.7824 370.359 81.0598 370.697C80.3371 371.029 79.5363 371.195 78.6574 371.195ZM78.3352 362.523C77.7753 362.523 77.3195 362.712 76.968 363.09C76.6229 363.467 76.4016 364.008 76.3039 364.711H80.2297V364.486C80.2167 363.861 80.0474 363.38 79.7219 363.041C79.3964 362.696 78.9341 362.523 78.3352 362.523Z" fill="black"/>
<path d="M327.492 356.771V358.305H327.16C325.754 358.331 324.634 358.747 323.801 359.555C322.967 360.362 322.486 361.498 322.355 362.963C323.104 362.104 324.126 361.674 325.422 361.674C326.659 361.674 327.645 362.11 328.381 362.982C329.123 363.855 329.494 364.981 329.494 366.361C329.494 367.826 329.094 368.998 328.293 369.877C327.499 370.756 326.431 371.195 325.09 371.195C323.729 371.195 322.626 370.674 321.779 369.633C320.933 368.585 320.51 367.237 320.51 365.59V364.896C320.51 362.279 321.066 360.281 322.18 358.9C323.299 357.514 324.963 356.804 327.17 356.771H327.492ZM325.119 363.178C324.501 363.178 323.931 363.363 323.41 363.734C322.889 364.105 322.528 364.571 322.326 365.131V365.795C322.326 366.967 322.59 367.911 323.117 368.627C323.644 369.343 324.302 369.701 325.09 369.701C325.904 369.701 326.542 369.402 327.004 368.803C327.473 368.204 327.707 367.419 327.707 366.449C327.707 365.473 327.469 364.685 326.994 364.086C326.525 363.48 325.9 363.178 325.119 363.178ZM340.384 364.936C340.384 367.051 340.022 368.624 339.3 369.652C338.577 370.681 337.448 371.195 335.911 371.195C334.394 371.195 333.271 370.694 332.542 369.691C331.813 368.682 331.435 367.178 331.409 365.18V362.768C331.409 360.678 331.77 359.125 332.493 358.109C333.216 357.094 334.349 356.586 335.892 356.586C337.422 356.586 338.548 357.077 339.27 358.061C339.993 359.037 340.364 360.548 340.384 362.592V364.936ZM338.577 362.465C338.577 360.935 338.362 359.822 337.933 359.125C337.503 358.422 336.823 358.07 335.892 358.07C334.967 358.07 334.293 358.419 333.87 359.115C333.447 359.812 333.229 360.883 333.216 362.328V365.219C333.216 366.755 333.437 367.891 333.88 368.627C334.329 369.356 335.006 369.721 335.911 369.721C336.803 369.721 337.464 369.376 337.894 368.686C338.33 367.995 338.558 366.908 338.577 365.424V362.465ZM342.377 359.516C342.377 358.663 342.647 357.96 343.188 357.406C343.734 356.853 344.434 356.576 345.287 356.576C346.153 356.576 346.853 356.856 347.387 357.416C347.927 357.969 348.197 358.689 348.197 359.574V360.268C348.197 361.127 347.924 361.83 347.377 362.377C346.837 362.917 346.146 363.188 345.307 363.188C344.46 363.188 343.76 362.917 343.207 362.377C342.654 361.83 342.377 361.104 342.377 360.199V359.516ZM343.725 360.268C343.725 360.775 343.868 361.195 344.154 361.527C344.441 361.853 344.825 362.016 345.307 362.016C345.769 362.016 346.14 361.856 346.42 361.537C346.706 361.218 346.85 360.782 346.85 360.229V359.516C346.85 359.008 346.71 358.588 346.43 358.256C346.15 357.924 345.769 357.758 345.287 357.758C344.805 357.758 344.424 357.924 344.145 358.256C343.865 358.588 343.725 359.021 343.725 359.555V360.268ZM349.301 367.514C349.301 366.661 349.571 365.961 350.111 365.414C350.658 364.861 351.358 364.584 352.211 364.584C353.064 364.584 353.764 364.857 354.311 365.404C354.857 365.951 355.131 366.677 355.131 367.582V368.275C355.131 369.128 354.857 369.831 354.311 370.385C353.77 370.932 353.077 371.205 352.23 371.205C351.384 371.205 350.684 370.935 350.131 370.395C349.577 369.848 349.301 369.122 349.301 368.217V367.514ZM350.648 368.275C350.648 368.79 350.792 369.213 351.078 369.545C351.365 369.87 351.749 370.033 352.23 370.033C352.699 370.033 353.074 369.874 353.354 369.555C353.633 369.229 353.773 368.79 353.773 368.236V367.514C353.773 366.999 353.63 366.579 353.344 366.254C353.064 365.928 352.686 365.766 352.211 365.766C351.749 365.766 351.371 365.928 351.078 366.254C350.792 366.573 350.648 367.006 350.648 367.553V368.275ZM345.717 369.926L344.691 369.281L351.635 358.168L352.66 358.812L345.717 369.926Z" fill="black"/>
<rect x="20" y="388" width="336" height="8" rx="4" fill="#C4C4C4"/>
<rect x="20" y="388" width="185.788" height="8" rx="4" fill="#787878"/>
<ellipse cx="201.835" cy="392" rx="7.90588" ry="8" fill="black"/>
<path d="M27.376 416.885C27.376 418.261 27.0911 419.314 26.5215 420.043C25.9518 420.772 25.1178 421.137 24.0195 421.137C22.9349 421.137 22.1055 420.779 21.5312 420.063C20.957 419.348 20.6631 418.323 20.6494 416.987V415.155C20.6494 413.765 20.9365 412.71 21.5107 411.99C22.0895 411.27 22.9212 410.91 24.0059 410.91C25.0905 410.91 25.9199 411.268 26.4941 411.983C27.0684 412.694 27.3623 413.717 27.376 415.053V416.885ZM25.4004 414.875C25.4004 414.05 25.2865 413.451 25.0586 413.077C24.8353 412.699 24.4844 412.51 24.0059 412.51C23.541 412.51 23.1969 412.69 22.9736 413.05C22.7549 413.405 22.6387 413.964 22.625 414.725V417.145C22.625 417.956 22.7344 418.56 22.9531 418.956C23.1764 419.348 23.5319 419.544 24.0195 419.544C24.5026 419.544 24.8512 419.355 25.0654 418.977C25.2796 418.598 25.3913 418.02 25.4004 417.24V414.875ZM28.5235 412.961C28.5235 412.35 28.7217 411.856 29.1182 411.478C29.5147 411.095 30.0342 410.903 30.6768 410.903C31.3285 410.903 31.8526 411.092 32.2491 411.471C32.6455 411.844 32.8438 412.353 32.8438 412.995V413.487C32.8438 414.103 32.6455 414.597 32.2491 414.971C31.8526 415.344 31.333 415.531 30.6905 415.531C30.0433 415.531 29.5192 415.344 29.1182 414.971C28.7217 414.592 28.5235 414.084 28.5235 413.446V412.961ZM29.836 413.487C29.836 413.761 29.9135 413.982 30.0684 414.15C30.2279 414.314 30.4353 414.396 30.6905 414.396C30.9457 414.396 31.1485 414.312 31.2989 414.144C31.4493 413.975 31.5245 413.749 31.5245 413.467V412.961C31.5245 412.688 31.4493 412.466 31.2989 412.298C31.1485 412.129 30.9411 412.045 30.6768 412.045C30.4261 412.045 30.2233 412.129 30.0684 412.298C29.9135 412.462 29.836 412.692 29.836 412.988V413.487ZM33.2813 418.56C33.2813 417.944 33.4818 417.45 33.8829 417.076C34.2839 416.698 34.8034 416.509 35.4414 416.509C36.0886 416.509 36.6104 416.696 37.0069 417.069C37.4079 417.438 37.6084 417.949 37.6084 418.601V419.093C37.6084 419.703 37.4125 420.198 37.0205 420.576C36.6286 420.95 36.1068 421.137 35.4551 421.137C34.7989 421.137 34.2725 420.948 33.876 420.569C33.4795 420.191 33.2813 419.69 33.2813 419.065V418.56ZM34.5938 419.093C34.5938 419.343 34.6758 419.558 34.8399 419.735C35.0039 419.913 35.209 420.002 35.4551 420.002C36.0111 420.002 36.2891 419.694 36.2891 419.079V418.56C36.2891 418.286 36.2116 418.067 36.0567 417.903C35.9017 417.735 35.6967 417.65 35.4414 417.65C35.1862 417.65 34.9812 417.735 34.8262 417.903C34.6713 418.067 34.5938 418.293 34.5938 418.58V419.093ZM31.0801 420.255L30.1163 419.735L34.9766 411.956L35.9405 412.476L31.0801 420.255Z" fill="black"/>
<path d="M327.517 421H325.542V413.385L323.183 414.116V412.51L327.306 411.033H327.517V421ZM337.292 416.885C337.292 418.261 337.007 419.314 336.437 420.043C335.868 420.772 335.034 421.137 333.935 421.137C332.851 421.137 332.021 420.779 331.447 420.063C330.873 419.348 330.579 418.323 330.565 416.987V415.155C330.565 413.765 330.852 412.71 331.427 411.99C332.005 411.27 332.837 410.91 333.922 410.91C335.006 410.91 335.836 411.268 336.41 411.983C336.984 412.694 337.278 413.717 337.292 415.053V416.885ZM335.316 414.875C335.316 414.05 335.202 413.451 334.975 413.077C334.751 412.699 334.4 412.51 333.922 412.51C333.457 412.51 333.113 412.69 332.89 413.05C332.671 413.405 332.555 413.964 332.541 414.725V417.145C332.541 417.956 332.65 418.56 332.869 418.956C333.092 419.348 333.448 419.544 333.935 419.544C334.419 419.544 334.767 419.355 334.981 418.977C335.196 418.598 335.307 418.02 335.316 417.24V414.875ZM345.166 416.885C345.166 418.261 344.881 419.314 344.311 420.043C343.742 420.772 342.908 421.137 341.81 421.137C340.725 421.137 339.895 420.779 339.321 420.063C338.747 419.348 338.453 418.323 338.439 416.987V415.155C338.439 413.765 338.727 412.71 339.301 411.99C339.88 411.27 340.711 410.91 341.796 410.91C342.88 410.91 343.71 411.268 344.284 411.983C344.858 412.694 345.152 413.717 345.166 415.053V416.885ZM343.19 414.875C343.19 414.05 343.076 413.451 342.849 413.077C342.625 412.699 342.274 412.51 341.796 412.51C341.331 412.51 340.987 412.69 340.764 413.05C340.545 413.405 340.429 413.964 340.415 414.725V417.145C340.415 417.956 340.524 418.56 340.743 418.956C340.966 419.348 341.322 419.544 341.81 419.544C342.293 419.544 342.641 419.355 342.855 418.977C343.07 418.598 343.181 418.02 343.19 417.24V414.875ZM346.313 412.961C346.313 412.35 346.512 411.856 346.908 411.478C347.305 411.095 347.824 410.903 348.467 410.903C349.118 410.903 349.643 411.092 350.039 411.471C350.436 411.844 350.634 412.353 350.634 412.995V413.487C350.634 414.103 350.436 414.597 350.039 414.971C349.643 415.344 349.123 415.531 348.48 415.531C347.833 415.531 347.309 415.344 346.908 414.971C346.512 414.592 346.313 414.084 346.313 413.446V412.961ZM347.626 413.487C347.626 413.761 347.703 413.982 347.858 414.15C348.018 414.314 348.225 414.396 348.48 414.396C348.736 414.396 348.938 414.312 349.089 414.144C349.239 413.975 349.314 413.749 349.314 413.467V412.961C349.314 412.688 349.239 412.466 349.089 412.298C348.938 412.129 348.731 412.045 348.467 412.045C348.216 412.045 348.013 412.129 347.858 412.298C347.703 412.462 347.626 412.692 347.626 412.988V413.487ZM351.071 418.56C351.071 417.944 351.272 417.45 351.673 417.076C352.074 416.698 352.593 416.509 353.231 416.509C353.879 416.509 354.4 416.696 354.797 417.069C355.198 417.438 355.398 417.949 355.398 418.601V419.093C355.398 419.703 355.202 420.198 354.811 420.576C354.419 420.95 353.897 421.137 353.245 421.137C352.589 421.137 352.062 420.948 351.666 420.569C351.27 420.191 351.071 419.69 351.071 419.065V418.56ZM352.384 419.093C352.384 419.343 352.466 419.558 352.63 419.735C352.794 419.913 352.999 420.002 353.245 420.002C353.801 420.002 354.079 419.694 354.079 419.079V418.56C354.079 418.286 354.002 418.067 353.847 417.903C353.692 417.735 353.487 417.65 353.231 417.65C352.976 417.65 352.771 417.735 352.616 417.903C352.461 418.067 352.384 418.293 352.384 418.58V419.093ZM348.87 420.255L347.906 419.735L352.767 411.956L353.73 412.476L348.87 420.255Z" fill="black"/>
<path d="M21.2695 466V451.781H25.6445C26.8945 451.781 28.0111 452.064 28.9941 452.631C29.9837 453.191 30.7552 453.992 31.3086 455.033C31.862 456.068 32.1387 457.247 32.1387 458.568V459.223C32.1387 460.544 31.8652 461.719 31.3184 462.748C30.778 463.777 30.013 464.574 29.0234 465.141C28.0339 465.707 26.9173 465.993 25.6738 466H21.2695ZM24.1992 454.154V463.646H25.6152C26.7611 463.646 27.6367 463.272 28.2422 462.523C28.8477 461.775 29.1569 460.704 29.1699 459.311V458.559C29.1699 457.113 28.8704 456.02 28.2715 455.277C27.6725 454.529 26.7969 454.154 25.6445 454.154H24.1992ZM36.9053 466H34.0733V455.434H36.9053V466ZM33.9073 452.699C33.9073 452.276 34.0472 451.928 34.3272 451.654C34.6136 451.381 35.001 451.244 35.4893 451.244C35.9711 451.244 36.3552 451.381 36.6416 451.654C36.9281 451.928 37.0713 452.276 37.0713 452.699C37.0713 453.129 36.9248 453.48 36.6319 453.754C36.3454 454.027 35.9646 454.164 35.4893 454.164C35.014 454.164 34.6299 454.027 34.337 453.754C34.0505 453.48 33.9073 453.129 33.9073 452.699ZM44.797 463.08C44.797 462.735 44.6244 462.465 44.2794 462.27C43.9408 462.068 43.394 461.889 42.6388 461.732C40.1257 461.205 38.8692 460.137 38.8692 458.529C38.8692 457.592 39.2566 456.811 40.0313 456.186C40.8126 455.554 41.8315 455.238 43.088 455.238C44.4291 455.238 45.5001 455.554 46.3009 456.186C47.1082 456.817 47.5118 457.637 47.5118 458.646H44.6895C44.6895 458.243 44.5593 457.911 44.2989 457.65C44.0385 457.383 43.6316 457.25 43.0782 457.25C42.6029 457.25 42.2351 457.357 41.9747 457.572C41.7143 457.787 41.5841 458.061 41.5841 458.393C41.5841 458.705 41.7305 458.959 42.0235 459.154C42.323 459.343 42.8243 459.509 43.5274 459.652C44.2305 459.789 44.823 459.945 45.3048 460.121C46.7957 460.668 47.5411 461.615 47.5411 462.963C47.5411 463.926 47.1277 464.708 46.3009 465.307C45.474 465.899 44.4063 466.195 43.0977 466.195C42.2123 466.195 41.4246 466.039 40.7345 465.727C40.0509 465.408 39.5138 464.975 39.1231 464.428C38.7325 463.874 38.5372 463.279 38.5372 462.641H41.213C41.239 463.142 41.4246 463.526 41.7696 463.793C42.1147 464.06 42.5769 464.193 43.1563 464.193C43.6967 464.193 44.1036 464.092 44.377 463.891C44.657 463.682 44.797 463.412 44.797 463.08ZM52.5812 452.836V455.434H54.3878V457.504H52.5812V462.777C52.5812 463.168 52.656 463.448 52.8058 463.617C52.9555 463.786 53.242 463.871 53.6652 463.871C53.9777 463.871 54.2543 463.848 54.4952 463.803V465.941C53.9418 466.111 53.3722 466.195 52.7862 466.195C50.8071 466.195 49.798 465.196 49.7589 463.197V457.504H48.2159V455.434H49.7589V452.836H52.5812ZM61.9181 466C61.7879 465.746 61.6935 465.43 61.6349 465.053C60.9513 465.814 60.0627 466.195 58.9689 466.195C57.9338 466.195 57.0744 465.896 56.3908 465.297C55.7137 464.698 55.3752 463.943 55.3752 463.031C55.3752 461.911 55.7886 461.052 56.6154 460.453C57.4487 459.854 58.6499 459.551 60.2189 459.545H61.5177V458.939C61.5177 458.451 61.3908 458.061 61.1369 457.768C60.8895 457.475 60.4956 457.328 59.9552 457.328C59.48 457.328 59.1056 457.442 58.8322 457.67C58.5653 457.898 58.4318 458.21 58.4318 458.607H55.6095C55.6095 457.995 55.7983 457.429 56.1759 456.908C56.5535 456.387 57.0874 455.98 57.7775 455.688C58.4676 455.388 59.2423 455.238 60.1017 455.238C61.4038 455.238 62.4357 455.567 63.1974 456.225C63.9657 456.876 64.3498 457.794 64.3498 458.979V463.559C64.3563 464.561 64.4963 465.32 64.7697 465.834V466H61.9181ZM59.5841 464.037C60.0008 464.037 60.3849 463.946 60.7365 463.764C61.088 463.575 61.3485 463.324 61.5177 463.012V461.195H60.463C59.0503 461.195 58.2983 461.684 58.2072 462.66L58.1974 462.826C58.1974 463.178 58.3211 463.467 58.5685 463.695C58.8159 463.923 59.1545 464.037 59.5841 464.037ZM68.9504 455.434L69.0383 456.654C69.7935 455.71 70.8059 455.238 72.0754 455.238C73.1952 455.238 74.0285 455.567 74.5754 456.225C75.1223 456.882 75.4022 457.865 75.4152 459.174V466H72.593V459.242C72.593 458.643 72.4628 458.21 72.2023 457.943C71.9419 457.67 71.509 457.533 70.9035 457.533C70.1092 457.533 69.5135 457.872 69.1164 458.549V466H66.2941V455.434H68.9504ZM81.7932 463.92C82.314 463.92 82.7372 463.777 83.0627 463.49C83.3883 463.204 83.5575 462.823 83.5705 462.348H86.217C86.2105 463.064 86.0152 463.721 85.6311 464.32C85.247 464.913 84.7196 465.375 84.0491 465.707C83.385 466.033 82.6493 466.195 81.842 466.195C80.3316 466.195 79.1402 465.717 78.2678 464.76C77.3954 463.796 76.9592 462.468 76.9592 460.775V460.59C76.9592 458.962 77.3922 457.663 78.258 456.693C79.1239 455.723 80.3121 455.238 81.8225 455.238C83.1441 455.238 84.2021 455.616 84.9963 456.371C85.7971 457.12 86.204 458.119 86.217 459.369H83.5705C83.5575 458.822 83.3883 458.38 83.0627 458.041C82.7372 457.696 82.3075 457.523 81.7737 457.523C81.1161 457.523 80.6181 457.764 80.2795 458.246C79.9475 458.721 79.7815 459.496 79.7815 460.57V460.863C79.7815 461.951 79.9475 462.732 80.2795 463.207C80.6116 463.682 81.1161 463.92 81.7932 463.92ZM92.5266 466.195C90.9772 466.195 89.7141 465.72 88.7376 464.77C87.7675 463.819 87.2825 462.553 87.2825 460.971V460.697C87.2825 459.636 87.4876 458.689 87.8977 457.855C88.3079 457.016 88.8873 456.371 89.636 455.922C90.3912 455.466 91.2506 455.238 92.2141 455.238C93.6595 455.238 94.7955 455.694 95.6223 456.605C96.4557 457.517 96.8723 458.809 96.8723 460.482V461.635H90.1438C90.235 462.325 90.5084 462.878 90.9641 463.295C91.4264 463.712 92.0091 463.92 92.7122 463.92C93.7994 463.92 94.649 463.526 95.261 462.738L96.6477 464.291C96.2246 464.89 95.6516 465.359 94.929 465.697C94.2063 466.029 93.4055 466.195 92.5266 466.195ZM92.2044 457.523C91.6445 457.523 91.1888 457.712 90.8372 458.09C90.4921 458.467 90.2708 459.008 90.1731 459.711H94.0989V459.486C94.0859 458.861 93.9166 458.38 93.5911 458.041C93.2656 457.696 92.8033 457.523 92.2044 457.523Z" fill="black"/>
<path d="M312.06 466H302.744V464.701L307.666 459.232C308.395 458.406 308.896 457.735 309.17 457.221C309.45 456.7 309.59 456.163 309.59 455.609C309.59 454.867 309.365 454.258 308.916 453.783C308.467 453.308 307.868 453.07 307.119 453.07C306.221 453.07 305.521 453.327 305.019 453.842C304.525 454.35 304.277 455.059 304.277 455.971H302.471C302.471 454.662 302.89 453.604 303.73 452.797C304.577 451.99 305.706 451.586 307.119 451.586C308.441 451.586 309.486 451.934 310.254 452.631C311.022 453.321 311.406 454.242 311.406 455.395C311.406 456.794 310.514 458.461 308.73 460.395L304.922 464.525H312.06V466ZM322.725 459.936C322.725 462.051 322.364 463.624 321.641 464.652C320.919 465.681 319.789 466.195 318.253 466.195C316.736 466.195 315.613 465.694 314.884 464.691C314.155 463.682 313.777 462.178 313.751 460.18V457.768C313.751 455.678 314.112 454.125 314.835 453.109C315.557 452.094 316.69 451.586 318.233 451.586C319.763 451.586 320.89 452.077 321.612 453.061C322.335 454.037 322.706 455.548 322.725 457.592V459.936ZM320.919 457.465C320.919 455.935 320.704 454.822 320.274 454.125C319.845 453.422 319.164 453.07 318.233 453.07C317.309 453.07 316.635 453.419 316.212 454.115C315.789 454.812 315.571 455.883 315.557 457.328V460.219C315.557 461.755 315.779 462.891 316.222 463.627C316.671 464.356 317.348 464.721 318.253 464.721C319.145 464.721 319.806 464.376 320.235 463.686C320.671 462.995 320.899 461.908 320.919 460.424V457.465ZM332.806 461.107L331.673 462.289V466H329.866V451H331.673V460.072L332.64 458.91L335.931 455.434H338.128L334.017 459.848L338.606 466H336.487L332.806 461.107ZM341.527 455.434L341.576 456.605C342.351 455.694 343.396 455.238 344.711 455.238C346.189 455.238 347.195 455.805 347.729 456.938C348.08 456.43 348.536 456.02 349.096 455.707C349.662 455.395 350.329 455.238 351.098 455.238C353.415 455.238 354.594 456.465 354.633 458.92V466H352.826V459.027C352.826 458.272 352.654 457.709 352.309 457.338C351.964 456.96 351.384 456.771 350.57 456.771C349.9 456.771 349.343 456.973 348.9 457.377C348.458 457.774 348.201 458.311 348.129 458.988V466H346.312V459.076C346.312 457.54 345.561 456.771 344.057 456.771C342.872 456.771 342.061 457.276 341.625 458.285V466H339.818V455.434H341.527Z" fill="black"/>
<rect x="20" y="483" width="336" height="8" rx="4" fill="#C4C4C4"/>
<rect x="20" y="483" width="77.0824" height="8" rx="4" fill="#787878"/>
<ellipse cx="97.0824" cy="487" rx="7.90588" ry="8" fill="black"/>
<path d="M27.376 511.885C27.376 513.261 27.0911 514.314 26.5215 515.043C25.9518 515.772 25.1178 516.137 24.0195 516.137C22.9349 516.137 22.1055 515.779 21.5312 515.063C20.957 514.348 20.6631 513.323 20.6494 511.987V510.155C20.6494 508.765 20.9365 507.71 21.5107 506.99C22.0895 506.27 22.9212 505.91 24.0059 505.91C25.0905 505.91 25.9199 506.268 26.4941 506.983C27.0684 507.694 27.3623 508.717 27.376 510.053V511.885ZM25.4004 509.875C25.4004 509.05 25.2865 508.451 25.0586 508.077C24.8353 507.699 24.4844 507.51 24.0059 507.51C23.541 507.51 23.1969 507.69 22.9736 508.05C22.7549 508.405 22.6387 508.964 22.625 509.725V512.145C22.625 512.956 22.7344 513.56 22.9531 513.956C23.1764 514.348 23.5319 514.544 24.0195 514.544C24.5026 514.544 24.8512 514.355 25.0654 513.977C25.2796 513.598 25.3913 513.02 25.4004 512.24V509.875ZM34.6407 513.033L33.9298 513.744V516H31.9542V505.5H33.9298V511.317L34.3126 510.825L36.2061 508.604H38.5782L35.9054 511.687L38.8106 516H36.5411L34.6407 513.033ZM41.1202 508.604L41.1818 509.431C41.7058 508.788 42.4145 508.467 43.3077 508.467C44.2602 508.467 44.9142 508.843 45.2696 509.595C45.7892 508.843 46.5297 508.467 47.4913 508.467C48.2934 508.467 48.8904 508.701 49.2823 509.171C49.6743 509.636 49.8702 510.338 49.8702 511.276V516H47.8878V511.283C47.8878 510.864 47.8058 510.559 47.6417 510.367C47.4777 510.171 47.1883 510.073 46.7736 510.073C46.1811 510.073 45.7709 510.356 45.5431 510.921L45.5499 516H43.5743V511.29C43.5743 510.862 43.49 510.552 43.3214 510.36C43.1528 510.169 42.8657 510.073 42.4601 510.073C41.8995 510.073 41.4939 510.306 41.2433 510.771V516H39.2677V508.604H41.1202Z" fill="black"/>
<path d="M315.092 516H313.116V508.385L310.758 509.116V507.51L314.88 506.033H315.092V516ZM324.866 511.885C324.866 513.261 324.581 514.314 324.012 515.043C323.442 515.772 322.608 516.137 321.51 516.137C320.425 516.137 319.596 515.779 319.021 515.063C318.447 514.348 318.153 513.323 318.139 511.987V510.155C318.139 508.765 318.427 507.71 319.001 506.99C319.58 506.27 320.411 505.91 321.496 505.91C322.581 505.91 323.41 506.268 323.984 506.983C324.558 507.694 324.852 508.717 324.866 510.053V511.885ZM322.89 509.875C322.89 509.05 322.777 508.451 322.549 508.077C322.325 507.699 321.974 507.51 321.496 507.51C321.031 507.51 320.687 507.69 320.464 508.05C320.245 508.405 320.129 508.964 320.115 509.725V512.145C320.115 512.956 320.224 513.56 320.443 513.956C320.667 514.348 321.022 514.544 321.51 514.544C321.993 514.544 322.341 514.355 322.556 513.977C322.77 513.598 322.881 513.02 322.89 512.24V509.875ZM332.74 511.885C332.74 513.261 332.455 514.314 331.886 515.043C331.316 515.772 330.482 516.137 329.384 516.137C328.299 516.137 327.47 515.779 326.895 515.063C326.321 514.348 326.027 513.323 326.014 511.987V510.155C326.014 508.765 326.301 507.71 326.875 506.99C327.454 506.27 328.285 505.91 329.37 505.91C330.455 505.91 331.284 506.268 331.858 506.983C332.433 507.694 332.726 508.717 332.74 510.053V511.885ZM330.765 509.875C330.765 509.05 330.651 508.451 330.423 508.077C330.199 507.699 329.849 507.51 329.37 507.51C328.905 507.51 328.561 507.69 328.338 508.05C328.119 508.405 328.003 508.964 327.989 509.725V512.145C327.989 512.956 328.099 513.56 328.317 513.956C328.541 514.348 328.896 514.544 329.384 514.544C329.867 514.544 330.215 514.355 330.43 513.977C330.644 513.598 330.755 513.02 330.765 512.24V509.875ZM340.005 513.033L339.294 513.744V516H337.318V505.5H339.294V511.317L339.677 510.825L341.57 508.604H343.942L341.269 511.687L344.175 516H341.905L340.005 513.033ZM346.484 508.604L346.546 509.431C347.07 508.788 347.779 508.467 348.672 508.467C349.624 508.467 350.278 508.843 350.634 509.595C351.153 508.843 351.894 508.467 352.855 508.467C353.658 508.467 354.255 508.701 354.646 509.171C355.038 509.636 355.234 510.338 355.234 511.276V516H353.252V511.283C353.252 510.864 353.17 510.559 353.006 510.367C352.842 510.171 352.552 510.073 352.138 510.073C351.545 510.073 351.135 510.356 350.907 510.921L350.914 516H348.938V511.29C348.938 510.862 348.854 510.552 348.686 510.36C348.517 510.169 348.23 510.073 347.824 510.073C347.264 510.073 346.858 510.306 346.607 510.771V516H344.632V508.604H346.484Z" fill="black"/>
<rect x="20" y="712" width="336" height="48" rx="8" fill="black"/>
<path d="M180.094 736.477H175.32V741.5H173.82V730.125H180.867V731.359H175.32V735.25H180.094V736.477ZM183.843 741.5H182.398V733.047H183.843V741.5ZM182.28 730.805C182.28 730.57 182.351 730.372 182.491 730.211C182.637 730.049 182.851 729.969 183.132 729.969C183.413 729.969 183.627 730.049 183.773 730.211C183.918 730.372 183.991 730.57 183.991 730.805C183.991 731.039 183.918 731.234 183.773 731.391C183.627 731.547 183.413 731.625 183.132 731.625C182.851 731.625 182.637 731.547 182.491 731.391C182.351 731.234 182.28 731.039 182.28 730.805ZM187.365 733.047L187.412 734.109C188.058 733.297 188.902 732.891 189.943 732.891C191.73 732.891 192.631 733.898 192.647 735.914V741.5H191.201V735.906C191.196 735.297 191.055 734.846 190.779 734.555C190.509 734.263 190.084 734.117 189.506 734.117C189.037 734.117 188.626 734.242 188.272 734.492C187.917 734.742 187.641 735.07 187.443 735.477V741.5H185.998V733.047H187.365ZM194.31 737.203C194.31 735.906 194.617 734.865 195.232 734.078C195.846 733.286 196.651 732.891 197.646 732.891C198.635 732.891 199.419 733.229 199.997 733.906V729.5H201.442V741.5H200.114L200.044 740.594C199.466 741.302 198.661 741.656 197.63 741.656C196.651 741.656 195.851 741.255 195.232 740.453C194.617 739.651 194.31 738.604 194.31 737.312V737.203ZM195.755 737.367C195.755 738.326 195.953 739.076 196.349 739.617C196.745 740.159 197.291 740.43 197.989 740.43C198.906 740.43 199.575 740.018 199.997 739.195V735.312C199.565 734.516 198.901 734.117 198.005 734.117C197.297 734.117 196.745 734.391 196.349 734.938C195.953 735.484 195.755 736.294 195.755 737.367Z" fill="white"/>
</g>
<defs>
<clipPath id="clip0_41_1931">
<rect width="375" height="812" fill="white"/>
</clipPath>
<clipPath id="clip1_41_1931">
<rect width="68" height="13" fill="white" transform="translate(293.5 16.6)"/>
</clipPath>
</defs>
</svg>
