<svg width="678" height="276" viewBox="0 0 678 276" fill="none" xmlns="http://www.w3.org/2000/svg">
<path d="M166.065 180.598C167.128 182.847 167.66 185.037 167.66 187.168C167.66 191.074 166.065 194.389 162.875 197.112C159.802 199.834 156.257 201.196 152.24 201.196C149.522 201.196 147.041 200.485 144.795 199.065C142.55 197.644 140.778 195.513 139.478 192.672L131.502 174.739H74.0742L65.9209 192.672C64.6211 195.513 62.7896 197.644 60.4263 199.065C58.1812 200.485 55.6997 201.196 52.9819 201.196C48.9644 201.196 45.3013 199.834 41.9927 197.112C38.8022 194.389 37.207 191.074 37.207 187.168C37.207 185.037 37.7388 182.847 38.8022 180.598L85.5952 84.3586C87.1314 81.1625 89.3765 78.7358 92.3306 77.0785C95.4028 75.3029 98.7705 74.415 102.434 74.415C105.979 74.415 109.287 75.3029 112.359 77.0785C115.432 78.7358 117.736 81.1625 119.272 84.3586L166.065 180.598ZM85.0635 150.235H120.513L102.788 110.638L85.0635 150.235Z" fill="#5E3CB1"/>
<path d="M195.153 201.196C190.288 201.196 186.55 199.886 183.939 197.267C181.329 194.648 180.023 190.839 180.023 185.839V90.4858C180.023 85.6051 181.447 81.7362 184.295 78.8791C187.262 75.9031 191.237 74.415 196.221 74.415C201.324 74.415 205.358 75.9031 208.325 78.8791C211.291 81.7362 212.775 85.6051 212.775 90.4858V174.589H253.713C264.037 174.589 269.199 179.054 269.199 187.982C269.199 192.505 267.894 195.839 265.283 197.981C262.791 200.124 258.935 201.196 253.713 201.196H195.153Z" fill="#5E3CB1"/>
<path d="M395.831 137.805C395.831 172.815 367.483 201.196 332.514 201.196C297.545 201.196 269.197 172.815 269.197 137.805C269.197 102.796 297.545 74.415 332.514 74.415C367.483 74.415 395.831 102.796 395.831 137.805ZM291.436 137.805C291.436 160.518 309.827 178.931 332.514 178.931C355.201 178.931 373.592 160.518 373.592 137.805C373.592 115.092 355.201 96.6794 332.514 96.6794C309.827 96.6794 291.436 115.092 291.436 137.805Z" fill="#5E3CB1"/>
<path d="M322.548 148.618C325.815 146.984 329.739 148.921 330.428 152.508L333.322 167.582C333.997 171.099 331.177 174.339 327.661 173.663C320.184 172.228 313.452 169.048 307.421 163.674C304.75 161.295 305.61 157.094 308.808 155.493L322.548 148.618Z" fill="#F8D47C"/>
<path d="M342.376 127.906C339.242 129.278 335.629 127.494 334.813 124.172L331.578 111.014C330.675 107.34 333.672 103.864 337.355 104.728C344.224 106.339 350.516 109.34 356.282 114.069C359.203 116.466 358.265 120.951 354.803 122.466L342.376 127.906Z" fill="#F8D47C"/>
<path d="M341.541 148.741C339.906 145.474 341.843 141.55 345.431 140.861L360.505 137.968C364.021 137.292 367.261 140.112 366.586 143.628C365.15 151.105 361.97 157.837 356.596 163.869C354.217 166.539 350.016 165.679 348.416 162.481L341.541 148.741Z" fill="#F8D47C"/>
<path d="M322.67 129.625C324.305 132.892 322.368 136.816 318.78 137.505L303.706 140.399C300.19 141.074 296.95 138.255 297.625 134.738C299.061 127.261 302.241 120.529 307.615 114.498C309.994 111.828 314.195 112.687 315.795 115.885L322.67 129.625Z" fill="#F8D47C"/>
<circle cx="332.109" cy="139.183" r="9.64634" fill="#5E3CB1"/>
<path d="M502.225 74.415C506.697 74.415 510.345 75.8906 513.169 78.8417C516.11 81.7929 517.581 85.6293 517.581 90.3511V185.082C517.581 189.922 516.169 193.818 513.345 196.769C510.521 199.72 506.873 201.196 502.402 201.196C497.107 201.196 493.106 199.425 490.4 195.883L436.743 128.775V185.082C436.743 189.922 435.389 193.818 432.683 196.769C429.977 199.72 426.329 201.196 421.74 201.196C417.268 201.196 413.621 199.72 410.797 196.769C407.973 193.818 406.561 189.922 406.561 185.082V90.3511C406.561 85.6293 407.973 81.7929 410.797 78.8417C413.621 75.8906 417.268 74.415 421.74 74.415C426.8 74.415 430.742 76.1857 433.566 79.7271L487.223 146.659V90.3511C487.223 85.5113 488.576 81.6748 491.282 78.8417C494.106 75.8906 497.754 74.415 502.225 74.415Z" fill="#5E3CB1"/>
<path d="M628.205 129.827C632.051 129.827 635.08 130.937 637.294 133.158C639.625 135.263 640.79 138.127 640.79 141.751V172.262C640.79 178.107 640.324 182.608 639.392 185.764C638.576 188.804 637.003 191.2 634.673 192.954C632.458 194.707 629.079 196.227 624.534 197.513C619.99 198.682 614.921 199.559 609.327 200.143C603.85 200.845 598.723 201.196 593.945 201.196C580.545 201.196 568.892 198.682 558.987 193.655C549.198 188.512 541.682 181.205 536.438 171.736C531.194 162.15 528.572 150.811 528.572 137.718C528.572 124.858 531.194 113.694 536.438 104.225C541.682 94.6391 549.14 87.2743 558.812 82.1306C568.484 76.9869 579.787 74.415 592.722 74.415C600.879 74.415 608.162 75.4087 614.571 77.396C621.097 79.2665 627.156 82.189 632.75 86.1637C634.731 87.5665 636.129 89.0863 636.945 90.7229C637.877 92.3595 638.343 94.4638 638.343 97.0356C638.343 100.66 637.353 103.758 635.372 106.329C633.391 108.784 631.002 110.012 628.205 110.012C626.341 110.012 624.709 109.778 623.311 109.31C622.029 108.726 620.339 107.791 618.242 106.505C613.93 104.167 609.852 102.472 606.006 101.419C602.277 100.367 598.199 99.8413 593.771 99.8413C582.7 99.8413 574.427 102.939 568.95 109.135C563.589 115.331 560.909 124.858 560.909 137.718C560.909 150.928 563.706 160.747 569.299 167.177C575.009 173.49 583.691 176.646 595.344 176.646C600.937 176.646 606.472 176.062 611.949 174.893V151.921H599.364C595.519 151.921 592.547 150.986 590.45 149.116C588.352 147.128 587.303 144.381 587.303 140.874C587.303 137.367 588.352 134.678 590.45 132.808C592.547 130.82 595.519 129.827 599.364 129.827H628.205Z" fill="#5E3CB1"/>
</svg>
